<?xml version="1.0" standalone="no"?>
<!DOCTYPE svg PUBLIC "-//W3C//DTD SVG 1.1//EN" "http://www.w3.org/Graphics/SVG/1.1/DTD/svg11.dtd" >
<svg xmlns="http://www.w3.org/2000/svg" xmlns:xlink="http://www.w3.org/1999/xlink" version="1.1">
<metadata>
Created by FontForge 20170731 at Thu May  1 07:14:41 2008
 By Aleksey,,,
Copyright \251 2002 Font Diner - http://www.fontdiner.com
</metadata>
<defs>
<font id="Leftovers" horiz-adv-x="44" >
  <font-face 
    font-family="Leftovers"
    font-weight="400"
    font-stretch="normal"
    units-per-em="1000"
    panose-1="2 0 5 6 2 0 0 2 0 4"
    ascent="800"
    descent="-200"
    x-height="398.5"
    cap-height="654"
    bbox="-142.282 -310.087 991 893"
    underline-thickness="20"
    underline-position="-153"
    unicode-range="U+0020-FB02"
  />
<missing-glyph horiz-adv-x="1000" 
 />
    <glyph glyph-name="fi" unicode="fi" horiz-adv-x="983" 
d="M963 468q-32 25 -56.5 50.5t-41.5 46.5q-20 25 -35 48q-14 23 -30.5 19.5t-31 -17t-25 -29.5t-12.5 -20q1 -5 1 -15q0 -8 -2 -21q-2 -11 -4 -29t-7 -44q44 -28 61 -57.5t21 -55.5q4 -30 -6 -58q-15 -37 -35 -65t-38 -52.5t-30 -47t-12 -48.5q-1 -38 -0.5 -49t1.5 -12
q1 -10 5.5 -16.5t9 -11.5t7 -10t-1.5 -12q-3 -5 -9 -7q-5 -2 -14 0t-23 13q-12 -10 -20.5 -12.5t-13.5 -0.5q-6 2 -10 7q-4 7 -3.5 12.5t4 10.5t8 10.5t6.5 12.5q1 16 0.5 29t-0.5 24q0 12 -1 22q0 12 -2 27q-2 13 -4 31t-6 39l1 1q-18 -23 -30 -23q-15 2 -32 13
q-14 10 -32.5 31t-38.5 59q-20 -38 -38.5 -59t-32.5 -31q-17 -11 -32 -13q-12 0 -29 22q0 -1 -1.5 -10.5t-4 -24t-4.5 -31t-2 -31.5v-22v-53q2 -7 6.5 -12.5t7.5 -10.5t4 -10.5t-4 -12.5q-4 -5 -10 -7q-5 -2 -13.5 0.5t-20.5 12.5q-13 -11 -22 -13t-14 0q-6 2 -9 7
q-4 7 -1.5 12t6.5 10t8.5 11.5t5.5 16.5h1q0 1 0.5 12t0.5 49q0 26 -12.5 48.5t-30 47l-37.5 52.5t-35 65q-10 28 -6 58q3 26 20.5 55.5t60.5 57.5v-1q-6 29 -9.5 53.5t-3.5 41.5q0 11 1 16q-3 6 -14 22t-25 28.5t-30 15t-29 -19.5q-15 -23 -35 -48q-17 -21 -41.5 -46.5
t-56.5 -50.5q33 104 56 161t36 84q16 32 25 38q21 3 48 -5q23 -7 57.5 -25.5t77.5 -56.5l78 36q14 -22 32.5 -34t35.5 -17q20 -6 41 -7q21 1 39 7q16 5 32.5 17t25.5 34l79 -36q44 38 78 56.5t57 25.5q27 8 48 5q10 -6 26 -38q14 -27 36 -84t55 -161z" />
    <glyph glyph-name="fl" unicode="fl" horiz-adv-x="1011" 
d="M359 -34q4 5 2.5 8.5t-6.5 10.5q-2 4 -5 7.5t-5 8.5l-44 3q-2 -8 -6 -13.5t-8 -9.5q-9 -9 -5 -16q1 -3 4 -4q6 -1 15.5 3.5t15.5 8.5l4 3l5 -3q5 -4 13 -8.5t14 -2.5q5 0 6 4zM356 179q-15 20 -29.5 51t-28 67t-25 74.5t-20.5 73.5q-9 -7 -24.5 -21.5t-28.5 -35
t-18.5 -45.5t6.5 -54q14 -32 30.5 -57.5t33.5 -47.5q21 -29 36.5 -55t15.5 -56v-34.5t-1 -20.5l40 -2v29t1 38q1 14 2.5 29t3.5 28.5t3.5 24t2.5 14.5zM708 -35q4 7 -5 16q-4 4 -8 9.5t-6 13.5l-44 -3q-2 -5 -5 -8.5t-5 -7.5q-5 -7 -6.5 -10.5t2.5 -8.5q3 -4 6 -4
q6 -2 14 2.5t13 8.5l5 3l4 -3q6 -4 15.5 -8.5t15.5 -3.5q3 1 4 4zM303 663q-9 8 -28.5 23t-44.5 29.5t-51 24t-47 4.5q-6 -2 -17 -24.5t-25 -58t-30.5 -80t-31.5 -91.5q11 9 25 22.5t29.5 30t30.5 35.5t28 39q13 23 35 23q20 -1 37.5 -19.5t28.5 -34.5q8 25 24.5 44t36.5 33
zM739 551q0 32 -17.5 57t-41 42t-46 27.5t-32.5 13.5q-3 -6 -10.5 -15.5t-19.5 -18.5t-29.5 -15.5t-41.5 -6.5t-43 7t-33 16t-23 18.5t-13 14.5q-9 -3 -29.5 -12t-42.5 -24t-41 -36.5t-24 -49.5q-1 -5 -1 -9v-9q0 -28 7.5 -67.5t20 -82t28 -85t31 -76t30 -54.5t24.5 -21
q14 0 29 11.5t28.5 28t23.5 33.5t15 27l7 12l6 -12q5 -10 15.5 -27t23.5 -33.5t28 -28t30 -11.5q10 0 24.5 21t30 54.5t31 76t28 85t20 82t7.5 67.5zM802 289q12 29 6.5 54.5t-18 46t-28.5 35t-25 21.5q-9 -36 -20.5 -74.5t-25 -74.5t-28 -67t-29.5 -51q1 -4 2.5 -14.5
t3.5 -24t3.5 -28.5t2.5 -29q1 -19 1 -38v-29l40 2q-1 8 -1 20.5v34.5q0 30 16 56t36 55q17 22 33.5 47.5t30.5 57.5zM963 490q-15 47 -31.5 91.5t-30.5 80t-25.5 58t-17.5 24.5q-21 5 -47 -4.5t-51 -24t-45 -30t-28 -22.5q20 -14 36.5 -33.5t24.5 -44.5q11 16 29 35t38 20
q22 0 35 -23q13 -20 28 -39t30.5 -35.5t30 -30t24.5 -22.5zM973 463q-1 1 -15.5 13t-35 31.5t-43.5 46t-41 56.5q-10 16 -22 16q-9 0 -18.5 -7t-18 -17t-15.5 -20.5t-11 -17.5v-13q0 -16 -3 -39t-10 -51q7 -5 25 -20.5t34 -39t23 -53.5t-7 -65q-14 -33 -31 -59t-34 -49
q-21 -28 -35 -52t-15 -50q0 -25 0.5 -37t0.5 -17h4l-3 -8q2 -8 5 -12t7 -9q5 -5 9 -12.5t-2 -18.5q-5 -9 -14 -11q-10 -3 -21 2t-17 9q-5 -4 -15 -8.5t-20 -2.5q-9 2 -15 10q-8 13 -4 21t9 15q2 4 4.5 7.5t4.5 8.5v27t-1 45q-1 20 -4.5 44t-5.5 39q-12 -14 -24 -14
q-17 0 -33 11t-29.5 26t-24 31.5t-16.5 26.5q-6 -10 -16.5 -26.5t-24 -31.5t-29.5 -26t-33 -11q-11 0 -24 13q-2 -14 -5 -38t-5 -44q-1 -23 -1 -45t1 -27t3.5 -8.5t5.5 -7.5q5 -7 8.5 -15t-4.5 -21q-4 -8 -15 -10q-10 -2 -20 2.5t-15 8.5q-6 -4 -17 -9t-21 -2q-9 2 -14 11
q-5 11 -1.5 18.5t8.5 12.5q4 5 7 9t5 12l-3 8h4q1 5 1 17v37q-1 26 -15 50t-35 52q-17 23 -34 49t-31 59q-14 35 -7 65t23 53t34 38.5t25 20.5q-14 59 -14 91q0 4 0.5 7.5t0.5 7.5q-4 7 -11 17t-15.5 19.5t-17.5 16.5t-18 7q-12 0 -22 -16q-18 -30 -41 -56.5t-43.5 -46
t-34.5 -31.5t-16 -13l-18 -14l7 22q10 32 26.5 79.5t34 93t34 79t27.5 35.5q25 5 54.5 -5.5t57 -26.5t48 -32t27.5 -22q27 17 49.5 25.5t24.5 9.5l5 1l3 -4l6.5 -9t19.5 -19t32.5 -18.5t44.5 -8.5t42 8t27.5 18t15.5 18.5t5 9.5l3 5l6 -1q2 -1 25 -9.5t50 -26.5q6 6 26.5 22
t47.5 32.5t57 27t55 5.5q8 -1 18 -17.5t21.5 -41t23.5 -55.5t23 -62.5t20.5 -60.5t16.5 -50l7 -22z" />
    <glyph glyph-name=".notdef" horiz-adv-x="1000" 
 />
    <glyph glyph-name=".null" horiz-adv-x="0" 
 />
    <glyph glyph-name="nonmarkingreturn" 
 />
    <glyph glyph-name="space" unicode=" " horiz-adv-x="230" 
 />
    <glyph glyph-name="exclam" unicode="!" horiz-adv-x="118" 
d="M81 -9q-5 -5 -7.5 -11t-7.5 -11q-4 -3 -9.5 -3t-10.5 2q-12 5 -25 13t-13 21q2 13 14 23t26 10q5 0 11.5 -1.5t10.5 -5.5q4 -5 5.5 -10.5t4.5 -10.5q2 -2 2.5 -8t-1.5 -8zM90 550q0 -9 -1 -14q0 -2 -1 -4t1 -3t1.5 -5t-2.5 -6q0 -2 -2 -4q0 -1 -2 -3q-1 -2 -1 -4.5
t-1 -5.5t-1 -9v-9q0 -2 0.5 -4.5t0.5 -4.5q5 -36 2 -72t-4 -72q-1 -16 2 -31.5t2 -32.5q-1 -6 -3.5 -11.5t-3.5 -11.5q-1 -8 2 -14.5t3 -13.5q2 -14 -2 -28.5t-6 -28.5q-2 -17 -1.5 -34.5t-7.5 -32.5q-3 -6 -11.5 -7.5t-16.5 0.5q-7 1 -11.5 7.5t-5.5 13.5q-1 13 2 25.5
t3 25.5q0 41 3 81.5t7 81.5q2 23 -2 47t-2 48q1 18 4.5 36t5.5 37q1 12 -1 24.5t0 25.5q2 8 4.5 16t10.5 11q14 7 27 0q8 -5 8 -14z" />
    <glyph glyph-name="quotedbl" unicode="&#x22;" horiz-adv-x="165" 
d="M67 431q0 -5 -2.5 -10.5t-3.5 -10.5q-2 -7 -2 -13.5t-3 -13.5q-2 -4 -6.5 -4.5t-8.5 -0.5q-8 -1 -16 -0.5t-14 5.5q-5 4 -2 11.5t3 14.5q-1 18 0.5 36t3.5 35q1 11 -3.5 21t-4.5 21q0 8 3.5 16t4.5 16q0 7 -2.5 14t1.5 13q5 8 17 8.5t22 -1.5q7 -2 8 -6q1 -2 -0.5 -5
t0.5 -4q1 -1 0.5 -2.5t-0.5 -2.5l-2 -2l-2 -1q-2 -4 -2 -5q-1 -1 -1 -4q0 -5 2.5 -9.5t3.5 -9.5q2 -9 1 -18l-2 -18v-15.5t2 -15.5q1 -3 2 -5.5t2 -5.5q1 0 1 -2q-1 -2 -3 -4.5t-3 -5.5q-1 -5 3 -8t3 -8zM157 431q0 -5 -2.5 -10.5t-3.5 -10.5q-2 -7 -2 -13.5t-3 -13.5
q-2 -4 -6.5 -4.5t-8.5 -0.5q-8 -1 -16 -0.5t-14 5.5q-5 4 -2 11.5t3 14.5q-1 18 0.5 36t3.5 35q1 11 -3.5 21t-4.5 21q0 8 3.5 16t4.5 16q0 7 -2.5 14t1.5 13q5 8 17 8.5t22 -1.5q7 -2 8 -6q1 -2 -0.5 -5t0.5 -4q1 -1 0.5 -2.5t-0.5 -2.5l-2 -2l-2 -1q-2 -4 -2 -5
q-1 -1 -1 -4q0 -5 2.5 -9.5t3.5 -9.5q2 -9 1 -18l-2 -18v-15.5t2 -15.5q1 -3 2 -5.5t2 -5.5q1 0 1 -2q-1 -2 -3 -4.5t-3 -5.5q-1 -5 3 -8t3 -8z" />
    <glyph glyph-name="numbersign" unicode="#" horiz-adv-x="392" 
d="M247 237v8t-1 9q0 5 -1 8.5t-2 8.5v4q1 1 1 2t1 3q-12 1 -24 1.5t-23 1.5q-14 2 -28.5 -1.5t-28.5 -5.5l-6 -42q-2 -15 0.5 -30.5t1.5 -30.5q8 -1 16 -1.5t16 -0.5h17q5 1 8.5 1t8.5 1l8 2t9 2h3q5 0 8.5 -2.5t8.5 -2.5q2 12 3.5 24t2.5 24q0 5 0.5 8.5t0.5 8.5zM364 290
q-4 -11 -11 -14q-10 -2 -19.5 0.5t-19.5 2.5h-16q-2 -11 -3.5 -22.5t-3.5 -22.5q-2 -15 0.5 -30.5t2.5 -31.5q8 -2 17 -2.5t17 -1.5q5 0 10 -0.5t10 -3.5q7 -5 7.5 -14t-2.5 -17q-2 -4 -4.5 -8t-7.5 -5q-9 -3 -18.5 -0.5t-19.5 2.5h-20q0 -2 -0.5 -4t-0.5 -4q-2 -13 0 -27.5
t-7 -23.5q-8 -7 -22.5 -6t-19.5 10q-1 6 0 12q0 2 1.5 4.5t-0.5 2.5q-2 1 -1.5 3.5t1.5 4.5q2 2 2 3q1 1 1.5 1t1.5 1q1 2 1 3.5t1 3.5t1 6v7v4q-14 1 -28 1.5t-28 2.5q-15 1 -30 -2.5t-30 -4.5q0 -4 -1 -6q-2 -13 0.5 -27.5t-7.5 -23.5q-8 -7 -22 -6t-19 10q-3 5 -1 12
q1 2 2 4.5t-1 2.5q-2 1 -1.5 3.5t2.5 4.5q0 1 2 3l2 2q2 4 2 7q1 2 1 3t1 3v7q0 2 -0.5 3t-0.5 3q-5 1 -9 1.5t-9 0.5q-13 1 -27.5 -2t-23.5 6q-8 8 -8 22.5t8 19.5q5 3 12 1q2 0 4.5 -1t3.5 1t4.5 1t5.5 -3t3 -2q4 -2 7 -2q2 -1 6 -1h7q4 1 7 1.5t7 1.5q2 13 3.5 25t2.5 25
q1 5 1 8.5v8.5v17q-1 5 -1.5 8.5t-1.5 8.5v4q0 2 1 3.5t2 3.5q-8 2 -12 2q-13 1 -27.5 -2t-23.5 6q-8 8 -8 22t9 19q2 2 5.5 2h6.5l4 -2t3 1q1 3 5 1.5t6 -3.5l2 -2q2 -1 3.5 -1t3.5 -1h6q2 -1 3.5 -0.5t3.5 0.5q3 1 5.5 1t5.5 1q2 5 3.5 9t2.5 9q4 18 6 35l2 10t4 10
q5 6 14.5 6t16.5 -3q4 -2 8 -5t5 -8q2 -10 -1.5 -19.5t-3.5 -19.5q-1 -5 -1 -10.5t-1 -10.5q9 0 17.5 -0.5t16.5 -0.5q5 0 9 -0.5t8 0.5q5 0 8.5 0.5t8.5 1.5q10 2 17 4h3q4 0 7.5 -2t7.5 -3q1 5 5 15q2 9 3 18t3 17q1 5 1.5 10t3.5 10q5 6 14.5 6t17.5 -3q4 -2 7.5 -5
t4.5 -8q2 -10 -1 -19.5t-4 -19.5q0 -5 -0.5 -10.5t-0.5 -10.5l1 -1q9 -2 18 -2t17 -1q5 -1 10.5 -1t9.5 -3q7 -5 7.5 -14t-2.5 -17z" />
    <glyph glyph-name="dollar" unicode="$" horiz-adv-x="345" 
d="M264 172q0 12 -8 22.5t-18 17.5q-11 7 -23 12t-25 10l2 -16t1 -16t-2 -14.5t-3 -14.5q0 -8 3 -16t5 -17q1 -11 0.5 -21.5t-2.5 -21.5q32 6 53 29q8 9 13 21.5t4 24.5zM137 298q-2 19 -5 37t-3 37q-1 16 0.5 31.5t2.5 31.5q-13 -2 -25.5 -6t-23.5 -12q-10 -7 -15.5 -19.5
t-5.5 -25.5q0 -20 10 -33q10 -12 23.5 -20.5t27.5 -14.5q10 -4 14 -6zM317 173q0 -23 -10 -44.5t-27 -36.5q-18 -16 -41.5 -24.5t-47.5 -11.5v-30v-16.5t-3 -16.5q-2 -7 -10.5 -9.5t-16.5 -1.5t-13 10.5t-6 17.5q-1 11 0 23t1 23q-20 3 -38 10.5t-32 20.5q-10 9 -17.5 22
t-7.5 27q0 3 1 7t3 6q4 5 10.5 6t11.5 -1q7 -2 12.5 -7.5t10.5 -12t10.5 -12.5t12.5 -9q-1 1 1 0t3 -1q8 -4 12 -5l5 -2q-2 36 -2 72.5t1 73.5q-25 8 -49 18t-44 27q-17 14 -28.5 33.5t-10.5 41.5q1 17 8 34t17 32q5 8 11 15.5t14 13.5q15 11 34 16t39 7q-3 17 -2 30
q0 9 2 18.5t10 14.5q14 9 27 2q5 -2 7 -8.5t2 -11.5q2 -6 0 -12q0 -2 -0.5 -5t1.5 -4q3 0 2 -4.5t-2 -8.5q-1 -1 -1 -2t-1 -2q0 -1 -2 -5v-2q19 -2 37 -7t34 -14q27 -17 43 -45q15 -28 17 -60q0 -8 -4.5 -16t-12.5 -10q-8 -4 -13 1q-7 2 -10.5 9.5t-5.5 14.5q-4 11 -7.5 22
t-9.5 21q-10 15 -28 22.5t-37 9.5q6 -38 5.5 -76t1.5 -76q21 -6 41.5 -12t40.5 -17q21 -12 36.5 -35t14.5 -48z" />
    <glyph glyph-name="percent" unicode="%" horiz-adv-x="441" 
d="M372 147q-1 9 -3.5 15.5t-3.5 11.5q-2 11 -3.5 22t-6.5 22q-4 8 -10 16t-15 8q-10 0 -16 -9t-11 -17q-8 -16 -13 -33t-5 -34q0 -20 6 -39.5t18 -34.5q4 -5 8 -11t9 -9t11.5 2t9.5 10q6 11 9 22l6 22q2 6 6 17t4 19zM138 421q0 8 -3 14t-3 11q-2 11 -3.5 22t-6.5 22
q-4 8 -10 16t-15 9q-10 0 -16 -9.5t-11 -17.5q-8 -15 -13 -32.5t-5 -34.5q0 -20 6 -39t18 -35q4 -5 8 -10.5t9 -9.5q5 -3 11.5 2t9.5 10q6 11 9 22l6 22q2 6 5.5 18t3.5 20zM344 528q3 -5 1.5 -11.5t-3.5 -11.5t-5 -10q-2 -2 -4 -4.5t0 -3.5q2 -2 -1 -6t-5 -6l-4 -4
q-1 -1 -2 -1.5t-2 -1.5l-6 -9q-2 -2 -3 -5t-3 -5t-2.5 -5t-1.5 -5q-2 -5 -4 -11q-14 -42 -34.5 -80t-39.5 -78q-8 -18 -13.5 -37t-14.5 -36q-3 -6 -8 -11.5t-9 -11.5q-5 -8 -5.5 -16.5t-4.5 -16.5q-6 -17 -16.5 -30.5t-19.5 -28.5q-6 -11 -11.5 -21t-11.5 -21
q-4 -8 -8 -15.5t-10 -13.5q-5 -5 -14 -3.5t-15 5.5q-8 5 -7.5 16t4.5 19q5 14 13 25.5t14 24.5q21 45 44 89l46 88q14 26 22.5 53.5t21.5 53.5q10 20 22.5 38.5t23.5 38.5q7 14 11.5 28t12.5 27q5 8 11.5 16t15.5 9q7 1 14 -2.5t11 -8.5zM413 119q0 -6 -1.5 -12t-3.5 -12v-4
l-3 -9q-3 -7 -8 -12.5t-9 -12.5q-11 -17 -27 -34t-36 -18q-17 0 -32 10t-24 24q-16 24 -22 53t-6 58q0 21 1 42t9 40q3 8 9.5 15t12.5 13q5 6 9 13t10 12q8 7 18.5 11t20.5 3q11 -1 22 -6t19 -13q15 -15 24 -35t13 -40q2 -12 1.5 -26.5t0.5 -22.5t2 -20t0 -17zM180 391
q0 -6 -1.5 -12t-3.5 -12v-4l-3 -9q-3 -7 -8 -12.5t-9 -11.5q-11 -18 -27 -35t-36 -17q-17 0 -32 9.5t-24 23.5q-16 24 -22 53t-6 58q0 21 1 42t9 40q3 8 9.5 15t12.5 14q5 5 9 12t10 12q8 7 18.5 11t20.5 3q22 -2 39 -17q16 -14 25 -35t14 -42q2 -12 2 -24v-24t1.5 -22.5
t0.5 -15.5z" />
    <glyph glyph-name="ampersand" unicode="&#x26;" horiz-adv-x="430" 
d="M293 90q-2 2 -3 3.5t-3 3.5q2 -2 -1.5 2t-5.5 6q-5 6 -9.5 12t-8.5 13q-14 20 -26.5 40.5t-26.5 40.5q-13 19 -26.5 37t-26.5 37l-34 -46q-13 -17 -26.5 -33.5t-22.5 -36.5q-12 -29 -10 -64q1 -17 6.5 -34.5t17.5 -29.5q13 -14 31.5 -21t37.5 -8q39 -2 72 19
q20 11 35.5 26.5t29.5 32.5zM230 478q0 11 -3 22t-10 19q-8 8 -19 11.5t-22 2.5q-18 -2 -36.5 -15.5t-18.5 -31.5q2 -31 13 -60t26 -57q12 14 24.5 29t23.5 31q8 11 15 23t7 26zM402 13q-1 -2 -9 -8.5t-11 -7.5t-8 2.5t-10 8t-9.5 9t-6.5 7.5q-6 6 -12 12.5t-12 13.5
q-14 -17 -30 -31.5t-35 -25.5q-23 -14 -49.5 -22.5t-53.5 -9.5q-29 0 -58.5 10t-50.5 30q-20 20 -29.5 48t-9.5 56q0 30 10 58t25 54q17 31 38.5 58.5t44.5 54.5q-11 17 -19 32q-15 29 -27.5 60t-11.5 64q0 20 10 39t26 32q32 24 72 24q20 0 39 -7.5t33 -21.5
q13 -14 19.5 -34t6.5 -40q0 -17 -6 -32.5t-15.5 -30.5t-20.5 -29t-21 -28q-7 -8 -13.5 -17t-13.5 -18q26 -44 56 -84.5t62 -80.5l20 -26q9 15 19 34q7 12 15 25t22 17q3 1 7 0t6 -4q4 -9 2 -19t-4 -19q-5 -20 -13.5 -38t-19.5 -35l-2 -2q7 -10 13.5 -19t12.5 -19q2 -3 6 -8
t8 -11t6.5 -11.5t1.5 -9.5z" />
    <glyph glyph-name="quotesingle" unicode="'" horiz-adv-x="95" 
d="M67 431q0 -5 -2.5 -10.5t-3.5 -10.5q-2 -7 -2 -13.5t-3 -13.5q-2 -4 -6.5 -4.5t-8.5 -0.5q-8 -1 -16 -0.5t-14 5.5q-5 4 -2 11.5t3 14.5q-1 18 0.5 36t3.5 35q1 11 -3.5 21t-4.5 21q0 8 3.5 16t4.5 16q0 7 -2.5 14t1.5 13q5 8 17 8.5t22 -1.5q7 -2 8 -6q1 -2 -0.5 -5
t0.5 -4q1 -1 0.5 -2.5t-0.5 -2.5l-2 -2l-2 -1q-2 -4 -2 -5q-1 -1 -1 -4q0 -5 2.5 -9.5t3.5 -9.5q2 -9 1 -18l-2 -18v-15.5t2 -15.5q1 -3 2 -5.5t2 -5.5q1 0 1 -2q-1 -2 -3 -4.5t-3 -5.5q-1 -5 3 -8t3 -8z" />
    <glyph glyph-name="parenleft" unicode="(" horiz-adv-x="205" 
d="M173 -35q2 -5 1 -9t-3 -9q-1 -5 -7 -11q-7 -5 -16.5 -1.5t-16.5 8.5q-11 8 -20.5 19t-17.5 22q-20 32 -37.5 65.5t-27.5 69.5q-11 38 -14 77t-2 78q1 32 -0.5 64t3.5 63q5 29 16 55.5t22 53.5q8 18 14 36.5t17 35.5q5 8 10 14.5t13 11.5q16 7 29 -4q5 -4 5.5 -11
t-2.5 -13q-3 -8 -8 -14.5t-9 -14.5q2 2 0 -3t-4 -7q-3 -5 -7 -8.5t-7 -8.5q-9 -14 -13.5 -30.5t-7.5 -32.5q-10 -47 -19 -93t-8 -94q0 -12 1 -24t3 -24q2 -11 5 -20.5t5 -19.5q2 -11 0.5 -21t1.5 -20q4 -11 10 -20.5t10 -20.5q5 -14 8.5 -27.5t9.5 -26.5q8 -15 17.5 -29.5
t20.5 -27.5l13.5 -13.5t11.5 -14.5z" />
    <glyph glyph-name="parenright" unicode=")" horiz-adv-x="185" 
d="M173 274q0 -39 -3 -78t-13 -77q-10 -36 -27.5 -69.5t-38.5 -65.5q-8 -11 -17 -22t-20 -19q-7 -5 -16.5 -8.5t-17.5 1.5q-4 4 -6 11q-2 5 -3 9t1 9q4 8 11 14.5t13 13.5q22 25 38 57q6 13 9.5 26.5t8.5 27.5q5 11 10.5 20.5t9.5 20.5q3 10 2 20t1 21q2 10 4.5 19.5
t4.5 20.5q2 12 3 24l2 24q1 48 -8.5 94t-18.5 93q-4 16 -8 32.5t-13 30.5q-3 5 -7.5 8.5t-6.5 8.5q-2 2 -4.5 7t-0.5 3q-4 8 -9 14.5t-8 14.5q-2 6 -1.5 13t5.5 11q5 5 13.5 6t15.5 -2q8 -5 13 -11.5t10 -14.5q10 -17 16.5 -35.5t13.5 -36.5q11 -27 22.5 -53.5t16.5 -55.5
q5 -31 3.5 -63t-0.5 -64z" />
    <glyph glyph-name="asterisk" unicode="*" horiz-adv-x="272" 
d="M244 310q0 -5 -1 -8l-1 -2q-5 -6 -12.5 -7.5t-13.5 -5.5q-7 -5 -14 -8.5l-15 -7.5q6 -5 11.5 -10.5t12.5 -9.5q7 -5 17 -7.5t13 -10.5q4 -9 -1.5 -20t-13.5 -17q-2 -2 -5 -2.5t-5 1.5q-2 1 -3.5 3.5t-3.5 0.5q-2 -1 -3 0.5t-2 2.5t-1 3l-1 2q-4 8 -12 9q-6 2 -13 3t-13 4
q-2 1 -3.5 2t-3.5 2v-5q0 -10 -3.5 -19.5t-4.5 -19.5q0 -9 2.5 -18.5t-3.5 -16.5q-6 -8 -18 -8.5t-22 3.5q-5 3 -5 8q0 2 1 5t-1 5q-2 3 0 5l2 2l2 2q4 5 2 15q-1 7 -3 13t-3 13v7q-2 -2 -3 -2q-8 -5 -18 -6.5t-19 -6.5q-8 -4 -15.5 -11.5t-15.5 -5.5q-10 2 -16.5 12
t-7.5 21q0 6 4 9q2 1 5 1.5t3 2.5q0 3 5 3q1 0 1.5 -0.5t1.5 -0.5t1.5 -0.5t1.5 -0.5q9 0 13 6l9.5 9.5t10.5 8.5q4 2 7.5 4.5t8.5 4.5q-2 4 -4 5q-4 4 -9.5 2.5t-10.5 1.5q-6 4 -10 9t-9 9q-7 5 -14 9t-12 10q-3 3 -2 8t3 9q2 5 5 10.5t8 8.5q2 2 6 4h3q8 -1 13 -6.5
t12 -8.5q11 -6 22.5 -12.5t22.5 -13.5q1 5 -3 10t-3 10q0 7 2.5 12.5t3.5 12.5q2 8 2 16t3 16q2 4 6 5.5t9 1.5q6 1 12.5 0.5t11.5 -2.5q4 -2 6 -4q0 -1 0.5 -1.5t0.5 -1.5q2 -7 0 -14t-2 -14q1 -13 0.5 -25.5t-1.5 -25.5q5 2 6.5 7.5t6.5 7.5q6 3 12.5 3.5t12.5 3.5
q8 3 15 6.5t15 5.5q5 1 8.5 -2.5t5.5 -7.5q3 -5 6 -10.5t4 -10.5z" />
    <glyph glyph-name="plus" unicode="+" horiz-adv-x="268" 
d="M260 233q-2 -6 -8 -6q-2 0 -4.5 1t-4.5 -1t-6 0l-2 2l-2 2q-7 3 -14 2q-7 -2 -13 -4.5t-13 -2.5q-15 -2 -29 0q2 -7 3.5 -14t1.5 -14q-1 -10 -4 -19.5t-4 -19.5q-1 -8 2 -18t-3 -17q-7 -8 -19 -8.5t-21 4.5q-4 1 -6 8q0 2 1.5 4.5t-0.5 4.5q-2 1 0 6l2 2q1 0 1 0.5t1 0.5
q3 8 2 15q-2 7 -4 13t-2 13q-1 9 -0.5 17.5t1.5 17.5l-9 -3q0 -1 -2 -1q-4 0 -6.5 2.5t-6.5 3.5q-5 1 -9.5 -3.5t-9.5 -4.5q-7 1 -13 3.5t-12 2.5q-8 2 -16 1.5t-16 2.5q-5 2 -6 6t-2 9q-1 6 -1 12t3 12l3 6q1 0 1.5 0.5t1.5 0.5q7 3 14 0.5t15 -1.5q33 2 66 0l-1 2v2
q0 4 2.5 6.5t3.5 6.5q1 5 -3 9.5t-4 9.5q1 7 3.5 13t3.5 12q2 8 1.5 16t2.5 16q2 5 6.5 6t9.5 1q6 1 12 1t11 -3q4 -2 6 -4q1 -1 1 -1.5t1 -1.5q2 -7 -0.5 -14t-1.5 -14v-29t-2 -29q9 3 17 3q10 0 19.5 -3t19.5 -3q9 -1 18.5 2t16.5 -2q8 -7 9 -19t-3 -21z" />
    <glyph glyph-name="comma" unicode="," horiz-adv-x="104" 
d="M76 40q1 -1 0 -2t-3 -1q-1 0 -2 -1l-2 -2q-1 0 -1 -2q-1 -4 1.5 -7t2.5 -8t-2 -10t-4 -11v-5v-6q1 -2 2 -3t2 -3v-2q-1 -2 -4.5 -2.5t-2.5 -2.5t3 -3.5t2 -3.5q1 -3 -3 -5.5t-6 -5.5q-2 -4 -3 -8t-3 -6q-4 -3 -9.5 -1.5t-10.5 2.5q-6 1 -12.5 2.5t-11.5 5.5q-2 1 -2 3
t1 4t2 3.5t1 3.5q2 10 5.5 19.5t6.5 20.5q2 5 -2 10t-3 10q2 5 5.5 8t5.5 8q1 3 -0.5 7t0.5 7q4 3 9 2.5t10 -1.5q7 -1 14.5 -2t13.5 -6q1 -1 -0.5 -3t0.5 -3z" />
    <glyph glyph-name="hyphen" unicode="-" horiz-adv-x="288" 
d="M260 246q2 -14 -2 -23l-4 -6q-2 -2 -3 -2q-7 -2 -14 0t-15 2q-21 -1 -42.5 0.5t-43.5 3.5q-12 2 -24.5 -3t-24.5 -5q-11 0 -20 3.5t-19 4.5q-9 1 -18.5 -2t-16.5 3q-8 6 -8.5 18.5t3.5 21.5q2 5 8 5q2 1 5 -0.5t4 0.5t6 0l2 -2l2 -2q7 -4 14 -2t13.5 4t13.5 2
q12 1 24 -0.5t24 -1.5h12q3 1 6 1t6 1q4 1 7 2l6 2q1 1 3 1q3 0 6 -2.5t6 -3.5q5 -1 10 3t10 4q6 -1 12 -3.5t13 -3.5q8 -2 16 -2t16 -2q4 -2 5 -6.5t2 -9.5z" />
    <glyph glyph-name="period" unicode="." horiz-adv-x="112" 
d="M84 12q-5 -5 -8 -11.5t-8 -11.5q-4 -4 -9.5 -3.5t-10.5 2.5q-13 5 -26.5 13t-13.5 22q2 13 14.5 23.5t26.5 10.5q6 0 12.5 -1t11.5 -6q4 -5 5 -11t5 -11q2 -2 2.5 -8t-1.5 -8z" />
    <glyph glyph-name="slash" unicode="/" horiz-adv-x="248" 
d="M216 517q-1 -3 -2 -5.5t-2 -5.5q-1 -2 -3 -5t0 -4q3 -2 0.5 -6t-4.5 -7q-2 -2 -3 -4l-3 -3q-4 -5 -5 -11q-2 -4 -4 -10q-1 -3 -3 -11q-1 -2 -1 -5t-1 -6q-6 -44 -20.5 -85t-26.5 -83q-5 -19 -7 -38.5t-8 -37.5q-2 -7 -7 -13t-7 -13q-3 -8 -2.5 -17t-1.5 -17
q-4 -17 -12 -32.5t-14 -31.5q-4 -11 -7.5 -23t-8.5 -23q-2 -8 -5 -16t-8 -15q-5 -6 -13.5 -6t-15.5 4q-8 3 -9.5 14t0.5 19q4 14 9.5 27t9.5 27q13 48 28.5 95t31.5 94q10 28 13.5 56.5t12.5 55.5q6 22 15.5 42.5t17.5 41.5q5 14 7 29.5t7 29.5q4 8 9 17.5t14 11.5
q16 3 26 -7q4 -5 4.5 -11.5t-1.5 -11.5z" />
    <glyph glyph-name="zero" unicode="0" horiz-adv-x="382" 
d="M308 294q0 10 -0.5 24t-1 27.5t-1.5 24.5t-2 14q-3 17 -6 32.5t-7 32.5q-8 31 -20.5 61t-33.5 55q-12 14 -29 25.5t-36 10.5q-15 0 -27.5 -8t-23.5 -19.5t-19.5 -25.5t-14.5 -28q-20 -42 -28 -89.5t-6 -94.5q2 -50 16 -99t41 -91q14 -23 35 -44.5t48 -23.5q17 -1 32 8.5
t26 22.5q18 21 27.5 47.5t15.5 52.5q5 21 10 42.5t5 42.5zM354 283q0 -14 -2.5 -26.5t-4.5 -26.5q1 2 0.5 -1t-0.5 -5q-2 -5 -2.5 -10t-2.5 -10q-4 -15 -10.5 -28.5t-12.5 -27.5q-12 -25 -26 -49t-34 -43q-14 -12 -31 -19.5t-35 -8.5q-17 -1 -34 5t-32.5 16t-28.5 23.5
t-22 27.5q-35 51 -50 112t-18 122q-2 45 0 90.5t16 88.5q5 14 13 27.5t16 26.5q11 16 21.5 32.5t24.5 29.5q14 12 32.5 20.5t37.5 8.5q24 0 47.5 -11.5t40.5 -28.5q30 -31 49 -70.5t30 -81.5q10 -34 13 -72q0 -4 1 -16.5t1.5 -25.5t1.5 -24.5t1 -14.5q2 -15 0 -30z" />
    <glyph glyph-name="one" unicode="1" horiz-adv-x="261" 
d="M233 5q-2 -8 -7 -9q-2 0 -4.5 1.5t-4.5 -0.5q-2 -3 -5 0l-2 2l-2 2q-2 2 -4 2q-1 1 -4 1h-5q-6 -2 -11.5 -3.5t-11.5 -2.5q-11 0 -21.5 1.5t-21.5 2.5h-11q-5 0 -11 -2q-3 0 -6 -1l-6 -2q-1 -1 -2 -1q-3 1 -5.5 3t-5.5 3q-5 2 -9 -2t-9 -3q-5 0 -10.5 3t-11.5 4
q-7 2 -14 2t-14 3q-4 2 -5 7t-1 9v12.5t3 11.5q2 2 4 4.5t6 3.5q5 0 10.5 -2t11.5 -2q15 0 30 -1t29 -3v6q0 8 1 15t1 15v4q0 8 1 12q3 10 5.5 19.5t3.5 19.5q2 11 1 23t-2 23q-1 20 0 39t3 39q3 32 6 64.5t4 64.5q1 18 -1 36t0 36q1 11 5 22.5t3 22.5q0 11 -2 21t-1 21
q2 21 6 42t7 42q-12 2 -24.5 3t-24.5 3q-8 1 -16.5 2t-13.5 7q-5 5 -5.5 15.5t5.5 15.5q11 8 25 8t28 -1q20 -2 38.5 -4.5t38.5 -4.5q-3 -36 -4.5 -71.5t-4.5 -71.5q-4 -40 -8.5 -79.5t-6.5 -79.5q-2 -36 -0.5 -72.5t-3.5 -71.5q-5 -29 -8 -58t-3 -58q0 -28 -4 -51
q-1 -5 -1.5 -9t-2.5 -9q5 2 8.5 3t8.5 1q9 -1 17.5 -4.5t16.5 -4.5t15.5 1.5t13.5 -2.5q8 -5 8.5 -17t-2.5 -21z" />
    <glyph glyph-name="two" unicode="2" horiz-adv-x="357" 
d="M329 29q-2 -4 -5.5 -6t-7.5 -4q-11 -4 -25 -6q-20 -2 -39 -2t-39 1q-48 2 -95.5 2t-95.5 1l34 46q85 118 155 245q14 25 26 51t23 53q8 20 12.5 40.5t2.5 41.5q-4 29 -15 56.5t-31 47.5q-12 13 -28.5 21t-34.5 10t-37.5 -2t-34.5 -15q-14 -11 -21.5 -29t-11.5 -36
q-3 -16 -4 -32t-2 -33q-1 -11 -4 -22.5t-13 -16.5q-5 -2 -11.5 1t-9.5 8q-5 11 -7 22.5t-2 22.5q0 22 3 44q-1 -2 -1 1t1 5q1 5 1.5 10t2.5 10q4 13 11.5 25t15.5 23q21 28 55.5 44.5t69.5 17.5q29 1 57.5 -12t47.5 -35q24 -26 35.5 -62t13.5 -72q2 -48 -16.5 -95t-38.5 -92
q-8 -17 -15 -35.5t-18 -35.5q-10 -17 -21.5 -31.5t-21.5 -31.5q-8 -14 -14.5 -28t-14.5 -28q-16 -27 -37 -53q19 -1 37 -1.5t36 -0.5q23 -1 46 -1t46 -2q8 -1 16 -1.5t14 -5.5q5 -4 8.5 -10.5t1.5 -12.5z" />
    <glyph glyph-name="three" unicode="3" horiz-adv-x="373" 
d="M344 150q-2 -31 -14 -61t-35 -50q-26 -24 -60 -36t-69 -13q-30 -1 -59.5 10t-55.5 28q-14 9 -27.5 20t-15.5 27q-2 13 11 18q5 3 11.5 0.5t11.5 -5.5q11 -5 19 -10q12 -8 24.5 -15.5t26.5 -12.5q-2 1 0.5 0t4.5 -1q5 -2 11 -4q10 -4 19 -7t19 -4q23 -2 48 5t42 23
q18 17 27 41t9 48q0 27 -9.5 54t-28.5 47q-12 12 -28.5 22.5t-33.5 18.5t-33 12.5t-27 4.5h-18q-8 0 -17.5 0.5t-19.5 -0.5l-2 44q12 0 23 0.5t19 1.5q10 1 18 2q22 1 41 11.5t44 23.5t45 38q11 12 15.5 27.5t5.5 32.5q0 23 -3.5 48t-18.5 43q-15 19 -40 27t-49 9
q-21 0 -42 -7.5t-40 -18.5q-14 -9 -29.5 -20t-32.5 -7q-3 1 -6 3t-4 5q-2 7 2 13t7 12q12 17 29 29q25 18 55 29t61 11q35 -1 71 -14t59 -39q23 -24 31 -59t5 -69q-2 -33 -19 -65t-43 -53q-27 -23 -63 -37q22 -8 42 -19.5t37 -27.5q26 -25 38.5 -62t10.5 -72z" />
    <glyph glyph-name="four" unicode="4" horiz-adv-x="437" 
d="M292 570q-19 -29 -37.5 -59t-35.5 -61q-11 -20 -20.5 -40t-22.5 -39q-8 -14 -18.5 -24.5t-18.5 -24.5q-8 -17 -15 -33.5t-18 -31.5q38 -3 74.5 -7.5t73.5 -6.5q8 -1 16 -1.5t16 -0.5q2 26 0 53q-3 69 0.5 138t5.5 138zM409 204q-2 -5 -6.5 -6.5t-8.5 -3.5q-8 -2 -16.5 -3
t-16.5 -2q-18 -1 -34 0q-1 -11 -1 -22t-1 -22q-2 -14 -3 -29t-4 -29q-1 -5 -1 -12t-1 -15q3 -1 5 -3t4 -3q4 -2 7.5 2t8.5 4q5 -1 9.5 -4t9.5 -4q6 -2 13 -2t12 -3t5 -9v-11q0 -7 -1 -13.5t-5 -11.5t-11.5 -2t-13.5 3q-17 0 -33.5 2t-33.5 5q-11 2 -20.5 -2.5t-19.5 -3.5
q-8 0 -15 3.5t-15 5.5q-7 1 -14 -1.5t-12 1.5t-5.5 11t-0.5 13q0 5 0.5 10t3.5 10q2 3 6 1.5t6 0.5q2 3 5 0q0 -1 0.5 -1t0.5 -1l2 -2q1 -1 1.5 -1t1.5 -1q2 0 2.5 -0.5t1.5 -0.5q5 0 9.5 2t9.5 3q8 2 15.5 1t15.5 -3q0 13 1.5 25.5t1.5 18.5q0 11 1 22t1 22q-1 -3 -0.5 3.5
t0.5 10.5l2 16t3 16v2l-18 1q-64 5 -127.5 7.5t-127.5 5.5q45 73 90.5 144.5t91.5 143.5q17 27 34.5 53.5t34.5 53.5q8 13 15.5 27t19.5 25q1 -1 2 -1l4 -1q4 -2 7.5 -2.5t8.5 -2.5q5 -1 9 -2t9 -2q3 -1 8 -0.5t5 -3.5q1 -27 -1 -54.5t-4 -55.5q-3 -51 -7 -100.5t-6 -100.5
q-2 -22 -2 -44v-44q8 -1 16 -1t16 -1q10 -2 20.5 -2.5t18.5 -5.5q6 -4 9.5 -11t1.5 -13z" />
    <glyph glyph-name="five" unicode="5" horiz-adv-x="353" 
d="M325 557q0 -7 -1 -15.5t-2.5 -16t-5.5 -13.5t-10 -8q-5 -2 -11 1.5t-8 8.5q-5 9 -6 19.5t-2 21.5q-1 13 -1 25t-1 24q-1 -2 -1 3v8q-23 1 -45 5t-45 6q-27 1 -53.5 0t-52.5 -1q-3 -49 -7.5 -97.5t-9.5 -97.5q45 3 90.5 -8t80.5 -37q37 -28 60 -71.5t30 -89.5
q4 -27 -1.5 -54.5t-12.5 -54.5q-5 -20 -12.5 -40t-20.5 -37q-21 -28 -56 -45.5t-70 -14.5q-26 2 -50.5 10.5t-44.5 25.5t-32 41.5t-16 50.5q-6 41 2 83q2 12 8 26t19 17q7 2 13 -4q3 -5 3.5 -10.5t1.5 -10.5q0 -8 0.5 -15t-0.5 -15q-1 -20 -0.5 -40t5.5 -40q4 -14 11.5 -27
t18.5 -21q13 -11 30 -14.5t34 -4.5q24 -1 47 14t37 35q21 29 28.5 66.5t3.5 72.5q-2 24 -8.5 47.5t-18.5 43.5q-9 15 -21.5 28t-28.5 22q-21 14 -46.5 19.5t-51.5 5.5q-22 0 -43.5 -4t-43.5 -8l4 40q6 66 11 131.5t14 131.5q72 -6 143 -8t143 -5q2 -26 2.5 -52.5t-0.5 -52.5
z" />
    <glyph glyph-name="six" unicode="6" horiz-adv-x="377" 
d="M296 231q-5 31 -14.5 61t-29.5 54q-12 15 -30.5 23.5t-38.5 9.5q-14 1 -29.5 -4t-26.5 -15q-15 -13 -24.5 -31t-15.5 -37q-5 -18 -7.5 -36.5t-3.5 -36.5v-9.5t-1 -9.5l1 -5q8 -32 20 -63t34 -55q12 -14 30.5 -22t37.5 -6q16 2 31 9.5t26 19.5q26 30 37 72t4 81zM348 235
q3 -45 -5.5 -91.5t-34.5 -83.5q-18 -24 -47 -39.5t-59 -18.5q-22 -2 -44.5 5t-40.5 21q-26 20 -42.5 49.5t-27.5 59.5q-33 88 -38 184t19 187q9 33 22.5 66t35.5 60q13 15 30 26.5t37 15.5q34 7 71 -4q16 -5 29.5 -15.5t24.5 -23.5q16 -19 25.5 -42t12.5 -47q1 -8 1 -16.5
t-5 -16.5q-2 -5 -8.5 -7t-11.5 0q-8 5 -11.5 15.5t-7.5 20.5q-8 18 -16 36.5t-23 32.5q1 -2 -1.5 0.5t-4.5 3.5q-7 8 -18 12q-11 5 -24.5 8t-26.5 2q-14 -2 -26.5 -12t-20.5 -22q-13 -17 -20 -38t-12 -42q-10 -42 -15.5 -84t-5.5 -85q6 10 13 19.5t15 17.5q19 18 44.5 28.5
t51.5 11.5q30 0 60 -11.5t50 -34.5q26 -29 39.5 -68.5t15.5 -79.5z" />
    <glyph glyph-name="seven" unicode="7" horiz-adv-x="407" 
d="M379 622q-15 -41 -30.5 -81t-28.5 -82q-10 -32 -17 -63.5t-18 -62.5q-12 -34 -26 -67t-27 -66q-11 -29 -19 -59t-18 -59q-5 -12 -10 -24.5t-11 -23.5q-4 -6 -8 -11.5t-10 -9.5q-6 -3 -14.5 -1t-11.5 8q-3 7 -2 14.5t3 14.5q3 10 7 19.5t7 19.5q-1 -1 -0.5 1.5t1.5 4.5
q2 3 2.5 6t2.5 6q4 9 9 17.5t9 17.5q11 25 16 51t13 52q25 82 56.5 161.5t49.5 162.5q-14 -2 -27 1.5t-27 2.5q-15 -1 -29.5 -4.5t-29.5 -3.5q-33 0 -66 3t-65 3q0 -12 0.5 -24t0.5 -24q-1 -7 -1 -14.5t-5 -12.5t-13 -8.5t-13 1.5q-11 10 -13.5 25t-3.5 29q-2 19 -2.5 38
t-1.5 38q94 -1 185.5 2t185.5 2z" />
    <glyph glyph-name="eight" unicode="8" horiz-adv-x="346" 
d="M273 152q1 7 0.5 16.5t-1.5 19t-2.5 17.5t-2.5 12q-6 25 -17 48q-13 24 -38.5 42t-52.5 18q-18 0 -35.5 -8.5t-29.5 -22.5q-21 -22 -31.5 -52.5t-10.5 -60.5q0 -20 6 -40t17 -37q15 -24 40.5 -42.5t54.5 -20.5q14 -2 28 3t26 13q11 8 18 19.5t13 23.5q5 13 10.5 26
t7.5 26zM232 472q2 10 1 26.5t-3 25.5q-2 10 -5.5 20.5t-8.5 20.5q-10 18 -30 31.5t-41 13.5q-30 -2 -51 -24q-17 -17 -26 -40.5t-9 -46.5q1 -14 4.5 -28.5t11.5 -26.5q12 -20 33 -34.5t44 -17.5q11 0 22 2.5t20 8.5q8 5 13 13.5t10 16.5q5 10 9 20t6 19zM318 137
q-2 -8 -4.5 -16.5t-4.5 -16.5q1 2 0 -1.5t-2 -5.5q-1 -3 -2 -5.5t-3 -5.5q-5 -10 -12 -18t-15 -16q-20 -23 -47 -41.5t-58 -19.5q-28 -2 -55 10.5t-47 32.5q-28 29 -43 68t-17 78q-2 32 3 66t23 60q10 14 23 23.5t26 20.5q4 4 10 7q-8 5 -15 9.5t-13 10.5q-23 23 -35.5 55.5
t-14.5 64.5q-1 27 3 55.5t20 50.5q8 11 19.5 19t22.5 17q14 11 30.5 19.5t33.5 7.5q38 -1 71.5 -28t48.5 -62q6 -14 11 -29t2 -30q-1 -2 -3 -5.5t-1 -13.5q1 -11 4.5 -18.5t1.5 -15.5t-4 -14.5t-4 -14.5q1 2 0 -0.5t-2 -4.5q-1 -6 -5 -11q-5 -8 -11 -13.5t-12 -12.5
q-14 -14 -29 -26q29 -15 52 -40t36 -53q13 -31 16 -59q0 -5 -1.5 -17.5t0.5 -23.5t3.5 -19.5t-0.5 -17.5z" />
    <glyph glyph-name="nine" unicode="9" horiz-adv-x="367" 
d="M282 452q-5 32 -14.5 64t-29.5 58q-11 15 -28.5 25t-36.5 9q-17 -1 -33 -7.5t-27 -17.5q-29 -28 -43 -69t-10 -80q3 -31 10 -61.5t24 -56.5q11 -16 29 -26.5t37 -12.5q32 -3 57 14q17 12 27.5 29.5t18.5 36.5q8 17 11.5 35t5.5 36q1 5 1.5 9.5t1.5 9.5zM316 507
q26 -90 23 -186.5t-34 -184.5q-12 -32 -28.5 -63.5t-40.5 -56.5q-14 -14 -31.5 -24.5t-37.5 -12.5q-36 -4 -71 10q-16 7 -29 18t-22 25q-14 20 -21.5 43.5t-8.5 47.5q-1 8 0 17t6 16q3 5 9.5 7t10.5 -2q8 -6 11 -16.5t6 -20.5q5 -19 12 -38.5t21 -33.5q-1 2 1.5 -0.5
l3.5 -3.5q5 -4 8.5 -7.5t8.5 -5.5q11 -7 24 -11t26 -3q15 0 28 9t22 20q14 17 22.5 37t16.5 41q13 40 21.5 81.5t12.5 84.5q-7 -10 -14.5 -18.5t-16.5 -16.5q-20 -17 -46.5 -25t-52.5 -6q-29 2 -58 16.5t-47 37.5q-24 32 -34 72.5t-9 79.5q1 45 13 91t41 80q20 23 50 36
t60 13q23 1 44.5 -8t38.5 -24q24 -23 38 -53t23 -62z" />
    <glyph glyph-name="colon" unicode=":" horiz-adv-x="120" 
d="M88 12q-5 -5 -8 -11.5t-8 -11.5q-4 -4 -9.5 -3.5t-10.5 2.5q-13 5 -26.5 13t-13.5 22q2 13 14.5 23.5t26.5 10.5q6 0 12.5 -1t11.5 -6q4 -5 5 -11t5 -11q2 -2 2.5 -8t-1.5 -8zM88 222q-5 -5 -8 -11.5t-8 -11.5q-4 -4 -9.5 -3.5t-10.5 2.5q-13 5 -26.5 13t-13.5 22
q2 13 14.5 23.5t26.5 10.5q6 0 12.5 -1t11.5 -6q4 -5 5 -11t5 -11q2 -2 2.5 -8t-1.5 -8z" />
    <glyph glyph-name="semicolon" unicode=";" horiz-adv-x="112" 
d="M80 40q1 -1 0 -2t-3 -1q-1 0 -2 -1l-2 -2q-1 0 -1 -2q-1 -4 1.5 -7t2.5 -8t-2 -10t-4 -11v-5v-6q1 -2 2 -3t2 -3v-2q-1 -2 -4.5 -2.5t-2.5 -2.5t3 -3.5t2 -3.5q1 -3 -3 -5.5t-6 -5.5q-2 -4 -3 -8t-3 -6q-4 -3 -9.5 -1.5t-10.5 2.5q-6 1 -12.5 2.5t-11.5 5.5q-2 1 -2 3
t1 4t2 3.5t1 3.5q2 10 5.5 19.5t6.5 20.5q2 5 -2 10t-3 10q2 5 5.5 8t5.5 8q1 3 -0.5 7t0.5 7q4 3 9 2.5t10 -1.5q7 -1 14.5 -2t13.5 -6q1 -1 -0.5 -3t0.5 -3zM88 222q-5 -5 -8 -11.5t-8 -11.5q-4 -4 -9.5 -3.5t-10.5 2.5q-13 5 -26.5 13t-13.5 22q2 13 14.5 23.5t26.5 10.5
q6 0 12.5 -1t11.5 -6q4 -5 5 -11t5 -11q2 -2 2.5 -8t-1.5 -8z" />
    <glyph glyph-name="less" unicode="&#x3c;" horiz-adv-x="424" 
d="M396 364q-1 -5 -4.5 -8.5t-8.5 -5.5q-5 -3 -11.5 -5t-12.5 -5q2 1 -2 -0.5t-6 -2.5q-4 -2 -8 -1.5t-8 -0.5q-16 -4 -29.5 -10.5t-27.5 -14.5q-36 -21 -76.5 -33.5t-78.5 -29.5q20 -8 41 -13.5t41 -14.5q5 -2 9.5 -7t10.5 -7q9 -3 18.5 -4.5t18.5 -4.5q12 -4 22.5 -11
t21.5 -14q13 -7 26 -13t27 -13q8 -4 17 -7.5t15 -11.5q5 -6 3.5 -15.5t-8.5 -14.5q-12 -8 -28 -2.5t-30 11.5q-22 10 -43 20t-43 19q-60 24 -117.5 51t-116.5 53q31 12 59.5 28.5t59.5 28.5q42 17 83.5 29.5t82.5 31.5q12 5 24.5 10.5t26.5 9.5q10 3 20.5 5t19.5 -3
q6 -3 9.5 -10t2.5 -14z" />
    <glyph glyph-name="equal" unicode="=" horiz-adv-x="288" 
d="M260 206q2 -14 -2 -23l-4 -6q-2 -2 -3 -2q-7 -2 -14 0t-15 2q-21 -1 -42.5 0.5t-43.5 3.5q-12 2 -24.5 -3t-24.5 -5q-11 0 -20 3.5t-19 4.5q-9 1 -18.5 -2t-16.5 3q-8 6 -8.5 18.5t3.5 21.5q2 5 8 5q2 1 5 -0.5t4 0.5t6 0l2 -2l2 -2q7 -4 14 -2t13.5 4t13.5 2
q12 1 24 -0.5t24 -1.5h12q3 1 6 1t6 1q4 1 7 2l6 2q1 1 3 1q3 0 6 -2.5t6 -3.5q5 -1 10 3t10 4q6 -1 12 -3.5t13 -3.5q8 -2 16 -2t16 -2q4 -2 5 -6.5t2 -9.5zM260 316q2 -14 -2 -23l-4 -6q-2 -2 -3 -2q-7 -2 -14 0t-15 2q-21 -1 -42.5 0.5t-43.5 3.5q-12 2 -24.5 -3
t-24.5 -5q-11 0 -20 3.5t-19 4.5q-9 1 -18.5 -2t-16.5 3q-8 6 -8.5 18.5t3.5 21.5q2 5 8 5q2 1 5 -0.5t4 0.5t6 0l2 -2l2 -2q7 -4 14 -2t13.5 4t13.5 2q12 1 24 -0.5t24 -1.5h12q3 1 6 1t6 1q4 1 7 2l6 2q1 1 3 1q3 0 6 -2.5t6 -3.5q5 -1 10 3t10 4q6 -1 12 -3.5t13 -3.5
q8 -2 16 -2t16 -2q4 -2 5 -6.5t2 -9.5z" />
    <glyph glyph-name="greater" unicode="&#x3e;" horiz-adv-x="424" 
d="M396 248q-59 -26 -117 -53t-118 -51q-22 -9 -43 -19l-42 -20q-14 -6 -30 -11.5t-28 2.5q-7 5 -8.5 14.5t3.5 15.5q5 8 14.5 11.5t17.5 7.5q14 7 27 13t26 13q11 7 21.5 14t22.5 11q9 3 18.5 4.5t18.5 4.5q6 2 10 7t10 7q20 9 40.5 14.5t40.5 13.5q-38 17 -78 29.5
t-76 33.5q-14 8 -28 14.5t-29 10.5q-4 1 -8 0.5t-8 1.5l-9 3q-5 3 -11.5 5t-12.5 5q-4 2 -7.5 5.5t-4.5 8.5q-1 7 2.5 14t9.5 10q9 5 19.5 3t20.5 -5q14 -4 26 -9.5t25 -10.5q40 -19 82 -31.5t83 -29.5q31 -12 59.5 -28.5t60.5 -28.5z" />
    <glyph glyph-name="question" unicode="?" horiz-adv-x="302" 
d="M88 4q-5 -4 -8 -10.5t-8 -11.5q-4 -4 -9.5 -3.5t-10.5 2.5q-11 6 -20 11q-8 5 -14 11t-6 12q2 14 14.5 24.5t26.5 10.5q6 0 12.5 -1t11.5 -6q4 -5 5 -11t5 -11q2 -2 2.5 -8.5t-1.5 -8.5zM270 404q-1 -23 -5 -45.5t-12 -44.5q-5 -12 -10 -23.5t-14 -20.5t-20 -14t-22 -13
t-21.5 -16.5t-23.5 -13.5q-14 -5 -28.5 -7.5t-25.5 -10.5q-12 -9 -16.5 -24t-5.5 -29q-1 -9 0 -18.5t-2 -18.5q-1 -4 -5 -6.5t-8 -4.5q-8 -4 -13 -4q-5 1 -8 4.5t-6 8.5q-5 8 -6.5 17t-1.5 18q1 25 10 50t29 42q13 12 28.5 19.5t32 14t33 14t30.5 17.5q23 19 35.5 49.5
t10.5 60.5q0 15 -4.5 30t-11.5 29q-8 17 -17.5 33.5t-25.5 26.5q-14 8 -32.5 8t-34.5 -5q-7 -3 -15 -6t-16 -5.5t-16 -2.5t-14 4q-4 3 -7 7t-2 9q2 8 8 13.5t13 9.5q5 4 11 6.5t12 5.5q-3 -1 2.5 1t8.5 3q7 2 13.5 1.5t13.5 -0.5q20 0 41 -2.5t40 -10.5q17 -7 31 -20t23 -29
q14 -24 19 -51.5t5 -55.5z" />
    <glyph glyph-name="at" unicode="@" horiz-adv-x="592" 
d="M329 271q-20 -10 -40.5 -18.5t-40.5 -18.5q-15 -8 -29.5 -21t-15.5 -30v-3q-2 -16 12 -26q8 -5 18 -5.5t20 -1.5h15q11 0 21.5 2.5t17.5 10.5t10 18t7 20q2 4 4 6q1 17 1.5 34t1.5 34zM572 240q0 -30 -5.5 -60.5t-17.5 -58.5q-7 -17 -19.5 -31.5t-28.5 -25.5
q-31 -19 -71 -19h-3q-22 1 -43.5 9.5t-36.5 23.5q-18 19 -22 43q-5 -5 -10 -9t-10 -6q-12 -6 -24.5 -9.5t-26.5 -2.5h-1q-19 0 -38 7t-33 21q-11 12 -17 28t-7 33v6q0 17 4.5 34t16.5 28q7 7 16 10t17 9q8 7 15.5 14t16.5 10q14 5 28 8t28 9q18 7 31 18q0 1 1 1q-1 21 -4 42
t-16 38q-7 8 -18 12t-22 3h-4q-12 0 -22.5 -9.5t-15.5 -20.5q-3 -8 -5 -16t-7 -16q-5 -9 -15 -9q-5 0 -7.5 4.5t-4.5 8.5q-3 12 -3 24v6.5t1 6.5q2 14 8 27t17 23q21 18 50 20h10q9 0 18 -1t17 -4l-4 2l3 -1q1 0 5 -2q10 -3 16 -8q24 -15 34 -43q5 -17 7 -33.5t3 -33.5
q0 -5 1 -10t1 -10.5v-10.5q0 -14 -3 -17v-25.5t-0.5 -28.5t-0.5 -24.5v-13.5v-1q1 -2 1 -11q0 -13 -1.5 -31t-1.5 -26q0 -17 13 -28q8 -8 20 -12t24 -4h1q21 0 43 12t30 32q21 54 21 115v11.5t-1 10.5q-4 61 -29.5 120.5t-71.5 101.5q-29 26 -67 42.5t-77 16.5q-6 0 -9 -1
q-48 -2 -93.5 -27.5t-72.5 -64.5q-10 -15 -16 -31.5t-11 -33.5q-17 -59 -17 -118v-11q2 -57 19 -114.5t55 -99.5q32 -35 79 -53.5t94 -18.5l2 -1q11 0 22 1.5t22 1.5q8 0 15 -1t14 -5q6 -4 6 -10q0 -2 -1 -3q-5 -7 -12 -10.5l-15 -7.5q-12 -5 -25 -8t-27 -4q-3 0 -6 -0.5
t-7 -0.5q-51 0 -101 20.5t-85 56.5q-24 24 -43 53.5t-31.5 62.5t-20 68t-9.5 69q-1 6 -1 11.5v11.5q0 60 19.5 120t57.5 106q34 40 85 65.5t103 25.5h2q50 1 98 -20.5t84 -55.5q51 -48 81.5 -115t38.5 -136q3 -19 3 -41z" />
    <glyph glyph-name="A" unicode="A" horiz-adv-x="470" 
d="M296 246q-3 13 -6 25.5t-7 24.5q-7 29 -20 55.5t-21 55.5q-6 23 -9.5 45.5t-9.5 44.5q-2 7 -4 13t-4 13q-2 -2 -3 -5.5t-3 -5.5q-1 -2 -2 -5t-2 -5q-1 -3 -1.5 -5.5t-0.5 -5.5q-2 -6 -2 -11q-6 -42 -20.5 -82t-26.5 -82q-5 -17 -7.5 -35.5t-7.5 -35.5q1 0 1.5 -0.5
t1.5 -0.5q1 -1 4 -1q5 0 10 2.5t10 3.5q8 2 17 0.5t18 -2.5h15.5t15.5 2q6 2 11 4h2q3 0 5 -2.5t5 -3.5q5 -1 8.5 3t8.5 3q5 0 10 -2.5t10 -4.5h4zM492 1v-10.5t-2 -10.5q-3 -3 -7 -3q-2 0 -3.5 1t-2.5 -1q-2 -2 -5 0q0 1 -0.5 1t-0.5 1l-2 2l-4 2h-3q-5 0 -9.5 -2.5
t-9.5 -3.5q-8 -2 -17 -1.5t-17 0.5q-17 2 -30 -2q-2 -2 -5 -2.5t-5 -2.5h-2q-3 0 -5 2t-5 3q-4 1 -7.5 -3t-7.5 -4q-5 1 -10 3t-10 3q-7 2 -13.5 1.5t-12.5 2.5q-5 2 -5.5 8t-0.5 11q-1 7 -0.5 13.5t4.5 12.5q4 5 11.5 2t13.5 -2q21 1 43 0q-9 14 -10 21q-5 14 -7 28.5
t-7 28.5q-8 23 -14.5 47t-13.5 47q-5 1 -9 2.5t-8 1.5q-18 -1 -36 0.5t-36 3.5q-11 2 -20.5 -2.5t-20.5 -4.5q-8 1 -16 4t-16 4q-7 1 -13.5 -1t-12.5 0v-9.5t-1 -9.5q-4 -17 -12 -31.5t-14 -30.5q-5 -13 -9 -25.5t-9 -26.5q-2 -6 -5 -13t-8 -12l-2 -2q8 3 15 3q8 -1 15 -4
t15 -4q7 -1 14 1.5t12 -1.5t6 -11t1 -13q0 -5 -0.5 -10.5t-2.5 -9.5q-2 -3 -6.5 -1.5t-6.5 -1.5q-2 -2 -4 0l-2 2l-1 2l-4 2q-2 1 -4 1q-5 0 -9.5 -2t-9.5 -4q-8 -2 -17 -0.5t-17 2.5q-17 2 -30 -1q-2 -1 -5 -2t-5 -2q-1 0 -1 -0.5t-1 -0.5q-3 1 -5 3t-5 3q-4 2 -7.5 -2
t-8.5 -4q-5 1 -9.5 3.5t-9.5 3.5q-7 2 -13.5 2t-12.5 3q-5 2 -5 8.5v11.5q0 6 1 13t5 12t11 2t14 -3q12 1 24.5 0t25.5 -3q2 11 5 22t4 16q4 14 9.5 26t9.5 26q13 47 28 93t32 91q10 27 13.5 55t11.5 55q7 21 16.5 41t16.5 40q5 14 7.5 29t7.5 29q2 5 4 9.5t5 8.5q-2 2 -4 3
q-4 1 -7 -3t-7 -4q-5 1 -9.5 3.5t-9.5 3.5q-6 2 -12 2t-12 2q-5 3 -5 9v11q0 6 0.5 13t4.5 12t11 2t13 -2q16 1 31.5 -0.5t31.5 -3.5q10 -2 19 3t18 4q8 0 14.5 -3t14.5 -4q6 -1 12.5 1.5t11.5 -1.5t6 -10.5t1 -13.5q0 -5 -0.5 -10t-2.5 -10q-2 -2 -6 -1t-6 -2
q0 -1 -1.5 -0.5t-2.5 1.5q-1 0 -1 0.5t-1 0.5q0 2 -1 2q-2 2 -3 2q-2 1 -4 1q-5 0 -9 -2.5t-9 -3.5q-9 -1 -18 0q1 -3 1.5 -5.5t0.5 -5.5q1 -2 1 -5.5t2 -3.5q4 1 3.5 -4t0.5 -9q0 -2 -1 -5t0 -5q0 -3 0.5 -6t0.5 -6q1 -3 3 -11q1 -3 3 -11q3 -5 5 -10q19 -42 29.5 -85
t24.5 -86q6 -20 15 -37.5t14 -36.5q2 -8 1.5 -15.5t1.5 -14.5q2 -9 7.5 -16.5t8.5 -15.5q7 -17 8.5 -34.5t5.5 -34.5q2 -12 5.5 -24t6.5 -24q2 -8 4 -23t3 -26l12 4t13 2q8 0 15.5 -3t15.5 -3q7 -1 14 2t12 -1q5 -3 6.5 -10t1.5 -13z" />
    <glyph glyph-name="B" unicode="B" horiz-adv-x="472" 
d="M390 114q2 35 -15 64q-16 30 -47 49q-22 15 -47 25t-51 16q-29 -2 -59 -0.5t-59 3.5q1 -14 2 -27t0 -27q-1 -8 -3.5 -14t-4.5 -14q-1 -8 1.5 -16.5t3.5 -17.5q0 -17 -4.5 -33.5t-6.5 -33.5q-2 -12 -3 -24t-3 -23q-1 -8 -1.5 -16.5t-3.5 -16.5q-1 -2 -3 -4
q10 -2 20.5 -2.5t21.5 -2.5q18 -2 35.5 -6.5t34.5 -7.5q38 -6 79 3t70 34q20 17 31.5 41.5t11.5 50.5zM371 422q2 26 -4.5 54t-23.5 48q-19 21 -48 32t-58 14q-26 3 -52.5 5.5t-52.5 4.5q0 -8 -0.5 -16t-0.5 -11q-1 -3 -1 -6t-1 -6q0 -2 -1 -5t1 -4q3 -1 1.5 -5.5l-2.5 -7.5
q-2 -4 -2 -5q-2 -2 -3 -4q-2 -6 -2 -11q-1 -2 -1 -5t-1 -6v-11q0 -2 0.5 -5t0.5 -6q3 -35 0 -71t-6 -71q21 -1 42 -2.5t42 -4.5q16 1 31 3t30 5q20 5 39.5 9t36.5 15t25.5 32t10.5 41zM444 114q-2 -37 -20.5 -72t-47.5 -57q-38 -28 -86.5 -36.5t-96.5 -4.5q-39 3 -78.5 7
t-78.5 11q-14 2 -27 5t-26 8q-8 2 -15.5 7.5t-9.5 13.5q-1 5 3 9t9 6q9 2 18 2.5t18 -0.5q17 0 32 -3q3 0 5.5 -0.5t5.5 -0.5q-5 10 -5 20q1 14 3.5 28.5t3.5 28.5q2 49 6.5 97.5t9.5 97.5q3 28 0 56.5t-1 56.5q2 23 6.5 44.5t6.5 43.5q2 15 0.5 30t0.5 30q2 7 4.5 19.5
t7.5 21.5l-15 2q-14 2 -28.5 3t-28.5 4q-10 2 -20 8t-12 16q-1 6 6.5 9.5t12.5 5.5q9 2 18.5 2.5t18.5 1.5q9 0 18.5 -0.5t19.5 -1.5q13 -1 26 -1.5t26 -2.5q27 -2 53.5 -5t53.5 -6q40 -4 80.5 -18.5t66.5 -44.5q23 -28 33 -66t5 -74q-2 -19 -8.5 -37t-17.5 -34t-26 -29
t-33 -21q-5 -2 -9.5 -4t-9.5 -4q13 -5 24.5 -11.5t22.5 -14.5q17 -12 32 -28t25 -35t14.5 -40.5t3.5 -42.5z" />
    <glyph glyph-name="C" unicode="C" horiz-adv-x="414" 
d="M386 168q4 -20 0 -39t-10 -37q-8 -23 -21 -44.5t-31 -37.5q-23 -20 -52 -32t-59 -14q-24 -2 -49.5 3t-46.5 19q-26 17 -46.5 41.5t-34.5 53.5q-20 42 -31 87.5t-14.5 93t-1.5 95.5t7 94q5 43 17.5 85.5t38.5 76.5q18 24 45 42t57 20q29 3 58 -4t53 -22q26 -17 46.5 -42
t33.5 -54q7 -15 12.5 -31.5t7.5 -33.5q2 -10 2 -20t-6 -18q-3 -5 -8.5 -7t-10.5 0t-8 5.5t-5 8.5q-6 12 -9 24q-5 14 -9 27.5t-11 25.5q0 -1 -1 1l-2 4l-3.5 7t-3.5 6q-6 11 -11 22t-13 20q-18 23 -44 32q-14 5 -30 5.5t-32 -2.5q-17 -3 -32.5 -14t-26.5 -25
q-18 -23 -29 -49t-19 -54q-17 -59 -20 -121t8 -122q4 -23 10.5 -45t13.5 -44q6 -18 11 -36.5t15 -35.5q5 -8 12 -14l14 -12q19 -17 42.5 -29t49.5 -12q17 0 34.5 4.5t31.5 13.5q16 9 28 24t20 32q7 15 11 30.5t6 32.5q2 13 5 26.5t14 19.5q3 2 7 2.5t7 -1.5q8 -5 9.5 -14.5
t3.5 -17.5z" />
    <glyph glyph-name="D" unicode="D" horiz-adv-x="468" 
d="M377 258q2 21 1 42.5t-3 43.5q-2 18 -8 35t-11 34t-9.5 33.5t-14.5 30.5q-8 11 -18.5 20t-21.5 17q-19 14 -40.5 26t-44.5 15q-24 3 -47.5 4t-46.5 3q2 -7 2 -15v-12q0 -8 -1 -12q0 -2 -1 -5t1 -3q3 -1 2 -5.5t-3 -8.5q0 -2 -2 -4q0 -2 -2 -4q-1 -3 -1 -6t-1 -6t-1 -10
v-11q0 -3 0.5 -6t0.5 -6q5 -43 1.5 -86t-5.5 -86q0 -20 3 -38.5t1 -38.5q0 -7 -3 -13.5t-4 -14.5t2 -16.5t3 -17.5q1 -17 -3 -33.5t-6 -33.5q-2 -12 -2.5 -24t-1.5 -23q-1 -9 -1 -17.5t-4 -16.5l-1 -1q12 -2 24 -5t25 -4q42 -4 85 14.5t72 49.5q40 42 60 99.5t25 115.5z
M420 254q-3 -31 -8 -63.5t-14 -63.5t-23 -59.5t-35 -51.5q-19 -20 -42 -36t-49 -25q-28 -11 -58 -14.5t-59 -2.5t-57 2t-57 5q-10 2 -20 3.5t-20 4.5q-5 2 -11 5.5t-9 8.5q-5 9 0 18q4 5 10.5 7t12.5 3h26l20 -2l20 -2q-5 10 -5 19q0 14 2.5 28t2.5 28q1 50 4 98.5t7 97.5
q3 29 -1 57t-2 56q1 23 5 44.5t6 44.5q1 14 -0.5 29.5t0.5 29.5q1 8 2.5 21t6.5 21l-17 1l-26 2t-26 3q-10 1 -20.5 6.5t-12.5 14.5q-2 10 6 16q9 5 19 6.5t20 1.5q8 1 15.5 0.5t15.5 -0.5q16 -1 31.5 -2t30.5 -3q25 -2 49.5 -2.5t48.5 -2.5q48 -5 92 -31.5t69 -65.5
q19 -29 31 -61t17 -65q5 -32 5.5 -64.5t-3.5 -64.5z" />
    <glyph glyph-name="E" unicode="E" horiz-adv-x="441" 
d="M393 99q0 -11 -0.5 -21.5t-1.5 -21.5q-2 -26 -1.5 -50.5t-0.5 -50.5q-39 1 -78.5 4.5t-78.5 2.5q-17 0 -32 -3t-32 -4q-19 -2 -37.5 1t-38.5 5q-18 2 -36.5 1t-36.5 -1q-12 -1 -25 0.5t-21 9.5q-4 3 -5 9.5t0 12.5t4 11t8 6q6 2 12.5 0.5t13.5 -0.5h3h9q7 -3 13.5 -5
t14.5 -2h9t9 1q-6 3 -9.5 11t-3.5 16q-1 14 1 28t1 28q-2 50 -1.5 98.5t2.5 98.5q1 28 -4.5 56t-5.5 57q0 23 3 44.5t3 44.5q1 15 -1.5 29.5t-1.5 29.5q0 8 2 17t7 14q-20 2 -40 -2.5t-40 0.5q-13 2 -18 11q-4 7 -3.5 17t7.5 15q8 5 17.5 4t18.5 0q-1 1 1 1h3h10q8 -2 15 -4
t15 -2q23 1 45 5t45 5q31 1 61.5 0.5t61.5 1.5q17 1 34.5 4.5t34.5 3.5q7 0 12.5 -2t12.5 -3q9 -1 17.5 2t17.5 5q5 -25 0.5 -50t-4.5 -51q-1 -14 -1 -26.5t-1 -26.5q0 -7 -0.5 -14.5t-6.5 -12.5q-6 -4 -14.5 -5t-14.5 3q-7 4 -9.5 12t-2.5 16q0 9 0.5 17.5t1.5 16.5
q1 16 -0.5 32t-2.5 32q-32 -1 -65 1t-66 0q-20 -2 -39 -6t-39 -5q-7 0 -13.5 0.5t-13.5 1.5q3 -6 3 -13v-12q0 -2 -1 -5.5t1 -3.5q3 0 2 -5t-2 -8q-1 -2 -1 -2.5t-1 -2.5q-1 -1 -1 -2t-1 -2q-1 -3 -1 -6t-1 -5v-11v-11q2 -8 2 -12q6 -38 5.5 -76t-0.5 -76q1 -1 1.5 -1
t1.5 -1h3q4 0 6.5 2.5t6.5 4.5q5 2 11.5 1t12.5 -1q5 1 10.5 1.5t10.5 2.5q2 1 3.5 2t3.5 2l1 1q3 0 5 -3.5t4 -1.5q2 1 3.5 3t3.5 4q4 2 8 -1.5t9 -4.5q7 0 11 -1q-3 6 -3 11q0 8 3 14.5t4 14.5q0 6 -2.5 12.5t0.5 11.5q4 5 11 6t13 1h10t10 -2q3 -2 2 -5.5t1 -5.5
q3 -2 0 -5l-1 -1l-2 -2q-2 -2 -2 -3t-0.5 -2t-0.5 -2q0 -5 2.5 -8.5t4.5 -8.5q2 -8 1 -15.5t-1 -15.5q0 -7 0.5 -14t2.5 -13q1 -3 2 -5t2 -5l1 -1q0 -3 -2.5 -5t-3.5 -4q-1 -5 3.5 -7.5t3.5 -7.5q0 -5 -2.5 -9t-3.5 -9q-1 -6 -1 -12t-2 -12q-2 -5 -8 -5h-11q-7 -1 -14 -0.5
t-12 4.5q-5 3 -2.5 10t2.5 13q-1 9 -1 18.5v19.5q-2 0 -5.5 1t-6.5 1q-12 -2 -24 -2t-24 2q-8 1 -14 -4t-14 -6q-6 0 -11.5 3t-11.5 3q-2 1 -6 -1q2 -14 4 -27t2 -27q-1 -7 -3 -13.5t-3 -14.5t2.5 -16.5t4.5 -16.5q2 -17 -1 -34.5t-5 -34.5q0 -11 -0.5 -23t-0.5 -24v-17
t-3 -17q-2 -3 -5 -5q8 1 15 1.5t14 0.5q28 -1 55 -2.5t54 -0.5q13 1 25 4t25 2q9 0 17.5 -3.5t17.5 -2.5q5 1 9.5 3.5t9.5 2.5q0 17 3.5 34t5.5 34q1 12 0 24.5t6 21.5q5 7 15.5 7.5t17.5 -4.5q6 -5 8.5 -13.5t2.5 -16.5z" />
    <glyph glyph-name="F" unicode="F" horiz-adv-x="445" 
d="M456 596q3 -26 -2 -50.5t-7 -49.5q-2 -14 -2 -27t-2 -27q-1 -7 -2 -14.5t-7 -11.5t-14.5 -4.5t-14.5 3.5q-7 5 -9 13t-1 16q0 8 1 16.5t2 17.5q2 16 1 31.5t0 32.5q-33 1 -66 4.5t-65 2.5q-20 0 -39.5 -3.5t-39.5 -2.5q-7 0 -13.5 0.5t-12.5 1.5q2 -8 2 -13q0 -3 -0.5 -6
t-0.5 -6q-1 -2 -2 -5t1 -3q4 -1 2.5 -5.5t-2.5 -8.5q-2 -2 -2 -4l-2 -4l-3 -12q0 -2 -0.5 -5t-0.5 -5v-11q1 -3 1 -6t1 -6q4 -38 1.5 -76t-4.5 -76q2 -3 5 -3t11 3.5t27 2.5h10.5t10.5 2q2 1 4.5 3t4.5 2t4 -3.5t4 -2.5q2 2 3.5 4t3.5 3q5 2 8.5 -1.5t8.5 -4.5q2 -1 5 -1
t6 -1q-2 8 -2 12q0 7 3.5 13.5t4.5 14.5q1 5 -1.5 11.5t0.5 11.5q4 5 11 6t13 1q5 0 10.5 -0.5t10.5 -2.5q2 -2 1 -6t1 -6q3 -2 -1.5 -5.5t-5.5 -8.5q0 -5 2.5 -9t3.5 -9q2 -8 0.5 -15.5t-1.5 -15.5q-2 -15 1 -27q1 -2 2 -4.5t2 -4.5l1 -2q-1 -3 -3 -5t-3 -4q-2 -4 2.5 -7
t3.5 -8t-3.5 -9t-3.5 -9q-2 -5 -2 -11.5t-3 -11.5q-2 -5 -8 -5h-11q-16 0 -26 6q-5 3 -1.5 10t2.5 12q0 10 0.5 19.5t1.5 19.5q-3 0 -6.5 1t-5.5 1q-25 -2 -49 3q-7 1 -13.5 -4t-14.5 -4q-8 0 -13.5 4t-15.5 2q2 -14 3 -27t0 -27q0 -8 -2.5 -14.5t-3.5 -13.5q-2 -9 1 -17.5
t4 -16.5q1 -17 -3 -34t-6 -34q-2 -12 -2.5 -23.5t-1.5 -23.5q-1 -8 -1.5 -16.5t-3.5 -16.5v-1q2 1 5 2l6 2h2q3 -1 5.5 -3t5.5 -3q5 -2 9 2t9 3q6 0 11 -3t11 -4q8 -2 15 -2.5t14 -3.5q4 -2 5 -6.5t1 -8.5q0 -6 -0.5 -12.5t-2.5 -11.5q-1 -2 -2 -3t-2 -3l-2 -1
q-7 -2 -13.5 0.5t-12.5 2.5q-18 0 -36 1t-36 5q-6 1 -12.5 2t-12.5 -1q-7 -1 -13.5 -3.5t-13.5 -2.5q-9 1 -17.5 4.5t-17.5 4.5q-7 1 -15 -1.5t-14 2.5q-8 5 -8.5 17t2.5 22q2 7 7 8q2 1 5 -1t5 0q2 3 5 0l2 -2q0 -2 2 -2q2 -2 4 -2q1 -1 4 -1h5q6 2 11.5 3.5t12.5 1.5
q7 1 13.5 0t14.5 -2q-3 5 -4.5 10.5t-1.5 10.5q0 14 2.5 28.5t2.5 28.5q1 49 3.5 97.5t6.5 98.5q2 28 -1.5 56t-1.5 57q1 23 4.5 44.5t5.5 43.5q2 15 0 30.5t0 29.5q1 8 3 17t8 14h-1q-20 2 -40 -1t-40 2q-5 2 -10 4.5t-7 7.5q-4 8 -3 18t9 14q8 5 17.5 3.5t18.5 -0.5h4
q7 0 10 -1q8 -2 15 -4t15 -3q23 -1 45 2.5t44 2.5q32 -1 62.5 -3t61.5 -1q17 0 34.5 3t34.5 2q7 0 12.5 -2.5t11.5 -3.5q9 -2 18 1t18 4z" />
    <glyph glyph-name="G" unicode="G" horiz-adv-x="481" 
d="M453 205q-4 -8 -8 -9q-2 0 -5 1.5t-5 -0.5t-5 1l-2 2q-1 1 -1 2q-2 1 -2.5 1t-2.5 1q-1 0 -1.5 0.5t-2.5 0.5h-4q-5 -1 -8.5 -2t-7.5 -2q2 -5 2.5 -11t1.5 -12q2 -19 0 -37.5t-6 -37.5q-7 -34 -24 -66.5t-43 -55.5q-20 -17 -45 -27t-51 -12q-44 -5 -85 16
q-22 11 -39.5 28.5t-31.5 37.5q-29 40 -42.5 88.5t-19.5 97.5q-8 63 -6.5 127.5t11.5 127.5q6 42 24 81.5t49 68.5q17 15 37.5 26t43.5 13q29 2 58 -4.5t53 -21.5q26 -17 46 -42t34 -54q7 -15 12 -31.5t7 -33.5q2 -10 2 -20.5t-5 -18.5q-3 -4 -9 -6.5t-11 -0.5t-7.5 6
t-4.5 9q-3 6 -5.5 12t-4.5 12q-5 14 -9 28t-12 27q1 -2 -0.5 0.5t-2.5 4.5q-2 3 -3.5 6.5t-3.5 6.5q-5 10 -10 20.5t-12 19.5q-10 11 -22.5 20t-26.5 14q-27 7 -57 1q-16 -3 -29.5 -12t-24.5 -21q-19 -21 -31.5 -47.5t-20.5 -54.5q-24 -83 -22 -173t34 -171q8 -21 15 -43.5
t21 -40.5q18 -23 47.5 -36.5t58.5 -12.5q18 1 36.5 6t32.5 16q17 14 28 33.5t18 40.5q9 35 12 70q2 10 2.5 21t5.5 20q-5 0 -9 0.5t-9 1.5h-11q-3 0 -5.5 -0.5t-5.5 -0.5l-6 -2l-6 -2h-2q-4 1 -6 3t-5 3q-5 2 -9.5 -2t-9.5 -3t-10.5 4t-11.5 4q-8 2 -15 2.5t-14 3.5
q-4 2 -4.5 6.5t-1.5 9.5q0 6 0.5 12t3.5 11q2 4 4 6q1 1 1.5 1t1.5 1q6 2 12.5 -1t13.5 -3l36 -2t35 -5q7 -2 13 -3t13 1q7 1 13.5 3.5t13.5 1.5q9 -1 17.5 -4.5t17.5 -4.5q7 -2 15 0.5t14 -1.5q8 -6 8 -18t-2 -21z" />
    <glyph glyph-name="H" unicode="H" horiz-adv-x="485" 
d="M477 -16q0 -7 -1 -14t-4 -12t-9.5 -2t-11.5 3q-14 -1 -28.5 0.5t-28.5 3.5q-8 1 -16.5 -3.5t-16.5 -4.5q-7 0 -13 3.5t-13 4.5q-5 1 -11 -1.5t-10 0.5q-5 4 -5.5 11t-0.5 13q0 5 0.5 10t2.5 10q1 2 4.5 1.5t5.5 1.5t4 0l1 -2l2 -2q1 -1 1.5 -1t1.5 -1q1 0 1.5 -0.5
t1.5 -0.5q5 0 8 2.5t8 3.5q5 2 10 1.5t10 -1.5q-7 11 -7 20q-1 14 0.5 28t0.5 28q-3 42 -3.5 83t-0.5 83q-6 -1 -12.5 0t-11.5 0q-22 -2 -43.5 -1.5t-43.5 2.5q-13 2 -25 -3.5t-25 -5.5q-10 0 -19.5 3t-20.5 4q-7 0 -14.5 -2.5t-14.5 -0.5q2 -14 5 -29t3 -29q0 -8 -2 -14.5
t-3 -14.5q0 -8 3 -16t5 -16q2 -17 -1 -34t-3 -34q-1 -14 -0.5 -27.5t-0.5 -27.5v-12t-2 -12l2 1q1 1 2 1q2 -1 4 -3t4 -3q4 -2 6.5 2.5t6.5 3.5q5 0 8.5 -2.5t8.5 -4.5q5 -1 10.5 -1t10.5 -3q5 -2 4.5 -8t-0.5 -11q0 -7 -0.5 -13.5t-3.5 -12.5q-3 -5 -9.5 -2t-11.5 3
q-14 -1 -28.5 0.5t-28.5 3.5q-8 1 -16.5 -3.5t-16.5 -4.5q-7 0 -13 3.5t-13 4.5q-5 1 -11 -1.5t-10 0.5q-5 4 -5.5 11t-0.5 13v10t2 10q2 3 5.5 2t5.5 1t4 0q0 -1 0.5 -1t0.5 -1q1 -1 1 -2l4 -2q2 0 3 -1q4 0 7.5 2.5t8.5 3.5q5 2 9.5 1.5t9.5 -1.5q-6 9 -6 20
q-2 14 -0.5 28t0.5 28q-3 48 -3.5 96.5t0.5 97.5q0 28 -5.5 55.5t-6.5 56.5q-1 22 1.5 43.5t2.5 43.5q0 15 -3 30t-2 29q0 5 1 15.5t3 20.5q-2 1 -3 2t-3 1q-4 2 -7 -2.5t-7 -4.5q-5 0 -9 2.5t-9 3.5q-6 1 -12.5 1t-11.5 2t-5 8t-1 11q-1 6 -0.5 13t3.5 13q3 5 10.5 2.5
t12.5 -2.5q16 2 31.5 2t30.5 -2q9 -1 18 4.5t18 5.5q7 0 13.5 -3t14.5 -3q6 0 12.5 2.5t11.5 -0.5q5 -4 6 -10.5t2 -12.5v-10.5t-2 -10.5q-2 -2 -6 -1.5t-5 -1.5t-5 0l-1 1l-2 2q-2 2 -3 2t-2 0.5t-2 0.5q-5 -1 -8.5 -3.5t-8.5 -3.5q-7 -2 -14.5 -1.5t-15.5 0.5
q2 -8 2.5 -16t1.5 -11v-12q-1 -2 -1.5 -5t1.5 -4q3 0 2 -5t-2 -8q0 -1 -0.5 -2t-0.5 -3q-2 -2 -2 -4q-1 -2 -1 -5t-1 -6v-11q0 -7 1 -11q0 -3 2 -11q7 -34 7 -69t1 -70q2 0 4.5 -1t3.5 1t6 0l2 -2q1 0 1 -0.5t1 -0.5q5 -4 15 -2q7 2 13 4t13 3q12 1 24.5 0t24.5 -1q8 0 13 1
q4 0 12 2q6 2 13 5h2q4 0 6.5 -2t6.5 -3q5 -1 10 3t10 4q6 0 12.5 -2.5t12.5 -3.5q7 -1 13.5 -1t12.5 -1q-2 23 -6 46t-5 46t1.5 44.5t2.5 43.5q0 15 -2.5 29.5t-2.5 29.5q0 5 1 15.5t3 19.5q-4 4 -6 4q-4 1 -7 -3t-7 -4q-5 0 -9 2.5t-9 3.5q-6 1 -12 0.5t-12 2.5q-5 2 -5 8
t-1 11v13t4 12q2 5 9.5 2.5t12.5 -1.5q32 3 63 0q9 -1 17.5 4t17.5 6q8 0 14.5 -3t13.5 -3q6 -1 12.5 2t11.5 0q5 -4 6 -10.5t2 -13.5v-10t-2 -10q-2 -3 -5.5 -2t-5.5 -1q0 -1 -4 -1l-2 2l-1 2q-1 1 -2 1t-2 1h-3q-5 0 -9 -2.5t-8 -4.5q-8 -2 -15.5 -1.5t-15.5 1.5
q2 -8 3 -16t1 -11v-12q0 -2 -1 -5.5t1 -3.5q4 0 3 -5t-3 -8q0 -2 -0.5 -2.5t-0.5 -2.5q-2 -2 -2 -4q-1 -4 -1 -11q-1 -4 -1 -11q0 -3 0.5 -5.5t0.5 -5.5q1 -2 1 -5t1 -6q8 -42 7.5 -84.5t1.5 -85.5q2 -19 6 -37.5t4 -37.5q0 -8 -2 -14.5t-3 -14.5q0 -8 3.5 -16t4.5 -17
q2 -17 -0.5 -33.5t-3.5 -33.5v-47q-1 -8 -0.5 -16t-2.5 -16q1 0 1.5 0.5t1.5 0.5h1q2 0 4 -2t4 -3q4 -2 7 2.5t6 3.5q5 -1 8.5 -3.5t8.5 -3.5t10.5 -1t10.5 -3q5 -2 4.5 -8t0.5 -11z" />
    <glyph glyph-name="I" unicode="I" horiz-adv-x="221" 
d="M213 624v-10t-3 -10q-2 -4 -7 -4q-5 2 -6 1q0 -2 -1.5 -1.5t-2.5 1.5q-2 0 -2 2l-2 2q-1 0 -1.5 0.5t-2.5 0.5q-1 1 -4 1q-5 0 -9.5 -2.5t-9.5 -3.5q-9 -2 -18 -1t-18 1h-2q2 -6 2.5 -14.5t0.5 -12.5q0 -3 -0.5 -6t-0.5 -6q0 -2 -1 -5t1 -4q3 0 2 -5t-3 -8q0 -1 -0.5 -2
t-0.5 -2l-2 -4q-2 -8 -2 -12q-1 -3 -1 -10v-11q0 -3 0.5 -6t0.5 -5q6 -43 3.5 -85.5t-2.5 -85.5q0 -19 3.5 -38t2.5 -38q0 -7 -2.5 -13.5t-3.5 -14.5t2 -16.5t4 -16.5q2 -17 -2 -33.5t-5 -33.5q-2 -12 -2 -23.5t-1 -23.5q-1 -8 -1 -16t-3 -16q1 0 2 0.5t2 0.5t1 0.5t1 0.5
q3 -1 5 -3l4 -4q4 -1 7.5 3t7.5 3q5 0 9.5 -3t9.5 -4q6 -2 12.5 -2t11.5 -3q5 -2 5 -8.5v-11.5q0 -6 -1 -13t-5 -12t-11 -2t-13 3q-17 0 -33 2l-32 4q-10 2 -19 -2.5t-19 -3.5q-8 1 -14.5 4t-14.5 5q-6 1 -13 -1.5t-12 1.5t-5.5 11t-0.5 13q0 5 0.5 10t3.5 10q2 3 6 1.5
t6 1.5q2 2 4 -1l2 -2q0 -1 1 -2l4 -2q1 0 1.5 -0.5t1.5 -0.5q5 0 9.5 2.5t9.5 3.5q7 1 13.5 0t13.5 -2q-5 8 -7 21q0 14 2 28t2 28q-1 49 1 97t5 97q2 28 -2.5 56t-4.5 56q1 22 4.5 43.5t4.5 44.5q1 14 -1 29t-1 30q1 6 2.5 15.5t5.5 17.5h-2q-3 0 -5.5 2.5t-4.5 3.5
q-5 1 -8.5 -3.5t-7.5 -3.5q-6 0 -11 2.5t-10 3.5q-7 2 -14 2t-13 2q-4 2 -4.5 6.5t-1.5 8.5q-1 8 -0.5 16t5.5 14q4 5 11.5 2t14.5 -2q35 1 71 -3q11 -1 20.5 4t20.5 5q8 0 16 -3.5t16 -3.5q7 -1 14 1.5t13 -0.5q5 -4 6.5 -11t1.5 -13z" />
    <glyph glyph-name="J" unicode="J" horiz-adv-x="404" 
d="M386 578q-3 -8 -14.5 -9t-20.5 -3q-22 -6 -47 -9q2 -2 2.5 -4.5t2.5 -4.5q5 -12 8 -25l6 -26q6 -32 10.5 -64t9.5 -64q11 -82 9.5 -167t-27.5 -164q-9 -31 -24.5 -60.5t-40.5 -49.5q-15 -14 -34.5 -21t-39.5 -9q-27 -1 -54 8.5t-47 28.5q-29 27 -45.5 65.5t-25.5 78.5
q-8 35 -6 71q0 9 2 19.5t9 16.5q5 5 11.5 6.5t11.5 -2.5q8 -5 10 -14t3 -18q1 -11 1 -21t2 -21q0 2 0.5 -1.5t0.5 -5.5q2 -10 2 -16q0 -14 0.5 -27.5t5.5 -25.5q9 -22 23.5 -41.5t34.5 -31.5q13 -8 28.5 -12t30.5 -3q17 1 34 8.5t28 19.5q20 22 30.5 51t15.5 59q4 22 3.5 44
t1.5 44q1 15 4 30t2 30q0 12 -3 24t-5 24q-3 21 -3 42t-1 41q-2 32 -7 63.5t-11 62.5q-3 13 -7 28.5t-2 28.5h-1q-13 -2 -24 -9t-24 -9q-11 -2 -21 -0.5t-20 -0.5q-9 -1 -18.5 -5.5t-17.5 -0.5q-9 5 -12 16.5t-1 21.5q2 8 9 8q2 0 4.5 -0.5t3.5 1.5q0 2 2 2t4 -1q1 0 1 -0.5
t1 -0.5l2 -2q9 -2 15 1q7 3 13 6.5t13 5.5q12 3 24.5 4t24.5 4q4 0 12 2q3 2 6.5 2.5t5.5 2.5q4 2 6.5 3.5t6.5 3.5h2q4 1 7 -1t7 -2q5 0 9 5t9 6q7 1 13.5 -0.5t13.5 -1.5q8 1 16.5 2.5t16.5 0.5q5 -1 7 -5.5t3 -8.5q5 -14 3 -24z" />
    <glyph glyph-name="K" unicode="K" horiz-adv-x="491" 
d="M543 -44q1 -7 0.5 -14t-3.5 -12q-2 -5 -9 -2.5t-12 1.5q-14 -2 -29 -1.5t-29 1.5q-8 2 -16 -3.5t-17 -5.5q-7 0 -13 3t-13 3q-6 1 -11.5 -2t-10.5 0q-5 4 -6 10.5t-2 13.5v10t2 10q1 2 5 1.5t6 1.5q0 3 3 0q1 0 1 -0.5t1 -0.5l1 -2q2 -2 4 -2h3q5 0 8 2.5t8 3.5q1 1 5 1
l-12 21q-10 17 -23 31.5t-24 30.5q-11 17 -21.5 35t-24.5 34q-9 11 -20.5 20.5t-20.5 20.5q-8 11 -13 23t-12 23q-6 10 -14.5 18t-15.5 17q-6 -6 -12.5 -12t-11.5 -13q-11 -11 -19 -24.5t-20 -22.5v-8.5t1 -8.5q0 -12 -3 -24.5t-1 -24.5q2 -16 5.5 -31t3.5 -32q1 -25 -1 -50
t-2 -51q-20 1 -40.5 1t-40.5 1q-12 1 -25.5 1.5t-18.5 11.5q-3 5 -3.5 12t3.5 12q6 8 16.5 10t20.5 2q10 -1 19 -1.5t19 -0.5q1 31 -2 62t-4 63q-2 43 -1 86t-2 86q-1 20 -5 40.5t-6 41.5q-5 39 -0.5 79t-0.5 79q-17 -2 -34.5 -3.5t-32.5 6.5q-8 4 -11 15.5t2 18.5
q5 5 12.5 6.5t14.5 2.5q11 1 20.5 0.5t20.5 0.5q-2 1 -2.5 0.5t0.5 -0.5h4q7 2 13 0q8 0 16.5 -2t16.5 -3q-1 -17 2 -34.5t5 -34.5t3 -34.5t2 -35.5q2 -45 2.5 -90.5t3.5 -90.5q0 -3 0.5 -6t0.5 -7q2 2 3 4t3 4q23 34 48.5 66.5t51.5 64.5q15 19 25.5 41t24.5 41
q11 16 24.5 29t25.5 27q5 6 8.5 13t7.5 14q-2 0 -3 0.5t-3 0.5q-5 0 -10 -2.5t-9 1.5q-5 4 -5.5 10.5t-0.5 12.5q-2 12 2 20q1 2 4 2t5 2q1 1 2.5 0t2.5 -2q0 -2 1 -2q2 -2 3 -2t1.5 -0.5t1.5 -0.5q4 0 7 2.5t7 4.5q6 2 12.5 1t12.5 -1h12t11 2q2 2 3.5 2.5t3.5 2.5h2
q2 0 4 -3.5t4 -1.5q2 1 4 3t4 3q5 2 9 -1.5t9 -4.5t9.5 -1t9.5 -2q5 -3 4.5 -9t0.5 -11q0 -6 -0.5 -13t-3.5 -12q-2 -5 -8 -2.5t-11 2.5q-9 -2 -18.5 -1.5t-18.5 1.5q-1 -1 -1 -2q-2 -3 -4 -5.5t-4 -5.5q-2 -1 -4.5 -2.5t-0.5 -3.5t-1 -4.5t-6 -4.5q-1 0 -3 -2
q-2 0 -2.5 -0.5t-1.5 -0.5l-7 -7q-2 -2 -3 -3.5t-3 -3.5t-3 -4l-2 -4q-2 -2 -2.5 -4t-1.5 -4q-17 -33 -40 -61.5t-44 -58.5q-9 -14 -15.5 -28.5t-16.5 -27.5q-4 -5 -8.5 -8t-9.5 -7q3 -2 5 -5l4 -6q1 -2 1 -4t2 -1t3.5 -2.5t2.5 -5.5v-3v-4q1 -2 1.5 -3.5t2.5 -3.5
q1 -2 1.5 -3.5t2.5 -3.5q1 -2 4 -5q8 -8 16 -15t14 -15q12 -15 22.5 -31t22.5 -31l6 -8l6 -8t6 -7.5t7 -6.5q4 -4 7.5 -7t7.5 -7l3 -3q3 -4 4 -9t3 -10q3 -5 9 -7.5t10 -7.5q7 -7 10.5 -16.5t8.5 -17.5q5 -9 11 -18t11 -17q4 -5 7 -10t4 -11v-2q2 1 2.5 1.5t2.5 1.5h1
q3 0 5 -2t4 -3q4 -1 6.5 3.5t6.5 3.5q5 0 8.5 -2.5t8.5 -2.5q5 -2 11 -1.5t11 -1.5t5 -8v-11z" />
    <glyph glyph-name="L" unicode="L" horiz-adv-x="382" 
d="M349 72q-4 -24 -3.5 -48.5t-1.5 -48.5q-38 2 -75 6.5t-75 5.5q-15 1 -30.5 -1.5t-30.5 -3.5q-19 0 -37.5 3t-36.5 6t-36 2.5t-36 0.5q-11 0 -23.5 1.5t-20.5 10.5q-7 7 -4.5 21.5t12.5 16.5q6 2 12.5 0.5t12.5 -1.5q-2 2 3 1.5t7 -1.5q5 -1 10 -3.5t10 -3.5q11 -2 23 -1
t23 3q-8 10 -8 24t2 28t2 28q0 50 2.5 98.5t5.5 97.5q2 29 -2 57t-3 57q0 23 4 44.5t5 43.5q1 15 -1 30t0 30q0 7 1 17t4 18h-1q-1 -1 -3 -1q-3 1 -6 3t-6 3q-5 1 -9.5 -3t-9.5 -3q-6 0 -12 2.5t-12 4.5q-8 1 -16 1t-16 3q-4 2 -5 6.5t-1 8.5q-1 6 -1 12.5t3 11.5q2 4 4 6
q0 1 2 1q7 3 14 0.5t14 -2.5q20 1 39 0.5t38 -3.5q7 -1 13.5 -1.5t13.5 1.5q8 1 14.5 4t13.5 3q10 0 19 -3.5t19 -4.5q9 -1 18.5 1.5t15.5 -2.5q8 -7 8.5 -19t-3.5 -21q-4 -6 -8 -6q-2 0 -4.5 1.5t-4.5 -0.5q-1 -2 -3.5 -1t-4.5 3q0 1 -0.5 1t-0.5 1q-2 1 -3 1t-2 1
q-3 0 -5 1q-1 0 -2 -0.5t-2 -0.5q-7 -2 -13 -4t-13 -2q-11 -1 -22 0l-22 2q3 -6 4.5 -14.5t1.5 -13.5v-12q-1 -2 -2 -5t1 -4q4 0 2.5 -5t-2.5 -8q-1 -2 -1 -2.5t-1 -2.5q-2 -2 -2 -4q-1 -3 -1.5 -5.5t-0.5 -5.5q-1 -4 -1 -11v-11q0 -3 0.5 -6t0.5 -5q6 -43 3 -86t-3 -87
q-1 -19 2.5 -38t2.5 -39q-1 -7 -3.5 -13.5t-3.5 -14.5t2 -16.5t4 -16.5q1 -17 -2.5 -34t-5.5 -34q-2 -12 -2 -24t-1 -24q-1 -8 -1.5 -16.5t-3.5 -16.5q0 -1 -2 -3q27 -2 53.5 -4.5t53.5 -2.5q12 0 24 2.5t24 1.5q8 -1 16.5 -5t16.5 -3q5 1 8.5 3t7.5 3q-2 17 3.5 34.5
t7.5 34.5q2 11 1 23.5t7 20.5q6 7 18.5 7t17.5 -8q11 -15 8 -35t-5 -39z" />
    <glyph glyph-name="M" unicode="M" horiz-adv-x="624" 
d="M596 -61q0 -16 -5 -26q-2 -4 -7.5 -1.5t-9.5 2.5q-12 0 -24.5 2t-23.5 4q-8 2 -14.5 -2.5t-13.5 -3.5q-6 0 -11 3.5t-11 4.5q-4 1 -8.5 -1t-7.5 0q-5 2 -5.5 7.5t-0.5 10.5q0 7 0.5 14t3.5 14q1 2 4 1t5 1q1 1 4 -2q0 -2 1 -2l2 -2q1 -1 3 -1q4 -1 7 1.5t7 3.5q7 2 13 0
q-2 8 -1.5 17t1.5 17q2 17 4.5 33t5.5 33q7 46 8.5 92t3.5 92q1 41 1.5 81t-6.5 79q-3 18 -9 36t-18 32q-15 15 -35 15q-11 1 -21.5 -3.5t-18.5 -11.5q-15 -13 -25.5 -30.5t-15.5 -37.5q-5 -18 -7.5 -36.5t-5.5 -37.5q-2 -11 -3.5 -23t-7.5 -21q-1 -6 -1.5 -11.5t-0.5 -11.5
q-1 -17 2.5 -32.5t3.5 -32.5q-2 -33 -5 -66t-5 -67l-3 -57q-1 -9 -1.5 -18.5t-5.5 -17.5q-3 -6 -13 -8t-14 0q-11 5 -12.5 19.5t-1.5 26.5q-1 17 0 35t3 35q3 46 2 91.5t0 92.5q1 39 -0.5 78.5t-12.5 77.5q-5 15 -10.5 30t-16.5 27q-7 8 -16 13t-19 5q-11 -1 -22 -7.5
t-19 -15.5q-30 -32 -38 -74q-4 -18 -5.5 -37t-3.5 -38q-2 -13 -3.5 -27t-11.5 -23l1 -13q2 -24 5.5 -48t4.5 -49q1 -12 -2.5 -24.5t-1.5 -24.5q2 -17 5.5 -32.5t3.5 -31.5q1 -26 -1 -52.5t-2 -52.5q-17 0 -34.5 -0.5t-34.5 -0.5q-12 0 -25.5 -0.5t-24.5 5.5q-6 3 -9 10.5
t-1 13.5q1 6 6.5 11t10.5 7q15 5 30.5 3.5t31.5 -2.5q1 32 -2 64.5t-4 64.5q-1 45 0 88.5t-2 87.5q-2 26 -6.5 51t-5.5 51q-2 36 1.5 72.5t-1.5 72.5q-17 -3 -34 -5.5t-32 5.5q-8 4 -11.5 15t1.5 19q5 5 12.5 7t14.5 3q11 2 21 1.5t21 1.5q-3 1 -3.5 0.5t1.5 -0.5h4
q5 1 13 1t16.5 -1.5t16.5 -2.5q-2 -18 1 -36t5 -36t3 -35.5t2 -35.5q6 20 15.5 39t23.5 33t32.5 22.5t37.5 8.5q24 0 47 -18q16 -13 27 -31t19 -37q5 -13 9 -26t7 -26l5 15q8 23 18 46t27 40q14 14 35 22.5t42 6.5q29 -2 51 -22q14 -13 23.5 -30t15.5 -35q8 -25 12 -50.5
t8 -51.5q2 -14 4.5 -27.5t2.5 -27.5q-1 -14 -3.5 -26.5t-2.5 -26.5q0 -17 3 -33t1 -33q-2 -33 -7.5 -66.5t-10.5 -66.5q-3 -17 -5 -33.5t-6 -33.5q-2 -10 -4 -15q5 -5 6 -5q2 1 3.5 3t4.5 3q4 2 7.5 -1.5t8.5 -5.5t9.5 -2t7.5 -3q5 -3 4.5 -8.5t-1.5 -10.5z" />
    <glyph glyph-name="N" unicode="N" horiz-adv-x="492" 
d="M484 -8q-8 -9 -20 -11.5t-23 -2.5q-16 -1 -32 -0.5t-33 1.5q-20 45 -42.5 88t-43.5 88q-20 41 -38 81.5t-39 80.5q-14 26 -30 50.5t-30 50.5q-8 17 -15 34l-14 34q1 -3 1 -5.5t1 -4.5q8 -44 8.5 -88t3.5 -89q2 -20 6 -39t5 -39q0 -8 -2 -14.5t-3 -14.5q0 -9 3.5 -17.5
t4.5 -16.5q2 -17 0 -35t-3 -35v-25t1 -24v-16t-2 -16q4 3 6 0t5 -4q4 -1 6.5 3.5t6.5 4.5q5 0 8.5 -2.5t8.5 -2.5q5 -1 10.5 -1t10.5 -2t5.5 -7.5t1.5 -10.5v-13.5t-3 -12.5q-2 -5 -8.5 -3t-11.5 1q-14 -2 -28.5 -2t-28.5 1q-9 0 -17 -5t-16 -6q-7 0 -13 2.5t-13 2.5
q-5 0 -10.5 -2.5t-10.5 0.5t-6.5 10t-2.5 13q0 5 -0.5 10t1.5 10q1 3 5 2.5t5 1.5q2 2 4 0l2 -2l1 -1q2 -2 4 -2h3q4 0 7.5 2.5t7.5 4.5q5 2 11 2h11q-7 9 -9 23q-1 14 0 28.5t0 29.5q-4 51 -5 100.5t-2 100.5q0 29 -5.5 58t-7.5 58q-2 23 0.5 45.5t2.5 45.5
q-1 15 -3.5 30.5t-2.5 30.5q0 8 1 13q-24 -2 -47 0q-10 1 -20 3t-18 8q-5 5 -7 13t1 14t10 8.5t13 3.5q12 1 23.5 -0.5t23.5 -1.5q-2 1 1 0.5t5 -0.5q8 0 12 -1q10 -1 19.5 -3.5t19.5 -3.5q14 -31 32 -59t33 -58q20 -41 39.5 -81.5t40.5 -81.5q11 -20 23.5 -38t21.5 -38
q6 -12 9 -25.5t10 -24.5q8 -12 16 -22.5t14 -22.5q2 -5 4.5 -10t4.5 -10q-1 81 0 162q0 29 -5 57.5t-6 57.5q-1 23 2 44.5t3 44.5q0 16 -2.5 31t-2.5 30q1 6 2 16.5t4 18.5q-2 2 -3.5 3t-3.5 2q-4 1 -7 -3t-7 -4q-5 0 -9.5 2.5t-9.5 3.5t-11.5 1t-11.5 2t-5 8t-1 11
q-1 7 -0.5 13.5t4.5 12.5q3 5 10 2.5t12 -2.5q32 3 63 0q9 -2 17.5 3.5t17.5 5.5q8 0 14.5 -3t13.5 -3q6 -1 12.5 2t11.5 0q5 -4 6 -11t2 -13v-10t-2 -10q-2 -3 -6 -2t-5 -2q-1 -1 -2.5 -0.5t-2.5 0.5l-1 2l-2 2q-1 1 -1.5 1t-1.5 1h-4q-5 0 -8.5 -2.5t-8.5 -4.5
q-8 -2 -15 -1t-15 1h-2q3 -6 4 -14.5t1 -13.5q1 -3 0.5 -6t-0.5 -6q0 -2 -1 -5t1 -4q4 0 3 -5t-2 -8q-2 -4 -2 -5q-2 -2 -2 -4q-1 -4 -1 -12q-1 -3 -1 -11q0 -7 1 -11q0 -3 0.5 -5.5t1.5 -5.5q8 -44 7 -87.5t1 -87.5q1 -20 4.5 -38.5t4.5 -38.5q0 -8 -2.5 -14.5t-2.5 -14.5
q-1 -9 2.5 -17t4.5 -17q2 -17 -1 -34.5t-4 -34.5v-24t-1 -24q0 -6 0.5 -12.5t-0.5 -13.5h18t18 -1q8 -1 15.5 -1t13.5 -5t9 -14t-2 -14z" />
    <glyph glyph-name="O" unicode="O" horiz-adv-x="394" 
d="M321 260q1 4 0.5 16t-2 26t-2.5 26.5t-2 15.5q-4 19 -7.5 38t-8.5 38q-9 29 -22.5 57.5t-34.5 51.5q-12 13 -29 23t-36 9q-15 0 -28 -8t-24.5 -19.5t-20.5 -25.5t-16 -28q-21 -42 -29 -89.5t-6 -95.5q2 -50 16 -98.5t42 -90.5q8 -12 17.5 -23.5t20.5 -21.5t23.5 -16.5
t26.5 -6.5q19 -1 36.5 10.5t29.5 27.5q20 25 29.5 56t15.5 63q4 16 6 32t5 33zM366 242q-1 -14 -3 -27l-4 -26q0 2 0 -1.5t-1 -5.5l-2 -10t-3 -10q-4 -14 -10.5 -27.5t-13.5 -27.5q-12 -25 -26.5 -49t-35.5 -42q-14 -12 -31.5 -19.5t-35.5 -8.5t-35 5t-33 15.5t-29.5 23
t-23.5 27.5q-35 51 -51 112t-19 122q-1 29 -0.5 59.5t5 60t14 57.5t25.5 52l24 36t28 32q14 12 33 19.5t38 7.5q25 1 48.5 -10.5t41.5 -28.5q31 -30 50.5 -69.5t31.5 -81.5q5 -18 8 -36t5 -37q1 -9 0 -30t1 -36t4 -25t0 -21z" />
    <glyph glyph-name="P" unicode="P" horiz-adv-x="400" 
d="M346 417q0 23 -7.5 47t-24.5 41q-11 10 -24.5 15.5t-27.5 10.5q-11 4 -21.5 9.5t-22.5 4.5q-8 -1 -16 -2.5t-16 -2.5q-26 -5 -53.5 -3t-54.5 1q2 -6 3 -13.5t2 -11.5v-12q0 -2 -0.5 -5t1.5 -3q3 -1 2.5 -5.5t-1.5 -8.5q-1 -1 -1 -2t-1 -3q0 -1 -0.5 -1.5t-0.5 -2.5
q-1 -4 -1 -11q-2 -6 0 -11q0 -7 1 -11q1 -3 1 -5.5t1 -5.5q9 -38 10.5 -76.5t4.5 -77.5q5 2 15 2q9 1 18 0t18 0q-2 1 3 1h7q9 2 17 -1q15 -4 31.5 -0.5t30.5 8.5q25 10 47.5 25t37.5 36q11 16 17 35.5t5 38.5zM392 418q2 -26 -2.5 -52t-17.5 -49q-14 -22 -36.5 -37.5
t-46.5 -24.5q-60 -23 -122 -29q-12 -1 -24 -1t-24 2l-15 3q2 -13 5 -25.5t4 -26.5q0 -7 -2 -14t-2 -14q0 -9 3.5 -17t5.5 -16q3 -17 1 -34.5t-2 -34.5q0 -11 0.5 -23t0.5 -24q1 -8 1 -17t-2 -17q1 1 2 1t2 1h2q3 0 5.5 -2t5.5 -3q5 -1 8.5 3t8.5 4q6 0 11 -2.5t11 -3.5
q7 -2 14 -1.5t14 -2.5q4 -2 5 -6t2 -9v-12t-2 -12q-1 -2 -3.5 -5t-5.5 -3q-5 -1 -10.5 1t-10.5 1q-17 -1 -34.5 -1t-34.5 2q-6 1 -12.5 1.5t-12.5 -1.5t-12 -5t-13 -3q-8 0 -16.5 3t-17.5 4q-7 0 -14.5 -3t-13.5 1q-8 5 -9 17t1 22q2 7 6 8q2 1 5 -0.5t5 0.5q0 2 5 0
q1 -1 1 -2q1 0 1 -0.5t1 -0.5q2 -2 4 -2q2 -1 5 -1q2 0 4 1q5 2 11 4t11 3q8 1 16.5 0t16.5 -1q-7 9 -9 21q-2 14 -0.5 28t-0.5 28q-5 49 -7.5 98t-4.5 98q-1 29 -7.5 56.5t-8.5 56.5q-2 22 0 44t1 44q-1 15 -4 30t-3 30q-1 8 0.5 20.5t6.5 20.5q-13 -1 -25.5 -1t-25.5 -1
q-12 0 -24 -1t-22 4q-7 5 -9.5 15.5t2.5 15.5q8 8 18.5 10.5t21.5 3.5q14 2 29 2t30 1q37 0 73 3.5t73 5.5q40 2 81.5 -8t70.5 -38q26 -25 40 -60.5t17 -70.5z" />
    <glyph glyph-name="Q" unicode="Q" horiz-adv-x="413" 
d="M319 251q-3 15 -3 29q0 17 0.5 33t-0.5 33q-1 32 -6.5 64t-21.5 61q-9 17 -23.5 31.5t-32.5 17.5q-15 3 -29 -2t-27 -14t-24 -21t-20 -24q-29 -38 -46.5 -82.5t-25.5 -91.5q-9 -49 -5.5 -99.5t20.5 -97.5q10 -25 25.5 -51t41.5 -33q16 -5 33 1.5t31 16.5q12 9 21 21
q-5 6 -10.5 11.5t-10.5 13.5q-5 9 -8 20t-8 21q-5 9 -13 17t-7 18q1 11 12 19t22 6q6 0 8 -8q1 -2 1 -4t2 -2q4 0 4 -5q0 -2 -1 -3v-3q0 -8 7 -15q5 -6 10.5 -11t10.5 -11q3 -5 5.5 -10t5.5 -10l12 24q9 20 16.5 40t15.5 40q2 5 5 14t6 19t5 17.5t2 9.5zM365 353
q1 -37 -3 -73q-1 -6 -2.5 -17.5t-3.5 -24.5t-4 -24t-2 -14q-1 -15 -6 -30q-3 -13 -8 -25t-10 -25q1 2 0 -1t-2 -5q-3 -9 -8 -19q-7 -14 -16.5 -25.5t-18.5 -23.5q2 -2 4 -5t4 -5q3 -3 6 -5.5t6 -4.5q0 -1 0.5 -1t0.5 -1q2 -4 1.5 -8t1.5 -7q2 -6 8 -8.5t9 -7.5q4 -7 5 -14
t4 -14q4 -8 9 -16t7 -17q2 -10 -9 -17.5t-21 -7.5q-11 -1 -16 11t-10 20q-11 17 -21 34.5t-20 35.5q-11 -11 -22 -21t-25 -18q-16 -9 -34.5 -13t-35.5 -1q-34 6 -60.5 34.5t-39.5 60.5q-23 57 -25 120t8 123q8 45 19.5 89t34.5 82q8 14 18.5 25t21.5 22q14 14 27 28t30 23
t36.5 13.5t38.5 -0.5q24 -5 44 -21t34 -36q23 -36 33 -79t12 -86z" />
    <glyph glyph-name="R" unicode="R" horiz-adv-x="421" 
d="M334 420q2 21 -3 43.5t-19 39.5q-8 9 -18 14.5t-20 10.5q-8 5 -16.5 11t-18.5 7q-8 1 -16 -0.5t-16 -2.5q-23 -2 -47 2t-47 5q2 -6 3 -12.5t1 -10.5v-11q-1 -2 -1.5 -5t1.5 -3q3 -1 2 -5.5t-3 -7.5q0 -2 -2 -4q0 -2 -0.5 -2.5t-0.5 -1.5q-1 -3 -1.5 -5.5t-1.5 -5.5v-10
v-10q0 -5 2 -11q5 -36 3.5 -72t-2.5 -72q4 1 12 1t16 -1.5t16 -1.5q-2 1 2 1h6q5 -1 8.5 -1.5t8.5 -1.5q5 0 8.5 -1t7.5 -2q21 0 44 10q20 8 38 20.5t31 29.5q20 29 23 66zM443 -27q2 -8 -3 -15.5t-12 -10.5q-27 -14 -58 -7q-13 3 -25.5 8t-23.5 13q-17 13 -26.5 35
t-10.5 44q0 17 3.5 35.5t5.5 36.5t0.5 34.5t-10.5 31.5q-10 17 -21 33t-28 25q-3 1 -12 3.5t-20 4.5t-20.5 4t-13.5 2q-11 0 -21.5 0.5t-21.5 3.5q-2 1 -5 1.5t-5 2.5q2 -12 3.5 -24t0.5 -24q0 -7 -2.5 -13t-3.5 -13q-1 -8 2 -16t4 -16q2 -16 -1.5 -32t-5.5 -32
q-1 -13 -1.5 -26t-1.5 -26v-10.5t-2 -10.5h2q3 0 5 -2.5t4 -3.5q4 -2 7.5 2t7.5 4q5 -1 9.5 -3.5t9.5 -4.5q6 -2 12.5 -2t11.5 -3t5 -9t-1 -11q0 -7 -1 -13.5t-5 -11.5t-11 -2t-13 3q-16 0 -32 2t-32 5q-10 2 -19.5 -2.5t-19.5 -3.5q-8 1 -14 4.5t-14 4.5q-7 1 -13.5 -1
t-11.5 2t-5.5 10.5t-0.5 13.5q0 5 0.5 10t3.5 10q2 2 6 1t6 1t4 0l2 -2l1 -2q2 -2 4 -2q1 -1 3 -1q5 -1 9.5 1.5t9.5 3.5q8 2 15 0.5t14 -2.5q-2 5 -4 9.5t-2 9.5q0 14 2 27t1 26q-1 47 1 93t5 92q2 27 -3 53.5t-4 53.5q0 21 3.5 41.5t4.5 41.5q1 14 -1.5 28.5t-0.5 28.5
q1 6 1.5 17.5t4.5 19.5q-9 0 -18 0.5t-18 0.5q-11 1 -22 1t-19 6q-6 5 -7.5 15.5t3.5 15.5q7 7 17 9t19 2q14 0 27 -0.5t27 -1.5q31 -2 62 -1t63 0q35 -1 72 -14.5t60 -40.5q22 -26 30.5 -60t8.5 -68q0 -23 -4.5 -47t-17.5 -43q-14 -20 -36 -34.5t-45 -22.5l-11 -3
q9 -4 17.5 -8t15.5 -11q12 -10 20 -24t13 -28q10 -31 8.5 -63.5t0.5 -64.5q1 -8 -3 -15t-3 -15q1 -5 4 -8.5t5 -7.5q3 -5 5 -9.5t5 -8.5q6 -7 15 -11.5t18 -4.5t18 3.5t17 2.5q5 -1 8 -4t6 -5q5 -5 8 -11z" />
    <glyph glyph-name="S" unicode="S" horiz-adv-x="382" 
d="M354 150q0 -22 -7 -43t-16 -41q-7 -16 -16.5 -31t-22.5 -27q-18 -17 -43 -26t-50 -9q-26 0 -51 6.5t-46 20.5q-21 13 -38 31.5t-27 41.5q-8 18 -13 37t-3 39q0 8 1.5 16.5t6.5 15.5q5 6 14 8q8 2 13 -3q3 -3 4 -7.5t2 -8.5q4 -13 6 -28q2 -16 7 -31t13 -29
q7 -12 16.5 -23t21.5 -18q33 -17 70 -14q21 2 41.5 12.5t34.5 26.5q14 17 21.5 38.5t6.5 43.5q0 35 -16 63q-8 14 -19 25t-25 19q-21 14 -45 23l-48 18t-47 19t-43 26q-23 18 -35.5 46.5t-13.5 57.5q-1 33 10.5 66t34.5 58q20 22 48 36t57 17q32 2 64 -10.5t53 -35.5
q12 -14 21 -32t7 -37q0 -11 -5 -16q-4 -4 -10.5 -5t-11.5 2q-6 5 -9.5 11t-7.5 13q-7 12 -15 24t-19 20q2 -1 -1 0.5t-5 3.5q-5 4 -13 7q-11 5 -22.5 9.5t-23.5 3.5q-18 -1 -36 -9t-30 -22q-18 -20 -26.5 -47.5t-6.5 -54.5q2 -22 13.5 -43t29.5 -35q18 -13 38 -22t41 -17.5
t41.5 -17t39.5 -19.5q18 -11 34.5 -27t28.5 -34.5t19.5 -39.5t7.5 -42z" />
    <glyph glyph-name="T" unicode="T" horiz-adv-x="382" 
d="M394 614q-4 -22 -4.5 -44.5t-2.5 -45.5q-2 -16 -3.5 -32.5t-11.5 -28.5q-5 -5 -13 -6t-15 1q-9 3 -11 14q-1 7 0.5 13.5t1.5 13.5q-1 -2 -0.5 2t1.5 6q1 4 2.5 7t2.5 7q4 13 4.5 26t-0.5 26q-35 -2 -68.5 1.5t-68.5 5.5q3 -6 4 -12t2 -11q0 -14 -2.5 -26.5t-2.5 -26.5
q0 -45 -2 -90.5t-6 -90.5q-2 -26 2 -52.5t3 -52.5q-1 -21 -4.5 -41.5t-4.5 -40.5q-1 -14 1 -28t0 -28q-1 -6 -2.5 -13t-5.5 -12q10 4 16 4q8 0 15.5 -3.5t15.5 -3.5q7 -1 14 1.5t13 -0.5q5 -4 6.5 -10.5t1.5 -13.5v-10t-3 -10q-2 -4 -7 -4q-2 0 -3.5 1t-2.5 0
q0 -2 -1.5 -1.5t-2.5 1.5q-2 0 -2 2l-2 2q-1 0 -1.5 0.5t-2.5 0.5q-1 1 -3 1q-5 0 -10 -2.5t-10 -3.5q-8 -2 -17 -1t-17 1h-15.5t-15.5 -3q-2 -1 -4.5 -2t-5.5 -2h-2q-3 0 -5 2t-5 3q-5 1 -8 -3t-8 -4q-5 1 -10 3.5t-10 3.5q-7 1 -13.5 1t-12.5 3q-5 2 -5.5 8t-0.5 11
q-1 6 0 13t5 12q3 5 11 2.5t14 -2.5q14 2 29 1.5t29 -2.5q-3 3 -4.5 8t-1.5 10q0 3 0.5 5.5t0.5 5.5q0 2 1 5t-1 3q-3 1 -2 5.5t3 6.5q0 1 2 5l2 4q1 2 1 4.5t1 5.5q0 2 0.5 5t0.5 5v10q-1 3 -1 5.5t-1 5.5q-5 39 -2 79t4 80q0 18 -3.5 36t-1.5 36q0 7 2.5 13t3.5 13
q1 8 -2 15.5t-4 15.5q-1 16 3 31.5t6 31.5q1 13 1.5 25.5t2.5 25.5q0 6 1 15t3 15q-14 0 -27 -2t-27 -1q-8 1 -17 5.5t-17 2.5q-6 0 -11 -2.5t-11 -2.5q-6 1 -12.5 1.5t-13.5 1.5q-4 -33 -6 -66q-1 -11 0 -22.5t-5 -19.5q-5 -8 -16 -9.5t-17 4.5q-7 6 -9.5 15t-3 18.5
t0.5 20t1 19.5q1 50 0 99q58 -3 115 -10t115 -10q22 -1 44 0.5t45 1.5q24 0 48 -4t49 -8z" />
    <glyph glyph-name="U" unicode="U" horiz-adv-x="410" 
d="M382 537q0 -5 -0.5 -10t-2.5 -10q-1 -2 -4.5 -1.5t-4.5 -1.5q-1 -1 -2.5 0t-2.5 2q0 1 -0.5 1t-0.5 1q-1 1 -1.5 1t-1.5 1h-3q-4 1 -7 -1.5t-7 -4.5q-8 -2 -16 0q2 -8 3 -15.5t1 -15.5q1 -17 0.5 -34t-0.5 -34q-2 -42 -2 -83.5v-83.5q0 -55 -9 -111.5t-40 -102.5
q-17 -25 -47 -41t-60 -15t-57.5 18.5t-44.5 42.5q-30 46 -39.5 102.5t-6.5 111.5q3 51 3.5 100.5t2.5 100.5q0 16 1 31.5t3 30.5q1 7 1.5 17t2.5 19l-1 -1q-1 -1 -2 -1q-2 0 -4.5 3.5t-4.5 1.5q-2 -1 -3.5 -3t-3.5 -3q-5 -2 -9 1t-9 4t-10 1t-10 2t-5 8v11q-2 16 3 26
q2 5 8 2.5t11 -1.5q13 2 26 1.5t26 -2.5q8 -1 15 4t15 5q6 1 11.5 -2t11.5 -4q5 0 10.5 2.5t9.5 -0.5q5 -4 5.5 -10.5t1.5 -12.5v-10.5t-2 -10.5q-1 -2 -4.5 -1.5t-4.5 -1.5t-2.5 -1t-2.5 3l-1 1q-2 2 -3 2q-1 1 -3 1q-4 0 -7 -2.5t-7 -4.5q-8 -3 -17 -1q2 -6 3 -12t1 -10
q1 -6 1 -11.5v-10.5q0 -11 -1 -21.5t-1 -21.5q0 2 0.5 -0.5t-0.5 -4.5v-16q-2 -12 -4.5 -24t-3.5 -24q-2 -38 0 -74.5t3 -74.5q2 -41 4.5 -82.5t16.5 -79.5q6 -16 14.5 -30.5t22.5 -24.5q18 -15 40 -13q14 0 27.5 5t22.5 15q11 11 17 26t13 29q6 13 11.5 25t6.5 26
q2 25 2 50v50q0 32 3 62.5t4 62.5q1 23 1.5 46.5t1.5 47.5v20t2 20q-3 1 -5 4t-4 2q-2 -2 -3.5 -4t-3.5 -3q-5 -2 -9 1.5t-9 4.5q-5 2 -10 2t-10 2q-4 3 -4 9v11q-1 6 0 13t4 12q2 5 8 2.5t11 -2.5q25 1 52 -3q8 -1 15 3.5t15 4.5q6 0 11.5 -3t11.5 -4q5 -1 10.5 1.5
t9.5 -0.5q5 -4 5 -11t1 -13z" />
    <glyph glyph-name="V" unicode="V" horiz-adv-x="304" 
d="M356 543v-10t-2 -10q-2 -3 -5.5 -2t-5.5 -1t-4 0q-1 0 -1 2l-2 2q-1 0 -1.5 0.5t-1.5 0.5q-1 1 -3 1q-5 0 -8.5 -2.5t-7.5 -3.5t-12 -1q1 -8 -0.5 -17t-3.5 -17q-4 -17 -9.5 -34.5t-11.5 -34.5q-23 -68 -44 -135.5t-44 -136.5q-5 -16 -13 -39.5t-16 -44.5t-14.5 -36
t-9.5 -15q-4 0 -16 4.5t-16 4.5q-2 0 -7.5 8t-7.5 13q-3 9 -5.5 18t-6.5 19q-16 52 -27 107q-11 60 -22 119t-26 118q-7 26 -13 50.5t-9 50.5q-1 8 -2.5 18t0.5 18q-1 0 -1.5 -0.5t-1.5 -0.5l-1 -1q-3 0 -5 2.5t-4 2.5q-4 2 -6.5 -2.5t-6.5 -4.5q-5 1 -8.5 3t-8.5 3t-10.5 1
t-10.5 2t-5.5 8t-0.5 11q-1 7 -0.5 14t3.5 12t9.5 2.5t11.5 -1.5q14 2 29 1.5t29 -2.5q8 -1 16.5 4t16.5 5q7 1 13 -2t13 -4q6 0 11.5 2.5t10.5 -0.5q5 -4 6 -10.5t1 -12.5q1 -5 1 -10.5t-2 -10.5q-2 -2 -5.5 -1.5t-5.5 -1.5q0 -1 -1.5 -1t-2.5 1t-1 2l-1 1q-2 2 -4 2
q-1 1 -3 1q-5 0 -8 -2.5t-8 -4.5t-9.5 -1.5t-9.5 0.5q2 -5 3 -9t3 -9q2 -9 3.5 -17.5t3.5 -16.5q0 2 1 -3t1 -7q2 -8 2 -15.5t1 -15.5q3 -25 9.5 -49.5t14.5 -48.5q21 -68 33 -137.5t30 -138.5q9 29 15 59.5t16 59.5q2 8 7 14t8 13q5 12 6 25t4 26q6 24 15 46.5t19 45.5
q7 19 13 37.5t13 36.5q8 25 17 48q2 6 4 11l-4 -2l-4 -2q-1 0 -1 -0.5t-1 -0.5q-2 1 -4 3t-4 3q-4 1 -7 -3t-7 -4q-4 1 -7.5 3.5t-8.5 3.5t-11 1t-11 3q-5 2 -5 8v11q0 7 0.5 13.5t4.5 12.5q2 5 9 2t12 -2q14 1 28.5 0t28.5 -3q9 -2 17 3t17 5q7 0 13 -3.5t13 -3.5
q5 -1 11 1.5t11 -0.5q5 -4 5.5 -11t0.5 -13z" />
    <glyph glyph-name="W" unicode="W" horiz-adv-x="559" 
d="M541 578q-5 -8 -14 -12t-18 -6l-24 -3q11 -68 18 -135.5t7 -136.5q-1 -57 -4.5 -112.5t-20.5 -109.5q-6 -18 -14.5 -34.5t-21.5 -29.5q-12 -11 -28 -17t-32 -7q-23 -2 -45 7.5t-38 25.5q-34 34 -51 84q-2 -6 -4.5 -12t-4.5 -11q-8 -20 -19.5 -37.5t-28.5 -30.5
q-21 -16 -46 -16q-15 0 -30 5.5t-27 14.5q-19 14 -32 33t-23 40q-9 21 -17 43t-10 45q-3 25 -1 50.5t-1 51.5q-5 40 -0.5 79.5t7.5 78.5q3 32 4.5 63t3.5 63q-12 2 -24.5 3.5t-24.5 4.5q-8 1 -15.5 3t-11.5 9q-4 5 -5.5 12.5t3.5 11.5q13 7 28 7.5t30 -0.5q18 -1 36 -3
t35 -4q-4 -83 -7.5 -165t-6.5 -165q-2 -42 2 -84t18 -82q5 -15 13 -29.5t20 -25.5q7 -7 16 -12t20 -4q10 0 18 7.5t13 16.5q9 14 14 29t9 31q9 38 15 76.5t8 77.5q2 48 -0.5 94.5t-2.5 93.5q0 17 0.5 32.5t2.5 31.5l4 20t10 15q5 2 9.5 3t9.5 -2t7 -9.5t4 -13.5
q1 -7 1.5 -13.5t0.5 -13.5q0 -11 -0.5 -23t0.5 -24q1 4 1 -3v-11q0 -9 -1.5 -18t-2.5 -18q-3 -35 -1 -70.5t4 -70.5q1 -8 1 -16.5v-16.5q0 -3 0.5 -5.5t0.5 -4.5q2 -11 2 -21.5t2 -20.5q0 2 0.5 -1t1.5 -5q0 -5 0.5 -8.5t1.5 -7.5q1 -12 1.5 -24t4.5 -23q5 -15 14 -30.5
t21.5 -28t27.5 -20t31 -6.5q23 2 37 19q11 14 17.5 30.5t10.5 33.5q11 42 9.5 86t-3.5 87q-1 15 2 29.5t2 28.5q-2 19 -6.5 37t-6.5 36q-4 42 -5.5 83t-10.5 82l-4 20q15 2 30.5 3.5t31.5 2.5q11 1 23 2t21 -5q5 -4 9 -12t-1 -13z" />
    <glyph glyph-name="X" unicode="X" horiz-adv-x="439" 
d="M431 -19q0 -6 -0.5 -13t-3.5 -12q-2 -5 -7.5 -2.5t-10.5 2.5q-24 -2 -50 3q-8 2 -14.5 -3t-14.5 -5q-6 0 -11 3t-11 4q-5 1 -10 -1.5t-9 0.5q-5 5 -5 11.5v12.5q-2 12 2 20q1 2 4 1.5t5 1.5q1 2 2.5 1t1.5 -3l2 -2l2 -2h3q4 0 7 2.5t7 3.5q1 0 2 0.5t2 0.5q-8 12 -12 19
q-7 13 -12 26.5t-12 25.5q-20 38 -38 76l-36 76q-2 -6 -4.5 -12.5t-5.5 -12.5q-11 -22 -23.5 -42t-23.5 -42q-8 -14 -12.5 -30t-12.5 -30q-2 -4 -4.5 -8t-6.5 -8q3 -2 6 -3.5t6 -2.5q5 -2 9.5 -2t9.5 -2q4 -3 3.5 -8.5t0.5 -10.5q0 -7 -0.5 -13.5t-3.5 -12.5
q-2 -4 -7.5 -1.5t-10.5 1.5q-13 -1 -25.5 0t-24.5 3q-8 2 -14.5 -3t-14.5 -5q-6 1 -11.5 4t-11.5 4q-5 0 -10 -2t-9 1q-5 4 -5 10.5v12.5v10.5t2 10.5q1 2 4.5 1.5t4.5 1.5q1 1 2.5 0t2.5 -2q0 -2 1 -2q2 -2 3 -2t1.5 -0.5t1.5 -0.5q4 0 7 2.5t7 3.5q5 2 11 1.5t12 -1.5
q2 8 6.5 17l6.5 13l6 12q2 2 4 4.5t0 4.5q-3 2 0.5 6t5.5 7q2 2 4 3.5t4 3.5t3.5 5t3.5 5t2.5 5t2.5 6q2 2 2.5 5t2.5 5l3 12q11 36 27 69.5t33 66.5q-11 17 -22 33.5t-20 34.5q-11 20 -17.5 41.5t-16.5 41.5q-7 14 -15.5 26.5t-14.5 26.5q-2 5 -7.5 18.5t-8.5 24.5h-5
q-5 0 -10.5 3t-11.5 4q-5 1 -10 -1.5t-9 0.5q-5 4 -5 11v13v10t2 10q1 2 4 1.5t5 1.5q1 1 2.5 0t2.5 -2q0 -1 1 -2t1.5 -1t1.5 -1h2q4 -1 7 1.5t7 4.5q6 2 12.5 1t12.5 -2h11t11 2q4 2 7 5h2q2 0 4 -3.5t4 -2.5q2 2 3.5 4t3.5 3q5 2 9 -1.5t9 -5.5q5 -1 9.5 -1t8.5 -3
q5 -2 4.5 -8t-0.5 -11q2 -15 -4 -26q-2 -4 -7.5 -1.5t-10.5 2.5q-13 -1 -28 0q6 -9 8 -13q2 -3 2.5 -5.5t2.5 -5.5q1 -2 1.5 -5.5t2.5 -2.5q3 1 4 -4t2 -8v-5q0 -3 1 -5q0 -3 1 -5.5t2 -5.5q1 -2 2 -5t2 -5q2 -2 3 -5t3 -5l6 -9q17 -24 30.5 -50.5t26.5 -52.5q5 15 9 29.5
t11 28.5q4 7 9 13t10 13q5 8 5.5 17.5t3.5 17.5q6 17 17 32.5t20 31.5q6 11 11.5 23t11.5 23l9 18q-5 1 -10 3.5t-10 3.5q-5 0 -10 -2t-9 1q-5 4 -5 10.5v12.5v10.5t2 10.5q1 2 4 1.5t5 1.5q1 1 2.5 0t2.5 -2q0 -2 1 -2q2 -2 3 -2q1 -1 2 -1q4 0 7 2.5t7 3.5q6 2 12.5 1
t12.5 -1h11t11 2q2 1 3.5 2t3.5 2q1 1 2 1q2 -1 4 -4t4 -2t3.5 3t3.5 3q5 2 9 -1.5t9 -4.5t9.5 -1.5t8.5 -2.5q5 -2 4.5 -8t-0.5 -11q2 -15 -4 -26q-2 -4 -7.5 -1.5t-10.5 1.5q-16 -1 -36 2q2 -7 1 -15.5t-3 -14.5q-6 -14 -14 -27.5t-15 -27.5q-21 -49 -44 -96t-48 -95
q-6 -13 -13 -31q9 -17 20.5 -32t19.5 -32q3 -7 4 -14t4 -14q3 -8 9.5 -14t11.5 -13q9 -15 13.5 -32t11.5 -33q11 -22 20 -43q4 -8 10.5 -26t8.5 -28q2 1 3 2t3 2h1q3 0 5 -3.5t4 -2.5q2 2 3.5 4t3.5 3q5 2 8.5 -1.5t8.5 -4.5q5 -2 10 -2t9 -2q5 -3 4.5 -9t-0.5 -11z" />
    <glyph glyph-name="Y" unicode="Y" horiz-adv-x="370" 
d="M472 612q0 -7 -0.5 -14t-3.5 -12t-10 -2t-13 2q-22 -1 -50 2q3 -9 1 -20q-1 -6 -3 -11.5t-4 -11.5q-8 -19 -18 -37t-19 -38q-19 -38 -35.5 -77t-34.5 -77q-15 -32 -31 -62.5t-31 -62.5q2 -2 0 -4l-2 -2h-1l-3 -7v-2q0 -5 2.5 -9.5t3.5 -9.5q2 -8 1 -16.5t-1 -16.5v-15.5
t3 -14.5q1 -2 2 -5t2 -5v-2q0 -3 -2 -5t-3 -5q-2 -4 2.5 -7.5t4.5 -7.5q-1 -5 -3.5 -10t-3.5 -10q-1 -7 -1 -13.5t-3 -12.5q2 1 2.5 1t2.5 1h2q2 0 4.5 -2.5t5.5 -3.5q4 -1 7.5 3t8.5 4q5 -1 10 -3.5t10 -3.5q7 -2 13.5 -2t12.5 -3q5 -2 5.5 -8t0.5 -11q0 -7 -1 -14t-5 -12
t-11.5 -2t-13.5 3q-18 -1 -35.5 0.5t-35.5 3.5q-10 2 -20 -2.5t-21 -4.5q-8 1 -15.5 4t-15.5 4q-7 1 -14 -1.5t-13 1.5q-5 3 -6 10t-1 14q0 5 0.5 10t2.5 10q3 3 7 3q2 0 3.5 -1t2.5 1q2 2 5 -1l2 -2q0 -1 1 -1q2 -2 4 -2q1 -1 4 -1q5 -1 10 1.5t10 4.5q8 1 16 0l16 -2l-6 3
q-5 4 -2 11.5t2 13.5q-1 34 3 68q1 10 -4 19.5t-5 19.5q0 8 3.5 15.5t3.5 15.5q1 7 -1.5 13.5t0.5 12.5q-6 11 -12.5 21.5t-11.5 21.5q-14 29 -24.5 59t-22.5 59q-8 18 -17 35.5t-18 35.5q-7 13 -13 27t-11 28q-2 7 -7.5 20t-5.5 24q-4 -2 -7 -3t-7 -1q-8 1 -14 4t-14 4
q-6 0 -12 -2.5t-11 1.5t-6 10.5t-1 12.5v10.5t3 10.5q1 2 5 1t6 2h4l2 -2q0 -2 1 -2q2 -2 3 -2t2 -0.5t2 -0.5q5 0 8.5 2.5t8.5 3.5q8 2 15 1t15 -1q7 -1 14 -0.5t13 2.5q2 1 4.5 2t4.5 2q1 0 1 0.5t1 0.5q2 -1 4 -3t5 -3q4 -1 7 3t7 4q5 -1 9 -3.5t9 -3.5t11.5 -1t11.5 -3
q4 -2 4.5 -8t0.5 -11q0 -7 -0.5 -14t-4.5 -12q-3 -5 -10 -2t-12 2q-11 -1 -21.5 -0.5t-21.5 1.5q4 -5 7 -10t5 -8q3 -6 5 -12t5 -11q0 2 1.5 -1l2.5 -5q2 -5 2.5 -9t1.5 -9q2 -14 8.5 -27.5t14.5 -25.5q25 -37 42.5 -78t35.5 -81q9 18 16.5 36.5t15.5 37.5q4 11 7 23t8 23
q3 6 8 11t8 10q5 8 6 16t3 16q7 26 22.5 48.5t27.5 46.5q10 22 22 44q2 4 3.5 7.5t3.5 7.5q-2 -1 -4 -1q-7 0 -13.5 3.5t-14.5 4.5q-5 0 -11.5 -2.5t-11.5 1.5q-5 3 -5.5 10t-1.5 13q0 5 0.5 10.5t2.5 10.5q2 2 5.5 1t5.5 2q2 2 4 -1q1 0 1 -0.5t1 -0.5l1 -2q2 -2 4 -2
q1 -1 3 -1q5 0 8.5 2.5t8.5 3.5q8 2 15.5 1t15.5 -1q16 -2 26 2q3 1 5 2t5 2q1 1 1 0q3 0 5 -2t4 -3q4 -2 7 2.5t7 3.5q5 0 9 -2.5t9 -3.5q6 -2 12 -2t11 -2t5 -8v-11z" />
    <glyph glyph-name="Z" unicode="Z" horiz-adv-x="436" 
d="M428 637q-42 -79 -85.5 -155.5t-86.5 -154.5q-13 -25 -25.5 -49t-24.5 -49q-10 -20 -18.5 -39.5t-19.5 -38.5q-13 -22 -27.5 -42.5t-25.5 -43.5q-5 -10 -8.5 -20.5t-8.5 -20.5q35 1 69 -3.5t69 -7.5q30 -4 60 -6l60 -4q0 16 -0.5 31t-1.5 30v22.5t5 20.5q4 6 12 10.5
t13 0.5q6 -5 8 -13l4 -16q2 -7 3 -14t3 -15q3 -27 4 -54.5t2 -54.5q-100 7 -200 12t-200 11q48 87 97.5 171.5t95.5 172.5q20 37 37 74.5t36 74.5q15 29 31 57t33 55h-52.5t-52.5 -2q-27 -1 -54 -4.5t-54 -5.5q0 -12 -0.5 -24.5t-2.5 -24.5q-1 -8 -3 -16t-8 -13
q-4 -4 -10 -5.5t-10 2.5q-10 7 -11 19.5t-3 24.5q-2 20 -1.5 41t-1.5 42h7h-2h-1q-1 1 4 1h3h3q7 1 13 1t13 1q18 1 36.5 -0.5t37.5 -0.5q60 2 120 9.5t120 12.5z" />
    <glyph glyph-name="bracketleft" unicode="[" horiz-adv-x="215" 
d="M187 -45q-11 -11 -29 -12t-34 0q-25 1 -50 3.5t-50 3.5q-4 91 -3 180.5t-1 180.5q-1 38 -6 77t-6 77t2.5 74.5t1.5 73.5q26 2 51.5 4t51.5 2q17 0 34.5 -0.5t29.5 -11.5q5 -5 6 -13.5t-3 -13.5t-10 -7t-12 -2q-8 -1 -16.5 -0.5t-16.5 -0.5q1 0 -1 -0.5t-4 -0.5h-8t-9 1
q-24 6 -52 4q1 -25 4 -49.5t5 -49.5q2 -50 1.5 -99.5t1.5 -99.5q1 -22 4.5 -44t3.5 -44q0 -13 -3 -25.5t-1 -25.5t5 -25.5t3 -25.5q0 -23 -2.5 -45t-2.5 -45q14 -1 29 -1.5t30 -2.5q13 -1 26.5 -0.5t23.5 -7.5q6 -5 8.5 -14.5t-2.5 -14.5z" />
    <glyph glyph-name="backslash" unicode="\" horiz-adv-x="248" 
d="M216 20q2 -8 0.5 -19t-9.5 -14q-7 -4 -15.5 -4t-13.5 6q-6 7 -8.5 15t-5.5 16q-4 11 -7.5 23t-8.5 23q-6 16 -14 31.5t-12 32.5q-2 8 -1 17t-2 17q-3 7 -7.5 13t-6.5 13q-6 18 -8.5 37.5t-7.5 38.5q-12 42 -26.5 83t-20.5 85q0 5 -2 11q0 5 -2 11q-1 3 -2 5.5t-2 4.5
q-2 3 -2.5 6t-2.5 5l-3 3q-1 2 -2 2.5t-1 1.5q-2 3 -5 7t0 6q2 1 0.5 4l-2.5 5q-1 3 -2 5.5t-2 5.5q-2 5 -2 11.5t4 11.5q12 10 27 7q8 -2 13.5 -11.5t8.5 -17.5q5 -14 7.5 -29.5t7.5 -29.5q7 -21 16.5 -41.5t16.5 -42.5q8 -27 12 -55.5t13 -56.5q17 -47 32 -94t29 -95
q4 -14 9.5 -27t9.5 -27z" />
    <glyph glyph-name="bracketright" unicode="]" horiz-adv-x="215" 
d="M187 465q-1 -38 -6 -77t-6 -77q-2 -91 -1 -180.5t-3 -180.5q-25 -1 -50 -3.5t-50 -3.5q-16 -1 -34 0t-29 12q-5 5 -2.5 14.5t8.5 14.5q10 8 23.5 7.5t26.5 0.5q15 2 30 2.5t29 1.5q0 23 -2.5 45t-2.5 45q0 13 3 25.5t5 25.5t-1 25.5t-3 25.5q0 22 3.5 44t4.5 44
q3 50 2.5 99.5t1.5 99.5q1 25 4 49.5t4 49.5q-28 2 -52 -4q-5 -1 -9 -1h-8q-2 0 -4 0.5t-1 0.5q-8 1 -16.5 0.5t-16.5 0.5q-14 0 -22 9q-4 5 -3 13.5t6 13.5q12 11 29.5 11.5t34.5 0.5q26 0 51.5 -2t51.5 -4q-2 -37 1.5 -73.5t2.5 -74.5z" />
    <glyph glyph-name="asciicircum" unicode="^" horiz-adv-x="333" 
d="M305 258q-9 -14 -25 -12q-5 1 -8.5 4.5t-5.5 8.5q-3 5 -5 11.5t-4 12.5q0 -2 -1.5 2t-2.5 6q-2 4 -1.5 8t-0.5 8q-4 16 -10.5 29.5t-14.5 27.5q-21 36 -33.5 76.5t-29.5 78.5q-8 -20 -13.5 -41t-13.5 -41q-3 -5 -8 -9.5t-7 -10.5q-3 -9 -4.5 -18.5t-4.5 -18.5
q-4 -12 -11 -22.5t-13 -21.5q-8 -13 -14 -26t-12 -27q-5 -8 -8.5 -17t-11.5 -15q-6 -5 -15.5 -3.5t-14.5 8.5q-8 12 -2.5 28t11.5 30q10 22 20 43t19 43q24 60 51 117.5t54 116.5q11 -31 27.5 -60t28.5 -59q17 -42 29.5 -83.5t31.5 -82.5q13 -26 20 -51q3 -10 5.5 -20.5
t-2.5 -19.5z" />
    <glyph glyph-name="underscore" unicode="_" horiz-adv-x="536" 
d="M508 11q-1 -8 -7.5 -12.5t-14.5 -5.5q-13 -1 -26 1.5t-27 1.5q-42 -1 -84.5 1.5t-84.5 4.5q-25 2 -49.5 -2.5t-49.5 -3.5q-19 0 -37.5 3.5t-38.5 4.5q-13 1 -26 -1t-26 0q-8 0 -16.5 3t-12.5 10q-6 14 0 27q4 7 14 9q10 0 14 -1q2 0 5 -1t3 1q0 3 4.5 2t6.5 -2l4 -2l4 -2
q2 -1 5 -1t5 -1q2 0 4.5 -0.5t4.5 -0.5h10q2 1 4.5 1t5.5 1q37 6 74 3.5t75 -2.5q17 0 33 3t33 3q7 -1 12.5 -3.5t12.5 -3.5q8 -1 14.5 2.5t14.5 3.5q14 2 29 -1.5t30 -5.5q10 -1 20 -1.5t21 -1.5q7 0 14.5 -0.5t13.5 -3.5q7 -3 9 -11.5t0 -15.5z" />
    <glyph glyph-name="grave" unicode="`" horiz-adv-x="162" 
d="M134 599q1 -4 -3 -7t-8 -5q-6 -4 -13.5 -7t-15.5 -1q-6 1 -7 9.5t-4 13.5q-9 16 -16 32t-13 33q-4 11 -12 17.5t-13 16.5q-4 8 -4.5 16t-3.5 16q-2 6 -8 11.5t-5 12.5q1 10 11.5 15.5t19.5 7.5q8 2 11 -1q2 -2 2 -5t2 -4q2 0 2 -4l-1 -2l-1 -2v-5q0 -3 1 -4
q2 -5 6.5 -7.5t7.5 -7.5q6 -7 9 -15.5t7 -16.5q3 -7 6.5 -14t8.5 -13q3 -3 9 -7q0 -1 0.5 -1t0.5 -1q2 -3 0.5 -6t-0.5 -6q1 -4 6 -5.5t7 -5.5q2 -5 1.5 -11t1.5 -11q2 -7 5 -13t3 -13z" />
    <glyph glyph-name="a" unicode="a" horiz-adv-x="313" 
d="M221 183q-5 -2 -9.5 -4.5t-9.5 -4.5q-26 -12 -51 -22t-49 -24q-18 -10 -32.5 -26.5t-16.5 -36.5q-1 -11 3.5 -22t12.5 -17q11 -8 24 -9.5t26 -2.5q19 -1 39.5 2.5t31.5 17.5q8 11 12.5 23.5t9.5 24.5q0 1 2 5q2 24 3.5 48t3.5 48zM325 -82q-10 -8 -24 -8t-27 2
q-18 2 -35.5 5t-35.5 5l2 28q2 11 2.5 23t1.5 24q-12 -14 -29 -23q-29 -15 -61 -13q-23 0 -45 8.5t-38 24.5q-13 14 -20 32.5t-8 38.5t4.5 42.5t20.5 36.5q8 8 19 12t19 11q10 8 19.5 15.5t20.5 12.5q17 6 33.5 10t33.5 11q11 5 20.5 10t17.5 13q4 4 7 10q-1 26 -8 51
t-23 44q-10 11 -25 17t-30 6q-11 0 -22.5 -6.5t-16.5 -17.5q-5 -12 -7 -25.5t-6 -25.5q-5 -17 -20 -22q-5 -2 -10.5 -1t-8.5 5q-5 7 -6 16t0 17q0 6 1 12l2 12q0 -1 0.5 1.5t0.5 4.5q1 2 1.5 4t1.5 4q2 8 7 13.5t10 11.5q13 16 31 27t38 15q26 5 53.5 -3.5t44.5 -28.5
q19 -23 26.5 -53.5t9.5 -62.5q2 -2 2.5 -7.5t0.5 -11.5t-0.5 -10.5t-1.5 -6.5q1 -20 3.5 -40.5t0.5 -40.5q-1 -12 -4.5 -23t-3.5 -23q1 -14 3 -26.5t1 -26.5q-2 -21 -5.5 -42t-6.5 -42q8 -1 14.5 -1.5t14.5 -2.5q10 -2 20.5 -2.5t18.5 -7.5q6 -5 6.5 -16t-5.5 -16z" />
    <glyph glyph-name="b" unicode="b" horiz-adv-x="361" 
d="M287 230q-2 12 -3.5 24t-3.5 25q-3 20 -10 39t-20 34q-8 9 -18 15.5t-21 7.5q-18 2 -34 -10t-27 -27q-18 -24 -27.5 -53.5t-12.5 -59.5q-3 -33 6 -66.5t26 -62.5q8 -14 20 -26.5t27 -16.5q12 -3 24 2t21 13q12 11 19.5 25.5t13.5 29.5q5 11 8 22.5t8 22.5q1 4 2 12.5
t1.5 18.5t0.5 18.5v12.5zM333 230q0 -3 -0.5 -13t-1 -22t-1.5 -22.5t-2 -15.5q-2 -9 -4.5 -18t-5.5 -18q1 2 0 -1t-1 -5q-2 -4 -3 -7t-3 -7q-5 -9 -11.5 -17t-12.5 -16q-11 -15 -24 -29t-30 -24q-11 -6 -23.5 -9.5t-25.5 -1.5q-26 2 -48.5 19.5t-36.5 40.5l-2 4l-2 4
q-2 -17 -4.5 -33t-4.5 -33q-20 2 -41 4.5t-41 4.5q-13 2 -28 5.5t-18 15.5q-2 6 0 13t7 10q8 5 18 6t20 -1q9 -1 18.5 -2t19.5 -3q3 34 3.5 67.5t2.5 67.5q3 46 7.5 91.5t6.5 91.5q1 27 -2 54t-1 54q2 38 8 75t5 75q-17 -1 -35.5 -0.5t-33.5 9.5q-8 5 -10.5 17t4.5 18
q5 5 13 6t16 0q11 0 21 -1t21 -2q-3 2 -1 2t4 -1q3 0 6.5 -0.5t6.5 -0.5l16 -4l16 -4q-2 -19 -1.5 -38t1.5 -39q1 -18 0.5 -36.5t-1.5 -36.5q-2 -40 -5 -79.5t-5 -79.5q6 8 13 14t14 13q8 8 16.5 15.5t17.5 13.5q24 14 52 11q16 -2 30.5 -10t25.5 -19q23 -23 36.5 -53
t18.5 -61q6 -31 5 -59z" />
    <glyph glyph-name="c" unicode="c" horiz-adv-x="314" 
d="M286 49q-4 -23 -16 -45t-30 -37q-16 -14 -36 -21.5t-40 -9.5q-30 -3 -57 9q-17 8 -30.5 20.5t-24.5 28.5q-23 35 -32.5 78.5t-11.5 86.5q-1 35 0 71t7 71q5 27 18 53t34 44q11 10 26 16.5t30 8.5q24 2 48.5 -5.5t43.5 -22.5q25 -20 42 -50.5t15 -62.5q-1 -6 -5 -12.5
t-11 -8.5q-5 -2 -11.5 0t-10.5 7q-8 11 -10.5 24.5t-9.5 24.5q1 -3 -1.5 3t-4.5 9q-4 7 -6 14t-7 13q-5 7 -12 12.5t-15 7.5q-10 3 -19.5 3t-19.5 -2q-13 -3 -23.5 -12.5t-18.5 -22t-13.5 -27t-9.5 -27.5q-14 -50 -12.5 -104.5t20.5 -102.5q5 -13 7.5 -27t9.5 -26
q3 -5 7.5 -8.5t9.5 -6.5q12 -9 25.5 -16.5t28.5 -8.5q22 0 38 8q22 13 31 35q4 9 6 19.5t5 20.5t7 18t13 11q7 4 13 2q5 -2 7 -6.5t4 -9.5q5 -16 2 -37z" />
    <glyph glyph-name="d" unicode="d" horiz-adv-x="356" 
d="M253 100q-1 19 -1 38t-1 38q-5 26 -15 50q-4 9 -9 17t-10 17q-5 11 -10.5 22.5t-15.5 19.5t-23 10t-26 2q-12 0 -24 -6t-20 -15q-15 -14 -23.5 -34t-13.5 -40q-4 -20 -6 -43q-1 -8 -1.5 -14.5t-2.5 -13.5q-1 -5 -0.5 -10.5t2.5 -7.5q10 -12 11 -28.5t8 -31.5q-1 2 0 -0.5
t2 -4.5l4 -9q3 -9 5 -18t7 -18q11 -20 34 -33.5t46 -10.5q19 2 34 16.5t25 31.5q19 34 24 76zM398 -54q-11 -11 -27.5 -13t-32.5 -4q-19 -2 -37.5 -2.5t-38.5 -1.5q0 13 -0.5 25t-1.5 25q-16 -20 -38.5 -33.5t-47.5 -14.5q-17 -2 -33 3t-30 14q-21 13 -38.5 32.5t-30.5 43
t-20.5 49t-6.5 49.5q0 2 -1 8.5t-2 14.5t-2.5 15.5t-1.5 11.5q-2 15 0 30.5t5 30.5q7 31 22 60.5t38 51.5q27 26 64 29q28 2 56 -12t46 -35q2 -2 3.5 -4t3.5 -4q-3 32 -7.5 63.5t-6.5 63.5q-2 44 -0.5 87.5t-3.5 87.5l42 4t42 2q13 0 26.5 -0.5t23.5 -8.5q5 -5 6.5 -13.5
t-1.5 -13.5t-9 -7t-11 -3q-8 -2 -15 -1t-15 -1q1 0 -1 -0.5t-3 -0.5h-10q-8 0 -15.5 1.5t-15.5 2.5q-2 -19 2 -38t6 -38q4 -33 6 -68q2 -42 3 -84.5t4 -84.5q2 -21 6 -42t5 -42q1 -12 -2 -24.5t-1 -24.5t5.5 -24t3.5 -25q1 -26 -1 -52.5t-1 -53.5q14 1 28 1.5t28 1.5h16.5
t13.5 -5t7 -14.5t-3 -14.5z" />
    <glyph glyph-name="e" unicode="e" horiz-adv-x="328" 
d="M253 228q-7 30 -19.5 60t-35.5 50q-13 12 -31 17.5t-35 3.5q-11 -2 -21 -9t-17 -16q-11 -14 -17 -31t-10 -34t-4.5 -34.5t-0.5 -34.5q7 7 17 9l20 4q11 2 20.5 2.5t20.5 2.5q-4 0 2.5 0.5t9.5 1.5q14 2 27 0q19 -2 37.5 1t36.5 7zM274 189q-35 -5 -70.5 -11t-70.5 -10
q-22 -3 -40 -2q-8 0 -16.5 1.5t-13.5 6.5l1 -14q0 -14 -1 -27t1 -26q2 -11 6 -20t9 -18q8 -17 17.5 -35t24.5 -31q8 -7 19 -11t22 -3q20 1 39 11t29 27q5 9 7 19.5t5 20.5t7 18.5t13 12.5q8 4 13 1t7 -9t4 -11q2 -8 2.5 -15.5t-0.5 -15.5q-4 -25 -17.5 -47.5t-33.5 -36.5
q-15 -11 -33.5 -16.5t-37.5 -7.5q-17 -2 -35 2t-33 13q-18 11 -32.5 27.5t-24.5 35.5q-15 30 -23 64t-9.5 69t3 70t14.5 68q7 23 18 46t28 41q11 11 25 19.5t29 10.5q37 8 72 -5q14 -5 26 -14.5t22 -20.5q15 -17 24 -38t15 -43.5t9.5 -45.5t5.5 -46z" />
    <glyph glyph-name="f" unicode="f" horiz-adv-x="285" 
d="M287 62q-2 -8 -8 -8q-2 -1 -4.5 -0.5t-3.5 -1.5q0 -2 -5 -2q-1 1 -1.5 1t-1.5 1q-1 0 -1 0.5t-1 0.5q-8 2 -15 -2q-6 -4 -11.5 -8t-12.5 -6q-12 -5 -24 -7t-24 -6q-8 -2 -12 -4q-4 -1 -12 -5q-3 -2 -5.5 -4t-5.5 -4q-1 -1 -2 -1q-4 -1 -7.5 0.5t-6.5 1.5q-5 -1 -9 -6
t-9 -7q-6 -2 -12.5 -0.5t-13.5 0.5q-8 -2 -16.5 -4.5t-16.5 -1.5q-5 0 -7 4t-4 9t-4 11t-1 12q2 9 13 11t20 5q13 4 26 7.5t27 7.5l-1 1q-5 11 -7.5 23t-4.5 23q-8 35 -16 69t-15 69q-2 10 -3.5 20t-3.5 21q-2 -2 -4 -3.5t-5 -2.5q-6 -1 -12 0.5t-12 0.5q-8 -1 -15 -3
t-15 -1q-4 1 -6 5t-4 9q-5 12 -4 23q0 3 2 7l2 2q5 4 12.5 3.5t13.5 1.5q10 2 19.5 5t19.5 5q-6 45 -9 91t-2 92q0 27 1.5 55.5t13.5 53.5q9 19 27 33.5t38 18.5q20 5 42.5 1t39.5 -15q26 -17 43 -44t25 -56q5 -17 8 -36.5t-5 -36.5q-3 -6 -11.5 -9.5t-15.5 -0.5
q-5 2 -8.5 8t-4.5 12q-3 10 -4 20t-4 21q0 -2 -0.5 0.5t-0.5 3.5q-2 8 -3 11q-2 9 -3 18t-5 17q-10 25 -33 34q-11 5 -24 5t-24 -3q-17 -5 -27 -24t-15 -37q-6 -26 -6.5 -53t1.5 -54q2 -23 7.5 -46t8.5 -46q1 -7 0.5 -13t-0.5 -13l9 3q6 4 11.5 8t12.5 6q9 2 18.5 1t18.5 1
q8 2 14.5 6t14.5 2q11 -2 15 -14.5t2 -23.5q-2 -7 -6 -8q-2 -1 -4.5 0t-3.5 -1q-2 -3 -6 -1q-1 0 -2 1q-1 0 -1 0.5t-1 0.5q-2 1 -5 1h-4q-2 -1 -2.5 -1t-2.5 -1q-5 -3 -10.5 -6.5t-11.5 -5.5q-11 -4 -22 -5.5t-22 -4.5l-5 -1q3 -10 6.5 -19.5t5.5 -19.5q4 -21 6 -42.5
t6 -42.5q3 -21 8 -42t10 -41q1 -6 2.5 -12t3.5 -12q8 4 16 9.5t17 7.5q10 3 20 2.5t21 1.5q8 2 17 7.5t18 2.5q9 -4 13.5 -15.5t2.5 -21.5z" />
    <glyph glyph-name="g" unicode="g" horiz-adv-x="340" 
d="M231 254q-2 4 -4 12q-4 11 -6.5 23t-6.5 23q-5 17 -13.5 33t-21.5 28q-9 8 -21 14t-24 5q-18 -1 -33 -15t-24 -31q-14 -26 -19.5 -56t-5.5 -59q0 -32 13.5 -63.5t34.5 -54.5q11 -11 23.5 -21t27.5 -11q12 -1 24 6t20 16q11 12 16 27.5t9 30.5q3 11 5.5 23t4.5 23
q1 2 1.5 8.5t0.5 14v14.5t-1 10zM312 440q-5 -7 -11.5 -11t-14.5 -6q-5 -2 -10.5 -3t-11.5 -2q11 -63 19.5 -126t13.5 -126q3 -49 2.5 -98t-2.5 -98q-2 -48 -6.5 -96.5t-28.5 -89.5q-16 -27 -46 -45.5t-61 -18.5q-23 0 -45.5 5.5t-41.5 17.5q-20 13 -33.5 32.5t-18.5 41.5
q-4 17 -5 35.5t9 32.5q5 6 15.5 5t15.5 -8q8 -14 8.5 -30.5t7.5 -31.5q-1 4 1.5 -2.5t4.5 -9.5q4 -8 7.5 -15.5t8.5 -12.5q12 -12 29.5 -15t34.5 -1q22 3 40 18q13 11 21 25.5t14 29.5q15 40 20.5 82t5.5 84q1 26 -2.5 52.5t-5.5 52.5q-9 -16 -20 -31.5t-25 -26.5
q-21 -16 -47 -19q-26 -2 -50.5 11.5t-41.5 33.5q-26 32 -38.5 72t-15.5 81q-3 46 4 88q2 9 3 18t5 18q7 14 17 26.5t21 24.5l10 14t12 12q22 17 51 19q32 0 59 -19q8 -5 14 -11l12 -12q-2 8 -2.5 16.5t-2.5 16.5l-4 19l30 4t31 4q8 1 17 2t17 -4q6 -4 10 -11.5t0 -13.5z" />
    <glyph glyph-name="h" unicode="h" horiz-adv-x="371" 
d="M363 -28q-1 -7 -2 -13.5t-4 -11.5q-2 -5 -7.5 -2t-10.5 3q-25 0 -49 6q-8 2 -14.5 -2.5t-14.5 -3.5q-6 0 -11 3.5t-11 5.5q-5 1 -10.5 -1.5t-8.5 1.5q-5 5 -4.5 11.5t0.5 12.5q0 12 4 20q1 2 4 1t5 1q1 1 4 -2q1 -1 1 -2q1 -1 1.5 -1t1.5 -1q1 0 1.5 -0.5t1.5 -0.5
q4 0 7 2t7 3q6 2 12 0q-2 5 -2 9v8q1 13 2.5 25t3.5 24q5 33 6.5 66.5t4.5 66.5q2 26 1 53t-14 50q-8 18 -25 26q-6 3 -13 3.5t-14 0.5q-21 1 -44 -4.5t-36 -22.5q-9 -11 -13 -25t-9 -28q-2 -5 -4 -9.5t-5 -8.5v-6q-1 -13 -5 -25.5t-3 -25.5q0 -17 2 -33.5t1 -33.5
q-2 -27 -6.5 -54t-6.5 -54q-17 2 -35 4t-35 4q-13 2 -26.5 2.5t-24.5 8.5q-6 4 -8 11t0 14q2 5 7 8.5t10 5.5q7 2 13.5 1.5t13.5 -1.5q10 -1 19.5 -2t19.5 -3q4 34 4.5 67.5t2.5 67.5q2 46 7 91.5t6 91.5q1 26 -2 53t-1 54q2 38 8.5 75t5.5 75h-36.5t-33.5 10q-8 5 -10 16.5
t4 17.5q6 5 13.5 6t15.5 1q11 0 21.5 -1.5t21.5 -1.5q-4 1 -2 1t4 -1q9 0 14 -1q8 -1 16 -3l16 -4q-3 -20 -2 -38.5t2 -38.5v-36.5t-2 -36.5q-2 -48 -6 -96t-5 -96q4 4 6 7q8 11 18 21t22 16q33 18 73 13q23 -3 44 -16.5t34 -33.5q9 -14 15.5 -30t11.5 -33q3 -10 6.5 -20
t2.5 -21q0 -9 -2.5 -17.5t-3.5 -17.5q-1 -13 2 -25.5t1 -24.5q-2 -23 -7 -46.5t-8 -46.5q-2 -11 -3 -20.5t-3 -20.5q0 -2 -0.5 -4.5t-0.5 -5.5q5 -5 6 -5q2 1 4 3t4 3q5 2 8.5 -2t7.5 -5q5 -2 10 -2.5t9 -3.5q4 -2 3.5 -8t-0.5 -11z" />
    <glyph glyph-name="i" unicode="i" horiz-adv-x="197" 
d="M229 -43q0 -8 -6 -9q-2 -2 -5 -0.5t-4 -0.5t-6 0q-1 1 -2 1l-1 2q-2 1 -2.5 1t-2.5 1h-4q-2 0 -2.5 -0.5t-1.5 -0.5q-6 -2 -11.5 -4.5t-11.5 -3.5q-11 -2 -21.5 -1.5t-21.5 -1.5q-8 0 -11 -1t-5.5 -1.5t-5.5 -1.5t-5.5 -2t-5.5 -3q-1 0 -1 -0.5t-1 -0.5q-3 0 -5.5 2
t-6.5 3q-5 1 -8 -3.5t-8 -4.5q-6 0 -12 2t-11 3q-8 0 -15 -0.5t-14 1.5q-5 2 -6 6t-2 9q-1 6 -1.5 12t1.5 12q1 2 3 5t6 4q5 1 10.5 -0.5t11.5 -0.5q15 2 30.5 3t30.5 1q-2 6 -1 12.5t0 12.5v-1l-1 1v1v2q0 6 1 8q2 7 1 9.5t-2 9.5q0 8 -1 11.5t-3 11.5q-2 14 -3 27t-1 27
q0 11 -0.5 19.5t-0.5 16t-0.5 15.5t-1.5 19q-1 12 -3.5 18.5t-2.5 18.5q0 8 3 16.5t1 16.5q-1 5 -3.5 9t-3.5 9q-2 9 -0.5 13t3.5 14q-14 3 -28 2.5t-28 0.5h-11.5t-10.5 5q-6 8 -5 20.5t9 17.5q12 8 26.5 7.5t28.5 -0.5h34.5t34.5 2q3 -47 0 -84t0 -84l5 -50q2 -14 4 -23
t1 -24q-2 -17 -2 -30.5t2 -30.5q1 -11 4 -21t1 -18q8 4 13 4q9 1 18 -1.5t17 -2.5t15 3.5t14 -0.5q9 -4 11 -15.5t0 -21.5zM129 433q-6 -5 -9.5 -13.5t-9.5 -14.5q-5 -4 -12 -3t-12 3q-15 5 -31 15t-16 26q2 16 17 28.5t32 12.5q8 0 15.5 -1.5t12.5 -7.5q5 -5 6.5 -12
t5.5 -13q2 -3 3 -10.5t-2 -9.5z" />
    <glyph glyph-name="j" unicode="j" horiz-adv-x="206" 
d="M158 425q4 -16 0 -26q-2 -5 -9 -3.5t-12 -0.5q-7 -2 -13 -2.5t-13 -1.5l1 -1q4 -14 6 -27t4 -27q5 -38 9.5 -76t9.5 -76q9 -87 7 -173.5t-13 -172.5q-5 -30 -15 -59.5t-30 -51.5q-17 -17 -40.5 -27.5t-46.5 -9.5q-29 1 -58 11t-49 30q-20 21 -31.5 52t-3.5 59
q2 7 7.5 12.5t12.5 7.5q7 1 13.5 -5t8.5 -13q3 -12 4 -24.5t6 -23.5q-1 2 0 -0.5t2 -3.5q1 -3 2 -5.5t2 -5.5q4 -8 7.5 -16.5t10.5 -14.5q12 -11 29.5 -13.5t34.5 -0.5t31.5 11.5t23.5 23.5q17 23 25.5 51.5t13.5 57.5q9 59 5 114q-1 14 -3 28t-2 28q-1 14 1.5 28t0.5 28
t-5.5 28.5t-5.5 28.5q-5 41 -6 81t-7 80l-6 51q-1 3 -1 10q-5 -3 -10 -5.5t-11 -4.5q-7 -1 -13.5 1.5t-13.5 1.5q-6 0 -11.5 -3.5t-10.5 -0.5t-7 9.5t-3 12.5q-4 12 -1 21q1 2 5 2t5 2q0 1 4 1l2 -2l1 -1q1 -1 2 -1t2 -1h3q5 1 8 4t8 5q7 3 14 3t15 1q6 1 12.5 2t12.5 4
q2 2 4 3t4 3h1q3 1 5 -1t5 -3q4 0 6 4.5t6 4.5q5 0 9 -2t9 -2t11 1t11 -1t6 -7.5t2 -10.5zM100 525q-6 -5 -9.5 -13.5t-9.5 -13.5q-5 -5 -12 -4t-12 3q-15 6 -31.5 15.5t-16.5 25.5q2 16 17.5 28.5t31.5 12.5q8 0 15.5 -1.5t12.5 -7.5q5 -5 6.5 -12t6.5 -13q2 -3 2.5 -10.5
t-1.5 -9.5z" />
    <glyph glyph-name="k" unicode="k" horiz-adv-x="399" 
d="M391 -19q1 -6 0.5 -13t-3.5 -13q-2 -5 -8.5 -2.5t-11.5 2.5q-14 -2 -28 -1.5t-28 1.5q-8 2 -16 -3.5t-16 -5.5q-7 0 -13 3t-13 3q-5 1 -10.5 -2t-10.5 1q-5 3 -5.5 10t-1.5 13v10t2 10q1 3 4.5 2.5t5.5 1.5q2 1 5 -2q1 -1 1 -2q1 -1 2 -1t2 -1h3q4 0 7.5 2.5t7.5 4.5h3
q-12 14 -23 27.5t-20 28.5q-7 12 -15 19q-5 5 -11.5 8t-10.5 8q-6 7 -8.5 15t-7.5 16q-1 0 -1 0.5t-1 0.5q-8 -8 -17.5 -14t-17.5 -14t-15.5 -20t-19.5 -14q2 -9 3 -18l2 -18q0 -28 -2 -55t-1 -55q-18 1 -35.5 1t-35.5 1q-13 0 -27 -0.5t-25 6.5q-6 3 -9 10.5t-1 13.5
t6.5 10t9.5 6q6 3 13 3h14q10 0 19.5 -0.5t19.5 -1.5q1 34 -1.5 67.5t-4.5 67.5q-1 46 -0.5 91.5t-1.5 91.5q-2 27 -7 53.5t-6 53.5q-2 38 1 75.5t-1 75.5q-18 -2 -36 -3.5t-34 6.5q-8 4 -11.5 15.5t1.5 18.5q5 5 13 7t16 2q11 2 21 1t21 0q-3 1 -1 1h4h13q8 0 16.5 -2
t16.5 -3q-1 -19 2 -38t5 -38q2 -18 3 -36.5t2 -36.5q2 -48 2.5 -96t3.5 -96q2 -25 6 -49.5t5 -50.5q0 -14 -3 -29l2 1q2 1 2.5 2t2.5 2q1 2 2 3t2 3q5 7 9 15t10 15q11 12 22.5 23t22.5 23q3 3 5.5 6.5t5.5 6.5q2 3 5 6.5t5 6.5l4 8l4 8l2 2q3 4 7.5 5t7.5 4q5 3 5.5 8.5
t3.5 10.5q5 7 12.5 11.5t13.5 9.5l3 1q-6 2 -10 2q-5 1 -11 -2t-11 0t-6 10t-1 13q-1 5 -1 10t2 10q1 3 4.5 2.5t5.5 1.5t4 0q1 0 1 -0.5t1 -0.5q0 -2 1 -2q2 -2 3 -2h4q4 0 7.5 2.5t7.5 4.5q7 2 14 1.5t15 -0.5q6 0 12.5 0.5t12.5 3.5l4 2t4 3h2q2 0 4 -2t5 -3t5.5 3.5
t6.5 4.5q5 -1 9 -3t9 -3t10.5 -0.5t10.5 -2.5q5 -2 5.5 -7.5t1.5 -10.5v-14t-3 -12q-2 -5 -9 -3t-12 2q-10 -2 -19.5 -2h-19.5q1 -2 -1 -7q-5 -8 -13 -13.5t-14 -13.5q-19 -22 -39.5 -42.5t-41.5 -40.5q-5 -5 -9.5 -11t-8.5 -12v-2q0 -2 0.5 -2.5t0.5 -2.5q1 -1 1 -2t1 -2
l3 -3q5 -4 10.5 -6.5t9.5 -7.5q8 -8 13.5 -17t12.5 -17q2 -2 3.5 -4t3.5 -4t4.5 -4t4.5 -4t5 -3t5 -3q1 0 2 -1q2 -2 1.5 -6t0.5 -6q2 -5 8 -5t9 -5t4.5 -10.5t4.5 -10.5q3 -6 8 -11.5t7 -13.5v-2q2 1 2.5 1.5t2.5 1.5h2q2 0 4 -2t4 -3q4 -1 6.5 3t6.5 4t7.5 -2.5t8.5 -3.5
t10.5 -1t10.5 -2t5 -8v-11z" />
    <glyph glyph-name="l" unicode="l" horiz-adv-x="147" 
d="M189 -61q0 -2 -1.5 -5t-4.5 -4q-2 -1 -5 0.5t-5 -0.5q0 -3 -5 0l-2 2l-1 1q-4 2 -5 2h-4h-5q-5 -2 -10.5 -4.5t-11.5 -3.5q-11 -2 -22 -1t-22 0q-3 -1 -11 -1q-2 -1 -5 -1.5t-5 -1.5q-4 -1 -12 -5h-2q-3 -1 -5.5 1.5t-5.5 2.5q-5 1 -8.5 -3t-8.5 -4q-6 0 -11.5 2t-11.5 3
q-7 1 -14.5 0.5t-14.5 1.5q-4 2 -5 6.5t-2 8.5q-1 6 -1.5 12.5t1.5 11.5q4 8 9 9q6 1 11.5 -0.5t10.5 -0.5q15 2 30 2.5t30 -0.5q0 2 -0.5 3t-0.5 3q-1 8 -0.5 15t-0.5 15v4q0 3 -0.5 6t0.5 6q2 10 3.5 19.5t1.5 19.5q-1 12 -2.5 23.5t-3.5 22.5q-3 20 -4 39t-1 39
q0 16 -0.5 26.5t-1.5 20.5t-2 20.5t-2 26.5q-2 18 -5.5 35.5t-3.5 35.5q0 11 3 22.5t1 22.5t-5 21t-3 21q-1 21 1.5 42t2.5 42q-12 1 -24.5 1t-24.5 1h-16.5t-14.5 5q-5 5 -7 15.5t4 15.5q10 9 24 10.5t28 2.5q20 0 39 -0.5t39 -0.5q1 -36 2.5 -71.5t2.5 -71.5
q1 -40 0.5 -80t1.5 -80q1 -18 3.5 -30.5t5 -23.5t4 -23.5t0.5 -30.5q-1 -29 -1 -58t2 -58q3 -28 2 -51q0 -5 -0.5 -9.5t-1.5 -9.5q4 2 7.5 4t8.5 2q9 0 17.5 -2.5t17.5 -2.5q8 0 15 3t14 -1q9 -4 10.5 -16t-0.5 -22z" />
    <glyph glyph-name="m" unicode="m" horiz-adv-x="629" 
d="M621 37q0 -6 -0.5 -13t-4.5 -12q-2 -5 -8 -2t-11 2q-14 0 -27 1.5t-27 3.5q-8 2 -16 -3t-16 -4q-6 0 -11.5 3.5t-12.5 4.5q-5 1 -10.5 -1.5t-9.5 0.5q-5 5 -5.5 11.5t0.5 12.5q0 5 0.5 10t2.5 10q1 2 4.5 1.5t5.5 1.5q1 1 2.5 0t2.5 -2q0 -2 1 -2q0 1 3 -2q1 0 1.5 -0.5
t1.5 -0.5q4 0 7.5 2.5t7.5 3.5q5 2 11 1t11 -2q-2 5 -2 9v9l2 24t3 24q4 29 4 58.5t2 58.5q1 27 -2 55.5t-16 51.5q-8 13 -22.5 20t-28.5 5q-22 -2 -44 -8t-36 -23q-8 -11 -11.5 -25t-8.5 -28q-2 -7 -4.5 -13.5t-7.5 -10.5q0 -9 1 -14q7 -27 2 -56t-7 -58q-1 -13 -1.5 -26
t-1.5 -27q-1 -6 -1.5 -12t-3.5 -11q-2 -4 -6.5 -5t-8.5 -2q-8 -2 -14 0q-7 2 -10.5 10.5t-3.5 16.5q-1 12 -0.5 24t2.5 24q3 31 2 61.5t1 62.5q1 26 -3.5 53.5t-19.5 49.5q-9 12 -25 17.5t-30 3.5q-21 -4 -43.5 -11t-33.5 -25q-8 -13 -10.5 -27t-5.5 -28q-2 -8 -5 -16
t-10 -12q0 -5 0.5 -10t0.5 -10q2 -18 6 -36.5t5 -37.5q1 -9 -2 -18t-1 -19q2 -9 4.5 -18t4.5 -19q2 -14 1 -29t-2 -29q-20 2 -40.5 2h-40.5h-16t-16 2q-5 0 -10.5 1.5t-8.5 6.5q-4 8 -2 19.5t10 16.5q6 5 15 4t17 -1q9 -1 18.5 -1.5t19.5 0.5q-4 42 -4.5 84.5t-2.5 84.5
q-1 21 -6.5 41.5t-6.5 41.5q-2 19 0 37.5t2 37.5q-13 0 -25.5 -2.5t-24.5 -2.5q-9 0 -18.5 2t-13.5 10q-3 6 -4 14t3 13q3 5 9 7t11 3q8 1 15 0.5t15 0.5h8q7 1 15 -2q11 -5 24 -3.5t25 3.5q5 -23 7 -47t4 -47l4 7q7 12 15.5 23.5t20.5 19.5q16 11 35 16.5t38 4.5
q16 0 31 -5t28 -13q18 -12 31 -29.5t23 -37.5v-1q5 7 9 13l8 12q8 12 17.5 22.5t21.5 18.5q35 19 75 16q34 -3 59 -25q15 -14 26 -31.5t19 -36.5q4 -11 8 -22.5t6 -23.5q2 -11 -1.5 -23t-0.5 -23q7 -29 1 -57.5t-9 -57.5q-2 -14 -3 -27t-3 -26q0 -4 -0.5 -7t-1.5 -7h3
q2 1 4 3t4 3q5 2 9 -1.5t9 -5.5q5 -1 10.5 -1.5t9.5 -2.5q5 -3 4.5 -9t-0.5 -11z" />
    <glyph glyph-name="n" unicode="n" horiz-adv-x="394" 
d="M396 17q0 -7 -0.5 -13.5t-3.5 -12.5q-2 -5 -7.5 -2.5t-10.5 2.5q-23 -3 -49 2q-8 1 -14.5 -4t-14.5 -5q-6 0 -11.5 3t-10.5 4t-10 -1.5t-9 0.5q-5 4 -5.5 10.5t-0.5 12.5v10.5t2 10.5q1 2 4 1.5t5 1.5q1 1 4 -2q1 -1 1 -2q1 -1 1.5 -1t1.5 -1h3q4 -1 7 2t7 4t12 1
q-3 8 -3 16q0 12 1 24l2 24q3 29 1.5 59t-1.5 59q0 27 -4.5 55t-18.5 51q-8 12 -23 18t-29 4q-21 -3 -43 -10.5t-35 -24.5q-8 -11 -11 -25.5t-6 -28.5q-2 -8 -5 -16t-10 -11l-1 -1q1 -5 1 -9.5v-9.5q1 -9 2.5 -12t3 -5t3 -5t1.5 -12q0 -10 -3 -19t-1 -18q1 -10 3.5 -19
t3.5 -18q2 -15 1 -29.5t-3 -29.5q-20 2 -40.5 2.5t-40.5 1.5q-8 1 -16 1t-16 1q-5 1 -10.5 3t-7.5 7q-5 8 -2.5 19t10.5 16q7 5 15.5 4t16.5 -2q10 -1 19 -1.5t19 0.5q-1 21 -1.5 36t-0.5 28.5v28.5v36q-1 21 -6 41.5t-6 41.5q-1 19 1.5 37.5t2.5 37.5q-13 0 -25 -2t-25 -2
q-9 0 -18.5 2.5t-13.5 10.5q-3 6 -3.5 14t3.5 13q3 5 9 6.5t11 2.5q8 1 15 0t15 0q-2 1 2 1h6q8 0 15 -3q11 -5 24 -4t25 3q5 -23 6.5 -47t2.5 -48l4 7q7 12 16 23t21 19q16 11 35 16t39 4q33 -2 60 -22q16 -12 28 -29.5t20 -35.5q5 -11 9.5 -22.5t6.5 -23.5q2 -11 -0.5 -23
t0.5 -23q8 -28 4 -57t-6 -58l-3 -54q0 -2 -0.5 -4.5t-0.5 -4.5q5 -5 6 -4q2 1 3.5 3t3.5 3q5 2 9 -1t8 -5q5 -1 10 -1t9 -2q5 -3 4.5 -8.5t0.5 -10.5z" />
    <glyph glyph-name="o" unicode="o" horiz-adv-x="320" 
d="M245 207q1 3 1 12.5t-1 19.5t-1.5 19.5t-1.5 12.5q-4 12 -6.5 24.5t-6.5 24.5q-6 20 -16.5 38t-25.5 32q-9 8 -21 13.5t-24 5.5q-20 -1 -36 -16t-26 -32q-16 -27 -22 -58.5t-6 -62.5q0 -34 13.5 -67.5t36.5 -59.5q11 -13 25 -24t31 -13q14 -1 26.5 5.5t21.5 16.5
q11 13 17 29t11 32q3 12 5.5 24t5.5 24zM292 202q-1 -10 -2.5 -19t-3.5 -19q0 2 -0.5 -1.5t-0.5 -5.5q-2 -3 -2.5 -6.5t-2.5 -7.5q-4 -10 -10 -18.5t-11 -17.5q-10 -17 -21.5 -33t-27.5 -28q-11 -8 -24 -12.5t-26 -5.5q-28 -1 -54 13.5t-43 35.5q-27 34 -39.5 76.5
t-15.5 84.5q-2 35 0 70t18 66q6 11 14 20l16 18q8 8 15 17.5t16 16.5q11 8 25 12.5t28 4.5q34 0 63 -21q26 -19 44 -47.5t28 -59.5q11 -29 12 -58q0 -3 1 -13.5t2 -22.5t1.5 -23t0.5 -16z" />
    <glyph glyph-name="p" unicode="p" horiz-adv-x="351" 
d="M277 285q-2 13 -3 25t-3 24q-4 20 -11 39t-20 35q-8 8 -18 15t-21 8q-18 2 -34 -10.5t-27 -26.5q-17 -25 -27 -54.5t-13 -59.5q-2 -33 6.5 -66.5t25.5 -61.5q9 -14 20.5 -26.5t27.5 -16.5q11 -3 23.5 1.5t21.5 12.5q12 11 19 26t13 30q5 11 8 22.5t8 22.5q2 4 3 12.5
t1.5 18.5t0.5 18.5t-1 11.5zM323 286q0 -3 -0.5 -13t-1 -22t-1 -22.5t-1.5 -15.5q-2 -10 -5 -18.5t-5 -17.5q1 2 0 -1.5t-2 -5.5q-2 -3 -3 -6.5t-3 -6.5q-5 -9 -11.5 -17t-12.5 -16q-11 -15 -24 -29t-29 -24q-25 -13 -50 -12q-25 3 -47 19.5t-36 38.5q-2 -9 -4.5 -18
t-1.5 -18q0 -13 2.5 -25.5t1.5 -24.5q-2 -29 -7 -56.5t-7 -56.5q-1 -12 -1.5 -24t-2.5 -23q0 -5 -2 -15q7 2 13 3.5t12 1.5q8 -1 16 -4.5t16 -4.5q7 -1 14.5 1.5t13.5 -1.5q8 -6 7.5 -17.5t-2.5 -21.5q-2 -8 -6 -8q-2 -1 -5 0.5t-5 -0.5q0 -1 -1.5 -0.5t-2.5 1.5q-2 0 -2 2
l-1 1q-2 1 -2.5 1.5t-2.5 1.5h-4h-4q-4 -1 -7.5 -2.5t-8.5 -2.5q-9 -2 -17.5 -0.5t-17.5 2.5q-8 1 -16 1.5t-16 -1.5q-2 -1 -5 -2l-6 -2h-2q-3 0 -5 2.5t-5 3.5q-4 1 -8 -3t-8 -3q-6 1 -11 3.5t-10 4.5q-7 1 -14 1.5t-13 3.5q-4 2 -4.5 6.5t-0.5 8.5q0 8 1 16t6 14
q4 5 11.5 1.5t14.5 -3.5q11 0 21 -0.5t21 -1.5v12q0 9 0.5 17.5t1.5 17.5q2 15 3 30t1 30q1 21 2 42.5t2 42.5q3 38 7 75.5t6 75.5q2 29 -1.5 57t-1.5 57q2 32 8 63t5 63q-12 0 -24.5 -0.5t-24.5 1.5q-8 1 -15 3.5t-12 7.5q-5 6 -6 16t5 16q5 5 11.5 6t13.5 1q9 0 18.5 -1.5
t18.5 -1.5h6q9 0 14 -2q9 -2 18.5 -4.5t18.5 -3.5q-1 -12 0.5 -24.5t1.5 -24.5v-3q5 5 10.5 9.5t10.5 9.5q9 8 17 16t18 14q24 15 51 10q33 -5 57 -29q23 -22 36 -52t19 -61q2 -15 4 -29.5t0 -29.5z" />
    <glyph glyph-name="q" unicode="q" horiz-adv-x="360" 
d="M241 278q-2 18 -4.5 36t-3.5 36q-2 8 -4.5 14.5t-4.5 13.5q-4 8 -9 16.5t-10 16.5q-5 11 -11 22.5t-15 19.5t-22 9.5t-24 0.5q-13 -1 -24.5 -7t-19.5 -15q-15 -14 -23.5 -34.5t-13.5 -40.5q-2 -11 -3.5 -22t-3.5 -22q-1 -7 -1 -14t-4 -13q-2 -2 1.5 -12t5.5 -15
q5 -13 6.5 -25.5t6.5 -24.5q0 2 1 -1t2 -4l3 -8q2 -8 4 -15.5t5 -15.5q10 -21 34 -36.5t47 -11.5q19 3 34 17.5t25 31.5q13 23 19 49.5t7 53.5zM402 -145q-12 -11 -28 -13l-32 -4q-19 -2 -38 -3l-38 -2q-1 41 -4.5 81t-5.5 81q-2 35 -2 70t-1 70q-16 -23 -40.5 -40
t-51.5 -19q-35 -2 -63 17q-29 17 -50.5 46t-32.5 61q-3 8 -6 25.5t-5 36t-4 34t-2 19.5q-2 16 0 31t6 30q7 32 21.5 61.5t38.5 51.5q13 12 29 20t33 10q28 3 56 -11t46 -35q2 -1 2.5 -2t1.5 -2q0 28 -3 56q21 3 42 5t41 2q14 0 27.5 -1t23.5 -9q5 -4 6.5 -12.5t-2.5 -13.5
q-2 -5 -8 -7t-11 -3q-8 -2 -15 -1.5t-15 -0.5q1 -1 -1 -1h-4h-10q-8 0 -15 1.5t-15 1.5q-2 -19 2 -37.5t6 -37.5q5 -34 6 -69q2 -42 3.5 -84t4.5 -84q2 -22 6.5 -42.5t5.5 -41.5q0 -13 -2.5 -25t-0.5 -24q2 -13 5.5 -25t3.5 -24q1 -27 -0.5 -53.5t-0.5 -52.5q14 1 27.5 1.5
t27.5 1.5h17t14 -5t7 -14.5t-3 -14.5z" />
    <glyph glyph-name="r" unicode="r" horiz-adv-x="343" 
d="M315 336q-1 -16 -1.5 -32.5t-8.5 -30.5q-2 -5 -7.5 -6t-10.5 0q-5 0 -13 2q-6 3 -9 11t-3 15q1 12 3 23.5t1 22.5q0 16 -5 32.5t-16 27.5q-10 10 -26 12q-14 2 -27.5 -6.5t-21.5 -19.5q-5 -9 -8 -18.5t-6 -19.5q-5 -14 -11 -28t-11 -28q-5 -12 -5.5 -25t0.5 -27
q0 -5 0.5 -11.5t0.5 -11.5q2 -6 2 -9q4 -14 4.5 -28.5t1.5 -28.5q1 -17 3 -33.5t7 -33.5q2 -10 4.5 -20t1.5 -20q3 2 6 3.5t7 1.5q8 2 17 0.5t18 -0.5q8 1 14.5 5t13.5 2q10 -3 13 -14.5t3 -21.5l-2 -6t-3 -4q-2 -2 -5.5 -1t-4.5 -1q0 -1 -5 -1l-2 2q-1 0 -1 0.5t-1 0.5
q-1 1 -5 1h-4q-1 0 -2 -0.5t-2 -0.5q-5 -3 -10.5 -6t-11.5 -5q-11 -3 -21 -4t-21 -3q-3 -1 -5.5 -1.5t-5.5 -1.5q-6 -2 -10 -4q-3 -2 -5.5 -3t-5.5 -3q0 -1 -2 -1q-3 -1 -6 1t-6 2q-5 0 -8 -4.5t-8 -5.5t-11 1t-12 1q-7 0 -14 -2t-15 0q-4 1 -5.5 5.5t-3.5 8.5q-2 6 -3.5 12
t0.5 12q2 7 8 10q5 2 11 1t11 0q14 4 28.5 6.5t29.5 4.5q-1 5 -1 9.5t-2 8.5q0 -2 -1 3.5t0 7.5q3 15 2 28q-3 17 -9.5 34t-9.5 34q-4 25 -6.5 50t-7.5 50q-3 11 -7.5 22t-6.5 23q-2 7 -0.5 13.5t1.5 14.5q-1 5 -4.5 10t-5.5 10q-2 8 -2.5 16.5t-0.5 16.5q-14 2 -28 0.5
t-28 -2.5q-5 -1 -11 -1.5t-11 3.5q-6 7 -7 19.5t7 18.5q11 8 25 9.5t28 3.5q17 2 34.5 4.5t35.5 5.5q4 -21 6.5 -42t4.5 -42q10 25 26 46.5t37 37.5q24 18 58 21q5 1 11.5 0.5t11.5 -3.5q8 -4 14 -9.5t14 -10.5q7 -5 14 -9t12 -12q11 -19 13 -41t2 -44z" />
    <glyph glyph-name="s" unicode="s" horiz-adv-x="294" 
d="M266 381q1 -7 1 -14.5t-5 -12.5q-9 -11 -22 -7q-8 2 -11.5 9.5t-6.5 14.5q-4 8 -7.5 16.5t-10.5 14.5q1 -2 -1 0t-3 4q-8 6 -11 9q-13 12 -32 15q-11 2 -21.5 -1.5t-19.5 -9.5q-18 -13 -31 -33t-15 -42q-2 -20 7 -40t24 -34q26 -24 55.5 -42.5t55.5 -42.5
q20 -20 32.5 -48.5t6.5 -55.5q-5 -26 -16.5 -51.5t-32.5 -41.5q-20 -15 -46 -17.5t-50 1.5q-17 3 -34 10.5t-30 19.5q-14 13 -23.5 30t-14.5 35q-3 13 -5 25.5t-1 25.5q0 8 5 15t12 9q8 2 13 -1q5 -2 8 -8t5 -11q5 -11 6.5 -23t5.5 -23t9.5 -22t15.5 -19q7 -5 16 -7.5
t17 -3.5q16 -2 33 0.5t30 12.5q11 8 17 21.5t8 27.5q2 22 -8 43.5t-26 36.5q-13 13 -28.5 23.5t-31 20.5t-30.5 21t-28 24q-17 18 -25 43.5t-5 50.5q2 20 11 39t23 34q20 23 50 37t60 12q28 -2 54 -17.5t40 -39.5q10 -16 11 -33z" />
    <glyph glyph-name="t" unicode="t" horiz-adv-x="275" 
d="M247 134q-2 -8 -5 -16t-5 -16q1 2 0.5 -1t-1.5 -4q-2 -4 -3 -8t-3 -7q-7 -11 -13.5 -20.5t-14.5 -18.5q-11 -14 -24 -26t-29 -18q-14 -5 -29.5 -5t-29.5 5q-30 10 -45 39q-12 21 -15 46t-3 49q0 26 2.5 51t5.5 50q2 19 2.5 38t5.5 37q3 13 9.5 24.5t8.5 25.5q2 13 3 26.5
t5 26.5l-4 4q-5 2 -11 0t-11 0q-6 2 -11 6.5t-11 7.5l-16 6t-15 8q-3 2 -3 7t1 9q2 6 3.5 12t5.5 10q7 7 17.5 2t18.5 -7q14 -4 26.5 -8t25.5 -9q8 20 15.5 39.5t15.5 39.5q6 15 11.5 30t11.5 30l6 12t9 11q5 4 15 2q8 0 13 -5q3 -2 3.5 -6.5t0.5 -9.5q1 -9 -1.5 -18.5
t-5.5 -18.5l-16 -40t-15 -41l-12 -42q8 -1 16 -1t16 -3q10 -3 18 -9t18 -10q8 -3 18.5 -3t15.5 -8q6 -9 3 -20.5t-10 -19.5q-4 -6 -11 -2q-2 0 -3.5 2t-3.5 0q-3 -1 -6 2q-1 1 -1 3l-2 2q-4 5 -13 7q-7 0 -14 -0.5t-14 1.5q-11 3 -20.5 7t-19.5 8q-13 -45 -24.5 -89
t-19.5 -89q-5 -29 -8 -59t5 -58q5 -16 10.5 -32t19.5 -23q11 -5 24.5 -5.5t23.5 6.5q15 11 22.5 29.5t13.5 36.5q3 9 6 17.5t7 16.5q3 7 7.5 14t11.5 9q5 1 11.5 0.5t10.5 -5.5q5 -7 5 -16.5t-2 -17.5z" />
    <glyph glyph-name="u" unicode="u" horiz-adv-x="397" 
d="M409 348q3 -9 -0.5 -19.5t-11.5 -15.5q-8 -4 -16 -2l-16 4q-20 5 -38 6q-2 -42 -7.5 -84t-9.5 -84q-2 -21 1.5 -42.5t1.5 -42.5q-2 -18 -6.5 -36t-6.5 -37q13 -2 25.5 -1t24.5 -1q9 -1 18 -5t12 -12q2 -6 2 -14t-5 -13q-3 -4 -9 -5t-12 -1q-8 0 -15 1.5t-15 1.5
q2 -1 -1.5 -0.5t-5.5 0.5q-5 1 -15 5q-11 7 -23.5 7h-24.5q-2 23 -1.5 47t2.5 47l-4 -6q-9 -11 -19 -21.5t-23 -16.5q-36 -17 -75 -11q-34 5 -58 29q-14 14 -24 32t-16 38q-4 11 -7 23t-4 24q-2 11 2.5 23t2.5 23q-2 14 -1 28.5t4 29t6.5 29t5.5 28.5q2 13 4.5 26t4.5 26
q2 6 2 9q-2 2 -2.5 4t-2.5 1q-7 -2 -9 -3t-2.5 -1t-3 1.5t-10.5 4.5q-5 2 -9.5 2.5t-8.5 3.5t-3 9t1 11q1 6 2 12.5t4 12.5q2 4 7.5 1t10.5 -3q13 0 25 -2.5t24 -5.5q8 -2 15 2.5t15 2.5q5 0 10 -3.5t11 -5.5q5 -1 10.5 1t8.5 -2q4 -5 4 -11.5t-1 -12.5q0 -12 -4 -20
q-2 -2 -4.5 -1t-4.5 -1t-4.5 2.5t-6.5 5.5q-4 0 -7 -2t-7 -3q-6 -1 -12 0q2 -8 0 -16q-1 -12 -3.5 -24t-4.5 -24q-6 -29 -8 -58.5t-5 -58.5q-3 -27 -2 -55t13 -53q6 -13 20.5 -20.5t28.5 -6.5q21 1 44 5t37 20q10 11 14.5 24.5t9.5 27.5q3 8 6.5 15.5t11.5 10.5q1 5 1 9.5
v9.5q1 19 -1 37.5t0 37.5q2 10 5.5 18.5t3.5 18.5q0 9 -2 18.5t-2 18.5q0 15 3 29.5t6 28.5q20 -5 40 -7.5t40 -5.5q8 -2 16 -3t16 -3q5 -1 10 -3.5t7 -7.5z" />
    <glyph glyph-name="v" unicode="v" horiz-adv-x="287" 
d="M269 440q5 -12 3 -25t-5 -26q-2 -10 -5 -19.5t-6 -19.5q-17 -57 -32 -112.5t-32 -112.5q-6 -21 -12 -41.5t-12 -40.5q-2 -8 -4.5 -15.5t-4.5 -15.5q-1 -2 -1 -3t-1 -2q-1 -2 -1 -3.5t-2 -2.5h-5h-4h-16q-5 0 -9.5 -0.5t-9.5 -0.5q-2 -1 -5.5 -2t-5.5 1t-2.5 4.5t-1.5 5.5
q-2 2 -2.5 5t-2.5 6q-3 8 -5.5 17t-4.5 18q-8 27 -14.5 54.5t-13.5 54.5q-9 37 -21 72.5t-23 71.5q-3 10 -5.5 20t-4.5 20t-3 20t3 19q4 6 11.5 9t14.5 1q5 -2 8.5 -7t5.5 -10q3 -7 4.5 -14.5t4.5 -15.5q-1 2 0 -1.5t2 -5.5q2 -5 2 -10t1 -10q0 -16 4.5 -31t11.5 -29
q21 -45 33.5 -93t27.5 -96q5 20 9.5 39.5t8.5 39.5q2 12 3.5 24t5.5 23q2 5 5.5 10t5.5 10t2.5 9.5t1.5 9.5q4 35 16.5 68.5t23.5 67.5q4 11 7 21.5t7 21.5q3 9 8 18.5t14 11.5q6 1 13 -1t9 -7z" />
    <glyph glyph-name="w" unicode="w" horiz-adv-x="461" 
d="M433 323q-2 -17 -5.5 -33.5t-7.5 -32.5q-5 -20 -8.5 -35t-7.5 -29t-7.5 -29t-8.5 -34q-7 -26 -13 -52.5t-12 -52.5l-10 -41q-1 -5 -1.5 -9.5t-2.5 -9.5q0 -1 -2 -3q-7 -2 -13.5 -1t-13.5 0h-20h-6q-8 17 -13.5 36t-11.5 38q-13 42 -25 83.5t-25 83.5q-13 -39 -24.5 -78
t-22.5 -79q-5 -22 -10.5 -44t-16.5 -42h-1l-8 1h-18l-20 2h-1q-2 0 -4 -1t-3 1q-3 6 -3.5 12.5t-2.5 12.5l-6 27l-5 24q-7 32 -15.5 62.5t-16.5 61.5q-10 37 -19 73t-17 73q-2 13 -4 25.5t-3 25.5q-1 10 0.5 22t9.5 17q5 3 11 0.5t9 -6.5q7 -8 10 -18l6 -20q3 -11 5 -23
t6 -23q-1 2 0 -2t2 -6q1 -5 2 -9t2 -9q3 -14 4.5 -29t4.5 -30q9 -47 24 -91t27 -90q14 44 28 87t28 87q6 20 10.5 39.5t14.5 36.5q2 4 7 2t10 -2q4 0 9 1.5t8 -1.5t7 -13q2 -8 4 -12q5 -12 9.5 -24t9.5 -24q11 -27 16.5 -55t13.5 -56q4 -12 9.5 -22.5t10.5 -22.5
q8 42 21 81.5t24 80.5q5 17 8 29.5t6 24.5t6 24.5t8 29.5l6 20t11 15q5 5 14.5 6t11.5 -5q4 -11 3.5 -23t-2.5 -23z" />
    <glyph glyph-name="x" unicode="x" horiz-adv-x="298" 
d="M290 423q-5 -12 -13 -23.5t-14 -23.5q-20 -43 -42.5 -84.5t-45.5 -83.5q-8 -13 -12 -25q8 -14 18.5 -26.5t18.5 -26.5q3 -6 4 -13t4 -13q3 -7 9 -12t11 -11q9 -13 13.5 -28t10.5 -29q5 -11 11 -22.5t12 -22.5q2 -6 5.5 -12t2.5 -13t-7 -11.5t-13 -7.5q-6 -2 -14 1.5
t-12 9.5q-8 12 -12.5 25t-12.5 25q-19 32 -36 65t-34 67q-2 -5 -4.5 -10.5t-5.5 -10.5q-10 -20 -22 -37t-23 -36q-7 -13 -11.5 -26.5t-12.5 -26.5q-5 -8 -11.5 -15t-14.5 -8q-7 0 -14 3t-11 9q-3 5 -2 10.5t3 10.5q2 3 3 5.5t3 5.5q1 2 3.5 3.5t0.5 3.5q-3 2 0.5 5.5
l5.5 5.5q1 2 3 4l4 2l6 9l6 9q2 4 4 10q2 2 2.5 5t1.5 5q10 32 25 60.5t30 57.5q-10 14 -20.5 28t-18.5 29q-10 17 -16.5 36.5t-15.5 36.5q-6 12 -14.5 23t-14.5 23q-4 8 -6 17t3 17q4 5 10 9t13 4q10 0 15 -9q3 -4 7 -12q1 -2 1.5 -5t2.5 -2q3 1 4 -3.5t2 -7.5v-5v-4
q2 -6 3 -10q2 -2 2.5 -4.5t2.5 -4.5l2 -4t3 -4q4 -6 6 -8q17 -20 29.5 -43t24.5 -46q5 13 9 26t10 25q4 6 9 11t9 11q5 7 5.5 15t3.5 16q6 16 16.5 29t18.5 27q8 11 14 23t13 24q3 6 6.5 12t9.5 10q6 3 14 1t13 -6q7 -5 7 -15.5t-4 -18.5z" />
    <glyph glyph-name="y" unicode="y" horiz-adv-x="372" 
d="M334 487q-5 -7 -11.5 -11t-14.5 -7q-5 -2 -10.5 -2.5t-10.5 -2.5q11 -63 19 -125.5t13 -126.5q3 -49 2.5 -97.5t-2.5 -97.5q-2 -48 -6.5 -96.5t-28.5 -89.5q-16 -27 -46 -45.5t-61 -18.5q-23 0 -45.5 5t-41.5 18q-19 12 -33 31.5t-19 42.5q-4 17 -5 35.5t10 32.5
q5 6 15 4.5t15 -7.5q8 -14 8.5 -31t7.5 -31q-1 3 1.5 -3t4.5 -10q4 -7 7.5 -14.5t8.5 -13.5q12 -11 29.5 -14t34.5 -1q24 3 40 18q13 11 21 25.5t14 29.5q15 39 20.5 81.5t5.5 84.5q1 14 0 28.5t-3 28.5q-2 -4 -4 -7l-4 -6q-8 -11 -17 -21.5t-21 -18.5q-33 -20 -72 -17
q-23 1 -45 13.5t-36 31.5q-11 14 -18 29t-13 31q-3 11 -7 20.5t-5 20.5q0 9 2 17.5t2 17.5q0 13 -3.5 25t-2.5 25q1 23 4 46.5t5 47.5q1 10 1.5 20t1.5 21q0 6 1 10q-2 1 -3.5 3.5t-3.5 0.5q-2 -1 -3.5 -3t-3.5 -3q-5 -2 -8.5 1.5t-8.5 4.5q-5 2 -9.5 2t-9.5 2q-4 3 -4 8.5
v10.5q0 7 0.5 13.5t3.5 12.5q2 5 7.5 2t10.5 -2q25 2 49 -3q8 -2 14.5 3t14.5 5q6 0 11.5 -3t10.5 -4t10.5 1.5t8.5 -0.5q5 -4 5.5 -11t0.5 -13v-10t-2 -10q-2 -2 -5 -1.5t-5 -1.5q0 -1 -1.5 0t-2.5 2q0 1 -0.5 1t-0.5 1q-1 1 -1.5 1t-1.5 1h-3q-4 1 -7 -1.5t-7 -4.5
q-3 -1 -11 -1q2 -10 2 -16q0 -13 -1 -25t-2 -25q-3 -33 -2 -66t1 -67q-1 -26 1.5 -53t16.5 -49q5 -8 12 -14.5t15 -9.5q7 -3 14 -3t14 1q21 1 43.5 8t34.5 24q8 12 11.5 26t7.5 28q2 7 4.5 13.5t7.5 11.5q1 9 1.5 18t-1.5 17q-2 18 -7 35t-7 34q-5 46 -8 91t-12 90l-4 19
q15 2 30.5 4.5t30.5 4.5q8 1 17 2t17 -4q6 -4 10 -12t0 -13z" />
    <glyph glyph-name="z" unicode="z" horiz-adv-x="306" 
d="M318 449q-40 -65 -82.5 -127.5t-81.5 -128.5q-14 -23 -25.5 -47.5t-24.5 -48.5q-11 -20 -23.5 -39t-26.5 -38q32 -6 64 -10t64 -6q14 -1 27.5 -2.5t26.5 -4.5q8 -2 15 -5t12 -10q4 -5 3 -13.5t-6 -13.5q-7 -5 -16 -5h-17q-12 1 -24 3t-24 3q1 -1 -3 -1q-10 2 -15 2
q-11 2 -21.5 5.5t-21.5 5.5q-37 6 -74.5 6.5t-75.5 3.5q29 50 60.5 97.5t60.5 96.5q9 14 17.5 29t16.5 30q6 11 11 22.5t12 22.5q9 15 21 28t20 28q2 4 2 6q2 4 2 7t2 6q4 10 7 14q2 5 4.5 8t4.5 7q-14 -2 -28.5 -1t-28.5 0q-14 0 -27 -1t-27 -3q-20 -2 -40.5 -4.5
t-40.5 0.5q-8 1 -15.5 11.5t-2.5 17.5q8 11 22 14.5t28 5.5q17 2 35 3.5t36 3.5q50 5 99 11t99 11z" />
    <glyph glyph-name="braceleft" unicode="{" horiz-adv-x="318" 
d="M290 -44q-2 -5 -7 -8t-10 -5q-10 -5 -20 -5.5t-21 0.5q-29 1 -57 15t-42 39q-11 21 -14 45t-5 47t-1 47t3 47l-108 105q27 26 51.5 53.5t49.5 55.5q-6 55 3 110q3 21 8.5 42.5t18.5 38.5q17 20 44 29.5t53 9.5q12 1 25 -2t21 -13q4 -5 3 -13.5t-6 -13.5q-5 -4 -11.5 -5
t-13.5 -1h-18t-18 -2q2 0 -0.5 -0.5t-4.5 -0.5q-8 -2 -12 -2q-8 -2 -16.5 -4t-14.5 -9q-12 -13 -12.5 -32t-0.5 -37q1 -26 1.5 -51.5t4.5 -51.5l1 -10q-23 -23 -46 -45t-46 -45q19 -17 40 -34q13 -11 26.5 -21t23.5 -24l8 -7q-2 -10 -4 -19.5t-2 -20.5q1 -15 3.5 -30
t2.5 -30q0 -21 -1 -42.5t8 -41.5q8 -17 28.5 -22t38.5 -6q8 -1 17 -0.5t17 -3.5q6 -4 10 -13q4 -7 2 -13z" />
    <glyph glyph-name="bar" unicode="|" horiz-adv-x="96" 
d="M68 202q-1 -7 -3 -13.5t-3 -14.5t2 -16.5t4 -16.5q1 -17 -2.5 -33.5t-5.5 -33.5q-1 -12 -1.5 -23.5t-1.5 -23.5v-16.5t-4 -16.5q-3 -7 -11.5 -9t-15.5 -1q-9 2 -13.5 11.5t-4.5 17.5q0 14 2 28t1 28q0 49 2 97.5t4 96.5q2 29 -2.5 56.5t-3.5 55.5q1 23 4 44.5t5 43.5
q1 15 -1.5 29.5t-0.5 29.5q1 9 3.5 18.5t10.5 14.5q5 4 13 4t14 -3q5 -3 6.5 -9t1.5 -12v-12q-1 -2 -2 -5t1 -3q4 -1 3 -5.5t-3 -8.5q0 -2 -2 -4q0 -2 -2 -4q-1 -3 -1 -6t-1 -5q0 -3 -0.5 -6t-0.5 -5q0 -7 1 -11q0 -3 0.5 -5.5t0.5 -5.5q6 -43 3.5 -85.5t-2.5 -85.5
q0 -19 3.5 -37.5t2.5 -38.5z" />
    <glyph glyph-name="braceright" unicode="}" horiz-adv-x="318" 
d="M290 283l-108 -105q2 -23 3 -47t-1 -47t-5 -47t-14 -45q-14 -25 -42 -39t-57 -15q-11 -1 -21 -0.5t-20 5.5q-5 2 -10 5t-7 8q-1 6 2 13q4 9 10 13q8 4 17 3.5t17 0.5q18 1 38.5 6t28.5 22q9 20 8 41.5t-1 42.5q0 15 2.5 30t3.5 30q0 11 -2 20.5t-4 19.5l8 7
q10 14 23.5 24t27.5 21q10 8 19.5 16.5t20.5 17.5q-23 23 -46.5 45t-46.5 45l1 10q4 26 4.5 51.5t1.5 51.5q0 18 -0.5 37t-12.5 32q-6 7 -14.5 9t-16.5 4q-4 0 -12 2q-2 0 -4.5 0.5t-0.5 0.5q-9 2 -18 2h-18q-6 0 -13 1t-12 5q-5 5 -6 13.5t3 13.5q8 10 21 13t25 2
q26 0 53 -9.5t44 -29.5q13 -17 18.5 -38.5t9.5 -42.5q4 -27 4.5 -55t-2.5 -55q25 -28 49.5 -55.5t51.5 -53.5z" />
    <glyph glyph-name="asciitilde" unicode="~" horiz-adv-x="331" 
d="M303 253q-4 -6 -9.5 -10.5t-11.5 -8.5q-7 -4 -13.5 -8t-14.5 -7q-11 -5 -24 -8.5t-26 -1.5q-24 2 -47 16q-9 7 -17 15t-19 13q-6 2 -12.5 1.5t-13.5 1.5q-6 1 -13 2.5t-13 -1.5q-8 -5 -15.5 -13t-17.5 -6t-19 10t-9 18q0 5 5.5 8.5t9.5 7.5q-2 0 1 2t5 3q5 1 9.5 1t9.5 2
q6 3 11 6.5t10 6.5q6 4 13.5 5t15.5 1q13 0 24 -6.5t22.5 -14t22.5 -14t24 -7.5q5 -1 8.5 -5t7.5 -2q7 5 16.5 4.5t17.5 3.5q9 3 16 10t16 9q5 1 9 -2t8 -5l5 -3l4 -4q9 -9 4 -20z" />
    <glyph glyph-name="nonbreakingspace" unicode="&#xa0;" 
 />
    <glyph glyph-name="exclamdown" unicode="&#xa1;" horiz-adv-x="118" 
d="M78 428q1 -13 -2 -25.5t-3 -25.5q0 -42 -3 -82t-7 -81q-2 -24 2 -47.5t2 -47.5q-1 -19 -4.5 -37t-5.5 -36q-1 -13 1 -25.5t0 -24.5q-2 -8 -4.5 -16.5t-10.5 -11.5q-14 -5 -27 1q-8 3 -8 14v6.5t1 6.5q0 2 1 4.5t-1 3.5q-3 0 -2 4t3 7q0 1 2 3q0 2 2 4q1 2 1 4.5t1 4.5
q1 3 1 9v9q0 3 -0.5 5.5t-0.5 4.5q-5 35 -2 71.5t4 71.5q1 17 -2 32.5t-2 31.5q1 6 3.5 12t3.5 12q1 7 -2 13.5t-3 14.5q-2 14 2 28t6 28q2 17 1.5 34.5t7.5 32.5q3 7 11.5 8t16.5 0q6 -2 11 -8t6 -13zM90 531q-2 -13 -14 -23t-26 -10q-5 0 -11.5 1t-10.5 6t-5.5 10t-4.5 10
q-2 3 -2.5 9t1.5 8q5 4 7.5 10.5t7.5 11.5q4 3 9.5 2.5t10.5 -2.5q11 -5 24.5 -12.5t13.5 -20.5z" />
    <glyph glyph-name="cent" unicode="&#xa2;" horiz-adv-x="329" 
d="M130 115q-1 70 0 140q0 28 -5.5 55.5t-6.5 56.5q0 14 1 27l2 26q-21 -9 -35 -28q-17 -23 -24.5 -51t-9.5 -56q-2 -29 5.5 -59t21.5 -56q5 -10 7.5 -20.5t10.5 -18.5q6 -5 14 -8.5t16 -5.5zM301 155q-3 -20 -14 -39t-28 -32t-37 -20t-41 -10q-1 -8 -1 -16.5v-16.5v-16.5
t-2 -16.5q-3 -8 -11.5 -10.5t-15.5 -1.5q-9 2 -14 11t-6 18q-1 13 0.5 25.5t1.5 25.5q-16 3 -30 9q-34 17 -56 50q-23 35 -31.5 78.5t-7.5 85.5q1 31 5 61.5t16 59.5q11 27 37.5 46.5t55.5 24.5q-2 11 -3 21t-1 21q1 9 2.5 19t9.5 15q14 9 28 2q5 -3 7 -9t2 -11v-12
q0 -2 -1 -5.5t1 -3.5q4 0 3 -5t-3 -8q0 -2 -0.5 -2.5t-0.5 -2.5q-2 -2 -2 -4q-1 -3 -1 -5.5t-1 -5.5v-5q29 -5 54.5 -17.5t42.5 -34.5q15 -19 24 -44q2 -7 3 -14.5t-1 -14.5q-3 -7 -10 -11.5t-15 -3.5q-5 1 -9.5 5.5t-7.5 9.5q-4 8 -7.5 17t-8.5 17q0 -2 -1 0t-2 3
q-2 2 -2.5 4t-2.5 4q-5 6 -8.5 13t-10.5 12q-13 10 -33 12q5 -38 4.5 -77.5t1.5 -77.5q2 -20 5.5 -38t4.5 -38q0 -7 -2.5 -13.5t-2.5 -14.5q-1 -8 2.5 -16.5t4.5 -16.5q2 -14 0 -28q16 2 31.5 8.5t24.5 19.5q5 7 8 16l6 18t7.5 16.5t12.5 10.5q7 4 13 2q11 -5 13 -18.5
t0 -24.5z" />
    <glyph glyph-name="sterling" unicode="&#xa3;" horiz-adv-x="391" 
d="M363 157q-2 -21 -4.5 -42t-5.5 -42q-87 12 -172.5 20.5t-172.5 18.5l7 31q8 42 20.5 82t23.5 81q-8 -2 -15.5 -3t-12.5 4q-8 7 -8.5 19t4.5 21q1 4 8 6q2 0 4.5 -1.5t4.5 0.5q1 2 6 0l2 -2l2 -2q7 -3 14 -2h2q3 11 5.5 21.5t5.5 21.5q18 76 61 144q12 20 28 38t37 26
q22 8 48 7t46 -13q34 -22 50 -60q5 -11 8.5 -24t-0.5 -25q-2 -5 -8.5 -9t-12.5 -2q-8 1 -12.5 8t-8.5 14q-5 9 -10 19t-12 18q1 -2 -2 1.5t-5 5.5q-3 5 -6.5 8.5t-7.5 8.5q-8 10 -24 10.5t-27 -5.5q-14 -8 -22.5 -23t-16.5 -29q-10 -19 -18.5 -38t-16.5 -39q-17 -41 -30 -79
q6 0 12 -0.5t12 -0.5q8 0 12 1q8 0 12 1q5 1 13 5h2q4 0 6.5 -2.5t6.5 -3.5q5 -1 9.5 3t9.5 4q7 -1 13 -3.5t12 -3.5q8 -2 16 -1.5t16 -2.5q5 -2 6 -6.5t2 -9.5v-12t-3 -11q-2 -4 -4 -6q0 -2 -2 -2q-7 -2 -14 0.5t-15 1.5q-22 -1 -43 0.5t-43 3.5q-13 2 -25 -3t-25 -5h-2
q-5 -18 -9.5 -36t-9.5 -36q-4 -17 -6 -35t-5 -35q5 -2 11 -3t12 -1q16 -1 32 0t32 -1q38 -5 75 -12t75 -12q2 14 3.5 28.5t4.5 28.5q1 7 3 14.5t7 12.5q5 4 13.5 5.5t13.5 -3.5q8 -11 8.5 -26.5t-0.5 -29.5z" />
    <glyph glyph-name="currency" unicode="&#xa4;" horiz-adv-x="412" 
d="M384 127q-4 -29 -19.5 -56.5t-39.5 -45.5q-17 -13 -38.5 -21t-43.5 -10q-36 -3 -70 13q-18 9 -33 23t-26 31q-17 24 -27.5 51t-16.5 56q-7 1 -14 4t-15 4q-6 1 -13 -2t-12 1t-6.5 10.5t-1.5 13.5q0 5 0.5 10t2.5 10q2 3 6 1.5t6 1.5q3 3 5 0l2 -2l1 -2q1 -1 2 -1t2 -1
q1 0 2 -0.5t2 -0.5q5 0 9.5 2.5t9.5 3.5q1 1 5 1q-2 16 -3 32t-1 32q-8 2 -13 3q-8 0 -15.5 -2.5t-13.5 1.5q-9 5 -9.5 17t1.5 21q2 8 7 9q2 1 5 -0.5t5 0.5t5 0l2 -2l1 -2q4 -2 5 -2t2 -0.5t2 -0.5q3 0 5 1l12 3q1 21 3 42t5 42q5 32 18.5 64t36.5 55q14 14 33 24t39 12
q49 3 92 -22q21 -13 37 -32.5t27 -42.5q9 -18 15.5 -38t0.5 -40q-2 -7 -9.5 -12.5t-14.5 -3.5q-6 2 -10 8.5t-7 12.5q-5 13 -8.5 26t-9.5 24q0 -2 -1.5 1l-2.5 5q-2 6 -4 8q-5 8 -8.5 17t-8.5 16q-14 19 -34 25q-11 4 -23.5 4t-24.5 -2q-14 -3 -25 -11.5t-19 -19.5
q-14 -17 -23 -37.5t-15 -41.5q-6 -20 -9.5 -40.5t-5.5 -40.5q4 -1 11 -1t11 1q5 0 11 2q8 2 12 4h2q3 0 5.5 -2.5t5.5 -3.5q5 -1 9 3t9 4q6 -1 11.5 -3.5t11.5 -3.5q7 -1 14.5 -1t14.5 -3q4 -2 5 -6.5t1 -8.5q1 -6 0.5 -12.5t-2.5 -11.5l-3 -6q-1 -1 -3 -1q-6 -3 -12.5 -0.5
t-13.5 2.5q-18 -1 -36 -0.5t-35 2.5q-7 1 -13 1.5t-12 -0.5q-2 -1 -3 -1t-2 -1q0 -24 5 -52q2 -10 3 -14q4 0 10 2q3 1 5.5 2t4.5 2h2q3 0 5 -2.5t5 -2.5q5 -2 8 2.5t8 3.5q5 0 9.5 -2.5t9.5 -4.5q7 -1 13.5 -1t12.5 -3q5 -2 5 -8t1 -11q0 -7 -1 -14t-5 -12q-3 -5 -10.5 -2
t-13.5 3q-14 -1 -28.5 -0.5t-28.5 2.5l7 -21q5 -14 8.5 -29t11.5 -28q3 -6 9 -10.5t11 -8.5q14 -12 32 -21.5t37 -9.5q13 0 26.5 2.5t24.5 9.5q23 15 36 43q5 11 8 22.5t5 22.5t5.5 23t14.5 17q8 4 13 1q5 -2 7 -7.5t4 -10.5q3 -11 3 -21.5t-2 -21.5z" />
    <glyph glyph-name="yen" unicode="&#xa5;" horiz-adv-x="474" 
d="M446 502q1 -6 0 -13t-4 -12q-2 -5 -8.5 -2.5t-11.5 2.5q-11 -1 -21.5 -0.5t-21.5 1.5q3 -11 -1.5 -23t-9.5 -22q-9 -19 -19 -37.5t-19 -37.5q-14 -33 -29.5 -64.5t-31.5 -63.5q5 -2 9.5 2.5t9.5 3.5q6 0 11.5 -2.5t11.5 -4.5q8 -1 16 -1t15 -3q4 -2 5 -6.5t2 -8.5
q1 -6 0.5 -12.5t-2.5 -11.5q-1 -2 -2 -3t-2 -3q-1 0 -1.5 -0.5t-1.5 -0.5q-6 -3 -13 -0.5t-14 2.5q-17 -1 -34 -0.5t-34 2.5l-2 -4q1 -4 2.5 -7t3.5 -6q2 -10 0 -21q2 0 6 2h2q3 0 6 -2.5t6 -3.5q5 -1 9.5 3t9.5 4q6 -1 11.5 -3.5t11.5 -3.5q8 -2 16 -1.5t15 -2.5
q4 -2 5 -6.5t2 -9.5q2 -14 -2 -23q-1 -2 -2 -3t-2 -3q-1 -1 -1.5 -1t-1.5 -1q-6 -2 -13 0.5t-14 1.5h-31.5t-30.5 2l-1 -1q-1 -4 3 -7t4 -7q-1 -5 -3.5 -8.5t-3.5 -8.5t-0.5 -9t-1.5 -9l1 1h2q2 0 4 -2.5t5 -3.5q4 -1 7 3t8 4q5 -1 9 -3.5t9 -3.5q6 -2 12.5 -2t11.5 -3
q5 -2 5 -8v-11q0 -7 -0.5 -13.5t-4.5 -12.5q-3 -5 -10.5 -2t-12.5 3q-17 -1 -32.5 0.5t-31.5 3.5q-10 2 -19 -3t-19 -4q-8 0 -14.5 3.5t-13.5 4.5q-6 1 -13 -2t-12 1t-5.5 11t-0.5 13v10t3 10q2 3 6 2t6 1q0 1 1.5 1t2.5 -1t1 -2l2 -2q1 -1 1.5 -1t1.5 -1q1 0 2 -0.5t2 -0.5
q5 0 9 2.5t9 3.5q5 2 10.5 1.5t10.5 -1.5q-3 3 -1 9t2 11q-1 17 0 33q-5 -2 -9.5 -3.5t-9.5 -1.5q-9 1 -18 4t-19 4q-8 1 -17.5 -2t-16.5 3q-8 7 -8 19t4 21q1 4 8 6q2 0 4.5 -1.5t3.5 0.5t6 0l2 -2l2 -2q1 -1 2 -1t2 -1q2 0 2.5 -0.5t2.5 -0.5t2.5 0.5t2.5 0.5l12 4t13 2
q6 1 12.5 0.5t12.5 -1.5q-2 8 -2 12q0 7 3 13.5t4 13.5v2q-12 -5 -20 -5q-9 0 -18 3t-19 4q-8 1 -17.5 -1.5t-16.5 2.5q-8 7 -8 19t4 21q2 6 8 6q2 0 4.5 -1.5t3.5 0.5t6 0l2 -2q1 0 1 -0.5t1 -0.5q2 -2 4 -2q2 -1 5 -1h5l12 4t13 3h12q-4 6 -7.5 12t-6.5 13
q-12 23 -20.5 47t-18.5 47q-7 14 -14.5 28t-15.5 28q-13 22 -20 44q-2 5 -5.5 14.5t-5.5 18.5q-4 -3 -10 -3q-7 1 -13 4t-13 4q-5 0 -10.5 -2.5t-10.5 1.5t-5.5 10.5t-0.5 12.5v10.5t2 10.5q2 2 5.5 1.5t5.5 1.5q1 1 2.5 0t2.5 -2q0 -2 1 -2q2 -2 3 -2t1.5 -0.5t1.5 -0.5
q5 0 8 2.5t8 3.5q7 2 13.5 1t14.5 -1h12t12 2l4 2l4 2q1 1 2 1q2 0 4 -2.5t4 -3.5q4 -1 6.5 3t6.5 4q4 -1 7.5 -3.5t8.5 -3.5t10.5 -1t10.5 -3q5 -2 4.5 -8t0.5 -11q0 -7 -0.5 -13.5t-4.5 -12.5q-2 -5 -8.5 -2t-11.5 2h-16.5t-16.5 1q1 -1 1.5 -2t2.5 -3q3 -5 4.5 -10
t4.5 -10q0 1 1.5 -1.5t1.5 -3.5q2 -5 4 -15q1 -11 6 -21.5t12 -19.5q25 -33 40.5 -71t34.5 -74q8 18 13 36.5t14 35.5q2 5 7 9t7 9q3 8 4.5 16.5t3.5 16.5q5 11 11.5 20t12.5 18q8 11 13.5 23t12.5 24q1 2 2 4.5t2 4.5q-6 1 -12 3.5t-12 3.5q-5 1 -11 -1.5t-10 0.5
q-5 4 -5.5 11t-0.5 13v10t2 10q2 2 5.5 1.5t4.5 1.5q2 2 4 0q1 -1 1 -2l2 -2q1 -1 1.5 -1t1.5 -1h3q5 -1 8 1.5t8 4.5q7 2 13.5 1t13.5 -2h12.5t12.5 2q2 2 4 2.5t4 2.5h2q2 0 3.5 -2.5t4.5 -3.5t6 3.5t6 3.5q5 0 8.5 -2.5t8.5 -3.5q5 -2 10.5 -2t10.5 -2q4 -3 4 -9v-11z
" />
    <glyph glyph-name="brokenbar" unicode="&#xa6;" horiz-adv-x="102" 
d="M67 40q0 -6 -2.5 -11t-3.5 -11q-2 -7 -2 -14t-3 -13q-2 -4 -6.5 -5t-8.5 -1q-6 -1 -12.5 -0.5t-11.5 2.5q-2 1 -5 3.5t-3 5.5q-1 5 1 10.5t2 10.5q-1 17 -0.5 34t3.5 34q1 6 1.5 12t-1.5 12t-4.5 12t-2.5 13q0 8 3.5 16.5t4.5 16.5q0 8 -2.5 15t1.5 13q5 8 17 8.5
t22 -1.5q7 -2 8 -6q1 -2 -0.5 -5t0.5 -5q3 0 0 -5l-2 -1l-2 -2q-2 -2 -2 -4q-1 -1 -1 -4t1 -4q1 -6 3 -11.5t3 -11.5q1 -11 -0.5 -21t-1.5 -20v-11q1 -3 1 -5.5t1 -5.5q1 -2 2 -5l2 -6q1 -1 1 -2q-1 -3 -3 -5t-3 -5q-2 -5 2.5 -8.5t3.5 -8.5zM74 401q-1 -5 -3.5 -10.5
t-3.5 -10.5q-1 -7 -1 -13.5t-3 -13.5q-2 -4 -6.5 -4.5t-9.5 -0.5q-7 -1 -15 -0.5t-14 5.5q-5 4 -2 11.5t2 14.5q-1 18 0.5 36t3.5 35q2 11 -3 21t-4 21q0 8 3 16t4 16q1 7 -1.5 14t0.5 13q5 8 17 8.5t22 -1.5l5 -2.5t4 -3.5q0 -2 -1.5 -5t0.5 -4q3 -2 0 -5l-2 -2
q-1 -1 -2 -1q0 -1 -2 -5v-4q-1 -5 1.5 -9.5t4.5 -9.5q2 -9 0.5 -18t-1.5 -18q-1 -8 -0.5 -15.5t2.5 -15.5q1 -3 2 -5.5t2 -5.5v-2q0 -2 -2.5 -4.5t-3.5 -5.5q-1 -5 3 -8t4 -8z" />
    <glyph glyph-name="section" unicode="&#xa7;" horiz-adv-x="323" 
d="M248 233q-2 17 -12 33t-24 27q-13 9 -27 16t-29 13q-5 -1 -10.5 -1h-10.5q-7 -1 -13.5 -2t-12.5 -4l-2 -1l-2 -1q-4 -2 -10 -6q-8 -4 -15 -8t-12 -10q-10 -14 -13.5 -33t-0.5 -36t13 -33.5t24 -26.5q12 -8 25 -15t27 -13q6 1 12.5 0.5t12.5 -0.5q12 0 21 4q-2 0 0.5 0.5
t4.5 1.5q6 1 11 5q8 4 16 8.5t13 11.5q11 14 13.5 33t0.5 37zM295 -23q2 -18 0.5 -37t-10.5 -35q-5 -11 -12.5 -20t-15.5 -17t-15.5 -16t-16.5 -13q-16 -9 -34 -13t-35 -4q-20 1 -38.5 6.5t-34.5 16.5q-19 13 -31.5 33t-19.5 42q-5 14 -7 28.5t-3 28.5q0 6 0.5 11.5
t3.5 10.5q2 4 5.5 6t7.5 4q7 2 13 -1q9 -4 12.5 -14t5.5 -20q2 -13 5 -26t8 -25q5 -11 10.5 -20t14.5 -15q9 -7 21 -9.5t24 -1.5q19 2 38 7.5t32 19.5t17.5 33t4.5 38q0 22 -10.5 44.5t-28.5 34.5q-16 10 -34 16.5t-36.5 12t-36 12.5t-33.5 17q-14 10 -25.5 22t-19.5 27
q-14 26 -12 57q0 31 10 62t32 54q7 7 15 12l16 10q-17 11 -30.5 24.5t-23.5 30.5q-8 14 -13 31t-7 34q-2 13 -2.5 25.5t3.5 24.5q5 17 14.5 30.5t20.5 26.5l12 14t13 12q17 12 37.5 17t40.5 4q40 0 73 -22q18 -14 30.5 -33.5t20.5 -41.5q4 -14 6.5 -28.5t2.5 -28.5
q2 -12 -3 -23q-2 -4 -5.5 -5.5t-7.5 -3.5q-10 -2 -14 0q-8 5 -11.5 15t-5.5 20q-3 13 -5.5 26t-7.5 25q-5 10 -10.5 19.5t-14.5 15.5q-10 7 -21.5 9.5t-23.5 1.5q-19 -2 -38 -8t-33 -20q-12 -14 -16.5 -33t-4.5 -37q0 -23 11 -45.5t30 -34.5q16 -10 33.5 -16.5t35.5 -12.5
l36 -12t33 -17q14 -9 25.5 -21t19.5 -27q7 -13 10 -28t3 -29q-1 -31 -11.5 -62t-31.5 -54q-15 -15 -31 -23q34 -20 54 -54q8 -15 13 -31.5t7 -33.5z" />
    <glyph glyph-name="dieresis" unicode="&#xa8;" horiz-adv-x="192" 
d="M84 722q-5 -5 -8 -11.5t-8 -11.5q-4 -4 -9.5 -3.5t-10.5 2.5q-13 5 -26.5 13t-13.5 22q2 13 14.5 23.5t26.5 10.5q6 0 12.5 -1t11.5 -6q4 -5 5 -11t5 -11q2 -2 2.5 -8t-1.5 -8zM184 722q-5 -5 -8 -11.5t-8 -11.5q-4 -4 -9.5 -3.5t-10.5 2.5q-13 5 -26.5 13t-13.5 22
q2 13 14.5 23.5t26.5 10.5q6 0 12.5 -1t11.5 -6q4 -5 5 -11t5 -11q2 -2 2.5 -8t-1.5 -8z" />
    <glyph glyph-name="copyright" unicode="&#xa9;" horiz-adv-x="510" 
d="M342 228q0 -23 -13 -46q-11 -17 -31 -29t-40 -14q-23 -2 -46 11.5t-35 33.5q-10 16 -15 34.5t-7 37.5t-2 38.5t1 38.5q0 19 1.5 38.5t10.5 36.5q10 17 27.5 30.5t37.5 14.5q23 2 47 -10t38 -32q8 -11 13 -24.5t1 -26.5q-1 -5 -6 -8.5t-11.5 -5t-13 -0.5t-9.5 5
q-5 5 -5.5 12t-4.5 13q0 -2 -1.5 1l-2.5 5q-2 4 -2 7.5t-2 7.5q-5 10 -15 12q-5 2 -10 1t-10 -3q-15 -5 -23 -22t-12 -33q-6 -27 -4.5 -56.5t13.5 -54.5q4 -8 3.5 -16.5t4.5 -14.5q3 -4 7.5 -5.5t9.5 -3.5q4 -2 8 -5t9 -4q9 -1 18.5 2.5t14.5 11.5t6.5 18t6.5 18q3 4 7 5
l8 2q8 3 14 2q7 -2 10.5 -9t3.5 -14zM437 320q-3 6 -5.5 12.5t-4.5 12.5q-13 46 -34 83q-14 22 -32 40.5t-40 31.5q-20 12 -44 18.5t-47 5.5q-34 -1 -66.5 -16.5t-54.5 -41.5q-29 -35 -43.5 -81t-12.5 -91q2 -34 13.5 -67.5t31.5 -61.5q29 -38 72 -65.5t91 -29.5q25 -1 50 7
t45 23q17 14 30 32t23 38q10 19 16 40t11 42q1 5 2 15.5t1 21t-0.5 19.5t-1.5 12zM482 260v-13.5t-2 -13.5q-2 -14 -5.5 -26.5t-7.5 -25.5q1 2 0 -1.5t-2 -5.5q-2 -5 -4.5 -10t-4.5 -10q-8 -14 -18 -26.5t-21 -23.5q-29 -33 -69.5 -57t-85.5 -26q-42 -2 -83.5 15t-72.5 45
q-43 39 -68 96t-29 115q-4 48 5.5 97t35.5 89q11 17 27 30.5t33 24.5q13 9 26 18.5t27 15.5q33 14 66 14q41 0 80 -17q45 -20 81.5 -56t57.5 -80q20 -39 26 -80q1 -4 2 -17t2.5 -27t2.5 -27t1 -17z" />
    <glyph glyph-name="ordfeminine" unicode="&#xaa;" horiz-adv-x="313" 
d="M285 143q1 -6 0.5 -12.5t-2.5 -11.5q-1 -2 -2 -3t-2 -3q-1 -1 -3 -1q-7 -3 -14 -0.5t-15 2.5q-42 -2 -86 3q-12 2 -24.5 -3t-24.5 -4q-11 0 -20 3t-19 4q-9 1 -18.5 -1.5t-16.5 2.5q-8 7 -8.5 19t3.5 21q2 6 8 6q2 0 5 -1t4 1q1 1 6 -1l2 -2q1 0 1 -0.5t1 -0.5
q7 -5 14 -3t13.5 4t13.5 3q12 1 24 -0.5t24 -1.5h12q5 0 13 2l6 2l6 2h3q3 0 6 -2t6 -3q5 -2 10 2.5t10 3.5q6 0 12 -2.5t13 -4.5q8 -1 16 -1t16 -3q4 -2 5 -6.5t2 -8.5zM229 483q-5 -2 -9.5 -4.5t-9.5 -4.5q-26 -12 -51 -22t-49 -24q-18 -10 -32.5 -26.5t-16.5 -36.5
q-1 -11 3.5 -22t12.5 -17q11 -8 24 -9.5t26 -2.5q19 -1 39.5 2.5t31.5 17.5q8 11 12.5 23.5t9.5 24.5q0 1 2 5q2 24 3.5 48t3.5 48zM333 218q-10 -8 -24 -8t-27 2q-18 2 -35.5 5t-35.5 5l2 28q2 11 2.5 23t1.5 24q-12 -14 -29 -23q-29 -15 -61 -13q-23 0 -45 8.5t-38 24.5
q-13 14 -20 32.5t-8 38.5t4.5 42.5t20.5 36.5q8 8 19 12t19 11q10 8 19.5 15.5t20.5 12.5q17 6 33.5 10t33.5 11q11 5 20.5 10t17.5 13q4 4 7 10q-1 26 -8 51t-23 44q-10 11 -25 17t-30 6q-11 0 -22.5 -6.5t-16.5 -17.5q-5 -12 -7 -25.5t-6 -25.5q-5 -17 -20 -22
q-5 -2 -10.5 -1t-8.5 5q-5 7 -6 16t0 17q0 6 1 12l2 12q0 -1 0.5 1.5t0.5 4.5q1 2 1.5 4t1.5 4q2 8 7 13.5t10 11.5q13 16 31 27t38 15q26 5 53.5 -3.5t44.5 -28.5q19 -23 26.5 -53.5t9.5 -62.5q2 -2 2.5 -7.5t0.5 -11.5t-0.5 -10.5t-1.5 -6.5q1 -20 3.5 -40.5t0.5 -40.5
q-1 -12 -4.5 -23t-3.5 -23q1 -14 3 -26.5t1 -26.5q-2 -21 -5.5 -42t-6.5 -42q8 -1 14.5 -1.5t14.5 -2.5q10 -2 20.5 -2.5t18.5 -7.5q6 -5 6.5 -16t-5.5 -16z" />
    <glyph glyph-name="guillemotleft" unicode="&#xab;" horiz-adv-x="342" 
d="M194 411q-2 -7 -6.5 -11.5t-8.5 -9.5q2 1 0 -2t-4 -4q-2 -2 -5 -3.5t-5 -3.5q-14 -11 -22 -28q-15 -31 -37.5 -56.5t-42.5 -53.5q10 -13 22 -23.5t21 -24.5q4 -5 4.5 -11.5t4.5 -11.5q5 -5 10 -8t10 -8q8 -8 12 -18t9 -20q5 -11 11.5 -20t12.5 -19q5 -8 10.5 -15.5
t1.5 -15.5q-3 -6 -8 -11t-12 -7q-11 -2 -19 5q-13 10 -19.5 24.5t-16.5 27.5q-29 38 -56 77.5t-53 79.5q13 17 22 36t23 36q13 17 28 31.5t29 31.5q12 14 21 31t25 27q3 2 7 3t8 0q8 -2 16.5 -9.5t6.5 -15.5zM314 411q-2 -7 -6.5 -11.5t-8.5 -9.5q2 1 0 -2t-4 -4
q-2 -2 -5 -3.5t-5 -3.5q-14 -11 -22 -28q-15 -31 -37.5 -56.5t-42.5 -53.5q10 -13 22 -23.5t21 -24.5q4 -5 4.5 -11.5t4.5 -11.5q5 -5 10 -8t10 -8q8 -8 12 -18t9 -20q5 -11 11.5 -20t12.5 -19q5 -8 10.5 -15.5t1.5 -15.5q-3 -6 -8 -11t-12 -7q-11 -2 -19 5
q-13 10 -19.5 24.5t-16.5 27.5q-29 38 -56 77.5t-53 79.5q13 17 22 36t23 36q13 17 28 31.5t29 31.5q12 14 21 31t25 27q3 2 7 3t8 0q8 -2 16.5 -9.5t6.5 -15.5z" />
    <glyph glyph-name="logicalnot" unicode="&#xac;" horiz-adv-x="512" 
d="M484 330q-2 -35 -8.5 -68.5t-7.5 -67.5q-1 -18 -0.5 -36t-1.5 -36q-2 -11 -4 -21t-8 -18q-5 -5 -13 -6.5t-15 0.5q-9 3 -11 16q-1 7 0.5 14.5t1.5 15.5q-1 -2 -1 0v3q1 4 1 7t2 6q7 18 8 33q1 9 -0.5 18.5t-2.5 19.5q-1 17 0 34t3 34l-64 4t-64 0q-16 0 -32 -3t-31 0
q-7 2 -13.5 4.5t-14.5 1.5q-11 -1 -22.5 -3.5t-22.5 -1.5q-20 1 -38 4.5t-37 4.5q-11 2 -22.5 2t-22.5 2q-8 0 -16 0.5t-15 4.5q-7 5 -8.5 16t4.5 17q6 7 15 9.5t19 2.5t20.5 -1.5t19.5 -2.5q25 -2 49.5 -2t48.5 -1q52 -2 103 -6t102 -5q25 -1 49.5 2t49.5 3z" />
    <glyph glyph-name="registered" unicode="&#xae;" horiz-adv-x="510" 
d="M358 362v-20.5t-7 -18.5q-3 -3 -8 -3t-10 1h-6l-6 2q-5 2 -9 4.5t-5 7.5q-1 8 1.5 15t1.5 14q-1 10 -5 20t-13 13q-10 2 -16 -6q-5 -6 -5.5 -13t-2.5 -14q-2 -10 -7 -18t-9 -17q-2 -7 -1.5 -14t1.5 -15q2 -4 4 -14q2 -14 0.5 -27t0.5 -27q1 -7 3.5 -13t4.5 -13q5 0 9 -2
t9 -2q4 1 8 4t8 1q5 -4 6 -10.5t3 -12.5q1 -5 2 -11t-1 -11q0 -2 -3 -1t-3 -1q-1 -2 -2.5 -1t-2.5 2q0 1 -1 1q-1 1 -1.5 1t-1.5 1h-2q-5 -1 -7.5 -4.5t-6.5 -5.5q-6 -2 -12 -1.5t-12 -1.5q-2 -1 -3 -1t-3 -1l-6 -3q-2 -2 -2.5 -3t-2.5 -2l-1 -1q-2 0 -4 3t-4 1t-2.5 -4
t-2.5 -4q-4 -2 -8 0.5t-8 3.5q-5 0 -9 -0.5t-8 1.5q-5 2 -5.5 7.5t-1.5 10.5q-2 6 -3 12.5t1 13.5q2 3 8 3q2 0 4 -0.5t4 -0.5q5 2 10 2.5t10 1.5v2q0 4 1 6q3 7 2 14q-1 6 -4.5 11.5t-5.5 12.5q-4 11 -4.5 22.5t-2.5 23.5q-2 10 -3.5 19.5t-4.5 18.5q-2 4 -4.5 6.5
t-2.5 5.5q-1 5 1.5 10.5t0.5 10.5q-1 2 -3.5 3.5t-3.5 3.5q-2 5 -1.5 10.5t0.5 10.5q-8 5 -17 1.5t-17 0.5q-4 2 -5 6t-3 8q-1 5 -2.5 8.5t0.5 8.5q0 3 2 7q2 2 3 3.5t3 3.5q7 6 17 6t20 1q11 1 21.5 2.5t21.5 3.5q2 -9 3 -18t3 -18q12 17 28.5 28.5t35.5 13.5q10 2 16 -1
q6 -2 10 -7.5t9 -8.5q8 -4 14.5 -8.5t10.5 -12.5q5 -11 4 -23.5t-2 -24.5zM438 308q-1 10 -4.5 23t-5.5 20q-7 21 -15 41.5t-20 40.5q-14 22 -31.5 40.5t-40.5 31.5q-42 25 -90 25q-34 -1 -67 -17t-55 -42q-29 -35 -43.5 -80.5t-12.5 -90.5q2 -35 13.5 -68.5t31.5 -60.5
q29 -38 72.5 -66t91.5 -30q25 -1 50 7t45 23q17 14 29.5 32t22.5 38t16 40.5t11 41.5q2 7 2 24.5v26.5zM482 265q1 -7 0.5 -13.5t-1.5 -13.5q-4 -25 -14 -52q1 2 0 -1t-2 -5q-3 -11 -9 -20q-7 -14 -17.5 -26.5t-21.5 -24.5q-29 -33 -69.5 -57t-84.5 -26q-42 -2 -83.5 15
t-72.5 46q-43 39 -68 95.5t-30 114.5q-4 48 5.5 97t35.5 90q11 17 27 30t33 24q13 9 26 18.5t28 15.5q31 14 66 14q40 0 79 -17q45 -20 81.5 -55.5t58.5 -80.5q9 -19 16 -39t10 -41q0 -3 1.5 -16t2.5 -27.5t2 -27.5t1 -17z" />
    <glyph glyph-name="macron" unicode="&#xaf;" horiz-adv-x="288" 
d="M260 726q2 -14 -2 -23l-4 -6q-2 -2 -3 -2q-7 -2 -14 0t-15 2q-21 -1 -42.5 0.5t-43.5 3.5q-12 2 -24.5 -3t-24.5 -5q-11 0 -20 3.5t-19 4.5q-9 1 -18.5 -2t-16.5 3q-8 6 -8.5 18.5t3.5 21.5q2 5 8 5q2 1 5 -0.5t4 0.5t6 0l2 -2l2 -2q7 -4 14 -2t13.5 4t13.5 2
q12 1 24 -0.5t24 -1.5h12q3 1 6 1t6 1q4 1 7 2l6 2q1 1 3 1q3 0 6 -2.5t6 -3.5q5 -1 10 3t10 4q6 -1 12 -3.5t13 -3.5q8 -2 16 -2t16 -2q4 -2 5 -6.5t2 -9.5z" />
    <glyph glyph-name="degree" unicode="&#xb0;" horiz-adv-x="163" 
d="M102 507q0 4 -2 9t-3 7q-4 5 -5.5 10t-4.5 10q-7 10 -19 8q-11 -1 -17.5 -13t-5.5 -23t10.5 -21t20.5 -13q9 -2 14 5q4 5 8 10.5t4 10.5zM135 513q4 -5 2 -12t-3 -14v-1q0 -1 -1 -1q-1 -2 -1 -3t-1 -3q-2 -4 -5 -6t-6 -5q-9 -9 -19 -18t-22 -11q-25 0 -42 14
q-12 11 -19.5 26.5t-9.5 32.5q-2 14 -1.5 27.5t7.5 24.5q4 6 10 9.5t11 8.5q7 6 14.5 11t16.5 5q14 -6 25 -13q10 -6 20 -13.5t14 -15.5q4 -7 7 -14.5t1 -15.5q1 -3 1 -6q0 -2 0.5 -4t0.5 -3z" />
    <glyph glyph-name="plusminus" unicode="&#xb1;" horiz-adv-x="268" 
d="M270 36q2 -14 -2 -23l-4 -6q-2 -2 -3 -2q-7 -2 -14 0t-15 2q-21 -1 -42.5 0.5t-43.5 3.5q-12 2 -24.5 -3t-24.5 -5q-11 0 -20 3.5t-19 4.5q-9 1 -18.5 -2t-16.5 3q-8 6 -8.5 18.5t3.5 21.5q2 5 8 5q2 1 5 -0.5t4 0.5t6 0l2 -2l2 -2q7 -4 14 -2t13.5 4t13.5 2
q12 1 24 -0.5t24 -1.5h12q3 1 6 1t6 1q4 1 7 2l6 2q1 1 3 1q3 0 6 -2.5t6 -3.5q5 -1 10 3t10 4q6 -1 12 -3.5t13 -3.5q8 -2 16 -2t16 -2q4 -2 5 -6.5t2 -9.5zM268 233q-2 -6 -8 -6q-2 0 -4.5 1t-4.5 -1t-6 0l-2 2l-2 2q-7 3 -14 2q-7 -2 -13 -4.5t-13 -2.5q-15 -2 -29 0
q2 -7 3.5 -14t1.5 -14q-1 -10 -4 -19.5t-4 -19.5q-1 -8 2 -18t-3 -17q-7 -8 -19 -8.5t-21 4.5q-4 1 -6 8q0 2 1.5 4.5t-0.5 4.5q-2 1 0 6l2 2q1 0 1 0.5t1 0.5q3 8 2 15q-2 7 -4 13t-2 13q-1 9 -0.5 17.5t1.5 17.5l-9 -3q0 -1 -2 -1q-4 0 -6.5 2.5t-6.5 3.5q-5 1 -9.5 -3.5
t-9.5 -4.5q-7 1 -13 3.5t-12 2.5q-8 2 -16 1.5t-16 2.5q-5 2 -6 6t-2 9q-1 6 -1 12t3 12l3 6q1 0 1.5 0.5t1.5 0.5q7 3 14 0.5t15 -1.5q33 2 66 0l-1 2v2q0 4 2.5 6.5t3.5 6.5q1 5 -3 9.5t-4 9.5q1 7 3.5 13t3.5 12q2 8 1.5 16t2.5 16q2 5 6.5 6t9.5 1q6 1 12 1t11 -3
q4 -2 6 -4q1 -1 1 -1.5t1 -1.5q2 -7 -0.5 -14t-1.5 -14v-29t-2 -29q9 3 17 3q10 0 19.5 -3t19.5 -3q9 -1 18.5 2t16.5 -2q8 -7 9 -19t-3 -21z" />
    <glyph glyph-name="twosuperior" unicode="&#xb2;" horiz-adv-x="219" 
d="M191 253q-3 -7 -11.5 -10.5t-19.5 -4.5t-21 -0.5t-16 0.5q-24 1 -50.5 1h-64.5l28 37q22 27 41 56t36 58q10 17 21.5 41t9.5 41q-2 19 -13.5 36.5t-31.5 19.5q-25 2 -33 -9.5t-10 -27t-3 -30.5t-13 -20q-8 -4 -14.5 0t-9.5 8q-5 11 -5.5 23.5t1.5 22.5v2q0 11 5.5 21
t12.5 18q12 15 31 24t39 9q17 1 33 -6t27 -19q14 -14 20 -32.5t7 -36.5q2 -25 -8 -47.5t-20 -44.5q-5 -9 -8.5 -18t-8.5 -17t-11 -15t-11 -15q-4 -6 -7 -13t-7 -13q-3 -6 -8 -11q17 -1 32.5 -1t31.5 -1q5 -1 10 -1.5t10 -3.5q4 -3 7.5 -8.5t1.5 -12.5z" />
    <glyph glyph-name="threesuperior" unicode="&#xb3;" horiz-adv-x="224" 
d="M195 502q-2 -24 -16 -42.5t-34 -29.5q13 -6 23 -16q14 -12 21 -29t7 -35t-7 -35.5t-21 -29.5q-14 -13 -33 -19t-38 -7q-20 0 -37.5 7t-32.5 17q-13 9 -16.5 18t-1.5 15.5t9 9.5t14 1q11 -4 20 -10.5t20 -10.5h1q5 -2 12.5 -4.5t12.5 -2.5q23 -2 37.5 11t14.5 35
q0 11 -4 22t-12 18q-11 11 -28.5 18t-25.5 7h-10h-12t-15 -1l-2 41h17.5t12.5 1q6 1 10 1q10 0 20 5t18 10q12 6 20 15.5t8 22.5q0 11 -1.5 20.5t-7.5 16.5q-5 6 -15.5 9.5t-21.5 3.5q-17 0 -35 -10q-9 -5 -18 -11t-21 -3q-10 2 -12 9t2 14q11 21 36.5 32.5t48.5 10.5
q19 0 38.5 -6.5t33.5 -20.5q13 -14 18 -32.5t3 -35.5z" />
    <glyph glyph-name="acute" unicode="&#xb4;" horiz-adv-x="162" 
d="M134 767q1 -7 -4.5 -12.5t-8.5 -11.5q-3 -8 -3 -16t-4 -16q-5 -10 -13.5 -16.5t-12.5 -17.5q-6 -17 -13 -33t-16 -32q-3 -5 -4 -13.5t-7 -9.5q-8 -2 -15 1t-14 7q-4 2 -7.5 5t-3.5 7q0 7 3 13t5 13q2 5 2 11t2 11q2 4 6.5 5.5t6.5 5.5q1 3 -0.5 6t-0.5 6l2 2q2 2 4 3.5
t4 3.5q5 6 9 13t7 14q4 8 7 16.5t8 15.5q3 5 7.5 7.5t6.5 7.5q1 1 1 4q1 2 1 5q-1 1 -1 2q-1 0 -1 2q-2 4 2 4q2 1 2 4t2 5q3 3 10 1q10 -2 20 -7.5t11 -15.5z" />
    <glyph glyph-name="mu" unicode="&#xb5;" horiz-adv-x="439" 
d="M411 366q4 -8 1 -19t-11 -16q-7 -5 -15.5 -3t-16.5 3q-18 3 -38 3q1 -42 -1.5 -84t-3.5 -85q-1 -21 3.5 -42t3.5 -42q0 -19 -3 -37t-4 -37q13 -1 25 0.5t25 0.5q8 0 17.5 -3t13.5 -11q2 -6 2.5 -14t-3.5 -13q-3 -5 -9 -6.5t-12 -1.5q-8 -1 -15 0t-15 1q2 -1 -2 -0.5
t-6 0.5q-9 0 -14 4q-11 5 -24 4.5t-25 -1.5q-3 23 -4 47t-1 48l-4 -7q-8 -12 -17 -22.5t-22 -17.5q-34 -20 -75 -17q-34 3 -59 25q-5 5 -10 10.5t-10 12.5q0 -10 1 -14l3 -24q0 -1 0.5 -2t0.5 -2q-1 -7 -4.5 -13.5t-2.5 -13.5q1 -6 3 -11.5t3 -11.5q1 -11 -2 -22.5t-5 -22.5
q-2 -12 -3 -24t-2 -23q-1 -8 -1.5 -14.5t-3.5 -12.5q-3 -7 -11.5 -8t-16.5 0q-6 1 -11 7.5t-6 13.5q-1 12 1.5 24t2.5 25q1 78 9 158q2 23 -2 45.5t-3 45.5q1 18 4.5 35.5t5.5 35.5q1 12 -1 24t0 24q1 7 3.5 14t7.5 11q1 3 1 9q2 13 3 26t3 26q0 2 0.5 5t0.5 5q-4 5 -6 4
t-3.5 -3t-3.5 -3q-5 -2 -8.5 1.5t-8.5 5.5t-9.5 2t-8.5 2q-5 3 -4.5 9t0.5 11q0 6 0.5 13t4.5 12q2 5 7.5 2t10.5 -2q12 0 24.5 -1.5t24.5 -3.5q8 -2 14.5 3t14.5 4q6 0 11 -3.5t11 -4.5q5 0 10 2t9 -1q5 -5 5 -11.5v-12.5q0 -5 -0.5 -10t-2.5 -10q-1 -2 -4.5 -1.5
t-4.5 -1.5q-1 -1 -2.5 0t-2.5 2q0 2 -1 2q-2 2 -3 2q-1 1 -2 1q-4 0 -7 -2.5t-7 -3.5q-6 -1 -12 0q1 -5 1 -9v-8q0 -12 -1.5 -24t-3.5 -23q-4 -29 -4 -59t-1 -59q-2 -27 1 -55t17 -52q7 -12 21.5 -19.5t28.5 -5.5q22 2 44 8t36 23q9 11 12 25t8 28q1 4 4 11l6 14t5 13.5
t2 8.5q-1 19 -4 37.5t-2 37.5q0 9 3.5 18t2.5 19q-1 9 -3.5 18t-2.5 19q-1 14 1 29t4 29q20 -3 40 -4.5t40 -3.5q8 -1 16 -1t16 -2q5 -2 10.5 -4t7.5 -7z" />
    <glyph glyph-name="mu" unicode="&#x3bc;" horiz-adv-x="439" 
d="M411 366q4 -8 1 -19t-11 -16q-7 -5 -15.5 -3t-16.5 3q-18 3 -38 3q1 -42 -1.5 -84t-3.5 -85q-1 -21 3.5 -42t3.5 -42q0 -19 -3 -37t-4 -37q13 -1 25 0.5t25 0.5q8 0 17.5 -3t13.5 -11q2 -6 2.5 -14t-3.5 -13q-3 -5 -9 -6.5t-12 -1.5q-8 -1 -15 0t-15 1q2 -1 -2 -0.5
t-6 0.5q-9 0 -14 4q-11 5 -24 4.5t-25 -1.5q-3 23 -4 47t-1 48l-4 -7q-8 -12 -17 -22.5t-22 -17.5q-34 -20 -75 -17q-34 3 -59 25q-5 5 -10 10.5t-10 12.5q0 -10 1 -14l3 -24q0 -1 0.5 -2t0.5 -2q-1 -7 -4.5 -13.5t-2.5 -13.5q1 -6 3 -11.5t3 -11.5q1 -11 -2 -22.5t-5 -22.5
q-2 -12 -3 -24t-2 -23q-1 -8 -1.5 -14.5t-3.5 -12.5q-3 -7 -11.5 -8t-16.5 0q-6 1 -11 7.5t-6 13.5q-1 12 1.5 24t2.5 25q1 78 9 158q2 23 -2 45.5t-3 45.5q1 18 4.5 35.5t5.5 35.5q1 12 -1 24t0 24q1 7 3.5 14t7.5 11q1 3 1 9q2 13 3 26t3 26q0 2 0.5 5t0.5 5q-4 5 -6 4
t-3.5 -3t-3.5 -3q-5 -2 -8.5 1.5t-8.5 5.5t-9.5 2t-8.5 2q-5 3 -4.5 9t0.5 11q0 6 0.5 13t4.5 12q2 5 7.5 2t10.5 -2q12 0 24.5 -1.5t24.5 -3.5q8 -2 14.5 3t14.5 4q6 0 11 -3.5t11 -4.5q5 0 10 2t9 -1q5 -5 5 -11.5v-12.5q0 -5 -0.5 -10t-2.5 -10q-1 -2 -4.5 -1.5
t-4.5 -1.5q-1 -1 -2.5 0t-2.5 2q0 2 -1 2q-2 2 -3 2q-1 1 -2 1q-4 0 -7 -2.5t-7 -3.5q-6 -1 -12 0q1 -5 1 -9v-8q0 -12 -1.5 -24t-3.5 -23q-4 -29 -4 -59t-1 -59q-2 -27 1 -55t17 -52q7 -12 21.5 -19.5t28.5 -5.5q22 2 44 8t36 23q9 11 12 25t8 28q1 4 4 11l6 14t5 13.5
t2 8.5q-1 19 -4 37.5t-2 37.5q0 9 3.5 18t2.5 19q-1 9 -3.5 18t-2.5 19q-1 14 1 29t4 29q20 -3 40 -4.5t40 -3.5q8 -1 16 -1t16 -2q5 -2 10.5 -4t7.5 -7z" />
    <glyph glyph-name="paragraph" unicode="&#xb6;" horiz-adv-x="490" 
d="M199 542q-5 1 -8.5 2t-8.5 1q-12 1 -22.5 -4.5t-21.5 -9.5q-14 -5 -27.5 -10.5t-24.5 -15.5q-17 -17 -24.5 -41t-7.5 -47q0 -19 5.5 -38.5t16.5 -35.5q15 -21 38 -36t47 -25q6 -2 12 -3.5t13 -3.5q1 26 -1.5 52.5t-0.5 53.5q2 23 7 46.5t7 46.5q1 16 0 32t1 32v4z
M322 538q-19 0 -37.5 -1t-36.5 0q-1 -2 -2 -5.5t1 -4.5q3 0 2 -5t-3 -9q-2 -2 -2 -5q-2 -2 -2 -4q-2 -3 -2 -6t-1 -6q-1 -4 -1 -11q-1 -4 -1 -12q0 -3 0.5 -6t0.5 -6q4 -45 -1 -90.5t-7 -91.5q3 1 5.5 0.5t5.5 -0.5h6.5t2.5 -1q9 -1 18 0t18 0q10 0 15 -2q3 39 4.5 77.5
t10.5 76.5q1 3 1.5 5.5t0.5 5.5q1 3 1 5.5t1 5.5v11q0 3 -0.5 5.5t-0.5 5.5l-2 4q0 2 -0.5 3t-0.5 2q-1 4 -2 8.5t2 5.5q2 0 1.5 3t-0.5 5v12q1 4 2 11.5t3 13.5zM462 569q6 -5 3.5 -15.5t-10.5 -15.5q-10 -5 -22 -4t-23 1q-13 1 -25.5 1t-25.5 1q5 -8 6 -20.5t1 -20.5
q-1 -15 -4 -30t-4 -30q-1 -22 1 -44t0 -44q-2 -29 -8.5 -56.5t-7.5 -56.5l-4 -98t-7 -98q-2 -14 -1 -28t-1 -28q-1 -5 -1.5 -12t-7.5 -9q-6 -2 -9 -3.5t-8 -1.5t-10 2t-8 8q-2 7 -3 16.5t-1 17.5q0 12 0.5 24t0.5 23q1 17 -1.5 34.5t0.5 34.5q2 8 5.5 16t3.5 17q0 7 -2 14
t-2 14q1 14 4 26.5t5 25.5l-15 -3q-11 -2 -23.5 -2t-23.5 1l-2 1q0 -9 0.5 -17.5t-0.5 -17.5q-1 -8 -3.5 -15t-4.5 -15q-1 -9 1.5 -17.5t2.5 -17.5q1 -19 -3.5 -36.5t-6.5 -35.5q-2 -13 -3 -25.5t-3 -24.5q-1 -9 -1.5 -18.5t-4.5 -17.5q-3 -7 -11.5 -9t-16.5 0t-12 12.5
t-4 19.5q1 15 3.5 30t3.5 30q2 46 5 91t8 91q-35 7 -70 21q-25 9 -47 24.5t-36 37.5q-14 23 -18.5 49t-2.5 52q3 35 17 70.5t40 60.5q29 28 70.5 38t81.5 8q37 -2 73 -5.5t73 -3.5q15 -1 30 -1t30 -2q11 -1 21 -3.5t18 -10.5z" />
    <glyph glyph-name="periodcentered" unicode="&#xb7;" horiz-adv-x="112" 
d="M84 312q-5 -5 -8 -11.5t-8 -11.5q-4 -4 -9.5 -3.5t-10.5 2.5q-13 5 -26.5 13t-13.5 22q2 13 14.5 23.5t26.5 10.5q6 0 12.5 -1t11.5 -6q4 -5 5 -11t5 -11q2 -2 2.5 -8t-1.5 -8z" />
    <glyph glyph-name="cedilla" unicode="&#xb8;" horiz-adv-x="279" 
d="M251 -127q0 -23 -10.5 -47.5t-30.5 -36.5q-9 -5 -20 -4t-22 -2q-7 -2 -13.5 -4t-14.5 -3q-11 -2 -21 1.5t-20 7.5q-16 5 -31.5 10t-30.5 11l-16 6t-13 10q-2 3 -1.5 7.5t1.5 8.5q2 7 5 12q5 6 13 7t15 -1q11 -3 22 -8.5t23 -7.5q25 -5 51 -8.5t49 5.5q10 4 16 14.5
t6 21.5q-1 12 -13 19t-23 12t-21.5 8.5t-22.5 4.5q-13 2 -26.5 0.5t-26.5 -2.5l9 37q2 11 3 21t4 21q3 8 7.5 16t12.5 10t18 -1t13 -11t0 -15.5t-5 -15.5q1 1 1 -0.5t-1 -2.5q0 -4 -2 -8q-2 -2 -2.5 -3.5t-2.5 -3.5q5 1 9 1t9 1q14 0 28 -3t27 -10q20 -10 34 -31t14 -44z
" />
    <glyph glyph-name="onesuperior" unicode="&#xb9;" horiz-adv-x="170" 
d="M125 270q-10 -2 -14 5l2 -2h1h-1q-8 -2 -13 -3q-8 0 -17 1.5t-17 -0.5q-6 -3 -12 0q-8 -3 -13 -0.5t-13 3.5q-9 2 -14 4.5t-6 13.5q-1 14 5 20.5t22 2.5h21v12l12 -2l-4 -8h5q-3 -2 -8.5 -2.5t-4.5 7.5v2q0 7 3 14q3 9 2.5 15.5t-0.5 14.5q-1 10 -0.5 19.5t1.5 18.5
q2 15 3 30.5t2 30.5q1 11 -0.5 20.5t1.5 20.5q2 9 2.5 11t-0.5 11q-2 11 0 21.5t4 21.5l-14 1q-6 1 -11 2t-10 6t-6 14t7 15q8 5 16.5 5.5t16.5 -0.5q10 -1 21 -2.5t28 -3.5q-2 -23 -3 -41t-3 -35q-2 -19 -4 -37.5t-3 -37.5q-1 -17 -0.5 -34.5t-1.5 -34.5q-4 -27 -6 -54
v-10.5t-1 -10.5q7 -2 9.5 -3.5t9.5 0.5q12 2 17.5 -5.5t5.5 -16.5t-5.5 -16t-14.5 -4h3z" />
    <glyph glyph-name="ordmasculine" unicode="&#xba;" horiz-adv-x="320" 
d="M295 183q1 -6 0.5 -12.5t-2.5 -11.5q-1 -2 -2 -3t-2 -3q-1 -1 -3 -1q-7 -3 -14 -0.5t-15 2.5q-42 -2 -86 3q-12 2 -24.5 -3t-24.5 -4q-11 0 -20 3t-19 4q-9 1 -18.5 -1.5t-16.5 2.5q-8 7 -8.5 19t3.5 21q2 6 8 6q2 0 5 -1t4 1q1 1 6 -1l2 -2q1 0 1 -0.5t1 -0.5
q7 -5 14 -3t13.5 4t13.5 3q12 1 24 -0.5t24 -1.5h12q5 0 13 2l6 2l6 2h3q3 0 6 -2t6 -3q5 -2 10 2.5t10 3.5q6 0 12 -2.5t13 -4.5q8 -1 16 -1t16 -3q4 -2 5 -6.5t2 -8.5zM253 447q1 3 1 12.5t-1 19.5t-1.5 19.5t-1.5 12.5q-4 12 -6.5 24.5t-6.5 24.5q-6 20 -16.5 38
t-25.5 32q-9 8 -21 13.5t-24 5.5q-20 -1 -36 -16t-26 -32q-16 -27 -22 -58.5t-6 -62.5q0 -34 13.5 -67.5t36.5 -59.5q11 -13 25 -24t31 -13q14 -1 26.5 5.5t21.5 16.5q11 13 17 29t11 32q3 12 5.5 24t5.5 24zM300 442q-1 -10 -2.5 -19t-3.5 -19q0 2 -0.5 -1.5t-0.5 -5.5
q-2 -3 -2.5 -6.5t-2.5 -7.5q-4 -10 -10 -18.5t-11 -17.5q-10 -17 -21.5 -33t-27.5 -28q-11 -8 -24 -12.5t-26 -5.5q-28 -1 -54 13.5t-43 35.5q-27 34 -39.5 76.5t-15.5 84.5q-2 35 0 70t18 66q6 11 14 20l16 18q8 8 15 17.5t16 16.5q11 8 25 12.5t28 4.5q34 0 63 -21
q26 -19 44 -47.5t28 -59.5q11 -29 12 -58q0 -3 1 -13.5t2 -22.5t1.5 -23t0.5 -16z" />
    <glyph glyph-name="guillemotright" unicode="&#xbb;" horiz-adv-x="342" 
d="M194 223q-13 -17 -22 -36.5t-23 -36.5q-13 -17 -28 -31t-29 -31q-12 -14 -21 -31t-25 -27q-5 -4 -15 -4q-8 2 -16.5 10t-6.5 16q2 6 6.5 11t8.5 10q-2 -1 0 1.5t4 4.5t5 3.5t5 3.5q14 11 22 28q15 30 38 56t43 54q-11 13 -23 23.5t-21 24.5q-4 5 -4.5 11.5t-4.5 11.5
q-5 5 -10 8t-10 8q-7 8 -11 18t-9 20q-6 11 -12.5 20t-12.5 19q-5 8 -10 15.5t-1 15.5q2 6 7.5 11t11.5 6q10 3 19 -4q13 -10 19.5 -24.5t16.5 -27.5q29 -38 56 -77.5t53 -79.5zM314 223q-13 -17 -22 -36.5t-23 -36.5q-13 -17 -28 -31t-29 -31q-12 -14 -21 -31t-25 -27
q-5 -4 -15 -4q-8 2 -16.5 10t-6.5 16q2 6 6.5 11t8.5 10q-2 -1 0 1.5t4 4.5t5 3.5t5 3.5q14 11 22 28q15 30 38 56t43 54q-11 13 -23 23.5t-21 24.5q-4 5 -4.5 11.5t-4.5 11.5q-5 5 -10 8t-10 8q-7 8 -11 18t-9 20q-6 11 -12.5 20t-12.5 19q-5 8 -10 15.5t-1 15.5
q2 6 7.5 11t11.5 6q10 3 19 -4q13 -10 19.5 -24.5t16.5 -27.5q29 -38 56 -77.5t53 -79.5z" />
    <glyph glyph-name="onequarter" unicode="&#xbc;" horiz-adv-x="497" 
d="M372 528q3 -5 1.5 -11.5t-3.5 -11.5t-5 -10q-2 -2 -4 -4.5t0 -3.5q2 -2 -1 -6t-5 -6l-4 -4q-1 -1 -2 -1.5t-2 -1.5l-6 -9q-2 -2 -3 -5t-3 -5t-2.5 -5t-1.5 -5q-2 -5 -4 -11q-14 -42 -34.5 -80t-39.5 -78q-8 -18 -13.5 -37t-14.5 -36q-3 -6 -8 -11.5t-9 -11.5
q-5 -8 -5.5 -16.5t-4.5 -16.5q-6 -17 -16.5 -30.5t-19.5 -28.5q-6 -11 -11.5 -21t-11.5 -21q-4 -8 -8 -15.5t-10 -13.5q-5 -5 -14 -3.5t-15 5.5q-8 5 -7.5 16t4.5 19q5 14 13 25.5t14 24.5q21 45 44 89l46 88q14 26 22.5 53.5t21.5 53.5q10 20 22.5 38.5t23.5 38.5
q7 14 11.5 28t12.5 27q5 8 11.5 16t15.5 9q7 1 14 -2.5t11 -8.5zM133 270q-10 -2 -14 5l2 -2h1h-1q-8 -2 -13 -3q-8 0 -17 1.5t-17 -0.5q-6 -3 -12 0q-8 -3 -13 -0.5t-13 3.5q-9 2 -14 4.5t-6 13.5q-1 14 5 20.5t22 2.5h21v12l12 -2l-4 -8h5q-3 -2 -8.5 -2.5t-4.5 7.5v2
q0 7 3 14q3 9 2.5 15.5t-0.5 14.5q-1 10 -0.5 19.5t1.5 18.5q2 15 3 30.5t2 30.5q1 11 -0.5 20.5t1.5 20.5q2 9 2.5 11t-0.5 11q-2 11 0 21.5t4 21.5l-14 1q-6 1 -11 2t-10 6t-6 14t7 15q8 5 16.5 5.5t16.5 -0.5q10 -1 21 -2.5t28 -3.5q-2 -23 -3 -41t-3 -35
q-2 -19 -4 -37.5t-3 -37.5q-1 -17 -0.5 -34.5t-1.5 -34.5q-4 -27 -6 -54v-10.5t-1 -10.5q7 -2 9.5 -3.5t9.5 0.5q12 2 17.5 -5.5t5.5 -16.5t-5.5 -16t-14.5 -4h3zM389 266q-9 -14 -16 -26q-7 -11 -13 -22.5t-14 -22.5q-4 -4 -7.5 -7t-5.5 -8q-3 -5 -5 -9t-4 -9
q16 -2 31.5 -3t32.5 -3q0 4 -0.5 7.5t-0.5 7.5q-1 23 -0.5 47t2.5 48zM459 52q2 -12 -3.5 -22t-21.5 -5q-18 0 -36 3q-5 1 -10 -2t-19 2q-4 2 -4.5 2t-4.5 -1q-14 -2 -18 7.5t-2 19.5q1 5 4 10t11 4q2 1 5.5 0.5t6.5 -2.5h2q4 2 11 2q1 7 1.5 14t0.5 15v3q0 8 1 12
q-34 2 -68 3.5t-74 3.5q35 54 68.5 102.5t65.5 96.5q2 3 5.5 8.5t7 10.5t8.5 8t10 1l8 -2l8 -2h1h3q5 0 8.5 -3t3.5 -8q0 -26 -3 -53q-2 -32 -4.5 -63t-2.5 -63q8 -1 16 -1.5t15 -4.5q11 -6 10.5 -17.5t-13.5 -14.5q-13 -4 -29 -4q0 -10 -1 -20t-3 -20q0 -6 -1 -9l-1 3
q-4 -3 -4.5 -3.5l-2.5 -2.5q2 0 2 -1v3.5t-1 4.5l1 1l2 1q7 4 12 1t10 -4q8 -1 13 -3.5t6 -10.5z" />
    <glyph glyph-name="onehalf" unicode="&#xbd;" horiz-adv-x="499" 
d="M479 13q-3 -7 -11.5 -10.5t-19.5 -4.5t-21 -0.5t-16 0.5q-24 1 -50.5 1h-64.5l28 37q22 27 41 56t36 58q10 17 21.5 41t9.5 41q-2 19 -13.5 36.5t-31.5 19.5q-25 2 -33 -9.5t-10 -27t-3 -30.5t-13 -20q-8 -4 -14.5 0t-9.5 8q-5 11 -5.5 23.5t1.5 22.5v2q0 11 5.5 21
t12.5 18q12 15 31 24t39 9q17 1 33 -6t27 -19q14 -14 20 -32.5t7 -36.5q2 -25 -8 -47.5t-20 -44.5q-5 -9 -8.5 -18t-8.5 -17t-11 -15t-11 -15q-4 -6 -7 -13t-7 -13q-3 -6 -8 -11q17 -1 32.5 -1t31.5 -1q5 -1 10 -1.5t10 -3.5q4 -3 7.5 -8.5t1.5 -12.5zM133 270q-10 -2 -14 5
l2 -2h1h-1q-8 -2 -13 -3q-8 0 -17 1.5t-17 -0.5q-6 -3 -12 0q-8 -3 -13 -0.5t-13 3.5q-9 2 -14 4.5t-6 13.5q-1 14 5 20.5t22 2.5h21v12l12 -2l-4 -8h5q-3 -2 -8.5 -2.5t-4.5 7.5v2q0 7 3 14q3 9 2.5 15.5t-0.5 14.5q-1 10 -0.5 19.5t1.5 18.5q2 15 3 30.5t2 30.5
q1 11 -0.5 20.5t1.5 20.5q2 9 2.5 11t-0.5 11q-2 11 0 21.5t4 21.5l-14 1q-6 1 -11 2t-10 6t-6 14t7 15q8 5 16.5 5.5t16.5 -0.5q10 -1 21 -2.5t28 -3.5q-2 -23 -3 -41t-3 -35q-2 -19 -4 -37.5t-3 -37.5q-1 -17 -0.5 -34.5t-1.5 -34.5q-4 -27 -6 -54v-10.5t-1 -10.5
q7 -2 9.5 -3.5t9.5 0.5q12 2 17.5 -5.5t5.5 -16.5t-5.5 -16t-14.5 -4h3zM362 528q3 -5 1.5 -11.5t-3.5 -11.5t-5 -10q-2 -2 -4 -4.5t0 -3.5q2 -2 -1 -6t-5 -6l-4 -4q-1 -1 -2 -1.5t-2 -1.5l-6 -9q-2 -2 -3 -5t-3 -5t-2.5 -5t-1.5 -5q-2 -5 -4 -11q-14 -42 -34.5 -80
t-39.5 -78q-8 -18 -13.5 -37t-14.5 -36q-3 -6 -8 -11.5t-9 -11.5q-5 -8 -5.5 -16.5t-4.5 -16.5q-6 -17 -16.5 -30.5t-19.5 -28.5q-6 -11 -11.5 -21t-11.5 -21q-4 -8 -8 -15.5t-10 -13.5q-5 -5 -14 -3.5t-15 5.5q-8 5 -7.5 16t4.5 19q5 14 13 25.5t14 24.5q21 45 44 89l46 88
q14 26 22.5 53.5t21.5 53.5q10 20 22.5 38.5t23.5 38.5q7 14 11.5 28t12.5 27q5 8 11.5 16t15.5 9q7 1 14 -2.5t11 -8.5z" />
    <glyph glyph-name="threequarters" unicode="&#xbe;" horiz-adv-x="537" 
d="M203 502q-2 -24 -16 -42.5t-34 -29.5q13 -6 23 -16q14 -12 21 -29t7 -35t-7 -35.5t-21 -29.5q-14 -13 -33 -19t-38 -7q-20 0 -37.5 7t-32.5 17q-13 9 -16.5 18t-1.5 15.5t9 9.5t14 1q11 -4 20 -10.5t20 -10.5h1q5 -2 12.5 -4.5t12.5 -2.5q23 -2 37.5 11t14.5 35
q0 11 -4 22t-12 18q-11 11 -28.5 18t-25.5 7h-10h-12t-15 -1l-2 41h17.5t12.5 1q6 1 10 1q10 0 20 5t18 10q12 6 20 15.5t8 22.5q0 11 -1.5 20.5t-7.5 16.5q-5 6 -15.5 9.5t-21.5 3.5q-17 0 -35 -10q-9 -5 -18 -11t-21 -3q-10 2 -12 9t2 14q11 21 36.5 32.5t48.5 10.5
q19 0 38.5 -6.5t33.5 -20.5q13 -14 18 -32.5t3 -35.5zM412 528q3 -5 1.5 -11.5t-3.5 -11.5t-5 -10q-2 -2 -4 -4.5t0 -3.5q2 -2 -1 -6t-5 -6l-4 -4q-1 -1 -2 -1.5t-2 -1.5l-6 -9q-2 -2 -3 -5t-3 -5t-2.5 -5t-1.5 -5q-2 -5 -4 -11q-14 -42 -34.5 -80t-39.5 -78
q-8 -18 -13.5 -37t-14.5 -36q-3 -6 -8 -11.5t-9 -11.5q-5 -8 -5.5 -16.5t-4.5 -16.5q-6 -17 -16.5 -30.5t-19.5 -28.5q-6 -11 -11.5 -21t-11.5 -21q-4 -8 -8 -15.5t-10 -13.5q-5 -5 -14 -3.5t-15 5.5q-8 5 -7.5 16t4.5 19q5 14 13 25.5t14 24.5q21 45 44 89l46 88
q14 26 22.5 53.5t21.5 53.5q10 20 22.5 38.5t23.5 38.5q7 14 11.5 28t12.5 27q5 8 11.5 16t15.5 9q7 1 14 -2.5t11 -8.5zM429 266q-9 -14 -16 -26q-7 -11 -13 -22.5t-14 -22.5q-4 -4 -7.5 -7t-5.5 -8q-3 -5 -5 -9t-4 -9q16 -2 31.5 -3t32.5 -3q0 4 -0.5 7.5t-0.5 7.5
q-1 23 -0.5 47t2.5 48zM499 52q2 -12 -3.5 -22t-21.5 -5q-18 0 -36 3q-5 1 -10 -2t-19 2q-4 2 -4.5 2t-4.5 -1q-14 -2 -18 7.5t-2 19.5q1 5 4 10t11 4q2 1 5.5 0.5t6.5 -2.5h2q4 2 11 2q1 7 1.5 14t0.5 15v3q0 8 1 12q-34 2 -68 3.5t-74 3.5q35 54 68.5 102.5t65.5 96.5
q2 3 5.5 8.5t7 10.5t8.5 8t10 1l8 -2l8 -2h1h3q5 0 8.5 -3t3.5 -8q0 -26 -3 -53q-2 -32 -4.5 -63t-2.5 -63q8 -1 16 -1.5t15 -4.5q11 -6 10.5 -17.5t-13.5 -14.5q-13 -4 -29 -4q0 -10 -1 -20t-3 -20q0 -6 -1 -9l-1 3q-4 -3 -4.5 -3.5l-2.5 -2.5q2 0 2 -1v3.5t-1 4.5l1 1l2 1
q7 4 12 1t10 -4q8 -1 13 -3.5t6 -10.5z" />
    <glyph glyph-name="questiondown" unicode="&#xbf;" horiz-adv-x="294" 
d="M261 416q0 -25 -9.5 -50t-28.5 -42q-13 -12 -28.5 -19.5t-32 -14t-33 -13.5t-30.5 -18q-24 -19 -36 -49.5t-11 -60.5q1 -15 5.5 -30t10.5 -29q8 -17 17.5 -33.5t26.5 -26.5q14 -8 32 -8t35 5q7 3 15 6.5t16 5.5t16 2t14 -4q9 -8 8 -16t-7 -13.5t-13 -9.5
q-5 -4 -11.5 -6.5t-11.5 -5.5q2 1 -3.5 -1t-7.5 -3q-7 -2 -13.5 -1.5t-13.5 0.5q-20 0 -41 2.5t-40 10.5q-17 7 -31 20t-23 29q-14 24 -19.5 51.5t-4.5 55.5q0 23 4 45.5t12 44.5q5 11 10.5 23t14.5 21q8 8 19.5 13.5t21.5 13.5q11 8 22 16.5t24 13.5q14 5 28 7.5t26 10.5
q12 9 16.5 24t5.5 29q1 9 0 18.5t2 18.5q1 4 4.5 6.5t7.5 4.5q8 4 13 4q5 -1 8.5 -4.5t6.5 -8.5q5 -8 6 -17t1 -18zM266 538q-2 -13 -15 -23.5t-26 -10.5q-7 0 -13 1t-11 6q-4 5 -5.5 11t-4.5 11q-2 2 -2.5 8t1.5 8q5 5 8 11.5t8 11.5q4 4 9.5 3.5t10.5 -2.5q11 -5 20 -11
q8 -5 14 -11t6 -13z" />
    <glyph glyph-name="Agrave" unicode="&#xc0;" horiz-adv-x="470" 
d="M256 681q0 -5 -3.5 -7.5t-7.5 -4.5q-7 -4 -14 -7.5t-15 -1.5q-6 2 -7 10t-4 14q-9 15 -16 31.5t-13 33.5q-4 10 -12.5 17t-13.5 16q-3 8 -3.5 16.5t-3.5 16.5q-3 6 -8.5 11t-4.5 12q1 10 11 16t20 8q7 2 11 -2q2 -2 1.5 -5t1.5 -3t2.5 -1.5t-0.5 -2.5q0 -2 -1 -3
q0 -1 -1 -2q0 -3 1 -4q0 -3 1 -4q2 -5 6.5 -8t7.5 -7q5 -8 8 -16t7 -16l7.5 -15t8.5 -12q2 -2 4.5 -4t4.5 -4q0 -1 1 -1q1 -3 -0.5 -6t-0.5 -6q2 -5 6.5 -6t6.5 -6t2 -10.5t2 -10.5q2 -7 5 -13t3 -13zM304 246q-3 13 -6 25.5t-7 24.5q-7 29 -20 55.5t-21 55.5
q-6 23 -9.5 45.5t-9.5 44.5q-2 7 -4 13t-4 13q-2 -2 -3 -5.5t-3 -5.5q-1 -2 -2 -5t-2 -5q-1 -3 -1.5 -5.5t-0.5 -5.5q-2 -6 -2 -11q-6 -42 -20.5 -82t-26.5 -82q-5 -17 -7.5 -35.5t-7.5 -35.5q1 0 1.5 -0.5t1.5 -0.5q1 -1 4 -1q5 0 10 2.5t10 3.5q8 2 17 0.5t18 -2.5h15.5
t15.5 2q6 2 11 4h2q3 0 5 -2.5t5 -3.5q5 -1 8.5 3t8.5 3q5 0 10 -2.5t10 -4.5h4zM500 1v-10.5t-2 -10.5q-3 -3 -7 -3q-2 0 -3.5 1t-2.5 -1q-2 -2 -5 0q0 1 -0.5 1t-0.5 1l-2 2l-4 2h-3q-5 0 -9.5 -2.5t-9.5 -3.5q-8 -2 -17 -1.5t-17 0.5q-17 2 -30 -2q-2 -2 -5 -2.5t-5 -2.5
h-2q-3 0 -5 2t-5 3q-4 1 -7.5 -3t-7.5 -4q-5 1 -10 3t-10 3q-7 2 -13.5 1.5t-12.5 2.5q-5 2 -5.5 8t-0.5 11q-1 7 -0.5 13.5t4.5 12.5q4 5 11.5 2t13.5 -2q21 1 43 0q-9 14 -10 21q-5 14 -7 28.5t-7 28.5q-8 23 -14.5 47t-13.5 47q-5 1 -9 2.5t-8 1.5q-18 -1 -36 0.5
t-36 3.5q-11 2 -20.5 -2.5t-20.5 -4.5q-8 1 -16 4t-16 4q-7 1 -13.5 -1t-12.5 0v-9.5t-1 -9.5q-4 -17 -12 -31.5t-14 -30.5q-5 -13 -9 -25.5t-9 -26.5q-2 -6 -5 -13t-8 -12l-2 -2q8 3 15 3q8 -1 15 -4t15 -4q7 -1 14 1.5t12 -1.5t6 -11t1 -13q0 -5 -0.5 -10.5t-2.5 -9.5
q-2 -3 -6.5 -1.5t-6.5 -1.5q-2 -2 -4 0l-2 2l-1 2l-4 2q-2 1 -4 1q-5 0 -9.5 -2t-9.5 -4q-8 -2 -17 -0.5t-17 2.5q-17 2 -30 -1q-2 -1 -5 -2t-5 -2q-1 0 -1 -0.5t-1 -0.5q-3 1 -5 3t-5 3q-4 2 -7.5 -2t-8.5 -4q-5 1 -9.5 3.5t-9.5 3.5q-7 2 -13.5 2t-12.5 3q-5 2 -5 8.5
v11.5q0 6 1 13t5 12t11 2t14 -3q12 1 24.5 0t25.5 -3q2 11 5 22t4 16q4 14 9.5 26t9.5 26q13 47 28 93t32 91q10 27 13.5 55t11.5 55q7 21 16.5 41t16.5 40q5 14 7.5 29t7.5 29q2 5 4 9.5t5 8.5q-2 2 -4 3q-4 1 -7 -3t-7 -4q-5 1 -9.5 3.5t-9.5 3.5q-6 2 -12 2t-12 2
q-5 3 -5 9v11q0 6 0.5 13t4.5 12t11 2t13 -2q16 1 31.5 -0.5t31.5 -3.5q10 -2 19 3t18 4q8 0 14.5 -3t14.5 -4q6 -1 12.5 1.5t11.5 -1.5t6 -10.5t1 -13.5q0 -5 -0.5 -10t-2.5 -10q-2 -2 -6 -1t-6 -2q0 -1 -1.5 -0.5t-2.5 1.5q-1 0 -1 0.5t-1 0.5q0 2 -1 2q-2 2 -3 2
q-2 1 -4 1q-5 0 -9 -2.5t-9 -3.5q-9 -1 -18 0q1 -3 1.5 -5.5t0.5 -5.5q1 -2 1 -5.5t2 -3.5q4 1 3.5 -4t0.5 -9q0 -2 -1 -5t0 -5q0 -3 0.5 -6t0.5 -6q1 -3 3 -11q1 -3 3 -11q3 -5 5 -10q19 -42 29.5 -85t24.5 -86q6 -20 15 -37.5t14 -36.5q2 -8 1.5 -15.5t1.5 -14.5
q2 -9 7.5 -16.5t8.5 -15.5q7 -17 8.5 -34.5t5.5 -34.5q2 -12 5.5 -24t6.5 -24q2 -8 4 -23t3 -26l12 4t13 2q8 0 15.5 -3t15.5 -3q7 -1 14 2t12 -1q5 -3 6.5 -10t1.5 -13z" />
    <glyph glyph-name="Aacute" unicode="&#xc1;" horiz-adv-x="470" 
d="M319 845q1 -7 -4.5 -12t-8.5 -11q-3 -8 -3.5 -16.5t-3.5 -15.5q-5 -10 -13.5 -17t-12.5 -17q-6 -17 -13 -33.5t-16 -31.5q-3 -6 -4 -14t-7 -10q-8 -1 -15 2t-14 7q-4 2 -7.5 4.5t-3.5 7.5q0 7 3 13t5 13q2 5 1.5 10.5t1.5 10.5t7 6t7 6q1 3 -0.5 6t-0.5 6l1 1q2 2 4.5 4
t4.5 4q5 5 8.5 12l7.5 15t7 16t8 16q3 4 7.5 7t6.5 8q1 1 1 4q2 2 0 4q0 2 -1 2v3q-1 1 -0.5 2.5t2.5 1.5t1.5 3t1.5 5q4 4 11 2q10 -2 20 -8t11 -16zM304 246q-3 13 -6 25.5t-7 24.5q-7 29 -20 55.5t-21 55.5q-6 23 -9.5 45.5t-9.5 44.5q-2 7 -4 13t-4 13q-2 -2 -3 -5.5
t-3 -5.5q-1 -2 -2 -5t-2 -5q-1 -3 -1.5 -5.5t-0.5 -5.5q-2 -6 -2 -11q-6 -42 -20.5 -82t-26.5 -82q-5 -17 -7.5 -35.5t-7.5 -35.5q1 0 1.5 -0.5t1.5 -0.5q1 -1 4 -1q5 0 10 2.5t10 3.5q8 2 17 0.5t18 -2.5h15.5t15.5 2q6 2 11 4h2q3 0 5 -2.5t5 -3.5q5 -1 8.5 3t8.5 3
q5 0 10 -2.5t10 -4.5h4zM500 1v-10.5t-2 -10.5q-3 -3 -7 -3q-2 0 -3.5 1t-2.5 -1q-2 -2 -5 0q0 1 -0.5 1t-0.5 1l-2 2l-4 2h-3q-5 0 -9.5 -2.5t-9.5 -3.5q-8 -2 -17 -1.5t-17 0.5q-17 2 -30 -2q-2 -2 -5 -2.5t-5 -2.5h-2q-3 0 -5 2t-5 3q-4 1 -7.5 -3t-7.5 -4q-5 1 -10 3
t-10 3q-7 2 -13.5 1.5t-12.5 2.5q-5 2 -5.5 8t-0.5 11q-1 7 -0.5 13.5t4.5 12.5q4 5 11.5 2t13.5 -2q21 1 43 0q-9 14 -10 21q-5 14 -7 28.5t-7 28.5q-8 23 -14.5 47t-13.5 47q-5 1 -9 2.5t-8 1.5q-18 -1 -36 0.5t-36 3.5q-11 2 -20.5 -2.5t-20.5 -4.5q-8 1 -16 4t-16 4
q-7 1 -13.5 -1t-12.5 0v-9.5t-1 -9.5q-4 -17 -12 -31.5t-14 -30.5q-5 -13 -9 -25.5t-9 -26.5q-2 -6 -5 -13t-8 -12l-2 -2q8 3 15 3q8 -1 15 -4t15 -4q7 -1 14 1.5t12 -1.5t6 -11t1 -13q0 -5 -0.5 -10.5t-2.5 -9.5q-2 -3 -6.5 -1.5t-6.5 -1.5q-2 -2 -4 0l-2 2l-1 2l-4 2
q-2 1 -4 1q-5 0 -9.5 -2t-9.5 -4q-8 -2 -17 -0.5t-17 2.5q-17 2 -30 -1q-2 -1 -5 -2t-5 -2q-1 0 -1 -0.5t-1 -0.5q-3 1 -5 3t-5 3q-4 2 -7.5 -2t-8.5 -4q-5 1 -9.5 3.5t-9.5 3.5q-7 2 -13.5 2t-12.5 3q-5 2 -5 8.5v11.5q0 6 1 13t5 12t11 2t14 -3q12 1 24.5 0t25.5 -3
q2 11 5 22t4 16q4 14 9.5 26t9.5 26q13 47 28 93t32 91q10 27 13.5 55t11.5 55q7 21 16.5 41t16.5 40q5 14 7.5 29t7.5 29q2 5 4 9.5t5 8.5q-2 2 -4 3q-4 1 -7 -3t-7 -4q-5 1 -9.5 3.5t-9.5 3.5q-6 2 -12 2t-12 2q-5 3 -5 9v11q0 6 0.5 13t4.5 12t11 2t13 -2q16 1 31.5 -0.5
t31.5 -3.5q10 -2 19 3t18 4q8 0 14.5 -3t14.5 -4q6 -1 12.5 1.5t11.5 -1.5t6 -10.5t1 -13.5q0 -5 -0.5 -10t-2.5 -10q-2 -2 -6 -1t-6 -2q0 -1 -1.5 -0.5t-2.5 1.5q-1 0 -1 0.5t-1 0.5q0 2 -1 2q-2 2 -3 2q-2 1 -4 1q-5 0 -9 -2.5t-9 -3.5q-9 -1 -18 0q1 -3 1.5 -5.5
t0.5 -5.5q1 -2 1 -5.5t2 -3.5q4 1 3.5 -4t0.5 -9q0 -2 -1 -5t0 -5q0 -3 0.5 -6t0.5 -6q1 -3 3 -11q1 -3 3 -11q3 -5 5 -10q19 -42 29.5 -85t24.5 -86q6 -20 15 -37.5t14 -36.5q2 -8 1.5 -15.5t1.5 -14.5q2 -9 7.5 -16.5t8.5 -15.5q7 -17 8.5 -34.5t5.5 -34.5q2 -12 5.5 -24
t6.5 -24q2 -8 4 -23t3 -26l12 4t13 2q8 0 15.5 -3t15.5 -3q7 -1 14 2t12 -1q5 -3 6.5 -10t1.5 -13z" />
    <glyph glyph-name="Acircumflex" unicode="&#xc2;" horiz-adv-x="470" 
d="M325 719q5 -10 -2 -22.5t-18 -17.5q-3 -2 -6 0.5t-6 4.5v-1h-1q1 0 -2 3q-1 1 -1 2.5t-1 3.5q-3 8 -13 10q-11 3 -20 9q-8 6 -16 12.5t-16 12.5q-6 -5 -10 -12t-12 -12q-2 -2 -4.5 0t-4.5 0q-3 -2 -4.5 -6t-3.5 -7q-4 -5 -10.5 -5t-11.5 -3q-7 -3 -13 -8t-14 -3
q-5 1 -7.5 4.5t-5.5 7.5t-5.5 8t-3.5 9t2 8.5t7.5 6.5t9.5 6t9 6q20 15 41 28l42 26q9 -7 20 -9.5t19 -8.5q10 -7 17 -16t16 -17q7 -6 15.5 -9t13.5 -11zM304 246q-3 13 -6 25.5t-7 24.5q-7 29 -20 55.5t-21 55.5q-6 23 -9.5 45.5t-9.5 44.5q-2 7 -4 13t-4 13q-2 -2 -3 -5.5
t-3 -5.5q-1 -2 -2 -5t-2 -5q-1 -3 -1.5 -5.5t-0.5 -5.5q-2 -6 -2 -11q-6 -42 -20.5 -82t-26.5 -82q-5 -17 -7.5 -35.5t-7.5 -35.5q1 0 1.5 -0.5t1.5 -0.5q1 -1 4 -1q5 0 10 2.5t10 3.5q8 2 17 0.5t18 -2.5h15.5t15.5 2q6 2 11 4h2q3 0 5 -2.5t5 -3.5q5 -1 8.5 3t8.5 3
q5 0 10 -2.5t10 -4.5h4zM500 1v-10.5t-2 -10.5q-3 -3 -7 -3q-2 0 -3.5 1t-2.5 -1q-2 -2 -5 0q0 1 -0.5 1t-0.5 1l-2 2l-4 2h-3q-5 0 -9.5 -2.5t-9.5 -3.5q-8 -2 -17 -1.5t-17 0.5q-17 2 -30 -2q-2 -2 -5 -2.5t-5 -2.5h-2q-3 0 -5 2t-5 3q-4 1 -7.5 -3t-7.5 -4q-5 1 -10 3
t-10 3q-7 2 -13.5 1.5t-12.5 2.5q-5 2 -5.5 8t-0.5 11q-1 7 -0.5 13.5t4.5 12.5q4 5 11.5 2t13.5 -2q21 1 43 0q-9 14 -10 21q-5 14 -7 28.5t-7 28.5q-8 23 -14.5 47t-13.5 47q-5 1 -9 2.5t-8 1.5q-18 -1 -36 0.5t-36 3.5q-11 2 -20.5 -2.5t-20.5 -4.5q-8 1 -16 4t-16 4
q-7 1 -13.5 -1t-12.5 0v-9.5t-1 -9.5q-4 -17 -12 -31.5t-14 -30.5q-5 -13 -9 -25.5t-9 -26.5q-2 -6 -5 -13t-8 -12l-2 -2q8 3 15 3q8 -1 15 -4t15 -4q7 -1 14 1.5t12 -1.5t6 -11t1 -13q0 -5 -0.5 -10.5t-2.5 -9.5q-2 -3 -6.5 -1.5t-6.5 -1.5q-2 -2 -4 0l-2 2l-1 2l-4 2
q-2 1 -4 1q-5 0 -9.5 -2t-9.5 -4q-8 -2 -17 -0.5t-17 2.5q-17 2 -30 -1q-2 -1 -5 -2t-5 -2q-1 0 -1 -0.5t-1 -0.5q-3 1 -5 3t-5 3q-4 2 -7.5 -2t-8.5 -4q-5 1 -9.5 3.5t-9.5 3.5q-7 2 -13.5 2t-12.5 3q-5 2 -5 8.5v11.5q0 6 1 13t5 12t11 2t14 -3q12 1 24.5 0t25.5 -3
q2 11 5 22t4 16q4 14 9.5 26t9.5 26q13 47 28 93t32 91q10 27 13.5 55t11.5 55q7 21 16.5 41t16.5 40q5 14 7.5 29t7.5 29q2 5 4 9.5t5 8.5q-2 2 -4 3q-4 1 -7 -3t-7 -4q-5 1 -9.5 3.5t-9.5 3.5q-6 2 -12 2t-12 2q-5 3 -5 9v11q0 6 0.5 13t4.5 12t11 2t13 -2q16 1 31.5 -0.5
t31.5 -3.5q10 -2 19 3t18 4q8 0 14.5 -3t14.5 -4q6 -1 12.5 1.5t11.5 -1.5t6 -10.5t1 -13.5q0 -5 -0.5 -10t-2.5 -10q-2 -2 -6 -1t-6 -2q0 -1 -1.5 -0.5t-2.5 1.5q-1 0 -1 0.5t-1 0.5q0 2 -1 2q-2 2 -3 2q-2 1 -4 1q-5 0 -9 -2.5t-9 -3.5q-9 -1 -18 0q1 -3 1.5 -5.5
t0.5 -5.5q1 -2 1 -5.5t2 -3.5q4 1 3.5 -4t0.5 -9q0 -2 -1 -5t0 -5q0 -3 0.5 -6t0.5 -6q1 -3 3 -11q1 -3 3 -11q3 -5 5 -10q19 -42 29.5 -85t24.5 -86q6 -20 15 -37.5t14 -36.5q2 -8 1.5 -15.5t1.5 -14.5q2 -9 7.5 -16.5t8.5 -15.5q7 -17 8.5 -34.5t5.5 -34.5q2 -12 5.5 -24
t6.5 -24q2 -8 4 -23t3 -26l12 4t13 2q8 0 15.5 -3t15.5 -3q7 -1 14 2t12 -1q5 -3 6.5 -10t1.5 -13z" />
    <glyph glyph-name="Atilde" unicode="&#xc3;" horiz-adv-x="470" 
d="M339 717q-3 -5 -7.5 -8.5t-9.5 -6.5q-6 -3 -11.5 -6.5t-11.5 -6.5q-10 -5 -20.5 -7.5t-21.5 -0.5q-22 2 -39 14q-8 5 -14 11t-14 10q-5 2 -9.5 0.5t-9.5 0.5q-4 2 -8.5 3t-9.5 -1q-6 -3 -11.5 -9t-12.5 -4q-10 3 -18.5 10.5t-9.5 17.5q-1 5 3.5 7.5t7.5 6.5q0 1 1 1
q1 1 1.5 1t1.5 1q2 1 3.5 0.5t3.5 -0.5q8 0 15 5q8 6 17 10t19 4t19.5 -5.5t18.5 -11.5t18 -10.5t19 -4.5q3 0 6 -4t5 -2q4 5 11 4t13 1q7 2 12 7.5t13 5.5q5 0 8.5 -2.5t7.5 -5.5l5 -3l4 -4q4 -3 5.5 -8t-0.5 -10zM304 246q-3 13 -6 25.5t-7 24.5q-7 29 -20 55.5t-21 55.5
q-6 23 -9.5 45.5t-9.5 44.5q-2 7 -4 13t-4 13q-2 -2 -3 -5.5t-3 -5.5q-1 -2 -2 -5t-2 -5q-1 -3 -1.5 -5.5t-0.5 -5.5q-2 -6 -2 -11q-6 -42 -20.5 -82t-26.5 -82q-5 -17 -7.5 -35.5t-7.5 -35.5q1 0 1.5 -0.5t1.5 -0.5q1 -1 4 -1q5 0 10 2.5t10 3.5q8 2 17 0.5t18 -2.5h15.5
t15.5 2q6 2 11 4h2q3 0 5 -2.5t5 -3.5q5 -1 8.5 3t8.5 3q5 0 10 -2.5t10 -4.5h4zM500 1v-10.5t-2 -10.5q-3 -3 -7 -3q-2 0 -3.5 1t-2.5 -1q-2 -2 -5 0q0 1 -0.5 1t-0.5 1l-2 2l-4 2h-3q-5 0 -9.5 -2.5t-9.5 -3.5q-8 -2 -17 -1.5t-17 0.5q-17 2 -30 -2q-2 -2 -5 -2.5t-5 -2.5
h-2q-3 0 -5 2t-5 3q-4 1 -7.5 -3t-7.5 -4q-5 1 -10 3t-10 3q-7 2 -13.5 1.5t-12.5 2.5q-5 2 -5.5 8t-0.5 11q-1 7 -0.5 13.5t4.5 12.5q4 5 11.5 2t13.5 -2q21 1 43 0q-9 14 -10 21q-5 14 -7 28.5t-7 28.5q-8 23 -14.5 47t-13.5 47q-5 1 -9 2.5t-8 1.5q-18 -1 -36 0.5
t-36 3.5q-11 2 -20.5 -2.5t-20.5 -4.5q-8 1 -16 4t-16 4q-7 1 -13.5 -1t-12.5 0v-9.5t-1 -9.5q-4 -17 -12 -31.5t-14 -30.5q-5 -13 -9 -25.5t-9 -26.5q-2 -6 -5 -13t-8 -12l-2 -2q8 3 15 3q8 -1 15 -4t15 -4q7 -1 14 1.5t12 -1.5t6 -11t1 -13q0 -5 -0.5 -10.5t-2.5 -9.5
q-2 -3 -6.5 -1.5t-6.5 -1.5q-2 -2 -4 0l-2 2l-1 2l-4 2q-2 1 -4 1q-5 0 -9.5 -2t-9.5 -4q-8 -2 -17 -0.5t-17 2.5q-17 2 -30 -1q-2 -1 -5 -2t-5 -2q-1 0 -1 -0.5t-1 -0.5q-3 1 -5 3t-5 3q-4 2 -7.5 -2t-8.5 -4q-5 1 -9.5 3.5t-9.5 3.5q-7 2 -13.5 2t-12.5 3q-5 2 -5 8.5
v11.5q0 6 1 13t5 12t11 2t14 -3q12 1 24.5 0t25.5 -3q2 11 5 22t4 16q4 14 9.5 26t9.5 26q13 47 28 93t32 91q10 27 13.5 55t11.5 55q7 21 16.5 41t16.5 40q5 14 7.5 29t7.5 29q2 5 4 9.5t5 8.5q-2 2 -4 3q-4 1 -7 -3t-7 -4q-5 1 -9.5 3.5t-9.5 3.5q-6 2 -12 2t-12 2
q-5 3 -5 9v11q0 6 0.5 13t4.5 12t11 2t13 -2q16 1 31.5 -0.5t31.5 -3.5q10 -2 19 3t18 4q8 0 14.5 -3t14.5 -4q6 -1 12.5 1.5t11.5 -1.5t6 -10.5t1 -13.5q0 -5 -0.5 -10t-2.5 -10q-2 -2 -6 -1t-6 -2q0 -1 -1.5 -0.5t-2.5 1.5q-1 0 -1 0.5t-1 0.5q0 2 -1 2q-2 2 -3 2
q-2 1 -4 1q-5 0 -9 -2.5t-9 -3.5q-9 -1 -18 0q1 -3 1.5 -5.5t0.5 -5.5q1 -2 1 -5.5t2 -3.5q4 1 3.5 -4t0.5 -9q0 -2 -1 -5t0 -5q0 -3 0.5 -6t0.5 -6q1 -3 3 -11q1 -3 3 -11q3 -5 5 -10q19 -42 29.5 -85t24.5 -86q6 -20 15 -37.5t14 -36.5q2 -8 1.5 -15.5t1.5 -14.5
q2 -9 7.5 -16.5t8.5 -15.5q7 -17 8.5 -34.5t5.5 -34.5q2 -12 5.5 -24t6.5 -24q2 -8 4 -23t3 -26l12 4t13 2q8 0 15.5 -3t15.5 -3q7 -1 14 2t12 -1q5 -3 6.5 -10t1.5 -13z" />
    <glyph glyph-name="Adieresis" unicode="&#xc4;" horiz-adv-x="470" 
d="M214 712q-5 -5 -8 -11.5t-8 -11.5q-4 -4 -9.5 -3.5t-10.5 2.5q-13 5 -26.5 13t-13.5 22q2 13 14.5 23.5t26.5 10.5q6 0 12.5 -1t11.5 -6q4 -5 5 -11t5 -11q2 -2 2.5 -8t-1.5 -8zM314 712q-5 -5 -8 -11.5t-8 -11.5q-4 -4 -9.5 -3.5t-10.5 2.5q-13 5 -26.5 13t-13.5 22
q2 13 14.5 23.5t26.5 10.5q6 0 12.5 -1t11.5 -6q4 -5 5 -11t5 -11q2 -2 2.5 -8t-1.5 -8zM304 246q-3 13 -6 25.5t-7 24.5q-7 29 -20 55.5t-21 55.5q-6 23 -9.5 45.5t-9.5 44.5q-2 7 -4 13t-4 13q-2 -2 -3 -5.5t-3 -5.5q-1 -2 -2 -5t-2 -5q-1 -3 -1.5 -5.5t-0.5 -5.5
q-2 -6 -2 -11q-6 -42 -20.5 -82t-26.5 -82q-5 -17 -7.5 -35.5t-7.5 -35.5q1 0 1.5 -0.5t1.5 -0.5q1 -1 4 -1q5 0 10 2.5t10 3.5q8 2 17 0.5t18 -2.5h15.5t15.5 2q6 2 11 4h2q3 0 5 -2.5t5 -3.5q5 -1 8.5 3t8.5 3q5 0 10 -2.5t10 -4.5h4zM500 1v-10.5t-2 -10.5q-3 -3 -7 -3
q-2 0 -3.5 1t-2.5 -1q-2 -2 -5 0q0 1 -0.5 1t-0.5 1l-2 2l-4 2h-3q-5 0 -9.5 -2.5t-9.5 -3.5q-8 -2 -17 -1.5t-17 0.5q-17 2 -30 -2q-2 -2 -5 -2.5t-5 -2.5h-2q-3 0 -5 2t-5 3q-4 1 -7.5 -3t-7.5 -4q-5 1 -10 3t-10 3q-7 2 -13.5 1.5t-12.5 2.5q-5 2 -5.5 8t-0.5 11
q-1 7 -0.5 13.5t4.5 12.5q4 5 11.5 2t13.5 -2q21 1 43 0q-9 14 -10 21q-5 14 -7 28.5t-7 28.5q-8 23 -14.5 47t-13.5 47q-5 1 -9 2.5t-8 1.5q-18 -1 -36 0.5t-36 3.5q-11 2 -20.5 -2.5t-20.5 -4.5q-8 1 -16 4t-16 4q-7 1 -13.5 -1t-12.5 0v-9.5t-1 -9.5q-4 -17 -12 -31.5
t-14 -30.5q-5 -13 -9 -25.5t-9 -26.5q-2 -6 -5 -13t-8 -12l-2 -2q8 3 15 3q8 -1 15 -4t15 -4q7 -1 14 1.5t12 -1.5t6 -11t1 -13q0 -5 -0.5 -10.5t-2.5 -9.5q-2 -3 -6.5 -1.5t-6.5 -1.5q-2 -2 -4 0l-2 2l-1 2l-4 2q-2 1 -4 1q-5 0 -9.5 -2t-9.5 -4q-8 -2 -17 -0.5t-17 2.5
q-17 2 -30 -1q-2 -1 -5 -2t-5 -2q-1 0 -1 -0.5t-1 -0.5q-3 1 -5 3t-5 3q-4 2 -7.5 -2t-8.5 -4q-5 1 -9.5 3.5t-9.5 3.5q-7 2 -13.5 2t-12.5 3q-5 2 -5 8.5v11.5q0 6 1 13t5 12t11 2t14 -3q12 1 24.5 0t25.5 -3q2 11 5 22t4 16q4 14 9.5 26t9.5 26q13 47 28 93t32 91
q10 27 13.5 55t11.5 55q7 21 16.5 41t16.5 40q5 14 7.5 29t7.5 29q2 5 4 9.5t5 8.5q-2 2 -4 3q-4 1 -7 -3t-7 -4q-5 1 -9.5 3.5t-9.5 3.5q-6 2 -12 2t-12 2q-5 3 -5 9v11q0 6 0.5 13t4.5 12t11 2t13 -2q16 1 31.5 -0.5t31.5 -3.5q10 -2 19 3t18 4q8 0 14.5 -3t14.5 -4
q6 -1 12.5 1.5t11.5 -1.5t6 -10.5t1 -13.5q0 -5 -0.5 -10t-2.5 -10q-2 -2 -6 -1t-6 -2q0 -1 -1.5 -0.5t-2.5 1.5q-1 0 -1 0.5t-1 0.5q0 2 -1 2q-2 2 -3 2q-2 1 -4 1q-5 0 -9 -2.5t-9 -3.5q-9 -1 -18 0q1 -3 1.5 -5.5t0.5 -5.5q1 -2 1 -5.5t2 -3.5q4 1 3.5 -4t0.5 -9
q0 -2 -1 -5t0 -5q0 -3 0.5 -6t0.5 -6q1 -3 3 -11q1 -3 3 -11q3 -5 5 -10q19 -42 29.5 -85t24.5 -86q6 -20 15 -37.5t14 -36.5q2 -8 1.5 -15.5t1.5 -14.5q2 -9 7.5 -16.5t8.5 -15.5q7 -17 8.5 -34.5t5.5 -34.5q2 -12 5.5 -24t6.5 -24q2 -8 4 -23t3 -26l12 4t13 2q8 0 15.5 -3
t15.5 -3q7 -1 14 2t12 -1q5 -3 6.5 -10t1.5 -13z" />
    <glyph glyph-name="Aring" unicode="&#xc5;" horiz-adv-x="470" 
d="M255 733q0 5 -2 10t-4 6q-3 5 -4.5 10.5t-5.5 10.5q-6 8 -18 8q-11 -1 -17.5 -13t-5.5 -23q0 -11 10 -21t21 -13q9 -2 13 4q5 6 9 11.5t4 9.5zM287 740q5 -5 3 -12.5t-4 -13.5v-3q-2 -4 -2 -5q-2 -4 -5.5 -6.5t-5.5 -5.5q-9 -9 -19 -17.5t-23 -10.5q-11 0 -22 3.5
t-19 10.5q-13 11 -20 26.5t-9 32.5q-2 13 -2 27t8 25q4 6 10 9.5t11 8.5q6 6 14 11t17 5q14 -6 25 -13q10 -6 20 -13.5t14 -15.5q4 -7 7 -14.5t1 -15.5q1 -3 1 -6v-7zM304 246q-3 13 -6 25.5t-7 24.5q-7 29 -20 55.5t-21 55.5q-6 23 -9.5 45.5t-9.5 44.5q-2 7 -4 13t-4 13
q-2 -2 -3 -5.5t-3 -5.5q-1 -2 -2 -5t-2 -5q-1 -3 -1.5 -5.5t-0.5 -5.5q-2 -6 -2 -11q-6 -42 -20.5 -82t-26.5 -82q-5 -17 -7.5 -35.5t-7.5 -35.5q1 0 1.5 -0.5t1.5 -0.5q1 -1 4 -1q5 0 10 2.5t10 3.5q8 2 17 0.5t18 -2.5h15.5t15.5 2q6 2 11 4h2q3 0 5 -2.5t5 -3.5
q5 -1 8.5 3t8.5 3q5 0 10 -2.5t10 -4.5h4zM500 1v-10.5t-2 -10.5q-3 -3 -7 -3q-2 0 -3.5 1t-2.5 -1q-2 -2 -5 0q0 1 -0.5 1t-0.5 1l-2 2l-4 2h-3q-5 0 -9.5 -2.5t-9.5 -3.5q-8 -2 -17 -1.5t-17 0.5q-17 2 -30 -2q-2 -2 -5 -2.5t-5 -2.5h-2q-3 0 -5 2t-5 3q-4 1 -7.5 -3
t-7.5 -4q-5 1 -10 3t-10 3q-7 2 -13.5 1.5t-12.5 2.5q-5 2 -5.5 8t-0.5 11q-1 7 -0.5 13.5t4.5 12.5q4 5 11.5 2t13.5 -2q21 1 43 0q-9 14 -10 21q-5 14 -7 28.5t-7 28.5q-8 23 -14.5 47t-13.5 47q-5 1 -9 2.5t-8 1.5q-18 -1 -36 0.5t-36 3.5q-11 2 -20.5 -2.5t-20.5 -4.5
q-8 1 -16 4t-16 4q-7 1 -13.5 -1t-12.5 0v-9.5t-1 -9.5q-4 -17 -12 -31.5t-14 -30.5q-5 -13 -9 -25.5t-9 -26.5q-2 -6 -5 -13t-8 -12l-2 -2q8 3 15 3q8 -1 15 -4t15 -4q7 -1 14 1.5t12 -1.5t6 -11t1 -13q0 -5 -0.5 -10.5t-2.5 -9.5q-2 -3 -6.5 -1.5t-6.5 -1.5q-2 -2 -4 0
l-2 2l-1 2l-4 2q-2 1 -4 1q-5 0 -9.5 -2t-9.5 -4q-8 -2 -17 -0.5t-17 2.5q-17 2 -30 -1q-2 -1 -5 -2t-5 -2q-1 0 -1 -0.5t-1 -0.5q-3 1 -5 3t-5 3q-4 2 -7.5 -2t-8.5 -4q-5 1 -9.5 3.5t-9.5 3.5q-7 2 -13.5 2t-12.5 3q-5 2 -5 8.5v11.5q0 6 1 13t5 12t11 2t14 -3
q12 1 24.5 0t25.5 -3q2 11 5 22t4 16q4 14 9.5 26t9.5 26q13 47 28 93t32 91q10 27 13.5 55t11.5 55q7 21 16.5 41t16.5 40q5 14 7.5 29t7.5 29q2 5 4 9.5t5 8.5q-2 2 -4 3q-4 1 -7 -3t-7 -4q-5 1 -9.5 3.5t-9.5 3.5q-6 2 -12 2t-12 2q-5 3 -5 9v11q0 6 0.5 13t4.5 12t11 2
t13 -2q16 1 31.5 -0.5t31.5 -3.5q10 -2 19 3t18 4q8 0 14.5 -3t14.5 -4q6 -1 12.5 1.5t11.5 -1.5t6 -10.5t1 -13.5q0 -5 -0.5 -10t-2.5 -10q-2 -2 -6 -1t-6 -2q0 -1 -1.5 -0.5t-2.5 1.5q-1 0 -1 0.5t-1 0.5q0 2 -1 2q-2 2 -3 2q-2 1 -4 1q-5 0 -9 -2.5t-9 -3.5q-9 -1 -18 0
q1 -3 1.5 -5.5t0.5 -5.5q1 -2 1 -5.5t2 -3.5q4 1 3.5 -4t0.5 -9q0 -2 -1 -5t0 -5q0 -3 0.5 -6t0.5 -6q1 -3 3 -11q1 -3 3 -11q3 -5 5 -10q19 -42 29.5 -85t24.5 -86q6 -20 15 -37.5t14 -36.5q2 -8 1.5 -15.5t1.5 -14.5q2 -9 7.5 -16.5t8.5 -15.5q7 -17 8.5 -34.5t5.5 -34.5
q2 -12 5.5 -24t6.5 -24q2 -8 4 -23t3 -26l12 4t13 2q8 0 15.5 -3t15.5 -3q7 -1 14 2t12 -1q5 -3 6.5 -10t1.5 -13z" />
    <glyph glyph-name="AE" unicode="&#xc6;" horiz-adv-x="805" 
d="M425 320q0 29 -5.5 56.5t-6.5 56.5q-1 23 1.5 44.5t2.5 43.5q0 5 -0.5 9t-0.5 9l-3 -3q-2 -3 -8 -9q-2 -4 -6 -10q-2 -3 -3 -5.5t-2 -5.5q-4 -8 -5 -11q-17 -44 -42 -83.5t-48 -81.5q-9 -17 -15.5 -34.5t-15.5 -34.5l1 -1q5 0 10 2.5t10 3.5q8 2 17 0.5t18 -1.5
q8 -1 15.5 -1t15.5 2q2 1 5 2t5 2h2q3 0 5.5 -2.5t5.5 -3.5q4 -1 7.5 3t8.5 4q5 -1 10 -3.5t10 -3.5q3 -1 5.5 -1t4.5 -1v29.5t1 28.5zM777 122q0 -11 -0.5 -21.5t-1.5 -21.5q-2 -25 -1.5 -50t-0.5 -51q-39 1 -78.5 4.5t-78.5 2.5q-16 -1 -31.5 -3.5t-32.5 -3.5
q-19 -2 -37.5 1t-38.5 5q-18 2 -36.5 1t-36.5 -1q-12 -1 -25 0.5t-21 9.5q-4 3 -5 9.5t0 12.5t4 11t8 6q6 2 12.5 0.5t13.5 -0.5h3q6 0 9 -1q12 -4 26 -6l-1 1q-1 7 -0.5 20.5t1 28.5t0.5 28.5v20.5q-3 44 -3 88q-8 2 -10 2q-34 -1 -71 5q-11 2 -20.5 -3t-20.5 -4
q-8 0 -16 3.5t-16 4.5q-7 1 -14 -1.5t-13 0.5q-2 2 -3 4q-3 -7 -4.5 -14.5t-4.5 -13.5q-8 -17 -20 -31.5t-22 -30.5q-7 -11 -13.5 -21.5t-13.5 -21.5q-2 -4 -8 -12.5t-13 -18.5h3q8 -2 14.5 -5.5t14.5 -5.5q6 -1 13 1t12 -2q5 -5 5 -11.5v-13.5q-1 -5 -1.5 -10t-3.5 -9
q-2 -3 -6 -1.5t-6 -0.5q-2 -3 -5 0l-1 2l-1 2q-2 1 -4 3q-1 0 -1.5 0.5t-2.5 0.5q-5 1 -9.5 -1.5t-9.5 -3.5q-8 -1 -16 1t-16 3q-8 2 -15 2.5t-14 -1.5q-3 -1 -5.5 -1.5t-5.5 -1.5q0 -1 -2 -1q-2 1 -4 3.5t-5 3.5q-4 2 -7.5 -2t-7.5 -3q-5 1 -9.5 4t-9.5 4q-6 2 -12.5 3
t-11.5 4q-5 2 -4.5 8.5t0.5 11.5q1 6 2 13t5 12q5 5 11.5 1t13.5 -4l22 -2t22 -3q0 2 2 4q3 7 11.5 19t17.5 25.5t17.5 25.5t12.5 19q25 48 52 93t55 91q17 26 28 55t26 56q12 21 26.5 40t27.5 40q8 14 14.5 29t15.5 29q3 6 9 12q-13 1 -25 0.5t-24 -1.5q-16 -2 -33 -3
t-29 10q-5 5 -7 14.5t3 16.5q2 5 7.5 6.5t10.5 2.5q7 1 13.5 0t13.5 0q-1 1 1 1h4q7 0 10 -1q8 -2 16.5 -3.5t17.5 -1.5q24 0 48.5 4.5t48.5 4.5q34 1 68 0.5t68 1.5q19 2 37.5 4.5t37.5 4.5q8 0 16.5 -3t16.5 -2q13 1 25 4t25 4q1 -28 -2 -55t-4 -54v-21.5t-1 -21.5v-14.5
t-5 -13.5q-5 -5 -13 -7t-15 1q-5 3 -9.5 8.5t-5.5 11.5v24q1 21 0.5 42t-1.5 42q-40 -1 -80 1t-81 0q-18 -2 -36 -5t-36 -5q-5 -1 -9.5 -1h-9.5v-9q0 -2 -1 -5.5t1 -3.5q4 0 3 -5t-3 -8q0 -2 -0.5 -3t-0.5 -2q-2 -2 -2 -4q-1 -4 -1 -12q-1 -3 -1 -11q0 -2 0.5 -5t0.5 -5
q1 -3 1 -6t1 -6q8 -41 7.5 -82t1.5 -83q2 1 4 0.5t3 1.5t2.5 1t2.5 -2q0 -2 1 -2q1 -1 1.5 -1t1.5 -1h3q4 0 6.5 2.5t6.5 4.5q5 2 11.5 1t12.5 -1q5 0 10.5 0.5t10.5 3.5q2 1 3.5 2t3.5 2l1 1q3 0 5 -3.5t4 -1.5q2 1 3.5 3t3.5 3q4 2 8 -1t9 -4q2 -1 5 -0.5t6 -0.5
q-3 6 -3 11q0 8 3 14.5t4 14.5q0 6 -2.5 12t0.5 11q4 5 11 6.5t13 1.5h10t10 -2q3 -2 2 -6t1 -6q2 0 1.5 -1.5t-1.5 -2.5l-1 -1l-2 -2q-2 -2 -2 -3t-0.5 -2t-0.5 -2q0 -5 2.5 -8.5t4.5 -8.5q2 -8 1 -15.5t-1 -15.5q0 -7 0.5 -14t2.5 -13q1 -3 2 -5.5t2 -4.5l1 -1
q0 -3 -2.5 -5t-3.5 -5q-1 -4 3.5 -7t3.5 -7q0 -5 -2.5 -9t-3.5 -9q-1 -6 -1 -12t-2 -12q-2 -5 -8 -5h-11q-7 -1 -14 -0.5t-12 4.5q-5 3 -2.5 10t2.5 12q-1 10 -1 19.5v19.5q-2 0 -5.5 1t-6.5 0q-12 -2 -24 -1.5t-24 2.5q-8 1 -14 -4t-14 -6q-6 0 -11.5 3t-11.5 3
q-4 1 -8.5 -1.5t-7.5 -1.5q2 -9 3 -18t1 -18q0 -8 -2 -14.5t-3 -14.5q0 -8 3 -16.5t5 -16.5q2 -17 -1 -34t-3 -34q-1 -12 -1 -24v-23q0 -6 0.5 -23t-0.5 -32q8 1 15 1.5t14 0.5q28 -1 55 -2.5t54 -0.5q13 1 25 4t25 2q9 0 17.5 -4t17.5 -2q5 1 9.5 3.5t9.5 2.5q0 17 3.5 33
t4.5 33q2 12 0.5 25t6.5 23q5 7 15.5 7.5t17.5 -4.5q6 -5 8.5 -13.5t2.5 -16.5z" />
    <glyph glyph-name="Ccedilla" unicode="&#xc7;" horiz-adv-x="414" 
d="M394 168q4 -20 0 -39t-10 -37q-8 -23 -21 -44.5t-31 -37.5q-21 -19 -48 -30.5t-55 -14.5q-1 -4 -2 -7.5t-1 -7.5q0 1 0 -0.5t-1 -2.5q0 -4 -2 -8q-2 -2 -2.5 -3.5t-2.5 -3.5q5 1 9 1t9 1q14 0 28 -3t27 -10q20 -10 34 -31t14 -44t-10.5 -47.5t-30.5 -36.5q-9 -5 -20 -4
t-22 -2q-7 -2 -13.5 -4t-14.5 -3q-11 -2 -21 1.5t-20 7.5q-16 5 -31.5 10t-30.5 11q-8 3 -16 5.5t-13 10.5q-2 3 -1.5 7.5t1.5 8.5q2 7 5 12q5 6 13 7t15 -1q11 -3 22 -8.5t23 -7.5q25 -5 51 -8.5t49 5.5q10 3 16 14t6 22q-1 12 -13 19t-23 12t-21.5 8.5t-22.5 4.5
q-13 2 -26 0.5t-27 -2.5l9 37q1 10 2.5 20t4.5 20q-31 6 -54 21q-26 17 -46.5 41.5t-34.5 53.5q-20 42 -31 87.5t-14.5 93t-1.5 95.5t7 94q5 43 17.5 85.5t38.5 76.5q18 24 45 42t57 20q29 3 58 -4t53 -22q26 -17 46.5 -42t33.5 -54q7 -15 12.5 -31.5t7.5 -33.5q2 -10 2 -20
t-6 -18q-3 -5 -8.5 -7t-10.5 0t-8 5.5t-5 8.5q-6 12 -9 24q-5 14 -9 27.5t-11 25.5q0 -1 -1 1l-2 4l-3.5 7t-3.5 6q-6 11 -11 22t-13 20q-18 23 -44 32q-14 5 -30 5.5t-32 -2.5q-17 -3 -32.5 -14t-26.5 -25q-18 -23 -29 -49t-19 -54q-17 -59 -20 -121t8 -122q4 -23 10.5 -45
t13.5 -44q6 -18 11 -36.5t15 -35.5q5 -8 12 -14l14 -12q19 -17 42.5 -29t49.5 -12q17 0 34.5 4.5t31.5 13.5q16 9 28 24t20 32q7 15 11 30.5t6 32.5q2 13 5 26.5t14 19.5q3 2 7 2.5t7 -1.5q8 -5 9.5 -14.5t3.5 -17.5z" />
    <glyph glyph-name="Egrave" unicode="&#xc8;" horiz-adv-x="441" 
d="M214 687q0 -5 -3.5 -7.5t-7.5 -4.5q-7 -5 -14 -8t-15 -1q-6 1 -7 9.5t-4 13.5q-9 16 -16 32.5t-13 33.5q-4 10 -12.5 17t-13.5 16q-4 8 -4 16t-4 16q-2 7 -7.5 12t-4.5 12q1 10 11 15.5t20 8.5q7 2 10 -2q2 -2 2 -5t2 -3t2 -5q0 -1 -1 -2q0 -1 -0.5 -1t-0.5 -1q0 -3 1 -5
q0 -2 1 -3q2 -5 6.5 -8t7.5 -8q5 -7 8 -15t7 -16q3 -8 7 -15t9 -12l4 -4l4 -4l2 -2q1 -2 -0.5 -5.5t-0.5 -5.5q2 -5 6.5 -6.5t6.5 -5.5q2 -5 2 -11t2 -11q2 -6 5 -12t3 -13zM401 99q0 -11 -0.5 -21.5t-1.5 -21.5q-2 -26 -1.5 -50.5t-0.5 -50.5q-39 1 -78.5 4.5t-78.5 2.5
q-17 0 -32 -3t-32 -4q-19 -2 -37.5 1t-38.5 5q-18 2 -36.5 1t-36.5 -1q-12 -1 -25 0.5t-21 9.5q-4 3 -5 9.5t0 12.5t4 11t8 6q6 2 12.5 0.5t13.5 -0.5h3h9q7 -3 13.5 -5t14.5 -2h9t9 1q-6 3 -9.5 11t-3.5 16q-1 14 1 28t1 28q-2 50 -1.5 98.5t2.5 98.5q1 28 -4.5 56t-5.5 57
q0 23 3 44.5t3 44.5q1 15 -1.5 29.5t-1.5 29.5q0 8 2 17t7 14q-20 2 -40 -2.5t-40 0.5q-13 2 -18 11q-4 7 -3.5 17t7.5 15q8 5 17.5 4t18.5 0q-1 1 1 1h3h10q8 -2 15 -4t15 -2q23 1 45 5t45 5q31 1 61.5 0.5t61.5 1.5q17 1 34.5 4.5t34.5 3.5q7 0 12.5 -2t12.5 -3
q9 -1 17.5 2t17.5 5q5 -25 0.5 -50t-4.5 -51q-1 -14 -1 -26.5t-1 -26.5q0 -7 -0.5 -14.5t-6.5 -12.5q-6 -4 -14.5 -5t-14.5 3q-7 4 -9.5 12t-2.5 16q0 9 0.5 17.5t1.5 16.5q1 16 -0.5 32t-2.5 32q-32 -1 -65 1t-66 0q-20 -2 -39 -6t-39 -5q-7 0 -13.5 0.5t-13.5 1.5
q3 -6 3 -13v-12q0 -2 -1 -5.5t1 -3.5q3 0 2 -5t-2 -8q-1 -2 -1 -2.5t-1 -2.5q-1 -1 -1 -2t-1 -2q-1 -3 -1 -6t-1 -5v-11v-11q2 -8 2 -12q6 -38 5.5 -76t-0.5 -76q1 -1 1.5 -1t1.5 -1h3q4 0 6.5 2.5t6.5 4.5q5 2 11.5 1t12.5 -1q5 1 10.5 1.5t10.5 2.5q2 1 3.5 2t3.5 2l1 1
q3 0 5 -3.5t4 -1.5q2 1 3.5 3t3.5 4q4 2 8 -1.5t9 -4.5q7 0 11 -1q-3 6 -3 11q0 8 3 14.5t4 14.5q0 6 -2.5 12.5t0.5 11.5q4 5 11 6t13 1h10t10 -2q3 -2 2 -5.5t1 -5.5q3 -2 0 -5l-1 -1l-2 -2q-2 -2 -2 -3t-0.5 -2t-0.5 -2q0 -5 2.5 -8.5t4.5 -8.5q2 -8 1 -15.5t-1 -15.5
q0 -7 0.5 -14t2.5 -13q1 -3 2 -5t2 -5l1 -1q0 -3 -2.5 -5t-3.5 -4q-1 -5 3.5 -7.5t3.5 -7.5q0 -5 -2.5 -9t-3.5 -9q-1 -6 -1 -12t-2 -12q-2 -5 -8 -5h-11q-7 -1 -14 -0.5t-12 4.5q-5 3 -2.5 10t2.5 13q-1 9 -1 18.5v19.5q-2 0 -5.5 1t-6.5 1q-12 -2 -24 -2t-24 2
q-8 1 -14 -4t-14 -6q-6 0 -11.5 3t-11.5 3q-2 1 -6 -1q2 -14 4 -27t2 -27q-1 -7 -3 -13.5t-3 -14.5t2.5 -16.5t4.5 -16.5q2 -17 -1 -34.5t-5 -34.5q0 -11 -0.5 -23t-0.5 -24v-17t-3 -17q-2 -3 -5 -5q8 1 15 1.5t14 0.5q28 -1 55 -2.5t54 -0.5q13 1 25 4t25 2q9 0 17.5 -3.5
t17.5 -2.5q5 1 9.5 3.5t9.5 2.5q0 17 3.5 34t5.5 34q1 12 0 24.5t6 21.5q5 7 15.5 7.5t17.5 -4.5q6 -5 8.5 -13.5t2.5 -16.5z" />
    <glyph glyph-name="Eacute" unicode="&#xc9;" horiz-adv-x="441" 
d="M277 843q1 -7 -4.5 -12.5t-7.5 -11.5q-3 -8 -3.5 -16t-4.5 -16q-5 -10 -13.5 -16.5t-12.5 -17.5q-6 -17 -13 -33t-16 -32q-3 -6 -3.5 -14t-7.5 -9q-8 -2 -15 1t-14 7q-3 2 -7 5t-4 7q0 7 3 13t5 13q2 5 2 10.5t2 10.5t7 6t6 6q1 3 -0.5 6t-0.5 6l2 2q2 2 4 3.5t4 3.5
q5 6 9 13t7 14q4 8 7 16.5t8 15.5q3 4 7.5 7t6.5 8q1 1 1 2t1 2v4q0 1 -0.5 1.5t-0.5 1.5q-1 0 -1 2q0 4 2 4q2 1 2 4t2 5q3 3 10 1q10 -2 20 -7.5t11 -15.5zM401 99q0 -11 -0.5 -21.5t-1.5 -21.5q-2 -26 -1.5 -50.5t-0.5 -50.5q-39 1 -78.5 4.5t-78.5 2.5q-17 0 -32 -3
t-32 -4q-19 -2 -37.5 1t-38.5 5q-18 2 -36.5 1t-36.5 -1q-12 -1 -25 0.5t-21 9.5q-4 3 -5 9.5t0 12.5t4 11t8 6q6 2 12.5 0.5t13.5 -0.5h3h9q7 -3 13.5 -5t14.5 -2h9t9 1q-6 3 -9.5 11t-3.5 16q-1 14 1 28t1 28q-2 50 -1.5 98.5t2.5 98.5q1 28 -4.5 56t-5.5 57q0 23 3 44.5
t3 44.5q1 15 -1.5 29.5t-1.5 29.5q0 8 2 17t7 14q-20 2 -40 -2.5t-40 0.5q-13 2 -18 11q-4 7 -3.5 17t7.5 15q8 5 17.5 4t18.5 0q-1 1 1 1h3h10q8 -2 15 -4t15 -2q23 1 45 5t45 5q31 1 61.5 0.5t61.5 1.5q17 1 34.5 4.5t34.5 3.5q7 0 12.5 -2t12.5 -3q9 -1 17.5 2t17.5 5
q5 -25 0.5 -50t-4.5 -51q-1 -14 -1 -26.5t-1 -26.5q0 -7 -0.5 -14.5t-6.5 -12.5q-6 -4 -14.5 -5t-14.5 3q-7 4 -9.5 12t-2.5 16q0 9 0.5 17.5t1.5 16.5q1 16 -0.5 32t-2.5 32q-32 -1 -65 1t-66 0q-20 -2 -39 -6t-39 -5q-7 0 -13.5 0.5t-13.5 1.5q3 -6 3 -13v-12
q0 -2 -1 -5.5t1 -3.5q3 0 2 -5t-2 -8q-1 -2 -1 -2.5t-1 -2.5q-1 -1 -1 -2t-1 -2q-1 -3 -1 -6t-1 -5v-11v-11q2 -8 2 -12q6 -38 5.5 -76t-0.5 -76q1 -1 1.5 -1t1.5 -1h3q4 0 6.5 2.5t6.5 4.5q5 2 11.5 1t12.5 -1q5 1 10.5 1.5t10.5 2.5q2 1 3.5 2t3.5 2l1 1q3 0 5 -3.5
t4 -1.5q2 1 3.5 3t3.5 4q4 2 8 -1.5t9 -4.5q7 0 11 -1q-3 6 -3 11q0 8 3 14.5t4 14.5q0 6 -2.5 12.5t0.5 11.5q4 5 11 6t13 1h10t10 -2q3 -2 2 -5.5t1 -5.5q3 -2 0 -5l-1 -1l-2 -2q-2 -2 -2 -3t-0.5 -2t-0.5 -2q0 -5 2.5 -8.5t4.5 -8.5q2 -8 1 -15.5t-1 -15.5q0 -7 0.5 -14
t2.5 -13q1 -3 2 -5t2 -5l1 -1q0 -3 -2.5 -5t-3.5 -4q-1 -5 3.5 -7.5t3.5 -7.5q0 -5 -2.5 -9t-3.5 -9q-1 -6 -1 -12t-2 -12q-2 -5 -8 -5h-11q-7 -1 -14 -0.5t-12 4.5q-5 3 -2.5 10t2.5 13q-1 9 -1 18.5v19.5q-2 0 -5.5 1t-6.5 1q-12 -2 -24 -2t-24 2q-8 1 -14 -4t-14 -6
q-6 0 -11.5 3t-11.5 3q-2 1 -6 -1q2 -14 4 -27t2 -27q-1 -7 -3 -13.5t-3 -14.5t2.5 -16.5t4.5 -16.5q2 -17 -1 -34.5t-5 -34.5q0 -11 -0.5 -23t-0.5 -24v-17t-3 -17q-2 -3 -5 -5q8 1 15 1.5t14 0.5q28 -1 55 -2.5t54 -0.5q13 1 25 4t25 2q9 0 17.5 -3.5t17.5 -2.5
q5 1 9.5 3.5t9.5 2.5q0 17 3.5 34t5.5 34q1 12 0 24.5t6 21.5q5 7 15.5 7.5t17.5 -4.5q6 -5 8.5 -13.5t2.5 -16.5z" />
    <glyph glyph-name="Ecircumflex" unicode="&#xca;" horiz-adv-x="441" 
d="M295 719q5 -10 -2 -22.5t-18 -17.5q-3 -2 -6 0.5t-6 4.5v-1h-1q1 0 -2 3q-1 1 -1 2.5t-1 3.5q-3 8 -13 10q-11 3 -20 9q-8 6 -16 12.5t-16 12.5q-6 -5 -10 -12t-12 -12q-2 -2 -4.5 0t-4.5 0q-3 -2 -4.5 -6t-3.5 -7q-4 -5 -10.5 -5t-11.5 -3q-7 -3 -13 -8t-14 -3
q-5 1 -7.5 4.5t-5.5 7.5t-5.5 8t-3.5 9t2 8.5t7.5 6.5t9.5 6t9 6q20 15 41 28l42 26q9 -7 20 -9.5t19 -8.5q10 -7 17 -16t16 -17q7 -6 15.5 -9t13.5 -11zM401 99q0 -11 -0.5 -21.5t-1.5 -21.5q-2 -26 -1.5 -50.5t-0.5 -50.5q-39 1 -78.5 4.5t-78.5 2.5q-17 0 -32 -3t-32 -4
q-19 -2 -37.5 1t-38.5 5q-18 2 -36.5 1t-36.5 -1q-12 -1 -25 0.5t-21 9.5q-4 3 -5 9.5t0 12.5t4 11t8 6q6 2 12.5 0.5t13.5 -0.5h3h9q7 -3 13.5 -5t14.5 -2h9t9 1q-6 3 -9.5 11t-3.5 16q-1 14 1 28t1 28q-2 50 -1.5 98.5t2.5 98.5q1 28 -4.5 56t-5.5 57q0 23 3 44.5t3 44.5
q1 15 -1.5 29.5t-1.5 29.5q0 8 2 17t7 14q-20 2 -40 -2.5t-40 0.5q-13 2 -18 11q-4 7 -3.5 17t7.5 15q8 5 17.5 4t18.5 0q-1 1 1 1h3h10q8 -2 15 -4t15 -2q23 1 45 5t45 5q31 1 61.5 0.5t61.5 1.5q17 1 34.5 4.5t34.5 3.5q7 0 12.5 -2t12.5 -3q9 -1 17.5 2t17.5 5
q5 -25 0.5 -50t-4.5 -51q-1 -14 -1 -26.5t-1 -26.5q0 -7 -0.5 -14.5t-6.5 -12.5q-6 -4 -14.5 -5t-14.5 3q-7 4 -9.5 12t-2.5 16q0 9 0.5 17.5t1.5 16.5q1 16 -0.5 32t-2.5 32q-32 -1 -65 1t-66 0q-20 -2 -39 -6t-39 -5q-7 0 -13.5 0.5t-13.5 1.5q3 -6 3 -13v-12
q0 -2 -1 -5.5t1 -3.5q3 0 2 -5t-2 -8q-1 -2 -1 -2.5t-1 -2.5q-1 -1 -1 -2t-1 -2q-1 -3 -1 -6t-1 -5v-11v-11q2 -8 2 -12q6 -38 5.5 -76t-0.5 -76q1 -1 1.5 -1t1.5 -1h3q4 0 6.5 2.5t6.5 4.5q5 2 11.5 1t12.5 -1q5 1 10.5 1.5t10.5 2.5q2 1 3.5 2t3.5 2l1 1q3 0 5 -3.5
t4 -1.5q2 1 3.5 3t3.5 4q4 2 8 -1.5t9 -4.5q7 0 11 -1q-3 6 -3 11q0 8 3 14.5t4 14.5q0 6 -2.5 12.5t0.5 11.5q4 5 11 6t13 1h10t10 -2q3 -2 2 -5.5t1 -5.5q3 -2 0 -5l-1 -1l-2 -2q-2 -2 -2 -3t-0.5 -2t-0.5 -2q0 -5 2.5 -8.5t4.5 -8.5q2 -8 1 -15.5t-1 -15.5q0 -7 0.5 -14
t2.5 -13q1 -3 2 -5t2 -5l1 -1q0 -3 -2.5 -5t-3.5 -4q-1 -5 3.5 -7.5t3.5 -7.5q0 -5 -2.5 -9t-3.5 -9q-1 -6 -1 -12t-2 -12q-2 -5 -8 -5h-11q-7 -1 -14 -0.5t-12 4.5q-5 3 -2.5 10t2.5 13q-1 9 -1 18.5v19.5q-2 0 -5.5 1t-6.5 1q-12 -2 -24 -2t-24 2q-8 1 -14 -4t-14 -6
q-6 0 -11.5 3t-11.5 3q-2 1 -6 -1q2 -14 4 -27t2 -27q-1 -7 -3 -13.5t-3 -14.5t2.5 -16.5t4.5 -16.5q2 -17 -1 -34.5t-5 -34.5q0 -11 -0.5 -23t-0.5 -24v-17t-3 -17q-2 -3 -5 -5q8 1 15 1.5t14 0.5q28 -1 55 -2.5t54 -0.5q13 1 25 4t25 2q9 0 17.5 -3.5t17.5 -2.5
q5 1 9.5 3.5t9.5 2.5q0 17 3.5 34t5.5 34q1 12 0 24.5t6 21.5q5 7 15.5 7.5t17.5 -4.5q6 -5 8.5 -13.5t2.5 -16.5z" />
    <glyph glyph-name="Edieresis" unicode="&#xcb;" horiz-adv-x="441" 
d="M183 700q-5 -5 -8.5 -11.5t-8.5 -11.5q-4 -4 -9.5 -3.5t-10.5 2.5q-12 5 -25.5 13t-13.5 22q2 13 14.5 23.5t26.5 10.5q6 0 12.5 -1t10.5 -6t5.5 -11t5.5 -11q2 -2 2.5 -8t-1.5 -8zM283 700q-5 -5 -8.5 -11.5t-8.5 -11.5q-4 -4 -9.5 -3.5t-10.5 2.5q-12 5 -25.5 13
t-13.5 22q2 13 14.5 23.5t26.5 10.5q6 0 12.5 -1t10.5 -6t5.5 -11t5.5 -11q2 -2 2.5 -8t-1.5 -8zM401 99q0 -11 -0.5 -21.5t-1.5 -21.5q-2 -26 -1.5 -50.5t-0.5 -50.5q-39 1 -78.5 4.5t-78.5 2.5q-17 0 -32 -3t-32 -4q-19 -2 -37.5 1t-38.5 5q-18 2 -36.5 1t-36.5 -1
q-12 -1 -25 0.5t-21 9.5q-4 3 -5 9.5t0 12.5t4 11t8 6q6 2 12.5 0.5t13.5 -0.5h3h9q7 -3 13.5 -5t14.5 -2h9t9 1q-6 3 -9.5 11t-3.5 16q-1 14 1 28t1 28q-2 50 -1.5 98.5t2.5 98.5q1 28 -4.5 56t-5.5 57q0 23 3 44.5t3 44.5q1 15 -1.5 29.5t-1.5 29.5q0 8 2 17t7 14
q-20 2 -40 -2.5t-40 0.5q-13 2 -18 11q-4 7 -3.5 17t7.5 15q8 5 17.5 4t18.5 0q-1 1 1 1h3h10q8 -2 15 -4t15 -2q23 1 45 5t45 5q31 1 61.5 0.5t61.5 1.5q17 1 34.5 4.5t34.5 3.5q7 0 12.5 -2t12.5 -3q9 -1 17.5 2t17.5 5q5 -25 0.5 -50t-4.5 -51q-1 -14 -1 -26.5t-1 -26.5
q0 -7 -0.5 -14.5t-6.5 -12.5q-6 -4 -14.5 -5t-14.5 3q-7 4 -9.5 12t-2.5 16q0 9 0.5 17.5t1.5 16.5q1 16 -0.5 32t-2.5 32q-32 -1 -65 1t-66 0q-20 -2 -39 -6t-39 -5q-7 0 -13.5 0.5t-13.5 1.5q3 -6 3 -13v-12q0 -2 -1 -5.5t1 -3.5q3 0 2 -5t-2 -8q-1 -2 -1 -2.5t-1 -2.5
q-1 -1 -1 -2t-1 -2q-1 -3 -1 -6t-1 -5v-11v-11q2 -8 2 -12q6 -38 5.5 -76t-0.5 -76q1 -1 1.5 -1t1.5 -1h3q4 0 6.5 2.5t6.5 4.5q5 2 11.5 1t12.5 -1q5 1 10.5 1.5t10.5 2.5q2 1 3.5 2t3.5 2l1 1q3 0 5 -3.5t4 -1.5q2 1 3.5 3t3.5 4q4 2 8 -1.5t9 -4.5q7 0 11 -1q-3 6 -3 11
q0 8 3 14.5t4 14.5q0 6 -2.5 12.5t0.5 11.5q4 5 11 6t13 1h10t10 -2q3 -2 2 -5.5t1 -5.5q3 -2 0 -5l-1 -1l-2 -2q-2 -2 -2 -3t-0.5 -2t-0.5 -2q0 -5 2.5 -8.5t4.5 -8.5q2 -8 1 -15.5t-1 -15.5q0 -7 0.5 -14t2.5 -13q1 -3 2 -5t2 -5l1 -1q0 -3 -2.5 -5t-3.5 -4
q-1 -5 3.5 -7.5t3.5 -7.5q0 -5 -2.5 -9t-3.5 -9q-1 -6 -1 -12t-2 -12q-2 -5 -8 -5h-11q-7 -1 -14 -0.5t-12 4.5q-5 3 -2.5 10t2.5 13q-1 9 -1 18.5v19.5q-2 0 -5.5 1t-6.5 1q-12 -2 -24 -2t-24 2q-8 1 -14 -4t-14 -6q-6 0 -11.5 3t-11.5 3q-2 1 -6 -1q2 -14 4 -27t2 -27
q-1 -7 -3 -13.5t-3 -14.5t2.5 -16.5t4.5 -16.5q2 -17 -1 -34.5t-5 -34.5q0 -11 -0.5 -23t-0.5 -24v-17t-3 -17q-2 -3 -5 -5q8 1 15 1.5t14 0.5q28 -1 55 -2.5t54 -0.5q13 1 25 4t25 2q9 0 17.5 -3.5t17.5 -2.5q5 1 9.5 3.5t9.5 2.5q0 17 3.5 34t5.5 34q1 12 0 24.5t6 21.5
q5 7 15.5 7.5t17.5 -4.5q6 -5 8.5 -13.5t2.5 -16.5z" />
    <glyph glyph-name="Igrave" unicode="&#xcc;" horiz-adv-x="221" 
d="M141 712q0 -5 -4 -8t-8 -5q-6 -4 -13.5 -7t-14.5 -1q-7 1 -7.5 9.5t-4.5 13.5q-8 16 -15.5 32.5t-13.5 33.5q-3 10 -11.5 17t-13.5 16q-4 8 -4.5 16t-3.5 16q-2 7 -8 12t-5 12q1 10 11.5 15.5t20.5 8.5h5t5 -2t2 -5t2 -3t2 -5q0 -1 -0.5 -1t-0.5 -1t-0.5 -1t-0.5 -1v-5
q0 -1 0.5 -1.5t0.5 -2.5q2 -5 6.5 -7.5t8.5 -7.5q5 -7 8 -15.5t7 -16.5q3 -7 6.5 -14t8.5 -13q2 -2 4.5 -3.5t4.5 -3.5q0 -1 0.5 -1t0.5 -1q2 -2 0.5 -5.5t-0.5 -6.5q1 -4 6 -5.5t7 -5.5q2 -5 1.5 -11t1.5 -11q2 -6 5 -12t4 -13zM221 624v-10t-3 -10q-2 -4 -7 -4q-5 2 -6 1
q0 -2 -1.5 -1.5t-2.5 1.5q-2 0 -2 2l-2 2q-1 0 -1.5 0.5t-2.5 0.5q-1 1 -4 1q-5 0 -9.5 -2.5t-9.5 -3.5q-9 -2 -18 -1t-18 1h-2q2 -6 2.5 -14.5t0.5 -12.5q0 -3 -0.5 -6t-0.5 -6q0 -2 -1 -5t1 -4q3 0 2 -5t-3 -8q0 -1 -0.5 -2t-0.5 -2l-2 -4q-2 -8 -2 -12q-1 -3 -1 -10v-11
q0 -3 0.5 -6t0.5 -5q6 -43 3.5 -85.5t-2.5 -85.5q0 -19 3.5 -38t2.5 -38q0 -7 -2.5 -13.5t-3.5 -14.5t2 -16.5t4 -16.5q2 -17 -2 -33.5t-5 -33.5q-2 -12 -2 -23.5t-1 -23.5q-1 -8 -1 -16t-3 -16q1 0 2 0.5t2 0.5t1 0.5t1 0.5q3 -1 5 -3l4 -4q4 -1 7.5 3t7.5 3q5 0 9.5 -3
t9.5 -4q6 -2 12.5 -2t11.5 -3q5 -2 5 -8.5v-11.5q0 -6 -1 -13t-5 -12t-11 -2t-13 3q-17 0 -33 2l-32 4q-10 2 -19 -2.5t-19 -3.5q-8 1 -14.5 4t-14.5 5q-6 1 -13 -1.5t-12 1.5t-5.5 11t-0.5 13q0 5 0.5 10t3.5 10q2 3 6 1.5t6 1.5q2 2 4 -1l2 -2q0 -1 1 -2l4 -2
q1 0 1.5 -0.5t1.5 -0.5q5 0 9.5 2.5t9.5 3.5q7 1 13.5 0t13.5 -2q-5 8 -7 21q0 14 2 28t2 28q-1 49 1 97t5 97q2 28 -2.5 56t-4.5 56q1 22 4.5 43.5t4.5 44.5q1 14 -1 29t-1 30q1 6 2.5 15.5t5.5 17.5h-2q-3 0 -5.5 2.5t-4.5 3.5q-5 1 -8.5 -3.5t-7.5 -3.5q-6 0 -11 2.5
t-10 3.5q-7 2 -14 2t-13 2q-4 2 -4.5 6.5t-1.5 8.5q-1 8 -0.5 16t5.5 14q4 5 11.5 2t14.5 -2q35 1 71 -3q11 -1 20.5 4t20.5 5q8 0 16 -3.5t16 -3.5q7 -1 14 1.5t13 -0.5q5 -4 6.5 -11t1.5 -13z" />
    <glyph glyph-name="Iacute" unicode="&#xcd;" horiz-adv-x="221" 
d="M218 864q1 -7 -4.5 -12.5t-8.5 -11.5q-3 -8 -3 -16t-4 -16q-5 -10 -13.5 -17t-12.5 -17q-6 -17 -13 -33t-16 -32q-3 -6 -4 -14t-7 -10q-8 -1 -15 2t-14 7q-4 2 -7.5 5t-3.5 7q0 7 3 13t5 13q2 5 2 10.5t2 10.5t6.5 6t6.5 6q1 3 -0.5 6t-0.5 6l1 1q2 2 4.5 4t4.5 4
q10 11 16 27q4 8 7 16t8 16q3 4 7.5 7t6.5 8q1 1 1 4q1 1 1 4l-1 2q-1 1 -1 3q-1 1 -0.5 2.5t2.5 1.5t2 3t2 5q3 4 10 2q10 -2 20 -7.5t11 -15.5zM221 624v-10t-3 -10q-2 -4 -7 -4q-5 2 -6 1q0 -2 -1.5 -1.5t-2.5 1.5q-2 0 -2 2l-2 2q-1 0 -1.5 0.5t-2.5 0.5q-1 1 -4 1
q-5 0 -9.5 -2.5t-9.5 -3.5q-9 -2 -18 -1t-18 1h-2q2 -6 2.5 -14.5t0.5 -12.5q0 -3 -0.5 -6t-0.5 -6q0 -2 -1 -5t1 -4q3 0 2 -5t-3 -8q0 -1 -0.5 -2t-0.5 -2l-2 -4q-2 -8 -2 -12q-1 -3 -1 -10v-11q0 -3 0.5 -6t0.5 -5q6 -43 3.5 -85.5t-2.5 -85.5q0 -19 3.5 -38t2.5 -38
q0 -7 -2.5 -13.5t-3.5 -14.5t2 -16.5t4 -16.5q2 -17 -2 -33.5t-5 -33.5q-2 -12 -2 -23.5t-1 -23.5q-1 -8 -1 -16t-3 -16q1 0 2 0.5t2 0.5t1 0.5t1 0.5q3 -1 5 -3l4 -4q4 -1 7.5 3t7.5 3q5 0 9.5 -3t9.5 -4q6 -2 12.5 -2t11.5 -3q5 -2 5 -8.5v-11.5q0 -6 -1 -13t-5 -12
t-11 -2t-13 3q-17 0 -33 2l-32 4q-10 2 -19 -2.5t-19 -3.5q-8 1 -14.5 4t-14.5 5q-6 1 -13 -1.5t-12 1.5t-5.5 11t-0.5 13q0 5 0.5 10t3.5 10q2 3 6 1.5t6 1.5q2 2 4 -1l2 -2q0 -1 1 -2l4 -2q1 0 1.5 -0.5t1.5 -0.5q5 0 9.5 2.5t9.5 3.5q7 1 13.5 0t13.5 -2q-5 8 -7 21
q0 14 2 28t2 28q-1 49 1 97t5 97q2 28 -2.5 56t-4.5 56q1 22 4.5 43.5t4.5 44.5q1 14 -1 29t-1 30q1 6 2.5 15.5t5.5 17.5h-2q-3 0 -5.5 2.5t-4.5 3.5q-5 1 -8.5 -3.5t-7.5 -3.5q-6 0 -11 2.5t-10 3.5q-7 2 -14 2t-13 2q-4 2 -4.5 6.5t-1.5 8.5q-1 8 -0.5 16t5.5 14
q4 5 11.5 2t14.5 -2q35 1 71 -3q11 -1 20.5 4t20.5 5q8 0 16 -3.5t16 -3.5q7 -1 14 1.5t13 -0.5q5 -4 6.5 -11t1.5 -13z" />
    <glyph glyph-name="Icircumflex" unicode="&#xce;" horiz-adv-x="221" 
d="M219 733q5 -10 -2 -22.5t-18 -17.5q-3 -2 -6 1t-6 4v-1l-3 3q-2 2 -1.5 3.5t-0.5 3.5q-3 8 -13 10q-11 2 -21 8q-8 6 -15.5 13t-15.5 12q-6 -5 -10.5 -12t-11.5 -12q-2 -1 -4.5 0.5t-4.5 0.5q-4 -2 -5 -6.5t-3 -7.5q-5 -4 -11 -4.5t-11 -2.5q-7 -3 -13.5 -8.5t-13.5 -3.5
q-5 1 -7.5 5t-5.5 7q-3 4 -6 8.5t-3 9.5q-1 5 2 8.5t7.5 6.5t9.5 5.5t9 5.5q20 15 41 28l42 26q9 -6 19.5 -9t19.5 -9q10 -7 17 -16t15 -17q8 -5 16.5 -8.5t13.5 -11.5zM221 624v-10t-3 -10q-2 -4 -7 -4q-5 2 -6 1q0 -2 -1.5 -1.5t-2.5 1.5q-2 0 -2 2l-2 2q-1 0 -1.5 0.5
t-2.5 0.5q-1 1 -4 1q-5 0 -9.5 -2.5t-9.5 -3.5q-9 -2 -18 -1t-18 1h-2q2 -6 2.5 -14.5t0.5 -12.5q0 -3 -0.5 -6t-0.5 -6q0 -2 -1 -5t1 -4q3 0 2 -5t-3 -8q0 -1 -0.5 -2t-0.5 -2l-2 -4q-2 -8 -2 -12q-1 -3 -1 -10v-11q0 -3 0.5 -6t0.5 -5q6 -43 3.5 -85.5t-2.5 -85.5
q0 -19 3.5 -38t2.5 -38q0 -7 -2.5 -13.5t-3.5 -14.5t2 -16.5t4 -16.5q2 -17 -2 -33.5t-5 -33.5q-2 -12 -2 -23.5t-1 -23.5q-1 -8 -1 -16t-3 -16q1 0 2 0.5t2 0.5t1 0.5t1 0.5q3 -1 5 -3l4 -4q4 -1 7.5 3t7.5 3q5 0 9.5 -3t9.5 -4q6 -2 12.5 -2t11.5 -3q5 -2 5 -8.5v-11.5
q0 -6 -1 -13t-5 -12t-11 -2t-13 3q-17 0 -33 2l-32 4q-10 2 -19 -2.5t-19 -3.5q-8 1 -14.5 4t-14.5 5q-6 1 -13 -1.5t-12 1.5t-5.5 11t-0.5 13q0 5 0.5 10t3.5 10q2 3 6 1.5t6 1.5q2 2 4 -1l2 -2q0 -1 1 -2l4 -2q1 0 1.5 -0.5t1.5 -0.5q5 0 9.5 2.5t9.5 3.5q7 1 13.5 0
t13.5 -2q-5 8 -7 21q0 14 2 28t2 28q-1 49 1 97t5 97q2 28 -2.5 56t-4.5 56q1 22 4.5 43.5t4.5 44.5q1 14 -1 29t-1 30q1 6 2.5 15.5t5.5 17.5h-2q-3 0 -5.5 2.5t-4.5 3.5q-5 1 -8.5 -3.5t-7.5 -3.5q-6 0 -11 2.5t-10 3.5q-7 2 -14 2t-13 2q-4 2 -4.5 6.5t-1.5 8.5
q-1 8 -0.5 16t5.5 14q4 5 11.5 2t14.5 -2q35 1 71 -3q11 -1 20.5 4t20.5 5q8 0 16 -3.5t16 -3.5q7 -1 14 1.5t13 -0.5q5 -4 6.5 -11t1.5 -13z" />
    <glyph glyph-name="Idieresis" unicode="&#xcf;" horiz-adv-x="221" 
d="M101 723q-5 -5 -8 -11.5t-8 -11.5q-4 -3 -9.5 -2.5t-10.5 2.5q-12 5 -26 13t-14 21q2 14 15 24.5t27 10.5q6 0 12.5 -1.5t10.5 -6.5t5.5 -10.5t4.5 -10.5q2 -2 2.5 -8.5t-1.5 -8.5zM201 723q-5 -5 -8 -11.5t-8 -11.5q-4 -3 -9.5 -2.5t-10.5 2.5q-12 5 -26 13t-14 21
q2 14 15 24.5t27 10.5q6 0 12.5 -1.5t10.5 -6.5t5.5 -10.5t4.5 -10.5q2 -2 2.5 -8.5t-1.5 -8.5zM221 624v-10t-3 -10q-2 -4 -7 -4q-5 2 -6 1q0 -2 -1.5 -1.5t-2.5 1.5q-2 0 -2 2l-2 2q-1 0 -1.5 0.5t-2.5 0.5q-1 1 -4 1q-5 0 -9.5 -2.5t-9.5 -3.5q-9 -2 -18 -1t-18 1h-2
q2 -6 2.5 -14.5t0.5 -12.5q0 -3 -0.5 -6t-0.5 -6q0 -2 -1 -5t1 -4q3 0 2 -5t-3 -8q0 -1 -0.5 -2t-0.5 -2l-2 -4q-2 -8 -2 -12q-1 -3 -1 -10v-11q0 -3 0.5 -6t0.5 -5q6 -43 3.5 -85.5t-2.5 -85.5q0 -19 3.5 -38t2.5 -38q0 -7 -2.5 -13.5t-3.5 -14.5t2 -16.5t4 -16.5
q2 -17 -2 -33.5t-5 -33.5q-2 -12 -2 -23.5t-1 -23.5q-1 -8 -1 -16t-3 -16q1 0 2 0.5t2 0.5t1 0.5t1 0.5q3 -1 5 -3l4 -4q4 -1 7.5 3t7.5 3q5 0 9.5 -3t9.5 -4q6 -2 12.5 -2t11.5 -3q5 -2 5 -8.5v-11.5q0 -6 -1 -13t-5 -12t-11 -2t-13 3q-17 0 -33 2l-32 4q-10 2 -19 -2.5
t-19 -3.5q-8 1 -14.5 4t-14.5 5q-6 1 -13 -1.5t-12 1.5t-5.5 11t-0.5 13q0 5 0.5 10t3.5 10q2 3 6 1.5t6 1.5q2 2 4 -1l2 -2q0 -1 1 -2l4 -2q1 0 1.5 -0.5t1.5 -0.5q5 0 9.5 2.5t9.5 3.5q7 1 13.5 0t13.5 -2q-5 8 -7 21q0 14 2 28t2 28q-1 49 1 97t5 97q2 28 -2.5 56
t-4.5 56q1 22 4.5 43.5t4.5 44.5q1 14 -1 29t-1 30q1 6 2.5 15.5t5.5 17.5h-2q-3 0 -5.5 2.5t-4.5 3.5q-5 1 -8.5 -3.5t-7.5 -3.5q-6 0 -11 2.5t-10 3.5q-7 2 -14 2t-13 2q-4 2 -4.5 6.5t-1.5 8.5q-1 8 -0.5 16t5.5 14q4 5 11.5 2t14.5 -2q35 1 71 -3q11 -1 20.5 4t20.5 5
q8 0 16 -3.5t16 -3.5q7 -1 14 1.5t13 -0.5q5 -4 6.5 -11t1.5 -13z" />
    <glyph glyph-name="Eth" unicode="&#xd0;" horiz-adv-x="468" 
d="M377 258q2 21 1 42.5t-3 43.5q-2 18 -8 35t-11 34t-9.5 33.5t-14.5 30.5q-8 11 -18.5 20t-21.5 17q-19 14 -40.5 26t-44.5 15q-24 3 -47.5 4t-46.5 3q2 -7 2 -15v-12q0 -8 -1 -12q0 -2 -1 -5t1 -3q3 -1 2 -5.5t-3 -8.5q0 -2 -2 -4q0 -2 -2 -4q-1 -3 -1 -6t-1 -6t-1 -10
v-11q0 -3 0.5 -6t0.5 -6q4 -36 1.5 -72.5t-4.5 -72.5l4 1q4 0 12 4h3q3 0 6 -2.5t6 -3.5q5 -1 10 3t10 4q6 -1 12 -3.5t13 -3.5q8 -2 16 -1.5t16 -2.5q4 -2 5 -6.5t2 -9.5q2 -14 -2 -23q-1 -2 -2 -3t-2 -3q-1 -1 -1.5 -1t-1.5 -1q-7 -2 -14 0.5t-15 1.5q-19 -1 -38 0t-39 3
q1 -14 2.5 -28.5t0.5 -28.5q0 -7 -3 -13.5t-4 -14.5t2 -16.5t3 -17.5q1 -17 -3 -33.5t-6 -33.5q-2 -12 -2.5 -24t-1.5 -23q-1 -9 -1 -17.5t-4 -16.5l-1 -1q12 -2 24 -5t25 -4q42 -4 85 14.5t72 49.5q40 42 60 99.5t25 115.5zM420 254q-3 -31 -8 -63.5t-14 -63.5t-23 -59.5
t-35 -51.5q-19 -20 -42 -36t-49 -25q-28 -11 -58 -14.5t-59 -2.5t-57 2t-57 5q-10 2 -20 3.5t-20 4.5q-5 2 -11 5.5t-9 8.5q-5 9 0 18q4 5 10.5 7t12.5 3h26l20 -2l20 -2q-5 10 -5 19q0 14 2.5 28t2.5 28q1 47 3.5 92.5t6.5 92.5q-6 -2 -11 -2q-10 1 -19.5 4t-19.5 4
q-9 1 -18.5 -2t-16.5 3q-8 7 -8.5 19t3.5 21q4 6 8 6q2 0 5 -1.5t4 0.5t6 0l2 -2l2 -2q7 -4 15 -2q6 2 12.5 4t13.5 2q6 1 11.5 0.5t11.5 -0.5q-1 18 -2.5 36t-0.5 36q1 23 5 44.5t6 44.5q1 14 -0.5 29.5t0.5 29.5q1 8 2.5 21t6.5 21l-17 1l-26 2t-26 3q-10 1 -20.5 6.5
t-12.5 14.5q-2 10 6 16q9 5 19 6.5t20 1.5q8 1 15.5 0.5t15.5 -0.5q16 -1 31.5 -2t30.5 -3q25 -2 49.5 -2.5t48.5 -2.5q48 -5 92 -31.5t69 -65.5q19 -29 31 -61t17 -65q5 -32 5.5 -64.5t-3.5 -64.5z" />
    <glyph glyph-name="Ntilde" unicode="&#xd1;" horiz-adv-x="492" 
d="M339 717q-3 -5 -7.5 -8.5t-9.5 -6.5q-6 -3 -11.5 -6.5t-11.5 -6.5q-10 -5 -20.5 -7.5t-21.5 -0.5q-22 2 -39 14q-8 5 -14 11t-14 10q-5 2 -9.5 0.5t-9.5 0.5q-4 2 -8.5 3t-9.5 -1q-6 -3 -11.5 -9t-12.5 -4q-10 3 -18.5 10.5t-9.5 17.5q-1 5 3.5 7.5t7.5 6.5q0 1 1 1
q1 1 1.5 1t1.5 1q2 1 3.5 0.5t3.5 -0.5q8 0 15 5q8 6 17 10t19 4t19.5 -5.5t18.5 -11.5t18 -10.5t19 -4.5q3 0 6 -4t5 -2q4 5 11 4t13 1q7 2 12 7.5t13 5.5q5 0 8.5 -2.5t7.5 -5.5l5 -3l4 -4q4 -3 5.5 -8t-0.5 -10zM492 -8q-8 -9 -20 -11.5t-23 -2.5q-16 -1 -32 -0.5
t-33 1.5q-20 45 -42.5 88t-43.5 88q-20 41 -38 81.5t-39 80.5q-14 26 -30 50.5t-30 50.5q-8 17 -15 34l-14 34q1 -3 1 -5.5t1 -4.5q8 -44 8.5 -88t3.5 -89q2 -20 6 -39t5 -39q0 -8 -2 -14.5t-3 -14.5q0 -9 3.5 -17.5t4.5 -16.5q2 -17 0 -35t-3 -35v-25t1 -24v-16t-2 -16
q4 3 6 0t5 -4q4 -1 6.5 3.5t6.5 4.5q5 0 8.5 -2.5t8.5 -2.5q5 -1 10.5 -1t10.5 -2t5.5 -7.5t1.5 -10.5v-13.5t-3 -12.5q-2 -5 -8.5 -3t-11.5 1q-14 -2 -28.5 -2t-28.5 1q-9 0 -17 -5t-16 -6q-7 0 -13 2.5t-13 2.5q-5 0 -10.5 -2.5t-10.5 0.5t-6.5 10t-2.5 13q0 5 -0.5 10
t1.5 10q1 3 5 2.5t5 1.5q2 2 4 0l2 -2l1 -1q2 -2 4 -2h3q4 0 7.5 2.5t7.5 4.5q5 2 11 2h11q-7 9 -9 23q-1 14 0 28.5t0 29.5q-4 51 -5 100.5t-2 100.5q0 29 -5.5 58t-7.5 58q-2 23 0.5 45.5t2.5 45.5q-1 15 -3.5 30.5t-2.5 30.5q0 8 1 13q-24 -2 -47 0q-10 1 -20 3t-18 8
q-5 5 -7 13t1 14t10 8.5t13 3.5q12 1 23.5 -0.5t23.5 -1.5q-2 1 1 0.5t5 -0.5q8 0 12 -1q10 -1 19.5 -3.5t19.5 -3.5q14 -31 32 -59t33 -58q20 -41 39.5 -81.5t40.5 -81.5q11 -20 23.5 -38t21.5 -38q6 -12 9 -25.5t10 -24.5q8 -12 16 -22.5t14 -22.5q2 -5 4.5 -10t4.5 -10
q-1 81 0 162q0 29 -5 57.5t-6 57.5q-1 23 2 44.5t3 44.5q0 16 -2.5 31t-2.5 30q1 6 2 16.5t4 18.5q-2 2 -3.5 3t-3.5 2q-4 1 -7 -3t-7 -4q-5 0 -9.5 2.5t-9.5 3.5t-11.5 1t-11.5 2t-5 8t-1 11q-1 7 -0.5 13.5t4.5 12.5q3 5 10 2.5t12 -2.5q32 3 63 0q9 -2 17.5 3.5t17.5 5.5
q8 0 14.5 -3t13.5 -3q6 -1 12.5 2t11.5 0q5 -4 6 -11t2 -13v-10t-2 -10q-2 -3 -6 -2t-5 -2q-1 -1 -2.5 -0.5t-2.5 0.5l-1 2l-2 2q-1 1 -1.5 1t-1.5 1h-4q-5 0 -8.5 -2.5t-8.5 -4.5q-8 -2 -15 -1t-15 1h-2q3 -6 4 -14.5t1 -13.5q1 -3 0.5 -6t-0.5 -6q0 -2 -1 -5t1 -4
q4 0 3 -5t-2 -8q-2 -4 -2 -5q-2 -2 -2 -4q-1 -4 -1 -12q-1 -3 -1 -11q0 -7 1 -11q0 -3 0.5 -5.5t1.5 -5.5q8 -44 7 -87.5t1 -87.5q1 -20 4.5 -38.5t4.5 -38.5q0 -8 -2.5 -14.5t-2.5 -14.5q-1 -9 2.5 -17t4.5 -17q2 -17 -1 -34.5t-4 -34.5v-24t-1 -24q0 -6 0.5 -12.5
t-0.5 -13.5h18t18 -1q8 -1 15.5 -1t13.5 -5t9 -14t-2 -14z" />
    <glyph glyph-name="Ograve" unicode="&#xd2;" horiz-adv-x="394" 
d="M232 671q0 -5 -3.5 -7.5t-7.5 -4.5q-7 -5 -14 -8t-15 -1q-6 1 -7 9.5t-4 13.5q-9 16 -16 32.5t-13 33.5q-4 10 -12.5 17t-13.5 16q-4 8 -4 16t-4 16q-2 7 -7.5 12t-4.5 12q1 10 11 16t20 8q7 2 10 -2q2 -2 2 -5t2 -3q5 0 2 -5q0 -1 -1 -2q0 -1 -0.5 -1t-0.5 -1q0 -3 1 -5
q0 -2 1 -3q2 -5 6.5 -8t7.5 -8q5 -7 8 -15t7 -16q3 -8 7 -15t9 -12l4 -4l4 -4l2 -2q1 -2 -0.5 -5.5t-0.5 -5.5q2 -5 6.5 -6.5t6.5 -5.5q2 -5 2 -11t2 -11q2 -6 5 -12t3 -13zM329 260q1 4 0.5 16t-2 26t-2.5 26.5t-2 15.5q-4 19 -7.5 38t-8.5 38q-9 29 -22.5 57.5t-34.5 51.5
q-12 13 -29 23t-36 9q-15 0 -28 -8t-24.5 -19.5t-20.5 -25.5t-16 -28q-21 -42 -29 -89.5t-6 -95.5q2 -50 16 -98.5t42 -90.5q8 -12 17.5 -23.5t20.5 -21.5t23.5 -16.5t26.5 -6.5q19 -1 36.5 10.5t29.5 27.5q20 25 29.5 56t15.5 63q4 16 6 32t5 33zM374 242q-1 -14 -3 -27
l-4 -26q0 2 0 -1.5t-1 -5.5l-2 -10t-3 -10q-4 -14 -10.5 -27.5t-13.5 -27.5q-12 -25 -26.5 -49t-35.5 -42q-14 -12 -31.5 -19.5t-35.5 -8.5t-35 5t-33 15.5t-29.5 23t-23.5 27.5q-35 51 -51 112t-19 122q-1 29 -0.5 59.5t5 60t14 57.5t25.5 52l24 36t28 32q14 12 33 19.5
t38 7.5q25 1 48.5 -10.5t41.5 -28.5q31 -30 50.5 -69.5t31.5 -81.5q5 -18 8 -36t5 -37q1 -9 0 -30t1 -36t4 -25t0 -21z" />
    <glyph glyph-name="Oacute" unicode="&#xd3;" horiz-adv-x="394" 
d="M283 840q1 -7 -5 -12t-8 -12q-3 -8 -3.5 -16t-4.5 -16q-5 -10 -13.5 -16.5t-11.5 -16.5q-6 -17 -13.5 -33.5t-15.5 -32.5q-4 -5 -4.5 -13.5t-7.5 -9.5q-7 -2 -14.5 1t-13.5 7q-4 2 -8 5t-3 8q0 7 3 13t5 12q2 5 1.5 11t1.5 11q2 4 7 5.5t6 5.5q1 3 -0.5 6.5t0.5 5.5
q0 1 0.5 1t0.5 1q2 2 4.5 3.5t4.5 3.5q5 6 8.5 13t6.5 14q4 8 7 16.5t8 15.5q4 5 8.5 7.5t6.5 7.5q0 2 0.5 2.5t0.5 1.5v5q-1 1 -1 2t-0.5 1t-0.5 1q0 3 2 5q2 0 2 3t2 5q3 3 10 1q10 -2 20.5 -7.5t11.5 -15.5zM329 260q1 4 0.5 16t-2 26t-2.5 26.5t-2 15.5q-4 19 -7.5 38
t-8.5 38q-9 29 -22.5 57.5t-34.5 51.5q-12 13 -29 23t-36 9q-15 0 -28 -8t-24.5 -19.5t-20.5 -25.5t-16 -28q-21 -42 -29 -89.5t-6 -95.5q2 -50 16 -98.5t42 -90.5q8 -12 17.5 -23.5t20.5 -21.5t23.5 -16.5t26.5 -6.5q19 -1 36.5 10.5t29.5 27.5q20 25 29.5 56t15.5 63
q4 16 6 32t5 33zM374 242q-1 -14 -3 -27l-4 -26q0 2 0 -1.5t-1 -5.5l-2 -10t-3 -10q-4 -14 -10.5 -27.5t-13.5 -27.5q-12 -25 -26.5 -49t-35.5 -42q-14 -12 -31.5 -19.5t-35.5 -8.5t-35 5t-33 15.5t-29.5 23t-23.5 27.5q-35 51 -51 112t-19 122q-1 29 -0.5 59.5t5 60
t14 57.5t25.5 52l24 36t28 32q14 12 33 19.5t38 7.5q25 1 48.5 -10.5t41.5 -28.5q31 -30 50.5 -69.5t31.5 -81.5q5 -18 8 -36t5 -37q1 -9 0 -30t1 -36t4 -25t0 -21z" />
    <glyph glyph-name="Ocircumflex" unicode="&#xd4;" horiz-adv-x="394" 
d="M286 704q6 -10 -1.5 -22.5t-17.5 -17.5q-3 -2 -6 0.5t-7 4.5v-1l-2 3q-2 1 -1.5 2.5t-0.5 3.5q-3 8 -13 10q-12 3 -21 9q-8 6 -15.5 13t-15.5 12q-7 -5 -11 -12t-11 -12q-2 -1 -4.5 0.5t-4.5 0.5q-4 -2 -5 -6.5t-4 -7.5q-4 -5 -10 -5t-11 -2q-7 -4 -13.5 -9t-13.5 -3
q-5 1 -8 4.5t-5 7.5q-3 4 -6 8.5t-4 9.5q-1 9 10 14.5t19 11.5q20 15 41 28l42 26q9 -6 19.5 -9t19.5 -9q10 -7 16.5 -16t15.5 -17q7 -6 16 -9t13 -11zM329 260q1 4 0.5 16t-2 26t-2.5 26.5t-2 15.5q-4 19 -7.5 38t-8.5 38q-9 29 -22.5 57.5t-34.5 51.5q-12 13 -29 23t-36 9
q-15 0 -28 -8t-24.5 -19.5t-20.5 -25.5t-16 -28q-21 -42 -29 -89.5t-6 -95.5q2 -50 16 -98.5t42 -90.5q8 -12 17.5 -23.5t20.5 -21.5t23.5 -16.5t26.5 -6.5q19 -1 36.5 10.5t29.5 27.5q20 25 29.5 56t15.5 63q4 16 6 32t5 33zM374 242q-1 -14 -3 -27l-4 -26q0 2 0 -1.5
t-1 -5.5l-2 -10t-3 -10q-4 -14 -10.5 -27.5t-13.5 -27.5q-12 -25 -26.5 -49t-35.5 -42q-14 -12 -31.5 -19.5t-35.5 -8.5t-35 5t-33 15.5t-29.5 23t-23.5 27.5q-35 51 -51 112t-19 122q-1 29 -0.5 59.5t5 60t14 57.5t25.5 52l24 36t28 32q14 12 33 19.5t38 7.5
q25 1 48.5 -10.5t41.5 -28.5q31 -30 50.5 -69.5t31.5 -81.5q5 -18 8 -36t5 -37q1 -9 0 -30t1 -36t4 -25t0 -21z" />
    <glyph glyph-name="Otilde" unicode="&#xd5;" horiz-adv-x="394" 
d="M321 260q1 4 0.5 16t-2 26t-2.5 26.5t-2 15.5q-4 19 -7.5 38t-8.5 38q-9 29 -22.5 57.5t-34.5 51.5q-12 13 -29 23t-36 9q-15 0 -28 -8t-24.5 -19.5t-20.5 -25.5t-16 -28q-21 -42 -29 -89.5t-6 -95.5q2 -50 16 -98.5t42 -90.5q8 -12 17.5 -23.5t20.5 -21.5t23.5 -16.5
t26.5 -6.5q19 -1 36.5 10.5t29.5 27.5q20 25 29.5 56t15.5 63q4 16 6 32t5 33zM366 242q-1 -14 -3 -27l-4 -26q0 2 0 -1.5t-1 -5.5l-2 -10t-3 -10q-4 -14 -10.5 -27.5t-13.5 -27.5q-12 -25 -26.5 -49t-35.5 -42q-14 -12 -31.5 -19.5t-35.5 -8.5t-35 5t-33 15.5t-29.5 23
t-23.5 27.5q-35 51 -51 112t-19 122q-1 29 -0.5 59.5t5 60t14 57.5t25.5 52l24 36t28 32q14 12 33 19.5t38 7.5q25 1 48.5 -10.5t41.5 -28.5q31 -30 50.5 -69.5t31.5 -81.5q5 -18 8 -36t5 -37q1 -9 0 -30t1 -36t4 -25t0 -21zM309 717q-2 -5 -7 -8.5t-10 -6.5
q-6 -3 -11.5 -6.5t-11.5 -6.5q-10 -5 -20.5 -7.5t-21.5 -0.5q-22 2 -39 14q-8 5 -14 11t-14 10q-4 2 -9 0.5t-10 0.5q-4 2 -8.5 3t-8.5 -1q-7 -3 -12.5 -9t-12.5 -4q-10 3 -18.5 10.5t-9.5 17.5q-1 5 3.5 7.5t7.5 6.5q0 1 1 1q1 1 1.5 1t1.5 1q2 1 3.5 0.5t3.5 -0.5
q8 0 15 5q8 6 17 10t19 4t19.5 -5.5t18.5 -11.5t18 -10.5t19 -4.5q3 0 6 -4t5 -2q4 5 11 4t13 1q7 2 12.5 7.5t12.5 5.5q5 0 8.5 -2.5t7.5 -5.5l5 -3l4 -4q4 -3 5.5 -8t-0.5 -10z" />
    <glyph glyph-name="Odieresis" unicode="&#xd6;" horiz-adv-x="394" 
d="M174 692q-5 -5 -8 -11.5t-8 -11.5q-4 -4 -9.5 -3.5t-10.5 2.5q-13 5 -26.5 13t-13.5 22q2 13 14.5 23.5t26.5 10.5q6 0 12.5 -1t11.5 -6q4 -5 5 -11t5 -11q2 -2 2.5 -8t-1.5 -8zM274 692q-5 -5 -8 -11.5t-8 -11.5q-4 -4 -9.5 -3.5t-10.5 2.5q-13 5 -26.5 13t-13.5 22
q2 13 14.5 23.5t26.5 10.5q6 0 12.5 -1t11.5 -6q4 -5 5 -11t5 -11q2 -2 2.5 -8t-1.5 -8zM329 260q1 4 0.5 16t-2 26t-2.5 26.5t-2 15.5q-4 19 -7.5 38t-8.5 38q-9 29 -22.5 57.5t-34.5 51.5q-12 13 -29 23t-36 9q-15 0 -28 -8t-24.5 -19.5t-20.5 -25.5t-16 -28
q-21 -42 -29 -89.5t-6 -95.5q2 -50 16 -98.5t42 -90.5q8 -12 17.5 -23.5t20.5 -21.5t23.5 -16.5t26.5 -6.5q19 -1 36.5 10.5t29.5 27.5q20 25 29.5 56t15.5 63q4 16 6 32t5 33zM374 242q-1 -14 -3 -27l-4 -26q0 2 0 -1.5t-1 -5.5l-2 -10t-3 -10q-4 -14 -10.5 -27.5
t-13.5 -27.5q-12 -25 -26.5 -49t-35.5 -42q-14 -12 -31.5 -19.5t-35.5 -8.5t-35 5t-33 15.5t-29.5 23t-23.5 27.5q-35 51 -51 112t-19 122q-1 29 -0.5 59.5t5 60t14 57.5t25.5 52l24 36t28 32q14 12 33 19.5t38 7.5q25 1 48.5 -10.5t41.5 -28.5q31 -30 50.5 -69.5
t31.5 -81.5q5 -18 8 -36t5 -37q1 -9 0 -30t1 -36t4 -25t0 -21z" />
    <glyph glyph-name="multiply" unicode="&#xd7;" horiz-adv-x="242" 
d="M214 311q0 -1 -0.5 -1.5t-0.5 -1.5q-3 -7 -10 -10.5t-12 -8.5q-10 -11 -20.5 -20.5t-21.5 -19.5q7 -3 14 -10q8 -7 12 -15.5t11 -16.5q6 -6 15 -11t10 -14q2 -10 -6 -19t-18 -13q-5 -2 -10 2q-2 2 -3 4.5t-3 1.5q-2 0 -2.5 1.5t-1.5 2.5v3v3l-4 6t-5 5q-6 4 -12.5 6.5
t-11.5 7.5q-11 9 -20 20q-4 -6 -7.5 -12t-8.5 -11q-8 -7 -16.5 -11t-16.5 -11q-7 -5 -12 -14t-14 -10q-10 -1 -18.5 7.5t-12.5 17.5q-2 7 2 10q2 2 4.5 3t1.5 3q0 2 5 4h2h3q6 1 12 9q4 5 6.5 11.5t7.5 11.5q13 13 26 23q-3 2 -9 4l-2 2q-2 2 -2.5 6t-2.5 6q-3 5 -9 5t-10 4
q-5 5 -7 11t-6 11q-5 6 -11 11.5t-10 13.5q-2 4 0.5 8.5t5.5 7.5q3 5 7.5 9.5t9.5 6.5q3 1 7 1h3q7 -3 11 -9.5t9 -11.5q24 -23 47 -47v1l2 2q2 2 6 2.5t7 2.5q4 3 4.5 9t4.5 10q5 4 11 6t11 6q7 5 12.5 11t13.5 9q4 2 8.5 -0.5t7.5 -5.5q5 -4 9 -8.5t6 -9.5q1 -2 1 -3.5
t1 -3.5z" />
    <glyph glyph-name="Oslash" unicode="&#xd8;" horiz-adv-x="394" 
d="M232 539q-12 10 -26 16.5t-29 5.5q-15 0 -28 -8t-24.5 -19.5t-20.5 -25.5t-16 -28q-21 -42 -29 -89.5t-6 -95.5q2 -50 16 -99t42 -90l3 -4q13 52 27.5 102t29.5 101q10 32 13.5 66t12.5 66q7 26 16.5 49.5t16.5 48.5zM321 260q1 4 0.5 16t-2 26t-2.5 26.5t-2 15.5
q-4 19 -7.5 38t-8.5 38q-6 20 -14 40t-19 37q-7 -48 -21 -94.5t-26 -94.5q-5 -22 -7.5 -45t-8.5 -44q-2 -8 -6.5 -15.5t-7.5 -15.5q-3 -10 -2.5 -20t-1.5 -20q-4 -20 -12 -38t-15 -38q-1 -4 -2 -7.5t-2 -7.5q10 -8 21 -13.5t24 -5.5q19 -1 36.5 10.5t29.5 27.5
q20 25 29.5 56t15.5 63q4 16 6 32t5 33zM366 242q-1 -14 -3 -27l-4 -26q0 2 0 -1.5t-1 -5.5l-2 -10t-3 -10q-4 -14 -10.5 -27.5t-13.5 -27.5q-12 -25 -26.5 -49t-35.5 -42q-14 -12 -31.5 -19.5t-35.5 -8.5q-16 -1 -31.5 4t-30.5 13q-3 -13 -9 -23q-5 -7 -14 -6.5t-16 3.5
q-8 5 -9.5 17.5t0.5 22.5q1 9 5 20q-5 5 -8.5 10t-7.5 10q-35 51 -51 112t-19 122q-1 29 -0.5 59.5t5 60t14 57.5t25.5 52l24 36t28 32q14 12 33 19.5t38 7.5q17 1 34.5 -5t32.5 -16q2 6 3 8q3 11 8.5 21.5t14.5 12.5q15 5 27 -8q4 -5 4 -12.5t-2 -14.5q-1 -3 -2 -6.5
t-2 -6.5q-1 -2 -3 -5.5t0 -4.5q4 -2 1 -7t-5 -8q-1 -2 -1.5 -2.5t-1.5 -2.5l-1 -1q23 -29 39 -63t26 -69q5 -18 8 -36t5 -37q1 -9 0 -30t1 -36t4 -25t0 -21z" />
    <glyph glyph-name="Ugrave" unicode="&#xd9;" horiz-adv-x="410" 
d="M235 650q0 -5 -4 -8t-7 -5q-7 -4 -14 -7t-15 -1q-7 1 -7.5 9.5t-3.5 13.5q-9 16 -16 32.5t-13 33.5q-4 10 -12.5 16.5t-13.5 16.5q-4 8 -4.5 16t-3.5 16q-2 7 -7.5 12t-5.5 12q2 10 12 15.5t20 7.5q2 1 5 1t5 -2t2 -5t2 -3t2 -5q0 -1 -1 -2q0 -1 -0.5 -1t-0.5 -1v-5
q1 -1 1 -4q2 -5 7 -7.5t8 -7.5q5 -7 8 -15.5t7 -16.5q3 -7 7 -14t9 -13q2 -2 4 -3.5t4 -3.5l2 -2q1 -2 -0.5 -5.5t-0.5 -6.5q1 -4 6 -5.5t7 -5.5q2 -5 2 -11t2 -11q2 -6 4.5 -12t3.5 -13zM390 537q0 -5 -0.5 -10t-2.5 -10q-1 -2 -4.5 -1.5t-4.5 -1.5q-1 -1 -2.5 0t-2.5 2
q0 1 -0.5 1t-0.5 1q-1 1 -1.5 1t-1.5 1h-3q-4 1 -7 -1.5t-7 -4.5q-8 -2 -16 0q2 -8 3 -15.5t1 -15.5q1 -17 0.5 -34t-0.5 -34q-2 -42 -2 -83.5v-83.5q0 -55 -9 -111.5t-40 -102.5q-17 -25 -47 -41t-60 -15t-57.5 18.5t-44.5 42.5q-30 46 -39.5 102.5t-6.5 111.5
q3 51 3.5 100.5t2.5 100.5q0 16 1 31.5t3 30.5q1 7 1.5 17t2.5 19l-1 -1q-1 -1 -2 -1q-2 0 -4.5 3.5t-4.5 1.5q-2 -1 -3.5 -3t-3.5 -3q-5 -2 -9 1t-9 4t-10 1t-10 2t-5 8v11q-2 16 3 26q2 5 8 2.5t11 -1.5q13 2 26 1.5t26 -2.5q8 -1 15 4t15 5q6 1 11.5 -2t11.5 -4
q5 0 10.5 2.5t9.5 -0.5q5 -4 5.5 -10.5t1.5 -12.5v-10.5t-2 -10.5q-1 -2 -4.5 -1.5t-4.5 -1.5t-2.5 -1t-2.5 3l-1 1q-2 2 -3 2q-1 1 -3 1q-4 0 -7 -2.5t-7 -4.5q-8 -3 -17 -1q2 -6 3 -12t1 -10q1 -6 1 -11.5v-10.5q0 -11 -1 -21.5t-1 -21.5q0 2 0.5 -0.5t-0.5 -4.5v-16
q-2 -12 -4.5 -24t-3.5 -24q-2 -38 0 -74.5t3 -74.5q2 -41 4.5 -82.5t16.5 -79.5q6 -16 14.5 -30.5t22.5 -24.5q18 -15 40 -13q14 0 27.5 5t22.5 15q11 11 17 26t13 29q6 13 11.5 25t6.5 26q2 25 2 50v50q0 32 3 62.5t4 62.5q1 23 1.5 46.5t1.5 47.5v20t2 20q-3 1 -5 4t-4 2
q-2 -2 -3.5 -4t-3.5 -3q-5 -2 -9 1.5t-9 4.5q-5 2 -10 2t-10 2q-4 3 -4 9v11q-1 6 0 13t4 12q2 5 8 2.5t11 -2.5q25 1 52 -3q8 -1 15 3.5t15 4.5q6 0 11.5 -3t11.5 -4q5 -1 10.5 1.5t9.5 -0.5q5 -4 5 -11t1 -13z" />
    <glyph glyph-name="Uacute" unicode="&#xda;" horiz-adv-x="394" 
d="M283 840q1 -7 -5 -12.5t-8 -11.5q-3 -8 -3.5 -16t-4.5 -16q-5 -10 -13.5 -17t-11.5 -17q-11 -32 -29 -65q-4 -6 -4.5 -14t-7.5 -10q-7 -1 -14.5 2t-13.5 7q-4 2 -8 5t-3 7q0 7 3 13t5 13q2 5 1.5 10.5t1.5 10.5t7 6t6 6q1 3 -0.5 6t0.5 6l1 1q2 2 4.5 4t4.5 4q5 6 8.5 13
t6.5 14q4 8 7 16.5t8 15.5q4 4 8.5 7t6.5 8q0 1 0.5 1.5t0.5 2.5v4l-1 2q0 1 -0.5 1.5t-0.5 1.5q0 4 2 4q2 1 2 3.5t2 4.5q3 4 10 2q10 -2 20.5 -7.5t11.5 -15.5zM329 260q1 4 0.5 16t-2 26t-2.5 26.5t-2 15.5q-4 19 -7.5 38t-8.5 38q-9 29 -22.5 57.5t-34.5 51.5
q-12 13 -29 23t-36 9q-15 0 -28 -8t-24.5 -19.5t-20.5 -25.5t-16 -28q-21 -42 -29 -89.5t-6 -95.5q2 -50 16 -98.5t42 -90.5q8 -12 17.5 -23.5t20.5 -21.5t23.5 -16.5t26.5 -6.5q19 -1 36.5 10.5t29.5 27.5q20 25 29.5 56t15.5 63q4 16 6 32t5 33zM374 242q-1 -14 -3 -27
l-4 -26q0 2 0 -1.5t-1 -5.5l-2 -10t-3 -10q-4 -14 -10.5 -27.5t-13.5 -27.5q-12 -25 -26.5 -49t-35.5 -42q-14 -12 -31.5 -19.5t-35.5 -8.5t-35 5t-33 15.5t-29.5 23t-23.5 27.5q-35 51 -51 112t-19 122q-1 29 -0.5 59.5t5 60t14 57.5t25.5 52l24 36t28 32q14 12 33 19.5
t38 7.5q25 1 48.5 -10.5t41.5 -28.5q31 -30 50.5 -69.5t31.5 -81.5q5 -18 8 -36t5 -37q1 -9 0 -30t1 -36t4 -25t0 -21z" />
    <glyph glyph-name="Ucircumflex" unicode="&#xdb;" horiz-adv-x="410" 
d="M300 698q6 -10 -1.5 -22.5t-17.5 -17.5q-3 -1 -6 1.5t-7 4.5v-2v1l-2 2t-1.5 3.5t-0.5 3.5q-5 8 -13 10q-12 2 -21 9q-8 5 -15.5 12t-15.5 12q-7 -5 -11 -12t-11 -11q-2 -2 -4.5 0t-4.5 0q-4 -2 -5 -6t-4 -7q-4 -5 -10 -5.5t-11 -2.5q-7 -3 -13.5 -8.5t-13.5 -3.5
q-5 2 -8 5.5t-5 6.5q-3 5 -6 9t-4 9q-1 10 10 15.5t19 11.5q20 15 41 27.5t42 25.5q9 -6 19.5 -8.5t19.5 -9.5q10 -6 16.5 -15.5t15.5 -16.5q7 -6 16 -9.5t13 -11.5zM390 537q0 -5 -0.5 -10t-2.5 -10q-1 -2 -4.5 -1.5t-4.5 -1.5q-1 -1 -2.5 0t-2.5 2q0 1 -0.5 1t-0.5 1
q-1 1 -1.5 1t-1.5 1h-3q-4 1 -7 -1.5t-7 -4.5q-8 -2 -16 0q2 -8 3 -15.5t1 -15.5q1 -17 0.5 -34t-0.5 -34q-2 -42 -2 -83.5v-83.5q0 -55 -9 -111.5t-40 -102.5q-17 -25 -47 -41t-60 -15t-57.5 18.5t-44.5 42.5q-30 46 -39.5 102.5t-6.5 111.5q3 51 3.5 100.5t2.5 100.5
q0 16 1 31.5t3 30.5q1 7 1.5 17t2.5 19l-1 -1q-1 -1 -2 -1q-2 0 -4.5 3.5t-4.5 1.5q-2 -1 -3.5 -3t-3.5 -3q-5 -2 -9 1t-9 4t-10 1t-10 2t-5 8v11q-2 16 3 26q2 5 8 2.5t11 -1.5q13 2 26 1.5t26 -2.5q8 -1 15 4t15 5q6 1 11.5 -2t11.5 -4q5 0 10.5 2.5t9.5 -0.5
q5 -4 5.5 -10.5t1.5 -12.5v-10.5t-2 -10.5q-1 -2 -4.5 -1.5t-4.5 -1.5t-2.5 -1t-2.5 3l-1 1q-2 2 -3 2q-1 1 -3 1q-4 0 -7 -2.5t-7 -4.5q-8 -3 -17 -1q2 -6 3 -12t1 -10q1 -6 1 -11.5v-10.5q0 -11 -1 -21.5t-1 -21.5q0 2 0.5 -0.5t-0.5 -4.5v-16q-2 -12 -4.5 -24t-3.5 -24
q-2 -38 0 -74.5t3 -74.5q2 -41 4.5 -82.5t16.5 -79.5q6 -16 14.5 -30.5t22.5 -24.5q18 -15 40 -13q14 0 27.5 5t22.5 15q11 11 17 26t13 29q6 13 11.5 25t6.5 26q2 25 2 50v50q0 32 3 62.5t4 62.5q1 23 1.5 46.5t1.5 47.5v20t2 20q-3 1 -5 4t-4 2q-2 -2 -3.5 -4t-3.5 -3
q-5 -2 -9 1.5t-9 4.5q-5 2 -10 2t-10 2q-4 3 -4 9v11q-1 6 0 13t4 12q2 5 8 2.5t11 -2.5q25 1 52 -3q8 -1 15 3.5t15 4.5q6 0 11.5 -3t11.5 -4q5 -1 10.5 1.5t9.5 -0.5q5 -4 5 -11t1 -13z" />
    <glyph glyph-name="Udieresis" unicode="&#xdc;" horiz-adv-x="410" 
d="M184 692q-5 -5 -8 -11.5t-8 -11.5q-4 -4 -9.5 -3.5t-10.5 2.5q-13 5 -26.5 13t-13.5 22q2 13 14.5 23.5t26.5 10.5q6 0 12.5 -1t11.5 -6q4 -5 5 -11t5 -11q2 -2 2.5 -8t-1.5 -8zM284 692q-5 -5 -8 -11.5t-8 -11.5q-4 -4 -9.5 -3.5t-10.5 2.5q-13 5 -26.5 13t-13.5 22
q2 13 14.5 23.5t26.5 10.5q6 0 12.5 -1t11.5 -6q4 -5 5 -11t5 -11q2 -2 2.5 -8t-1.5 -8zM390 537q0 -5 -0.5 -10t-2.5 -10q-1 -2 -4.5 -1.5t-4.5 -1.5q-1 -1 -2.5 0t-2.5 2q0 1 -0.5 1t-0.5 1q-1 1 -1.5 1t-1.5 1h-3q-4 1 -7 -1.5t-7 -4.5q-8 -2 -16 0q2 -8 3 -15.5t1 -15.5
q1 -17 0.5 -34t-0.5 -34q-2 -42 -2 -83.5v-83.5q0 -55 -9 -111.5t-40 -102.5q-17 -25 -47 -41t-60 -15t-57.5 18.5t-44.5 42.5q-30 46 -39.5 102.5t-6.5 111.5q3 51 3.5 100.5t2.5 100.5q0 16 1 31.5t3 30.5q1 7 1.5 17t2.5 19l-1 -1q-1 -1 -2 -1q-2 0 -4.5 3.5t-4.5 1.5
q-2 -1 -3.5 -3t-3.5 -3q-5 -2 -9 1t-9 4t-10 1t-10 2t-5 8v11q-2 16 3 26q2 5 8 2.5t11 -1.5q13 2 26 1.5t26 -2.5q8 -1 15 4t15 5q6 1 11.5 -2t11.5 -4q5 0 10.5 2.5t9.5 -0.5q5 -4 5.5 -10.5t1.5 -12.5v-10.5t-2 -10.5q-1 -2 -4.5 -1.5t-4.5 -1.5t-2.5 -1t-2.5 3l-1 1
q-2 2 -3 2q-1 1 -3 1q-4 0 -7 -2.5t-7 -4.5q-8 -3 -17 -1q2 -6 3 -12t1 -10q1 -6 1 -11.5v-10.5q0 -11 -1 -21.5t-1 -21.5q0 2 0.5 -0.5t-0.5 -4.5v-16q-2 -12 -4.5 -24t-3.5 -24q-2 -38 0 -74.5t3 -74.5q2 -41 4.5 -82.5t16.5 -79.5q6 -16 14.5 -30.5t22.5 -24.5
q18 -15 40 -13q14 0 27.5 5t22.5 15q11 11 17 26t13 29q6 13 11.5 25t6.5 26q2 25 2 50v50q0 32 3 62.5t4 62.5q1 23 1.5 46.5t1.5 47.5v20t2 20q-3 1 -5 4t-4 2q-2 -2 -3.5 -4t-3.5 -3q-5 -2 -9 1.5t-9 4.5q-5 2 -10 2t-10 2q-4 3 -4 9v11q-1 6 0 13t4 12q2 5 8 2.5
t11 -2.5q25 1 52 -3q8 -1 15 3.5t15 4.5q6 0 11.5 -3t11.5 -4q5 -1 10.5 1.5t9.5 -0.5q5 -4 5 -11t1 -13z" />
    <glyph glyph-name="Yacute" unicode="&#xdd;" horiz-adv-x="370" 
d="M294 777q1 -7 -4.5 -12.5t-8.5 -11.5q-3 -8 -3 -16t-4 -16q-5 -10 -13.5 -16.5t-12.5 -17.5q-6 -17 -13 -33t-16 -32q-3 -5 -4 -13.5t-7 -9.5q-8 -2 -15 1t-14 7q-4 2 -7.5 5t-3.5 7q0 7 3 13t5 13q2 5 2 11t2 11q2 4 6.5 5.5t6.5 5.5q1 3 -0.5 6t-0.5 6l2 2q2 2 4 3.5
t4 3.5q5 6 9 13t7 14q4 8 7 16.5t8 15.5q3 5 7.5 7.5t6.5 7.5q1 1 1 4q1 2 1 5q-1 1 -1 2q-1 0 -1 2q-2 4 2 4q2 1 2 4t2 5q3 3 10 1q10 -2 20 -7.5t11 -15.5zM480 612q0 -7 -0.5 -14t-3.5 -12t-10 -2t-13 2q-22 -1 -50 2q3 -9 1 -20q-1 -6 -3 -11.5t-4 -11.5
q-8 -19 -18 -37t-19 -38q-19 -38 -35.5 -77t-34.5 -77q-15 -32 -31 -62.5t-31 -62.5q2 -2 0 -4l-2 -2h-1l-3 -7v-2q0 -5 2.5 -9.5t3.5 -9.5q2 -8 1 -16.5t-1 -16.5v-15.5t3 -14.5q1 -2 2 -5t2 -5v-2q0 -3 -2 -5t-3 -5q-2 -4 2.5 -7.5t4.5 -7.5q-1 -5 -3.5 -10t-3.5 -10
q-1 -7 -1 -13.5t-3 -12.5q2 1 2.5 1t2.5 1h2q2 0 4.5 -2.5t5.5 -3.5q4 -1 7.5 3t8.5 4q5 -1 10 -3.5t10 -3.5q7 -2 13.5 -2t12.5 -3q5 -2 5.5 -8t0.5 -11q0 -7 -1 -14t-5 -12t-11.5 -2t-13.5 3q-18 -1 -35.5 0.5t-35.5 3.5q-10 2 -20 -2.5t-21 -4.5q-8 1 -15.5 4t-15.5 4
q-7 1 -14 -1.5t-13 1.5q-5 3 -6 10t-1 14q0 5 0.5 10t2.5 10q3 3 7 3q2 0 3.5 -1t2.5 1q2 2 5 -1l2 -2q0 -1 1 -1q2 -2 4 -2q1 -1 4 -1q5 -1 10 1.5t10 4.5q8 1 16 0l16 -2l-6 3q-5 4 -2 11.5t2 13.5q-1 34 3 68q1 10 -4 19.5t-5 19.5q0 8 3.5 15.5t3.5 15.5q1 7 -1.5 13.5
t0.5 12.5q-6 11 -12.5 21.5t-11.5 21.5q-14 29 -24.5 59t-22.5 59q-8 18 -17 35.5t-18 35.5q-7 13 -13 27t-11 28q-2 7 -7.5 20t-5.5 24q-4 -2 -7 -3t-7 -1q-8 1 -14 4t-14 4q-6 0 -12 -2.5t-11 1.5t-6 10.5t-1 12.5v10.5t3 10.5q1 2 5 1t6 2h4l2 -2q0 -2 1 -2q2 -2 3 -2
t2 -0.5t2 -0.5q5 0 8.5 2.5t8.5 3.5q8 2 15 1t15 -1q7 -1 14 -0.5t13 2.5q2 1 4.5 2t4.5 2q1 0 1 0.5t1 0.5q2 -1 4 -3t5 -3q4 -1 7 3t7 4q5 -1 9 -3.5t9 -3.5t11.5 -1t11.5 -3q4 -2 4.5 -8t0.5 -11q0 -7 -0.5 -14t-4.5 -12q-3 -5 -10 -2t-12 2q-11 -1 -21.5 -0.5t-21.5 1.5
q4 -5 7 -10t5 -8q3 -6 5 -12t5 -11q0 2 1.5 -1l2.5 -5q2 -5 2.5 -9t1.5 -9q2 -14 8.5 -27.5t14.5 -25.5q25 -37 42.5 -78t35.5 -81q9 18 16.5 36.5t15.5 37.5q4 11 7 23t8 23q3 6 8 11t8 10q5 8 6 16t3 16q7 26 22.5 48.5t27.5 46.5q10 22 22 44q2 4 3.5 7.5t3.5 7.5
q-2 -1 -4 -1q-7 0 -13.5 3.5t-14.5 4.5q-5 0 -11.5 -2.5t-11.5 1.5q-5 3 -5.5 10t-1.5 13q0 5 0.5 10.5t2.5 10.5q2 2 5.5 1t5.5 2q2 2 4 -1q1 0 1 -0.5t1 -0.5l1 -2q2 -2 4 -2q1 -1 3 -1q5 0 8.5 2.5t8.5 3.5q8 2 15.5 1t15.5 -1q16 -2 26 2q3 1 5 2t5 2q1 1 1 0q3 0 5 -2
t4 -3q4 -2 7 2.5t7 3.5q5 0 9 -2.5t9 -3.5q6 -2 12 -2t11 -2t5 -8v-11z" />
    <glyph glyph-name="Thorn" unicode="&#xde;" horiz-adv-x="439" 
d="M385 423q0 23 -7 46.5t-24 39.5q-11 11 -24.5 16t-27.5 10q-11 4 -21.5 10t-21.5 4q-8 0 -16 -1.5t-16 -3.5q-26 -5 -53 -3t-54 2q2 -6 3 -13.5t2 -11.5v-12q0 -2 -0.5 -5t1.5 -3q3 -1 2.5 -5.5t-1.5 -8.5q-1 -1 -1 -2t-1 -2q0 -2 -0.5 -2.5t-0.5 -2.5q-1 -3 -1 -11
q-2 -5 0 -11q0 -7 1 -10q2 -8 2 -11q9 -38 10.5 -76t4.5 -76q10 2 15 2q9 0 18 -0.5t18 0.5q-2 1 2.5 1h6.5h8.5t8.5 -1q15 -4 31 -1t30 9q24 10 46.5 24.5t37.5 35.5q11 16 16.5 35t5.5 38zM431 424q2 -26 -2.5 -52t-18.5 -48q-13 -22 -35.5 -37t-46.5 -25q-29 -11 -59 -18
t-61 -10q-12 -1 -24 -1t-23 2l-15 3q1 -6 2.5 -19t3 -27.5t2.5 -28.5t1 -23v-23.5t1 -23.5q0 -8 0.5 -16.5t-1.5 -16.5l4 2h2q3 0 5.5 -2.5t5.5 -2.5q5 -2 8 2.5t8 3.5q6 0 11.5 -2.5t10.5 -3.5q7 -1 14 -1t14 -2q4 -2 5 -6.5t1 -8.5q1 -6 1 -12t-2 -12q-2 -2 -4 -4.5
t-5 -3.5q-5 -1 -10.5 1t-10.5 1q-17 -1 -34 -1t-34 2q-6 1 -12.5 1.5t-11.5 -1.5q-7 -2 -13 -5t-12 -3q-9 0 -17 3t-17 4q-7 0 -14.5 -2.5t-13.5 0.5q-8 5 -9 17t1 21q2 8 6 9q2 1 5 -0.5t5 0.5q0 3 5 0q0 -1 0.5 -1t0.5 -1l2 -2q1 -1 2 -1t2 -1h4h5q5 2 10.5 4t11.5 3
q8 1 16 0.5t16 -0.5q-4 4 -6 9.5t-3 10.5q-2 14 -0.5 28t-0.5 28q-2 24 -3 35.5t-2 20.5t-1 20.5t-1 35.5q-2 29 -8 56t-8 55q-2 22 0 44t0 44q-1 15 -3.5 29.5t-3.5 29.5v15q0 9 -1 26.5t-3 46.5q-1 21 -2 27.5t-1.5 9.5t-1 9t-0.5 27q0 14 -2.5 28t-2.5 28q0 5 1.5 10.5
t4.5 10.5q-8 -1 -15.5 -2.5t-15.5 -1.5q-6 0 -12 1.5t-11 2.5h-5q-2 0 -4 -1l-4 -2l-1 -2l-2 -2q-3 -3 -5 -1q-1 2 -4 0t-5 -1q-5 0 -7 8q-3 9 -3.5 21t7.5 17q5 5 12.5 3t15.5 -1q8 2 16 5.5t16 5.5q7 1 13 -1.5t13 -3.5q6 -1 12 0l12 2q17 5 33.5 6.5t33.5 2.5q5 1 10.5 3
t10.5 2q3 0 5.5 -2.5l4.5 -4.5q3 -5 3.5 -11.5t0.5 -11.5t-0.5 -9.5t-4.5 -6.5q-6 -4 -13 -4.5t-14 -2.5q-5 -2 -10 -4.5t-11 -3.5q-5 -1 -8.5 2.5t-8.5 2.5q-6 -2 -6.5 -5t-10.5 -1q4 -8 4.5 -16.5t1.5 -16.5q1 -11 1.5 -23t2.5 -23q2 -17 3.5 -22t2.5 -13t0.5 -16.5
t-1.5 -16.5q26 2 51 4t51 4q39 2 80.5 -8t70.5 -38q26 -24 39.5 -59t16.5 -70z" />
    </font>
</defs>
</svg>
